<?xml version="1.0" encoding="utf-8"?>
<!-- Generator: Adobe Illustrator 21.1.0, SVG Export Plug-In . SVG Version: 6.00 Build 0)  -->
<svg version="1.1" id="Layer_1" xmlns="http://www.w3.org/2000/svg" xmlns:xlink="http://www.w3.org/1999/xlink" x="0px" y="0px"
	 viewBox="0 0 2500 2500" style="enable-background:new 0 0 2500 2500;" xml:space="preserve">
<style type="text/css">
	.st0{clip-path:url(#SVGID_2_);fill-opacity:0.1;}
	.st1{fill:#FB8C00;}
</style>
<g>
	<g>
		<defs>
			<circle id="SVGID_1_" cx="1250" cy="1250" r="1250"/>
		</defs>
		<clipPath id="SVGID_2_">
			<use xlink:href="#SVGID_1_"  style="overflow:visible;"/>
		</clipPath>
		<path class="st0" d="M308.3,1878.4c4.8-23.6,27.9-38.8,51.5-34c23.6,4.8,38.8,27.9,34,51.5s-27.9,38.8-51.5,34
			c-17.1-3.5-30.5-16.9-34-34H-76.6v-17.5H308.3z M1704.7,2297.3c4.8-23.6,27.9-38.8,51.5-34c23.6,4.8,38.8,27.9,34,51.5
			c-4.8,23.6-27.9,38.8-51.5,34c-17.1-3.5-30.5-16.9-34-34H639.1v-17.5H1704.7z M2209.1,1895.8c-4.8,23.6-27.9,38.8-51.5,34
			c-23.6-4.8-38.8-27.9-34-51.5c4.8-23.6,27.9-38.8,51.5-34c17.1,3.5,30.5,16.9,34,34h367.4v17.5H2209.1z M2209.1,2035.5
			c-4.8,23.6-27.9,38.8-51.5,34c-23.6-4.8-38.8-27.9-34-51.5c4.8-23.6,27.9-38.8,51.5-34c17.1,3.5,30.5,16.9,34,34h367.4v17.5
			H2209.1z M2263.2,1040.5c4.8-23.6,27.9-38.8,51.5-34s38.8,27.9,34,51.5c-4.8,23.6-27.9,38.8-51.5,34c-17.1-3.5-30.5-16.9-34-34
			h-752.3c-4.8,23.6-27.9,38.8-51.5,34c-23.6-4.8-38.8-27.9-34-51.5c4.8-23.6,27.9-38.8,51.5-34c17.1,3.5,30.5,16.9,34,34H2263.2z
			 M29,621.6c4.8-23.6,27.9-38.8,51.5-34s38.8,27.9,34,51.5c-4.8,23.6-27.9,38.8-51.5,34c-17.1-3.5-30.5-16.9-34-34H-76.6v-17.5
			C-76.6,621.6,29,621.6,29,621.6z M1650.6,918.4c-4.8,23.6-27.9,38.8-51.5,34c-23.6-4.8-38.8-27.9-34-51.5
			c4.8-23.6,27.9-38.8,51.5-34c17.1,3.5,30.5,16.9,34,34h752.3c4.8-23.6,27.9-38.8,51.5-34s38.8,27.9,34,51.5
			c-4.8,23.6-27.9,38.8-51.5,34c-17.1-3.5-30.5-16.9-34-34H1650.6z M2175.1,29c23.6,4.8,38.8,27.9,34,51.5s-27.9,38.8-51.5,34
			c-23.6-4.8-38.8-27.9-34-51.5c3.5-17.1,16.9-30.5,34-34V-76.6h17.5V29z M1616.6,1844.3c23.6,4.8,38.8,27.9,34,51.5
			c-4.8,23.6-27.9,38.8-51.5,34c-23.6-4.8-38.8-27.9-34-51.5c3.5-17.1,16.9-30.5,34-34v-473c-23.6-4.8-38.8-27.9-34-51.5
			c4.8-23.6,27.9-38.8,51.5-34c23.6,4.8,38.8,27.9,34,51.5c-3.5,17.1-16.9,30.5-34,34V1844.3z M2035.5,114.6v507.1h541.1v17.5H2018
			V114.6c-23.6-4.8-38.8-27.9-34-51.5c4.8-23.6,27.9-38.8,51.5-34c23.6,4.8,38.8,27.9,34,51.5C2066,97.7,2052.6,111.1,2035.5,114.6z
			 M2175.1,254.2V482h401.5v17.5h-418.9V254.2c-23.6-4.8-38.8-27.9-34-51.5c4.8-23.6,27.9-38.8,51.5-34c23.6,4.8,38.8,27.9,34,51.5
			C2205.6,237.3,2192.2,250.7,2175.1,254.2z M1058,1092v646.7h139.6v105.6c23.6,4.8,38.8,27.9,34,51.5c-4.8,23.6-27.9,38.8-51.5,34
			c-23.6-4.8-38.8-27.9-34-51.5c3.5-17.1,16.9-30.5,34-34v-88.1h-139.6V1092c-23.6-4.8-38.8-27.9-34-51.5
			c4.8-23.6,27.9-38.8,51.5-34c23.6,4.8,38.8,27.9,34,51.5C1088.5,1075.1,1075.1,1088.5,1058,1092L1058,1092z M1006.5,900.9
			c4.8-23.6,27.9-38.8,51.5-34c23.6,4.8,38.8,27.9,34,51.5c-4.8,23.6-27.9,38.8-51.5,34c-17.1-3.5-30.5-16.9-34-34h-88.1v418.9
			H673.1c-4.8,23.6-27.9,38.8-51.5,34c-23.6-4.8-38.8-27.9-34-51.5c4.8-23.6,27.9-38.8,51.5-34c17.1,3.5,30.5,16.9,34,34h227.8
			V900.9C900.9,900.9,1006.5,900.9,1006.5,900.9z M952.4,2035.5c-4.8,23.6-27.9,38.8-51.5,34c-23.6-4.8-38.8-27.9-34-51.5
			s27.9-38.8,51.5-34c17.1,3.5,30.5,16.9,34,34h507.1v-646.7c-23.6-4.8-38.8-27.9-34-51.5c4.8-23.6,27.9-38.8,51.5-34
			c23.6,4.8,38.8,27.9,34,51.5c-3.5,17.1-16.9,30.5-34,34v664.2H952.4z M812.8,1476.9c-4.8,23.6-27.9,38.8-51.5,34
			c-23.6-4.8-38.8-27.9-34-51.5s27.9-38.8,51.5-34c17.1,3.5,30.5,16.9,34,34h105.6v418.9h88.1c4.8-23.6,27.9-38.8,51.5-34
			c23.6,4.8,38.8,27.9,34,51.5c-4.8,23.6-27.9,38.8-51.5,34c-17.1-3.5-30.5-16.9-34-34H900.9v-418.9H812.8z M499.4,2402.9
			c23.6,4.8,38.8,27.9,34,51.5c-4.8,23.6-27.9,38.8-51.5,34c-23.6-4.8-38.8-27.9-34-51.5c3.5-17.1,16.9-30.5,34-34v-88.1H359.8
			v261.8h-17.5v-279.3h157.1V2402.9z M1984,1459.5c4.8-23.6,27.9-38.8,51.5-34c23.6,4.8,38.8,27.9,34,51.5
			c-4.8,23.6-27.9,38.8-51.5,34c-17.1-3.5-30.5-16.9-34-34h-88.1v820.4h418.9v279.3h-17.5v-261.8h-418.9v-855.3H1984z
			 M2209.1,1197.6c-4.8,23.6-27.9,38.8-51.5,34c-23.6-4.8-38.8-27.9-34-51.5c4.8-23.6,27.9-38.8,51.5-34c17.1,3.5,30.5,16.9,34,34
			h105.6v384.9c23.6,4.8,38.8,27.9,34,51.5c-4.8,23.6-27.9,38.8-51.5,34c-23.6-4.8-38.8-27.9-34-51.5c3.5-17.1,16.9-30.5,34-34
			v-367.4H2209.1z M1650.6,2035.5c-4.8,23.6-27.9,38.8-51.5,34c-23.6-4.8-38.8-27.9-34-51.5c4.8-23.6,27.9-38.8,51.5-34
			c17.1,3.5,30.5,16.9,34,34h88.1v-698.2h139.6v-122.2h-367.4c-4.8,23.6-27.9,38.8-51.5,34c-23.6-4.8-38.8-27.9-34-51.5
			c4.8-23.6,27.9-38.8,51.5-34c17.1,3.5,30.5,16.9,34,34h384.9v157.1h-139.6v698.2H1650.6z M2402.9,202.7
			c4.8-23.6,27.9-38.8,51.5-34c23.6,4.8,38.8,27.9,34,51.5c-4.8,23.6-27.9,38.8-51.5,34c-17.1-3.5-30.5-16.9-34-34h-105.6V-76.6
			h17.5v279.3H2402.9L2402.9,202.7z M778.7,812.8v384.9H393.8c-4.8,23.6-27.9,38.8-51.5,34c-23.6-4.8-38.8-27.9-34-51.5
			c4.8-23.6,27.9-38.8,51.5-34c17.1,3.5,30.5,16.9,34,34h367.4V812.8c-23.6-4.8-38.8-27.9-34-51.5c4.8-23.6,27.9-38.8,51.5-34
			c23.6,4.8,38.8,27.9,34,51.5C809.3,795.9,795.9,809.3,778.7,812.8z M393.8,220.2c-4.8,23.6-27.9,38.8-51.5,34
			c-23.6-4.8-38.8-27.9-34-51.5c4.8-23.6,27.9-38.8,51.5-34c17.1,3.5,30.5,16.9,34,34h227.8V-76.6h17.5v296.7H393.8z M918.4,254.2
			v245.2H639.1V1058H533.5c-4.8,23.6-27.9,38.8-51.5,34c-23.6-4.8-38.8-27.9-34-51.5c4.8-23.6,27.9-38.8,51.5-34
			c17.1,3.5,30.5,16.9,34,34h88.1V482h279.3V254.2c-23.6-4.8-38.8-27.9-34-51.5s27.9-38.8,51.5-34c23.6,4.8,38.8,27.9,34,51.5
			C948.9,237.3,935.5,250.7,918.4,254.2z M812.8,639.1c-4.8,23.6-27.9,38.8-51.5,34c-23.6-4.8-38.8-27.9-34-51.5s27.9-38.8,51.5-34
			c17.1,3.5,30.5,16.9,34,34h227.8V254.2c-23.6-4.8-38.8-27.9-34-51.5s27.9-38.8,51.5-34c23.6,4.8,38.8,27.9,34,51.5
			c-3.5,17.1-16.9,30.5-34,34v384.9H812.8z M952.4,80.5c-4.8,23.6-27.9,38.8-51.5,34c-23.6-4.8-38.8-27.9-34-51.5s27.9-38.8,51.5-34
			c17.1,3.5,30.5,16.9,34,34h245.2V448c23.6,4.8,38.8,27.9,34,51.5c-4.8,23.6-27.9,38.8-51.5,34c-23.6-4.8-38.8-27.9-34-51.5
			c3.5-17.1,16.9-30.5,34-34V80.5H952.4z M1844.3,2436.9c4.8-23.6,27.9-38.8,51.5-34c23.6,4.8,38.8,27.9,34,51.5
			c-4.8,23.6-27.9,38.8-51.5,34c-17.1-3.5-30.5-16.9-34-34H778.7v122.2h-17.5v-139.6H1844.3z M2035.5,1231.7v88.1h139.6v296.7
			h-139.6v541.1h418.9v418.9h-17.5v-401.5H2018v-576h139.6v-261.8H2018v-105.6c-23.6-4.8-38.8-27.9-34-51.5
			c4.8-23.6,27.9-38.8,51.5-34c23.6,4.8,38.8,27.9,34,51.5C2066,1214.8,2052.6,1228.2,2035.5,1231.7z M393.8,80.5
			c-4.8,23.6-27.9,38.8-51.5,34s-38.8-27.9-34-51.5c4.8-23.6,27.9-38.8,51.5-34c17.1,3.5,30.5,16.9,34,34H482V-59.1H342.4v-17.5
			h157.1V80.5H393.8z M1371.3,359.8c-4.8,23.6-27.9,38.8-51.5,34c-23.6-4.8-38.8-27.9-34-51.5c4.8-23.6,27.9-38.8,51.5-34
			c17.1,3.5,30.5,16.9,34,34h227.8V-76.6h436.4v17.5h-418.9v418.9H1371.3z M952.4-59.1c-4.8,23.6-27.9,38.9-51.5,34
			s-38.9-27.9-34-51.5h18.1c-4.8,13.6,2.4,28.6,16,33.4s28.6-2.4,33.4-16c2-5.6,2-11.8,0-17.4h542.6v296.7h-157.1V114.6
			c-23.6-4.8-38.8-27.9-34-51.5c4.8-23.6,27.9-38.8,51.5-34c23.6,4.8,38.8,27.9,34,51.5c-3.5,17.1-16.9,30.5-34,34v88.1h122.2V-59.1
			C1459.5-59.1,952.4-59.1,952.4-59.1z M952.4,778.7c-4.8,23.6-27.9,38.8-51.5,34c-23.6-4.8-38.8-27.9-34-51.5
			c4.8-23.6,27.9-38.8,51.5-34c17.1,3.5,30.5,16.9,34,34h166.7L1398.4,482h340.4V114.6c-23.6-4.8-38.8-27.9-34-51.5
			c4.8-23.6,27.9-38.8,51.5-34c23.6,4.8,38.8,27.9,34,51.5c-3.5,17.1-16.9,30.5-34,34v384.9h-350.6l-279.3,279.3
			C1126.3,778.7,952.4,778.7,952.4,778.7z M1197.6,1565.1c23.6,4.8,38.8,27.9,34,51.5c-4.8,23.6-27.9,38.8-51.5,34
			c-23.6-4.8-38.8-27.9-34-51.5c3.5-17.1,16.9-30.5,34-34V897.3l275.7-275.7h422.5V114.6c-23.6-4.8-38.8-27.9-34-51.5
			c4.8-23.6,27.9-38.8,51.5-34c23.6,4.8,38.8,27.9,34,51.5c-3.5,17.1-16.9,30.5-34,34v524.5H1463l-265.4,265.4V1565.1z
			 M1337.3,1844.3c23.6,4.8,38.8,27.9,34,51.5c-4.8,23.6-27.9,38.8-51.5,34c-23.6-4.8-38.8-27.9-34-51.5c3.5-17.1,16.9-30.5,34-34
			V975.9l214.6-214.6h1008.1c3.5-17.1,16.9-30.5,34-34v18.1c-13.6,4.8-20.8,19.7-16,33.4c2.6,7.5,8.5,13.4,16,16v18.1
			c-17.1-3.5-30.5-16.9-34-34H1541.6L1337.3,983V1844.3z M80.5,1285.8c23.6,4.8,38.8,27.9,34,51.5c-4.8,23.6-27.9,38.8-51.5,34
			c-23.6-4.8-38.8-27.9-34-51.5c3.5-17.1,16.9-30.5,34-34v-30.6L482,836.2V342.4h279.3V-76.6h17.5v436.4H499.4v483.6L80.5,1262.3
			V1285.8z M359.8,393.8v379.7l-418.9,418.9v546.2h227.8c4.8-23.6,27.9-38.8,51.5-34c23.6,4.8,38.8,27.9,34,51.5
			c-4.8,23.6-27.9,38.8-51.5,34c-17.1-3.5-30.5-16.9-34-34H-76.6v-570.9l418.9-418.9V393.8c-23.6-4.8-38.8-27.9-34-51.5
			s27.9-38.8,51.5-34c23.6,4.8,38.8,27.9,34,51.5C390.3,377,376.9,390.3,359.8,393.8z M220.2,533.5v170.3l-296.7,296.7v-24.6
			l279.3-279.3V533.5c-23.6-4.8-38.8-27.9-34-51.5c4.8-23.6,27.9-38.8,51.5-34c23.6,4.8,38.8,27.9,34,51.5
			C250.7,516.6,237.3,530,220.2,533.5z M29,202.7c4.8-23.6,27.9-38.8,51.5-34c23.6,4.8,38.8,27.9,34,51.5
			c-4.8,23.6-27.9,38.8-51.5,34c-17.1-3.5-30.5-16.9-34-34H5.6l-82.1,82.1v-24.5l75-75.1H29z M2348.8,359.8
			c-4.8,23.6-27.9,38.8-51.5,34c-23.6-4.8-38.8-27.9-34-51.5c4.8-23.6,27.9-38.8,51.5-34c17.1,3.5,30.5,16.9,34,34h163.1l64.7-64.7
			v24.6l-57.5,57.5H2348.8z M2209.1,1756.2c-4.8,23.6-27.9,38.8-51.5,34c-23.6-4.8-38.8-27.9-34-51.5c4.8-23.6,27.9-38.8,51.5-34
			c17.1,3.5,30.5,16.9,34,34h227.8v-623.2l139.6-139.6v24.6l-122.2,122.2v633.5H2209.1z M393.8,2035.5c-4.8,23.6-27.9,38.8-51.5,34
			c-23.6-4.8-38.8-27.9-34-51.5s27.9-38.8,51.5-34c17.1,3.5,30.5,16.9,34,34H482v-197.2l-204.3-204.3H114.6
			c-4.8,23.6-27.9,38.8-51.5,34c-23.6-4.8-38.8-27.9-34-51.5c4.8-23.6,27.9-38.8,51.5-34c17.1,3.5,30.5,16.9,34,34h170.3
			l214.6,214.6v221.8C499.4,2035.5,393.8,2035.5,393.8,2035.5z M1704.7,2157.6c4.8-23.6,27.9-38.8,51.5-34
			c23.6,4.8,38.8,27.9,34,51.5c-4.8,23.6-27.9,38.8-51.5,34c-17.1-3.5-30.5-16.9-34-34H761.3v-494l-343.9-343.9H254.2
			c-4.8,23.6-27.9,38.8-51.5,34c-23.6-4.8-38.8-27.9-34-51.5c4.8-23.6,27.9-38.8,51.5-34c17.1,3.5,30.5,16.9,34,34h170.2
			l354.3,354.3v483.5H1704.7L1704.7,2157.6z M393.8,2175.1c-4.8,23.6-27.9,38.8-51.5,34s-38.8-27.9-34-51.5s27.9-38.8,51.5-34
			c17.1,3.5,30.5,16.9,34,34h227.8V1751l-274.1-274.1H114.6c-4.8,23.6-27.9,38.8-51.5,34c-23.6-4.8-38.8-27.9-34-51.5
			c4.8-23.6,27.9-38.8,51.5-34c17.1,3.5,30.5,16.9,34,34h240.1l284.4,284.4v431.2C639.1,2175.1,393.8,2175.1,393.8,2175.1z
			 M220.2,270.8v14.1L5.6,499.4h-82.1V482h75l204.3-204.3V-76.6h17.5V270.8z M-59.1,2542.5c17.1,3.5,30.5,16.9,34,34h-18.1
			c-4.8-13.6-19.8-20.8-33.4-16c0,0,0,0,0,0v-402.9H80.5v418.9H63.1v-401.5H-59.1V2542.5z M220.2,2026.7v549.8h-17.5v-541.1H-76.6
			V2018h296.7V2026.7z M71.8,80.5H-76.6V63.1H63.1V-76.6h17.5V80.5H71.8z M2454.4,63.1h122.2v17.5h-139.6V-76.6h17.5V63.1z
			 M2175.1,2445.7v130.9h-17.5v-122.2h-122.2v122.2H2018v-139.6h157.1V2445.7z M-76.6,727.2c23.7-4.7,46.8,10.7,51.5,34.4
			c0.5,2.7,0.8,5.5,0.8,8.3c0,24.1-19.5,43.6-43.6,43.6c-2.9,0-5.9-0.3-8.7-0.9v-18.1c13.6,4.8,28.6-2.4,33.4-16s-2.4-28.6-16-33.4
			c-5.6-2-11.8-2-17.4,0V727.2z M621.6,2297.3h17.5v279.3h-17.5V2297.3z M952.4,2576.6h-18.1c-4.8-13.6-19.7-20.8-33.4-16
			c-7.5,2.6-13.4,8.5-16,16h-18.1c4.8-23.6,27.8-38.9,51.4-34.1C935.5,2546,948.9,2559.4,952.4,2576.6z M-25.1-76.6
			c4.7,23.7-10.7,46.8-34.5,51.5c-5.6,1.1-11.4,1.1-17,0v-18.1c13.6,4.8,28.6-2.3,33.4-15.9c2-5.7,2-11.8,0-17.5H-25.1z
			 M2542.5-76.6h18.1c-4.8,13.6,2.3,28.6,15.9,33.4c0,0,0,0,0,0v18.1C2552.9-29.9,2537.7-52.9,2542.5-76.6
			C2542.5-76.6,2542.5-76.6,2542.5-76.6z M2576.6,2542.5v18.1c-7.5,2.6-13.3,8.5-16,16h-18.1C2546,2559.4,2559.4,2546,2576.6,2542.5
			z M770,796.2c14.5,0,26.2-11.7,26.2-26.2c0-14.5-11.7-26.2-26.2-26.2c-14.5,0-26.2,11.7-26.2,26.2
			C743.8,784.5,755.5,796.2,770,796.2z M770,656.5c14.5,0,26.2-11.7,26.2-26.2c0-14.5-11.7-26.2-26.2-26.2
			c-14.5,0-26.2,11.7-26.2,26.2C743.8,644.8,755.5,656.5,770,656.5z M909.6,796.2c14.5,0,26.2-11.7,26.2-26.2
			c0-14.5-11.7-26.2-26.2-26.2c-14.5,0-26.2,11.7-26.2,26.2C883.4,784.5,895.2,796.2,909.6,796.2z M1049.3,935.8
			c14.5,0,26.2-11.7,26.2-26.2c0-14.5-11.7-26.2-26.2-26.2c-14.5,0-26.2,11.7-26.2,26.2C1023.1,924.1,1034.8,935.8,1049.3,935.8z
			 M1049.3,1075.5c14.5,0,26.2-11.7,26.2-26.2c0-14.5-11.7-26.2-26.2-26.2c-14.5,0-26.2,11.7-26.2,26.2
			C1023.1,1063.7,1034.8,1075.5,1049.3,1075.5z M630.4,1354.7c14.5,0,26.2-11.7,26.2-26.2s-11.7-26.2-26.2-26.2
			c-14.5,0-26.2,11.7-26.2,26.2S615.9,1354.7,630.4,1354.7z M770,1494.4c14.5,0,26.2-11.7,26.2-26.2c0-14.5-11.7-26.2-26.2-26.2
			c-14.5,0-26.2,11.7-26.2,26.2C743.8,1482.6,755.5,1494.4,770,1494.4z M1049.3,1913.3c14.5,0,26.2-11.7,26.2-26.2
			s-11.7-26.2-26.2-26.2c-14.5,0-26.2,11.7-26.2,26.2S1034.8,1913.3,1049.3,1913.3z M909.6,2052.9c14.5,0,26.2-11.7,26.2-26.2
			s-11.7-26.2-26.2-26.2c-14.5,0-26.2,11.7-26.2,26.2S895.2,2052.9,909.6,2052.9z M1188.9,1913.3c14.5,0,26.2-11.7,26.2-26.2
			s-11.7-26.2-26.2-26.2c-14.5,0-26.2,11.7-26.2,26.2S1174.4,1913.3,1188.9,1913.3z M1188.9,1634c14.5,0,26.2-11.7,26.2-26.2
			s-11.7-26.2-26.2-26.2c-14.5,0-26.2,11.7-26.2,26.2S1174.4,1634,1188.9,1634z M1328.5,1913.3c14.5,0,26.2-11.7,26.2-26.2
			s-11.7-26.2-26.2-26.2s-26.2,11.7-26.2,26.2S1314.1,1913.3,1328.5,1913.3z M1607.8,2052.9c14.5,0,26.2-11.7,26.2-26.2
			s-11.7-26.2-26.2-26.2s-26.2,11.7-26.2,26.2S1593.4,2052.9,1607.8,2052.9z M1607.8,1913.3c14.5,0,26.2-11.7,26.2-26.2
			s-11.7-26.2-26.2-26.2s-26.2,11.7-26.2,26.2S1593.4,1913.3,1607.8,1913.3z M1468.2,1354.7c14.5,0,26.2-11.7,26.2-26.2
			s-11.7-26.2-26.2-26.2c-14.5,0-26.2,11.7-26.2,26.2S1453.7,1354.7,1468.2,1354.7z M1607.8,1354.7c14.5,0,26.2-11.7,26.2-26.2
			s-11.7-26.2-26.2-26.2s-26.2,11.7-26.2,26.2S1593.4,1354.7,1607.8,1354.7z M1747.5,2192.6c14.5,0,26.2-11.7,26.2-26.2
			c0-14.5-11.7-26.2-26.2-26.2s-26.2,11.7-26.2,26.2C1721.3,2180.8,1733,2192.6,1747.5,2192.6z M1747.5,2332.2
			c14.5,0,26.2-11.7,26.2-26.2c0-14.5-11.7-26.2-26.2-26.2s-26.2,11.7-26.2,26.2C1721.3,2320.5,1733,2332.2,1747.5,2332.2z
			 M1887.1,2471.8c14.5,0,26.2-11.7,26.2-26.2c0-14.5-11.7-26.2-26.2-26.2l0,0c-14.5,0-26.2,11.7-26.2,26.2
			C1860.9,2460.1,1872.6,2471.8,1887.1,2471.8z M2026.7,1215.1c14.5,0,26.2-11.7,26.2-26.2c0-14.5-11.7-26.2-26.2-26.2
			s-26.2,11.7-26.2,26.2C2000.6,1203.4,2012.3,1215.1,2026.7,1215.1z M2026.7,1494.4c14.5,0,26.2-11.7,26.2-26.2
			c0-14.5-11.7-26.2-26.2-26.2s-26.2,11.7-26.2,26.2C2000.6,1482.6,2012.3,1494.4,2026.7,1494.4z M2166.4,1215.1
			c14.5,0,26.2-11.7,26.2-26.2c0-14.5-11.7-26.2-26.2-26.2c-14.5,0-26.2,11.7-26.2,26.2C2140.2,1203.4,2151.9,1215.1,2166.4,1215.1z
			 M2306,1075.5c14.5,0,26.2-11.7,26.2-26.2c0-14.5-11.7-26.2-26.2-26.2c-14.5,0-26.2,11.7-26.2,26.2
			C2279.8,1063.7,2291.6,1075.5,2306,1075.5z M1468.2,1075.5c14.5,0,26.2-11.7,26.2-26.2c0-14.5-11.7-26.2-26.2-26.2
			c-14.5,0-26.2,11.7-26.2,26.2C1442,1063.7,1453.7,1075.5,1468.2,1075.5z M1468.2,1215.1c14.5,0,26.2-11.7,26.2-26.2
			c0-14.5-11.7-26.2-26.2-26.2c-14.5,0-26.2,11.7-26.2,26.2C1442,1203.4,1453.7,1215.1,1468.2,1215.1z M1607.8,935.8
			c14.5,0,26.2-11.7,26.2-26.2c0-14.5-11.7-26.2-26.2-26.2s-26.2,11.7-26.2,26.2C1581.6,924.1,1593.4,935.8,1607.8,935.8z
			 M2445.7,935.8c14.5,0,26.2-11.7,26.2-26.2c0-14.5-11.7-26.2-26.2-26.2c-14.5,0-26.2,11.7-26.2,26.2
			C2419.5,924.1,2431.2,935.8,2445.7,935.8z M2306,377.3c14.5,0,26.2-11.7,26.2-26.2c0-14.5-11.7-26.2-26.2-26.2
			c-14.5,0-26.2,11.7-26.2,26.2C2279.8,365.5,2291.6,377.3,2306,377.3z M2445.7,237.6c14.5,0,26.2-11.7,26.2-26.2
			c0-14.5-11.7-26.2-26.2-26.2c-14.5,0-26.2,11.7-26.2,26.2C2419.5,225.9,2431.2,237.6,2445.7,237.6z M2166.4,237.6
			c14.5,0,26.2-11.7,26.2-26.2c0-14.5-11.7-26.2-26.2-26.2c-14.5,0-26.2,11.7-26.2,26.2C2140.2,225.9,2151.9,237.6,2166.4,237.6z
			 M2166.4,98c14.5,0,26.2-11.7,26.2-26.2s-11.7-26.2-26.2-26.2c-14.5,0-26.2,11.7-26.2,26.2S2151.9,98,2166.4,98z M2026.7,98
			c14.5,0,26.2-11.7,26.2-26.2s-11.7-26.2-26.2-26.2s-26.2,11.7-26.2,26.2S2012.3,98,2026.7,98z M1887.1,98
			c14.5,0,26.2-11.7,26.2-26.2s-11.7-26.2-26.2-26.2l0,0c-14.5,0-26.2,11.7-26.2,26.2S1872.6,98,1887.1,98z M1747.5,98
			c14.5,0,26.2-11.7,26.2-26.2s-11.7-26.2-26.2-26.2s-26.2,11.7-26.2,26.2S1733,98,1747.5,98z M351.1,237.6
			c14.5,0,26.2-11.7,26.2-26.2c0-14.5-11.7-26.2-26.2-26.2c-14.5,0-26.2,11.7-26.2,26.2C324.9,225.9,336.6,237.6,351.1,237.6z
			 M71.8,237.6c14.5,0,26.2-11.7,26.2-26.2c0-14.5-11.7-26.2-26.2-26.2S45.6,197,45.6,211.4C45.6,225.9,57.3,237.6,71.8,237.6z
			 M351.1,377.3c14.5,0,26.2-11.7,26.2-26.2c0-14.5-11.7-26.2-26.2-26.2c-14.5,0-26.2,11.7-26.2,26.2
			C324.9,365.5,336.6,377.3,351.1,377.3z M211.4,516.9c14.5,0,26.2-11.7,26.2-26.2s-11.7-26.2-26.2-26.2
			c-14.5,0-26.2,11.7-26.2,26.2S197,516.9,211.4,516.9z M351.1,98c14.5,0,26.2-11.7,26.2-26.2s-11.7-26.2-26.2-26.2
			c-14.5,0-26.2,11.7-26.2,26.2S336.6,98,351.1,98z M351.1,2192.6c14.5,0,26.2-11.7,26.2-26.2c0-14.5-11.7-26.2-26.2-26.2
			c-14.5,0-26.2,11.7-26.2,26.2C324.9,2180.8,336.6,2192.6,351.1,2192.6z M490.7,2471.8c14.5,0,26.2-11.7,26.2-26.2
			c0-14.5-11.7-26.2-26.2-26.2s-26.2,11.7-26.2,26.2C464.5,2460.1,476.3,2471.8,490.7,2471.8z M351.1,1913.3
			c14.5,0,26.2-11.7,26.2-26.2s-11.7-26.2-26.2-26.2c-14.5,0-26.2,11.7-26.2,26.2S336.6,1913.3,351.1,1913.3z M351.1,2052.9
			c14.5,0,26.2-11.7,26.2-26.2s-11.7-26.2-26.2-26.2c-14.5,0-26.2,11.7-26.2,26.2S336.6,2052.9,351.1,2052.9z M211.4,1773.6
			c14.5,0,26.2-11.7,26.2-26.2s-11.7-26.2-26.2-26.2c-14.5,0-26.2,11.7-26.2,26.2S197,1773.6,211.4,1773.6z M909.6,237.6
			c14.5,0,26.2-11.7,26.2-26.2c0-14.5-11.7-26.2-26.2-26.2c-14.5,0-26.2,11.7-26.2,26.2C883.4,225.9,895.2,237.6,909.6,237.6z
			 M1049.3,237.6c14.5,0,26.2-11.7,26.2-26.2c0-14.5-11.7-26.2-26.2-26.2c-14.5,0-26.2,11.7-26.2,26.2
			C1023.1,225.9,1034.8,237.6,1049.3,237.6z M909.6,98c14.5,0,26.2-11.7,26.2-26.2s-11.7-26.2-26.2-26.2
			c-14.5,0-26.2,11.7-26.2,26.2S895.2,98,909.6,98z M1188.9,516.9c14.5,0,26.2-11.7,26.2-26.2s-11.7-26.2-26.2-26.2
			c-14.5,0-26.2,11.7-26.2,26.2S1174.4,516.9,1188.9,516.9z M1328.5,377.3c14.5,0,26.2-11.7,26.2-26.2c0-14.5-11.7-26.2-26.2-26.2
			s-26.2,11.7-26.2,26.2C1302.4,365.5,1314.1,377.3,1328.5,377.3z M1328.5,98c14.5,0,26.2-11.7,26.2-26.2s-11.7-26.2-26.2-26.2
			s-26.2,11.7-26.2,26.2S1314.1,98,1328.5,98z M2306,1634c14.5,0,26.2-11.7,26.2-26.2s-11.7-26.2-26.2-26.2
			c-14.5,0-26.2,11.7-26.2,26.2S2291.6,1634,2306,1634z M2166.4,1773.6c14.5,0,26.2-11.7,26.2-26.2s-11.7-26.2-26.2-26.2
			c-14.5,0-26.2,11.7-26.2,26.2S2151.9,1773.6,2166.4,1773.6z M2166.4,1913.3c14.5,0,26.2-11.7,26.2-26.2s-11.7-26.2-26.2-26.2
			c-14.5,0-26.2,11.7-26.2,26.2S2151.9,1913.3,2166.4,1913.3z M2166.4,2052.9c14.5,0,26.2-11.7,26.2-26.2s-11.7-26.2-26.2-26.2
			c-14.5,0-26.2,11.7-26.2,26.2S2151.9,2052.9,2166.4,2052.9z M71.8,1494.4c14.5,0,26.2-11.7,26.2-26.2c0-14.5-11.7-26.2-26.2-26.2
			s-26.2,11.7-26.2,26.2C45.6,1482.6,57.3,1494.4,71.8,1494.4z M71.8,1634c14.5,0,26.2-11.7,26.2-26.2s-11.7-26.2-26.2-26.2
			s-26.2,11.7-26.2,26.2S57.3,1634,71.8,1634z M71.8,1354.7c14.5,0,26.2-11.7,26.2-26.2s-11.7-26.2-26.2-26.2s-26.2,11.7-26.2,26.2
			S57.3,1354.7,71.8,1354.7z M211.4,1354.7c14.5,0,26.2-11.7,26.2-26.2s-11.7-26.2-26.2-26.2c-14.5,0-26.2,11.7-26.2,26.2
			S197,1354.7,211.4,1354.7z M71.8,656.5c14.5,0,26.2-11.7,26.2-26.2c0-14.5-11.7-26.2-26.2-26.2s-26.2,11.7-26.2,26.2
			C45.6,644.8,57.3,656.5,71.8,656.5z M351.1,1215.1c14.5,0,26.2-11.7,26.2-26.2c0-14.5-11.7-26.2-26.2-26.2
			c-14.5,0-26.2,11.7-26.2,26.2C324.9,1203.4,336.6,1215.1,351.1,1215.1z M490.7,1075.5c14.5,0,26.2-11.7,26.2-26.2
			c0-14.5-11.7-26.2-26.2-26.2s-26.2,11.7-26.2,26.2C464.5,1063.7,476.3,1075.5,490.7,1075.5z"/>
	</g>
</g>
<g transform="translate(0.000000,511.000000) scale(0.100000,-0.100000)">
	<path class="st1" d="M14065.8,272c-158.4-66-306.7-211.1-498-491.4c-333-488-610.1-692.5-979.4-722.2
		c-379.3-29.7-712.4,145.1-1025.7,544.1c-432.1,544.1-659.6,666.2-920.1,507.9c-148.4-89-230.8-293.5-310-745.3
		c-39.5-217.7-102.2-471.6-145.1-560.6c-164.8-359.5-458.3-573.8-834.4-603.5c-260.5-19.8-441.9,26.4-824.4,211.1
		c-550.8,267.1-854.1,263.8-982.8-6.6c-75.8-164.8-52.7-471.6,69.2-804.6c118.7-326.4,128.5-761.9,26.4-989.4
		c-204.5-441.9-567.2-626.6-1253.1-626.6c-603.5,0-870.6-128.7-870.6-418.8c0-197.9,89-356.1,379.3-676.1
		c138.5-151.8,296.7-369.3,356.1-488c92.4-188,105.5-244,105.5-478.2c0-230.8-13.2-286.9-98.9-441.9
		c-135.1-244-329.8-405.6-735.4-603.5c-897-438.7-877.2-860.7,66-1226.8c517.7-201.1,804.6-481.6,883.8-860.7
		c72.6-349.5-46.1-679.3-392.4-1104.7c-112.1-135.1-230.8-306.6-267.1-382.5c-85.8-174.8-85.8-405.6,0-517.7
		c112.1-141.8,260.5-171.6,890.4-171.6c530.9,0,590.3-6.6,745.3-75.8c211.1-95.6,415.6-303.5,514.5-517.9
		c102.2-227.6,102.2-616.7-3.2-1022.3c-125.3-475-62.7-758.5,184.7-864c191.3-79.2,425.4-9.8,867.3,250.6
		c313.4,187.9,521.1,244,804.6,227.6c283.7-19.8,448.5-98.9,636.6-300.1c191.3-207.7,257.2-349.6,369.3-804.6
		c108.9-455.1,214.3-649.8,385.9-722.2c234.2-98.9,468.3,42.9,742,441.9c349.6,517.7,629.9,725.6,1002.5,755.3
		c108.9,9.8,260.5,0,336.4-19.8c211.1-59.3,511.2-276.9,685.9-504.5c412.2-537.5,643.2-672.8,906.9-537.5
		c125.3,66,247.4,303.5,296.7,577.2c19.8,118.7,49.5,293.5,66,392.4c98.9,550.8,458.5,913.5,946.5,953.1
		c260.5,19.8,441.9-26.4,824.4-211.1c392.4-191.3,616.7-240.8,784.9-174.8c270.5,102.2,313.4,432.1,128.7,986
		c-131.9,395.8-135.1,761.9-3.4,1028.9c108.9,220.9,263.8,369.3,514.5,481.4c161.6,75.8,247.4,85.8,695.7,105.5
		c540.9,23.1,653,52.7,801.4,191.3c69.2,66,89,115.5,89,227.6c0,197.9-89,359.5-382.5,676.1c-141.8,158.2-293.5,366.1-352.9,488
		c-92.2,188-105.5,247.4-105.5,478.2s13.2,286.9,98.9,441.9c135.1,247.4,339.6,415.4,738.6,606.9c550.8,263.8,742,511.1,603.5,778.3
		c-79.2,155-293.5,296.7-672.8,445.3c-517.9,201.1-804.6,481.6-883.8,860.7c-72.6,349.6,46.1,679.3,392.4,1104.7
		c112.1,135.1,230.8,306.7,267.1,382.5c85.8,174.8,85.8,405.6,0,517.7c-112.1,141.8-260.6,171.4-890.4,171.4
		c-554,0-583.8,3.2-758.5,85.8c-498,237.4-692.5,748.6-530.9,1378.4c141.8,544.1,118.7,831.1-72.6,972.8
		c-184.7,138.5-465,75.8-946.5-207.7c-313.4-188-521.1-244-804.6-227.6c-277.1,19.8-441.9,95.6-636.6,296.7
		c-174.8,178-283.5,422.1-369.3,811.2c-72.6,323.2-204.5,610.1-316.6,685.9C14310,288.6,14154.9,308.3,14065.8,272z M16638.2-4038.3
		c105.5-194.5,122.1-250.6,95.6-303.4c-19.8-36.3-234.2-178-478.2-316.6c-613.3-349.6-573.8-306.7-478.2-475
		c89-161.6,62.7-164.8,517.9,98.9c237.4,141.8,362.7,194.5,412.2,181.4c75.8-16.5,320-399,320-494.6c0-62.6-141.8-168.2-494.6-366.1
		c-155-89-286.9-164.8-296.7-171.4c-13.2-13.2,138.5-306.7,158.4-306.7c6.6,0,201.1,108.9,428.7,244
		c636.4,366.1,626.6,362.7,709,306.7c112.1-72.6,329.8-504.6,293.5-573.8c-39.5-66-1579.7-966.2-1658.9-966.2
		c-29.7,0-76,26.4-105.5,59.3c-108.9,122.1-1342.3,2292-1342.3,2364.6c0,39.5,19.8,89,42.9,108.9
		c52.7,46.1,1510.3,880.6,1573.1,903.6C16420.6-3711.8,16503-3794.2,16638.2-4038.3z M14131.8-5159.4
		c105.5-125.3,260.5-441.9,250.6-511.2c-6.6-59.3-125.3-141.8-504.6-362.7c-270.5-158.4-507.9-293.5-524.3-300.1
		c-16.5-3.4,9.8-79.2,59.3-161.6l89-151.8l353,204.5c405.6,237.4,451.7,254,517.7,230.8c75.8-29.7,286.9-428.7,273.7-514.5
		c-6.6-56.1-98.9-128.5-356.1-280.3c-191.3-112.1-366.1-217.7-392.4-234.2c-36.3-19.8-29.7-52.7,42.9-164.8
		c46.1-75.8,95.6-138.5,105.5-138.5s237.4,128.7,507.9,283.7c316.6,184.7,517.9,277.1,567.2,270.5c102.2-13.2,372.7-455.1,343-563.8
		c-13.2-52.7-217.7-188-781.5-514.5c-422.2-244-801.4-448.5-844.3-458.3c-42.9-6.6-98.9,3.2-125.3,26.3
		c-66,56.1-1368.6,2318.3-1368.6,2381.1c0,26.4,26.4,72.6,59.3,102.2c112.1,98.9,1540.2,910.2,1609.4,913.5
		C14049.4-5103.5,14105.5-5129.8,14131.8-5159.4z M11872.8-6716.1c438.7-201.1,715.6-824.4,554-1246.5
		c-32.9-85.8-46.1-158.4-29.7-164.8c16.5-6.6,230.8-135.1,475-283.5c267.1-161.6,448.5-293.5,455.1-329.8
		c16.5-89-56.1-155-336.4-303.5l-250.6-131.9l-122.1,69.3c-69.2,36.3-290.1,174.8-494.6,306.7l-369.3,240.8l-148.4-85.8l-148.4-85.8
		l230.8-395.8c141.8-244,227.6-425.4,220.9-471.6c-9.8-82.4-425.4-349.6-544.1-352.9c-42.9,0-95.6,32.9-122.1,75.8
		C11084.5-9634.5,9904-7557,9904-7520.7c0,23.1,29.7,69.2,62.7,98.9c89,75.8,1154.2,682.7,1272.9,728.8
		C11401.3-6636.9,11717.8-6646.9,11872.8-6716.1z M9448.9-7863.7c105.5-125.3,260.5-441.9,250.6-511.2
		c-6.6-56.1-125.3-141.8-494.6-352.9c-270.5-155-488-296.7-488-316.6c0-16.5,36.3-89,75.8-155l75.8-122.1l227.6,135.1
		c402.4,234.2,530.9,293.5,590.3,270.5c66-26.4,283.7-405.6,283.7-498c0-85.8-19.8-102.2-418.8-333l-333-191.3l244-418.8
		c135.1-230.8,244-455.1,244-498c0-66-42.9-105.5-220.9-211.1c-296.7-171.6-326.4-178-399-112.1
		c-56.1,46.1-1154.2,1919.3-1338.9,2275.4c-39.5,72.6-46.1,125.3-23.1,161.6c39.5,75.8,1517,929.9,1606,933.3
		C9366.4-7807.8,9422.6-7834,9448.9-7863.7z"/>
	<path class="st1" d="M11157.2-7567c-135.1-79.2-254-151.8-257.2-158.4c-6.6-6.6,36.3-102.2,98.9-211.1l112.1-201.1l263.8,151.8
		c141.8,85.8,280.3,174.8,303.4,204.5c108.9,138.5-6.6,372.7-181.4,366.1C11444.2-7415.2,11292.4-7484.6,11157.2-7567z"/>
</g>
</svg>
