<?xml version="1.0" encoding="utf-8"?>
<!-- Generator: Adobe Illustrator 21.1.0, SVG Export Plug-In . SVG Version: 6.00 Build 0)  -->
<svg version="1.1" id="Layer_1" xmlns="http://www.w3.org/2000/svg" xmlns:xlink="http://www.w3.org/1999/xlink" x="0px" y="0px"
	 viewBox="0 0 2500 2500" style="enable-background:new 0 0 2500 2500;" xml:space="preserve">
<style type="text/css">
	.st0{clip-path:url(#SVGID_2_);fill-opacity:0.1;}
	.st1{fill:#F5F8FA;}
	.st2{fill:#FB8C00;}
</style>
<g>
	<g>
		<g>
			<g>
				<g>
					<defs>
						<circle id="SVGID_1_" cx="1250" cy="1250" r="1250"/>
					</defs>
					<clipPath id="SVGID_2_">
						<use xlink:href="#SVGID_1_"  style="overflow:visible;"/>
					</clipPath>
					<path class="st0" d="M308.3,1878.4c4.8-23.6,27.9-38.8,51.5-34s38.8,27.9,34,51.5s-27.9,38.8-51.5,34
						c-17.1-3.5-30.5-16.9-34-34H-76.6v-17.5H308.3z M1704.7,2297.3c4.8-23.6,27.9-38.8,51.5-34s38.8,27.9,34,51.5
						s-27.9,38.8-51.5,34c-17.1-3.5-30.5-16.9-34-34H639.1v-17.5H1704.7z M2209.1,1895.8c-4.8,23.6-27.9,38.8-51.5,34
						s-38.8-27.9-34-51.5s27.9-38.8,51.5-34c17.1,3.5,30.5,16.9,34,34h367.4v17.5H2209.1z M2209.1,2035.5
						c-4.8,23.6-27.9,38.8-51.5,34s-38.8-27.9-34-51.5s27.9-38.8,51.5-34c17.1,3.5,30.5,16.9,34,34h367.4v17.5H2209.1z
						 M2263.2,1040.5c4.8-23.6,27.9-38.8,51.5-34s38.8,27.9,34,51.5s-27.9,38.8-51.5,34c-17.1-3.5-30.5-16.9-34-34h-752.3
						c-4.8,23.6-27.9,38.8-51.5,34s-38.8-27.9-34-51.5s27.9-38.8,51.5-34c17.1,3.5,30.5,16.9,34,34H2263.2z M29,621.6
						c4.8-23.6,27.9-38.8,51.5-34s38.8,27.9,34,51.5s-27.9,38.8-51.5,34c-17.1-3.5-30.5-16.9-34-34H-76.6v-17.5H29z M1650.6,918.4
						c-4.8,23.6-27.9,38.8-51.5,34s-38.8-27.9-34-51.5s27.9-38.8,51.5-34c17.1,3.5,30.5,16.9,34,34h752.3
						c4.8-23.6,27.9-38.8,51.5-34s38.8,27.9,34,51.5s-27.9,38.8-51.5,34c-17.1-3.5-30.5-16.9-34-34H1650.6z M2175.1,29
						c23.6,4.8,38.8,27.9,34,51.5s-27.9,38.8-51.5,34s-38.8-27.9-34-51.5c3.5-17.1,16.9-30.5,34-34V-76.6h17.5V29z M1616.6,1844.3
						c23.6,4.8,38.8,27.9,34,51.5s-27.9,38.8-51.5,34s-38.8-27.9-34-51.5c3.5-17.1,16.9-30.5,34-34v-473
						c-23.6-4.8-38.8-27.9-34-51.5s27.9-38.8,51.5-34s38.8,27.9,34,51.5c-3.5,17.1-16.9,30.5-34,34V1844.3z M2035.5,114.6v507.1
						h541.1v17.5H2018V114.6c-23.6-4.8-38.8-27.9-34-51.5s27.9-38.8,51.5-34c23.6,4.8,38.8,27.9,34,51.5
						C2066,97.7,2052.6,111.1,2035.5,114.6z M2175.1,254.2V482h401.5v17.5h-418.9V254.2c-23.6-4.8-38.8-27.9-34-51.5
						s27.9-38.8,51.5-34s38.8,27.9,34,51.5C2205.6,237.3,2192.2,250.7,2175.1,254.2z M1058,1092v646.7h139.6v105.6
						c23.6,4.8,38.8,27.9,34,51.5s-27.9,38.8-51.5,34s-38.8-27.9-34-51.5c3.5-17.1,16.9-30.5,34-34v-88.1h-139.6V1092
						c-23.6-4.8-38.8-27.9-34-51.5s27.9-38.8,51.5-34s38.8,27.9,34,51.5C1088.5,1075.1,1075.1,1088.5,1058,1092L1058,1092z
						 M1006.5,900.9c4.8-23.6,27.9-38.8,51.5-34s38.8,27.9,34,51.5s-27.9,38.8-51.5,34c-17.1-3.5-30.5-16.9-34-34h-88.1v418.9H673.1
						c-4.8,23.6-27.9,38.8-51.5,34s-38.8-27.9-34-51.5s27.9-38.8,51.5-34c17.1,3.5,30.5,16.9,34,34h227.8V900.9
						C900.9,900.9,1006.5,900.9,1006.5,900.9z M952.4,2035.5c-4.8,23.6-27.9,38.8-51.5,34s-38.8-27.9-34-51.5s27.9-38.8,51.5-34
						c17.1,3.5,30.5,16.9,34,34h507.1v-646.7c-23.6-4.8-38.8-27.9-34-51.5s27.9-38.8,51.5-34s38.8,27.9,34,51.5
						c-3.5,17.1-16.9,30.5-34,34v664.2H952.4z M812.8,1476.9c-4.8,23.6-27.9,38.8-51.5,34s-38.8-27.9-34-51.5s27.9-38.8,51.5-34
						c17.1,3.5,30.5,16.9,34,34h105.6v418.9h88.1c4.8-23.6,27.9-38.8,51.5-34c23.6,4.8,38.8,27.9,34,51.5s-27.9,38.8-51.5,34
						c-17.1-3.5-30.5-16.9-34-34H900.9v-418.9H812.8z M499.4,2402.9c23.6,4.8,38.8,27.9,34,51.5s-27.9,38.8-51.5,34
						s-38.8-27.9-34-51.5c3.5-17.1,16.9-30.5,34-34v-88.1H359.8v261.8h-17.5v-279.3h157.1V2402.9z M1984,1459.5
						c4.8-23.6,27.9-38.8,51.5-34c23.6,4.8,38.8,27.9,34,51.5s-27.9,38.8-51.5,34c-17.1-3.5-30.5-16.9-34-34h-88.1v820.4h418.9
						v279.3h-17.5v-261.8h-418.9v-855.3L1984,1459.5L1984,1459.5z M2209.1,1197.6c-4.8,23.6-27.9,38.8-51.5,34s-38.8-27.9-34-51.5
						s27.9-38.8,51.5-34c17.1,3.5,30.5,16.9,34,34h105.6V1565c23.6,4.8,38.8,27.9,34,51.5s-27.9,38.8-51.5,34s-38.8-27.9-34-51.5
						c3.5-17.1,16.9-30.5,34-34v-367.4H2209.1z M1650.6,2035.5c-4.8,23.6-27.9,38.8-51.5,34s-38.8-27.9-34-51.5s27.9-38.8,51.5-34
						c17.1,3.5,30.5,16.9,34,34h88.1v-698.2h139.6v-122.2h-367.4c-4.8,23.6-27.9,38.8-51.5,34s-38.8-27.9-34-51.5s27.9-38.8,51.5-34
						c17.1,3.5,30.5,16.9,34,34h384.9v157.1h-139.6v698.2L1650.6,2035.5L1650.6,2035.5z M2402.9,202.7c4.8-23.6,27.9-38.8,51.5-34
						s38.8,27.9,34,51.5s-27.9,38.8-51.5,34c-17.1-3.5-30.5-16.9-34-34h-105.6V-76.6h17.5v279.3L2402.9,202.7L2402.9,202.7z
						 M778.7,812.8v384.9H393.8c-4.8,23.6-27.9,38.8-51.5,34s-38.8-27.9-34-51.5s27.9-38.8,51.5-34c17.1,3.5,30.5,16.9,34,34h367.4
						V812.8c-23.6-4.8-38.8-27.9-34-51.5s27.9-38.8,51.5-34s38.8,27.9,34,51.5C809.3,795.9,795.9,809.3,778.7,812.8z M393.8,220.2
						c-4.8,23.6-27.9,38.8-51.5,34s-38.8-27.9-34-51.5s27.9-38.8,51.5-34c17.1,3.5,30.5,16.9,34,34h227.8V-76.6h17.5v296.7
						L393.8,220.2L393.8,220.2z M918.4,254.2v245.2H639.1V1058H533.5c-4.8,23.6-27.9,38.8-51.5,34s-38.8-27.9-34-51.5
						s27.9-38.8,51.5-34c17.1,3.5,30.5,16.9,34,34h88.1V482h279.3V254.2c-23.6-4.8-38.8-27.9-34-51.5s27.9-38.8,51.5-34
						s38.8,27.9,34,51.5C948.9,237.3,935.5,250.7,918.4,254.2z M812.8,639.1c-4.8,23.6-27.9,38.8-51.5,34s-38.8-27.9-34-51.5
						s27.9-38.8,51.5-34c17.1,3.5,30.5,16.9,34,34h227.8V254.2c-23.6-4.8-38.8-27.9-34-51.5s27.9-38.8,51.5-34s38.8,27.9,34,51.5
						c-3.5,17.1-16.9,30.5-34,34v384.9H812.8z M952.4,80.5c-4.8,23.6-27.9,38.8-51.5,34s-38.8-27.9-34-51.5s27.9-38.8,51.5-34
						c17.1,3.5,30.5,16.9,34,34h245.2v385c23.6,4.8,38.8,27.9,34,51.5c-4.8,23.6-27.9,38.8-51.5,34s-38.8-27.9-34-51.5
						c3.5-17.1,16.9-30.5,34-34V80.5H952.4z M1844.3,2436.9c4.8-23.6,27.9-38.8,51.5-34s38.8,27.9,34,51.5s-27.9,38.8-51.5,34
						c-17.1-3.5-30.5-16.9-34-34H778.7v122.2h-17.5V2437L1844.3,2436.9L1844.3,2436.9z M2035.5,1231.7v88.1h139.6v296.7h-139.6
						v541.1h418.9v418.9h-17.5V2175H2018v-576h139.6v-261.8H2018v-105.6c-23.6-4.8-38.8-27.9-34-51.5s27.9-38.8,51.5-34
						c23.6,4.8,38.8,27.9,34,51.5C2066,1214.8,2052.6,1228.2,2035.5,1231.7z M393.8,80.5c-4.8,23.6-27.9,38.8-51.5,34
						s-38.8-27.9-34-51.5s27.9-38.8,51.5-34c17.1,3.5,30.5,16.9,34,34H482V-59.1H342.4v-17.5h157.1V80.5H393.8z M1371.3,359.8
						c-4.8,23.6-27.9,38.8-51.5,34s-38.8-27.9-34-51.5s27.9-38.8,51.5-34c17.1,3.5,30.5,16.9,34,34h227.8V-76.6h436.4v17.5h-418.9
						v418.9H1371.3z M952.4-59.1c-4.8,23.6-27.9,38.9-51.5,34S862-53,866.9-76.6H885c-4.8,13.6,2.4,28.6,16,33.4s28.6-2.4,33.4-16
						c2-5.6,2-11.8,0-17.4H1477v296.7h-157.1V114.6c-23.6-4.8-38.8-27.9-34-51.5s27.9-38.8,51.5-34s38.8,27.9,34,51.5
						c-3.5,17.1-16.9,30.5-34,34v88.1h122.2V-59.1C1459.5-59.1,952.4-59.1,952.4-59.1z M952.4,778.7c-4.8,23.6-27.9,38.8-51.5,34
						s-38.8-27.9-34-51.5s27.9-38.8,51.5-34c17.1,3.5,30.5,16.9,34,34h166.7L1398.4,482h340.4V114.6c-23.6-4.8-38.8-27.9-34-51.5
						s27.9-38.8,51.5-34s38.8,27.9,34,51.5c-3.5,17.1-16.9,30.5-34,34v384.9h-350.6l-279.3,279.3
						C1126.3,778.7,952.4,778.7,952.4,778.7z M1197.6,1565.1c23.6,4.8,38.8,27.9,34,51.5s-27.9,38.8-51.5,34s-38.8-27.9-34-51.5
						c3.5-17.1,16.9-30.5,34-34V897.3l275.7-275.7h422.5v-507c-23.6-4.8-38.8-27.9-34-51.5s27.9-38.8,51.5-34s38.8,27.9,34,51.5
						c-3.5,17.1-16.9,30.5-34,34v524.5H1463l-265.4,265.4V1565.1z M1337.3,1844.3c23.6,4.8,38.8,27.9,34,51.5s-27.9,38.8-51.5,34
						s-38.8-27.9-34-51.5c3.5-17.1,16.9-30.5,34-34V975.9l214.6-214.6h1008.1c3.5-17.1,16.9-30.5,34-34v18.1
						c-13.6,4.8-20.8,19.7-16,33.4c2.6,7.5,8.5,13.4,16,16v18.1c-17.1-3.5-30.5-16.9-34-34H1541.6L1337.3,983V1844.3z M80.5,1285.8
						c23.6,4.8,38.8,27.9,34,51.5s-27.9,38.8-51.5,34s-38.8-27.9-34-51.5c3.5-17.1,16.9-30.5,34-34v-30.6l419-419V342.4h279.3v-419
						h17.5v436.4H499.4v483.6L80.5,1262.3V1285.8z M359.8,393.8v379.7l-418.9,418.9v546.2h227.8c4.8-23.6,27.9-38.8,51.5-34
						s38.8,27.9,34,51.5s-27.9,38.8-51.5,34c-17.1-3.5-30.5-16.9-34-34H-76.6v-570.9l418.9-418.9V393.8c-23.6-4.8-38.8-27.9-34-51.5
						s27.9-38.8,51.5-34s38.8,27.9,34,51.5C390.3,377,376.9,390.3,359.8,393.8z M220.2,533.5v170.3l-296.7,296.7v-24.6l279.3-279.3
						V533.5c-23.6-4.8-38.8-27.9-34-51.5s27.9-38.8,51.5-34s38.8,27.9,34,51.5C250.7,516.6,237.3,530,220.2,533.5z M29,202.7
						c4.8-23.6,27.9-38.8,51.5-34s38.8,27.9,34,51.5S86.6,259,63,254.2c-17.1-3.5-30.5-16.9-34-34H5.6l-82.1,82.1v-24.5l75-75.1
						L29,202.7L29,202.7z M2348.8,359.8c-4.8,23.6-27.9,38.8-51.5,34s-38.8-27.9-34-51.5s27.9-38.8,51.5-34
						c17.1,3.5,30.5,16.9,34,34h163.1l64.7-64.7v24.6l-57.5,57.5h-170.3V359.8z M2209.1,1756.2c-4.8,23.6-27.9,38.8-51.5,34
						s-38.8-27.9-34-51.5s27.9-38.8,51.5-34c17.1,3.5,30.5,16.9,34,34h227.8v-623.2l139.6-139.6v24.6l-122.2,122.2v633.5H2209.1z
						 M393.8,2035.5c-4.8,23.6-27.9,38.8-51.5,34s-38.8-27.9-34-51.5s27.9-38.8,51.5-34c17.1,3.5,30.5,16.9,34,34H482v-197.2
						l-204.3-204.3H114.6c-4.8,23.6-27.9,38.8-51.5,34s-38.8-27.9-34-51.5s27.9-38.8,51.5-34c17.1,3.5,30.5,16.9,34,34h170.3
						l214.6,214.6v221.8C499.4,2035.5,393.8,2035.5,393.8,2035.5z M1704.7,2157.6c4.8-23.6,27.9-38.8,51.5-34s38.8,27.9,34,51.5
						s-27.9,38.8-51.5,34c-17.1-3.5-30.5-16.9-34-34H761.3v-494l-343.9-343.9H254.2c-4.8,23.6-27.9,38.8-51.5,34s-38.8-27.9-34-51.5
						s27.9-38.8,51.5-34c17.1,3.5,30.5,16.9,34,34h170.2L778.7,1674v483.5h926V2157.6z M393.8,2175.1c-4.8,23.6-27.9,38.8-51.5,34
						s-38.8-27.9-34-51.5s27.9-38.8,51.5-34c17.1,3.5,30.5,16.9,34,34h227.8V1751l-274.1-274.1H114.6c-4.8,23.6-27.9,38.8-51.5,34
						s-38.8-27.9-34-51.5s27.9-38.8,51.5-34c17.1,3.5,30.5,16.9,34,34h240.1l284.4,284.4V2175
						C639.1,2175.1,393.8,2175.1,393.8,2175.1z M220.2,270.8v14.1L5.6,499.4h-82.1V482h75l204.3-204.3V-76.6h17.5v347.4H220.2z
						 M-59.1,2542.5c17.1,3.5,30.5,16.9,34,34h-18.1c-4.8-13.6-19.8-20.8-33.4-16l0,0v-402.9H80.5v418.9H63.1V2175H-59.1V2542.5z
						 M220.2,2026.7v549.8h-17.5v-541.1H-76.6V2018h296.7L220.2,2026.7L220.2,2026.7z M71.8,80.5H-76.6V63.1H63.1V-76.6h17.5V80.5
						H71.8z M2454.4,63.1h122.2v17.5H2437V-76.6h17.5L2454.4,63.1L2454.4,63.1z M2175.1,2445.7v130.9h-17.5v-122.2h-122.2v122.2
						H2018V2437h157.1V2445.7z M-76.6,727.2c23.7-4.7,46.8,10.7,51.5,34.4c0.5,2.7,0.8,5.5,0.8,8.3c0,24.1-19.5,43.6-43.6,43.6
						c-2.9,0-5.9-0.3-8.7-0.9v-18.1c13.6,4.8,28.6-2.4,33.4-16s-2.4-28.6-16-33.4c-5.6-2-11.8-2-17.4,0
						C-76.6,745.1-76.6,727.2-76.6,727.2z M621.6,2297.3h17.5v279.3h-17.5V2297.3z M952.4,2576.6h-18.1c-4.8-13.6-19.7-20.8-33.4-16
						c-7.5,2.6-13.4,8.5-16,16h-18.1c4.8-23.6,27.8-38.9,51.4-34.1C935.5,2546,948.9,2559.4,952.4,2576.6z M-25.1-76.6
						c4.7,23.7-10.7,46.8-34.5,51.5c-5.6,1.1-11.4,1.1-17,0v-18.1C-63-38.4-48-45.5-43.2-59.1c2-5.7,2-11.8,0-17.5H-25.1z
						 M2542.5-76.6h18.1c-4.8,13.6,2.3,28.6,15.9,33.4l0,0v18.1C2552.9-29.9,2537.7-52.9,2542.5-76.6L2542.5-76.6z M2576.6,2542.5
						v18.1c-7.5,2.6-13.3,8.5-16,16h-18.1C2546,2559.4,2559.4,2546,2576.6,2542.5z M770,796.2c14.5,0,26.2-11.7,26.2-26.2
						s-11.7-26.2-26.2-26.2s-26.2,11.7-26.2,26.2S755.5,796.2,770,796.2z M770,656.5c14.5,0,26.2-11.7,26.2-26.2
						s-11.7-26.2-26.2-26.2s-26.2,11.7-26.2,26.2S755.5,656.5,770,656.5z M909.6,796.2c14.5,0,26.2-11.7,26.2-26.2
						s-11.7-26.2-26.2-26.2s-26.2,11.7-26.2,26.2C883.4,784.5,895.2,796.2,909.6,796.2z M1049.3,935.8c14.5,0,26.2-11.7,26.2-26.2
						s-11.7-26.2-26.2-26.2s-26.2,11.7-26.2,26.2C1023.1,924.1,1034.8,935.8,1049.3,935.8z M1049.3,1075.5
						c14.5,0,26.2-11.7,26.2-26.2s-11.7-26.2-26.2-26.2s-26.2,11.7-26.2,26.2C1023.1,1063.7,1034.8,1075.5,1049.3,1075.5z
						 M630.4,1354.7c14.5,0,26.2-11.7,26.2-26.2s-11.7-26.2-26.2-26.2s-26.2,11.7-26.2,26.2S615.9,1354.7,630.4,1354.7z M770,1494.4
						c14.5,0,26.2-11.7,26.2-26.2S784.5,1442,770,1442s-26.2,11.7-26.2,26.2C743.8,1482.6,755.5,1494.4,770,1494.4z M1049.3,1913.3
						c14.5,0,26.2-11.7,26.2-26.2s-11.7-26.2-26.2-26.2s-26.2,11.7-26.2,26.2S1034.8,1913.3,1049.3,1913.3z M909.6,2052.9
						c14.5,0,26.2-11.7,26.2-26.2s-11.7-26.2-26.2-26.2s-26.2,11.7-26.2,26.2S895.2,2052.9,909.6,2052.9z M1188.9,1913.3
						c14.5,0,26.2-11.7,26.2-26.2s-11.7-26.2-26.2-26.2s-26.2,11.7-26.2,26.2S1174.4,1913.3,1188.9,1913.3z M1188.9,1634
						c14.5,0,26.2-11.7,26.2-26.2s-11.7-26.2-26.2-26.2s-26.2,11.7-26.2,26.2S1174.4,1634,1188.9,1634z M1328.5,1913.3
						c14.5,0,26.2-11.7,26.2-26.2s-11.7-26.2-26.2-26.2s-26.2,11.7-26.2,26.2S1314.1,1913.3,1328.5,1913.3z M1607.8,2052.9
						c14.5,0,26.2-11.7,26.2-26.2s-11.7-26.2-26.2-26.2s-26.2,11.7-26.2,26.2S1593.4,2052.9,1607.8,2052.9z M1607.8,1913.3
						c14.5,0,26.2-11.7,26.2-26.2s-11.7-26.2-26.2-26.2s-26.2,11.7-26.2,26.2S1593.4,1913.3,1607.8,1913.3z M1468.2,1354.7
						c14.5,0,26.2-11.7,26.2-26.2s-11.7-26.2-26.2-26.2s-26.2,11.7-26.2,26.2S1453.7,1354.7,1468.2,1354.7z M1607.8,1354.7
						c14.5,0,26.2-11.7,26.2-26.2s-11.7-26.2-26.2-26.2s-26.2,11.7-26.2,26.2S1593.4,1354.7,1607.8,1354.7z M1747.5,2192.6
						c14.5,0,26.2-11.7,26.2-26.2s-11.7-26.2-26.2-26.2s-26.2,11.7-26.2,26.2C1721.3,2180.8,1733,2192.6,1747.5,2192.6z
						 M1747.5,2332.2c14.5,0,26.2-11.7,26.2-26.2s-11.7-26.2-26.2-26.2s-26.2,11.7-26.2,26.2S1733,2332.2,1747.5,2332.2z
						 M1887.1,2471.8c14.5,0,26.2-11.7,26.2-26.2s-11.7-26.2-26.2-26.2l0,0c-14.5,0-26.2,11.7-26.2,26.2
						S1872.6,2471.8,1887.1,2471.8z M2026.7,1215.1c14.5,0,26.2-11.7,26.2-26.2s-11.7-26.2-26.2-26.2s-26.2,11.7-26.2,26.2
						C2000.6,1203.4,2012.3,1215.1,2026.7,1215.1z M2026.7,1494.4c14.5,0,26.2-11.7,26.2-26.2s-11.7-26.2-26.2-26.2
						s-26.2,11.7-26.2,26.2C2000.6,1482.6,2012.3,1494.4,2026.7,1494.4z M2166.4,1215.1c14.5,0,26.2-11.7,26.2-26.2
						s-11.7-26.2-26.2-26.2s-26.2,11.7-26.2,26.2S2151.9,1215.1,2166.4,1215.1z M2306,1075.5c14.5,0,26.2-11.7,26.2-26.2
						s-11.7-26.2-26.2-26.2s-26.2,11.7-26.2,26.2C2279.8,1063.7,2291.6,1075.5,2306,1075.5z M1468.2,1075.5
						c14.5,0,26.2-11.7,26.2-26.2s-11.7-26.2-26.2-26.2s-26.2,11.7-26.2,26.2C1442,1063.7,1453.7,1075.5,1468.2,1075.5z
						 M1468.2,1215.1c14.5,0,26.2-11.7,26.2-26.2s-11.7-26.2-26.2-26.2s-26.2,11.7-26.2,26.2S1453.7,1215.1,1468.2,1215.1z
						 M1607.8,935.8c14.5,0,26.2-11.7,26.2-26.2s-11.7-26.2-26.2-26.2s-26.2,11.7-26.2,26.2C1581.6,924.1,1593.4,935.8,1607.8,935.8
						z M2445.7,935.8c14.5,0,26.2-11.7,26.2-26.2s-11.7-26.2-26.2-26.2s-26.2,11.7-26.2,26.2S2431.2,935.8,2445.7,935.8z
						 M2306,377.3c14.5,0,26.2-11.7,26.2-26.2s-11.7-26.2-26.2-26.2s-26.2,11.7-26.2,26.2C2279.8,365.5,2291.6,377.3,2306,377.3z
						 M2445.7,237.6c14.5,0,26.2-11.7,26.2-26.2s-11.7-26.2-26.2-26.2s-26.2,11.7-26.2,26.2C2419.5,225.9,2431.2,237.6,2445.7,237.6
						z M2166.4,237.6c14.5,0,26.2-11.7,26.2-26.2s-11.7-26.2-26.2-26.2s-26.2,11.7-26.2,26.2
						C2140.2,225.9,2151.9,237.6,2166.4,237.6z M2166.4,98c14.5,0,26.2-11.7,26.2-26.2s-11.7-26.2-26.2-26.2s-26.2,11.7-26.2,26.2
						S2151.9,98,2166.4,98z M2026.7,98c14.5,0,26.2-11.7,26.2-26.2s-11.7-26.2-26.2-26.2s-26.2,11.7-26.2,26.2S2012.3,98,2026.7,98z
						 M1887.1,98c14.5,0,26.2-11.7,26.2-26.2s-11.7-26.2-26.2-26.2l0,0c-14.5,0-26.2,11.7-26.2,26.2S1872.6,98,1887.1,98z
						 M1747.5,98c14.5,0,26.2-11.7,26.2-26.2s-11.7-26.2-26.2-26.2s-26.2,11.7-26.2,26.2S1733,98,1747.5,98z M351.1,237.6
						c14.5,0,26.2-11.7,26.2-26.2s-11.7-26.2-26.2-26.2s-26.2,11.7-26.2,26.2C324.9,225.9,336.6,237.6,351.1,237.6z M71.8,237.6
						c14.5,0,26.2-11.7,26.2-26.2s-11.7-26.2-26.2-26.2S45.6,197,45.6,211.4C45.6,225.9,57.3,237.6,71.8,237.6z M351.1,377.3
						c14.5,0,26.2-11.7,26.2-26.2s-11.7-26.2-26.2-26.2s-26.2,11.7-26.2,26.2C324.9,365.5,336.6,377.3,351.1,377.3z M211.4,516.9
						c14.5,0,26.2-11.7,26.2-26.2s-11.7-26.2-26.2-26.2s-26.2,11.7-26.2,26.2S197,516.9,211.4,516.9z M351.1,98
						c14.5,0,26.2-11.7,26.2-26.2s-11.7-26.2-26.2-26.2s-26.2,11.7-26.2,26.2S336.6,98,351.1,98z M351.1,2192.6
						c14.5,0,26.2-11.7,26.2-26.2s-11.7-26.2-26.2-26.2s-26.2,11.7-26.2,26.2C324.9,2180.8,336.6,2192.6,351.1,2192.6z
						 M490.7,2471.8c14.5,0,26.2-11.7,26.2-26.2s-11.7-26.2-26.2-26.2s-26.2,11.7-26.2,26.2S476.3,2471.8,490.7,2471.8z
						 M351.1,1913.3c14.5,0,26.2-11.7,26.2-26.2s-11.7-26.2-26.2-26.2s-26.2,11.7-26.2,26.2S336.6,1913.3,351.1,1913.3z
						 M351.1,2052.9c14.5,0,26.2-11.7,26.2-26.2s-11.7-26.2-26.2-26.2s-26.2,11.7-26.2,26.2S336.6,2052.9,351.1,2052.9z
						 M211.4,1773.6c14.5,0,26.2-11.7,26.2-26.2s-11.7-26.2-26.2-26.2s-26.2,11.7-26.2,26.2S197,1773.6,211.4,1773.6z M909.6,237.6
						c14.5,0,26.2-11.7,26.2-26.2s-11.7-26.2-26.2-26.2s-26.2,11.7-26.2,26.2C883.4,225.9,895.2,237.6,909.6,237.6z M1049.3,237.6
						c14.5,0,26.2-11.7,26.2-26.2s-11.7-26.2-26.2-26.2s-26.2,11.7-26.2,26.2C1023.1,225.9,1034.8,237.6,1049.3,237.6z M909.6,98
						c14.5,0,26.2-11.7,26.2-26.2s-11.7-26.2-26.2-26.2s-26.2,11.7-26.2,26.2S895.2,98,909.6,98z M1188.9,516.9
						c14.5,0,26.2-11.7,26.2-26.2s-11.7-26.2-26.2-26.2s-26.2,11.7-26.2,26.2S1174.4,516.9,1188.9,516.9z M1328.5,377.3
						c14.5,0,26.2-11.7,26.2-26.2s-11.7-26.2-26.2-26.2s-26.2,11.7-26.2,26.2C1302.4,365.5,1314.1,377.3,1328.5,377.3z M1328.5,98
						c14.5,0,26.2-11.7,26.2-26.2s-11.7-26.2-26.2-26.2s-26.2,11.7-26.2,26.2S1314.1,98,1328.5,98z M2306,1634
						c14.5,0,26.2-11.7,26.2-26.2s-11.7-26.2-26.2-26.2s-26.2,11.7-26.2,26.2S2291.6,1634,2306,1634z M2166.4,1773.6
						c14.5,0,26.2-11.7,26.2-26.2s-11.7-26.2-26.2-26.2s-26.2,11.7-26.2,26.2S2151.9,1773.6,2166.4,1773.6z M2166.4,1913.3
						c14.5,0,26.2-11.7,26.2-26.2s-11.7-26.2-26.2-26.2s-26.2,11.7-26.2,26.2S2151.9,1913.3,2166.4,1913.3z M2166.4,2052.9
						c14.5,0,26.2-11.7,26.2-26.2s-11.7-26.2-26.2-26.2s-26.2,11.7-26.2,26.2S2151.9,2052.9,2166.4,2052.9z M71.8,1494.4
						c14.5,0,26.2-11.7,26.2-26.2S86.3,1442,71.8,1442s-26.2,11.7-26.2,26.2C45.6,1482.6,57.3,1494.4,71.8,1494.4z M71.8,1634
						c14.5,0,26.2-11.7,26.2-26.2s-11.7-26.2-26.2-26.2s-26.2,11.7-26.2,26.2S57.3,1634,71.8,1634z M71.8,1354.7
						c14.5,0,26.2-11.7,26.2-26.2s-11.7-26.2-26.2-26.2s-26.2,11.7-26.2,26.2S57.3,1354.7,71.8,1354.7z M211.4,1354.7
						c14.5,0,26.2-11.7,26.2-26.2s-11.7-26.2-26.2-26.2s-26.2,11.7-26.2,26.2S197,1354.7,211.4,1354.7z M71.8,656.5
						c14.5,0,26.2-11.7,26.2-26.2s-11.7-26.2-26.2-26.2s-26.2,11.7-26.2,26.2C45.6,644.8,57.3,656.5,71.8,656.5z M351.1,1215.1
						c14.5,0,26.2-11.7,26.2-26.2s-11.7-26.2-26.2-26.2s-26.2,11.7-26.2,26.2S336.6,1215.1,351.1,1215.1z M490.7,1075.5
						c14.5,0,26.2-11.7,26.2-26.2s-11.7-26.2-26.2-26.2s-26.2,11.7-26.2,26.2C464.5,1063.7,476.3,1075.5,490.7,1075.5z"/>
				</g>
			</g>
		</g>
	</g>
</g>
<g id="XMLID_1_">
	<g>
		<path class="st1" d="M1699.2,1115.7c74.1,74,74.2,194.1,0.2,268.3c-0.3,0.3-0.6,0.6-0.9,0.9c-35.7,35.7-84.3,55.6-134.9,55.5
			c-50.5,0.2-99.1-19.8-134.9-55.5L1311,1268.2l-0.1-0.1c-4.9-4.9-7.6-11.4-7.6-18.3c0-6.9,2.8-13.5,7.7-18.3
			c38.1-37.5,91-89.9,117.7-116.4c74.7-73.9,195-73.9,269.9-0.1L1699.2,1115.7z"/>
		<path class="st1" d="M1189.1,1231.7c10.1,10.1,10.1,26.3,0.1,36.3c-0.1,0.1-0.1,0.1-0.2,0.2l-117.7,116.6
			c-74.7,73.9-195,73.9-269.9,0.1l-0.7-0.7c-74.1-74-74.2-194.1-0.2-268.3c0.3-0.3,0.6-0.6,0.9-0.9c74.8-73.8,195-73.8,269.9,0.1
			C1098,1141.7,1150.9,1194,1189.1,1231.7L1189.1,1231.7z"/>
		<path class="st2" d="M1777,1044.1c113.7,115,112.7,300.3-2.3,414.1c-117.1,115.4-305,115.4-422.1,0L1250,1356.7l-102.6,101.5
			c-117.1,115.4-305,115.4-422.1,0l-1-1c-0.4-0.4-0.9-0.9-1.3-1.3c-113.7-115-112.7-300.3,2.3-414.1c117.1-115.4,305-115.4,422.1,0
			l102.6,101.4l102.6-101.4c117.1-115.4,305-115.4,422.1,0l1,1C1776.2,1043.3,1776.6,1043.7,1777,1044.1z M1699.4,1384
			c74.1-74.1,74-194.3-0.2-268.3l-0.7-0.7c-74.8-73.8-195.1-73.8-269.9,0.1c-26.7,26.4-79.6,78.8-117.7,116.4
			c-4.9,4.9-7.7,11.4-7.7,18.3c0,6.8,2.7,13.4,7.6,18.3l0.1,0.1l117.7,116.6c35.8,35.7,84.4,55.6,134.9,55.5
			c50.6,0.2,99.1-19.8,134.9-55.5C1698.8,1384.6,1699.1,1384.2,1699.4,1384z M1189.2,1268c10-10.1,10-26.3-0.1-36.3l-0.1-0.1
			c-38.1-37.5-91-89.8-117.7-116.4c-74.8-73.9-195-73.9-269.9-0.1c-0.3,0.3-0.6,0.6-0.9,0.9c-74.1,74.1-74,194.3,0.2,268.3l0.7,0.7
			c74.8,73.8,195.1,73.8,269.9-0.1l117.7-116.6C1189.1,1268.1,1189.1,1268.1,1189.2,1268z"/>
	</g>
</g>
</svg>
