<?xml version="1.0" encoding="utf-8"?>
<!-- Generator: Adobe Illustrator 21.1.0, SVG Export Plug-In . SVG Version: 6.00 Build 0)  -->
<svg version="1.1" id="Layer_1" xmlns="http://www.w3.org/2000/svg" xmlns:xlink="http://www.w3.org/1999/xlink" x="0px" y="0px"
	 viewBox="0 0 2500 2500" style="enable-background:new 0 0 2500 2500;" xml:space="preserve">
<style type="text/css">
	.st0{clip-path:url(#SVGID_2_);fill-opacity:0.1;}
	.st1{fill:#F5F8FA;}
	.st2{fill:#FB8C00;}
</style>
<g>
	<g>
		<g>
			<g>
				<defs>
					<circle id="SVGID_1_" cx="1250" cy="1250" r="1250"/>
				</defs>
				<clipPath id="SVGID_2_">
					<use xlink:href="#SVGID_1_"  style="overflow:visible;"/>
				</clipPath>
				<path class="st0" d="M308.3,1878.4c4.8-23.6,27.9-38.8,51.5-34s38.8,27.9,34,51.5s-27.9,38.8-51.5,34c-17.1-3.5-30.5-16.9-34-34
					H-76.6v-17.5H308.3z M1704.7,2297.3c4.8-23.6,27.9-38.8,51.5-34s38.8,27.9,34,51.5s-27.9,38.8-51.5,34
					c-17.1-3.5-30.5-16.9-34-34H639.1v-17.5H1704.7z M2209.1,1895.8c-4.8,23.6-27.9,38.8-51.5,34s-38.8-27.9-34-51.5
					s27.9-38.8,51.5-34c17.1,3.5,30.5,16.9,34,34h367.4v17.5H2209.1z M2209.1,2035.5c-4.8,23.6-27.9,38.8-51.5,34
					s-38.8-27.9-34-51.5s27.9-38.8,51.5-34c17.1,3.5,30.5,16.9,34,34h367.4v17.5H2209.1z M2263.2,1040.5c4.8-23.6,27.9-38.8,51.5-34
					s38.8,27.9,34,51.5s-27.9,38.8-51.5,34c-17.1-3.5-30.5-16.9-34-34h-752.3c-4.8,23.6-27.9,38.8-51.5,34s-38.8-27.9-34-51.5
					s27.9-38.8,51.5-34c17.1,3.5,30.5,16.9,34,34H2263.2z M29,621.6c4.8-23.6,27.9-38.8,51.5-34s38.8,27.9,34,51.5
					s-27.9,38.8-51.5,34c-17.1-3.5-30.5-16.9-34-34H-76.6v-17.5H29z M1650.6,918.4c-4.8,23.6-27.9,38.8-51.5,34s-38.8-27.9-34-51.5
					s27.9-38.8,51.5-34c17.1,3.5,30.5,16.9,34,34h752.3c4.8-23.6,27.9-38.8,51.5-34s38.8,27.9,34,51.5s-27.9,38.8-51.5,34
					c-17.1-3.5-30.5-16.9-34-34H1650.6z M2175.1,29c23.6,4.8,38.8,27.9,34,51.5s-27.9,38.8-51.5,34s-38.8-27.9-34-51.5
					c3.5-17.1,16.9-30.5,34-34V-76.6h17.5V29z M1616.6,1844.3c23.6,4.8,38.8,27.9,34,51.5s-27.9,38.8-51.5,34s-38.8-27.9-34-51.5
					c3.5-17.1,16.9-30.5,34-34v-473c-23.6-4.8-38.8-27.9-34-51.5s27.9-38.8,51.5-34s38.8,27.9,34,51.5c-3.5,17.1-16.9,30.5-34,34
					V1844.3z M2035.5,114.6v507.1h541.1v17.5H2018V114.6c-23.6-4.8-38.8-27.9-34-51.5s27.9-38.8,51.5-34c23.6,4.8,38.8,27.9,34,51.5
					C2066,97.7,2052.6,111.1,2035.5,114.6z M2175.1,254.2V482h401.5v17.5h-418.9V254.2c-23.6-4.8-38.8-27.9-34-51.5
					s27.9-38.8,51.5-34s38.8,27.9,34,51.5C2205.6,237.3,2192.2,250.7,2175.1,254.2z M1058,1092v646.7h139.6v105.6
					c23.6,4.8,38.8,27.9,34,51.5s-27.9,38.8-51.5,34s-38.8-27.9-34-51.5c3.5-17.1,16.9-30.5,34-34v-88.1h-139.6V1092
					c-23.6-4.8-38.8-27.9-34-51.5s27.9-38.8,51.5-34s38.8,27.9,34,51.5C1088.5,1075.1,1075.1,1088.5,1058,1092L1058,1092z
					 M1006.5,900.9c4.8-23.6,27.9-38.8,51.5-34s38.8,27.9,34,51.5s-27.9,38.8-51.5,34c-17.1-3.5-30.5-16.9-34-34h-88.1v418.9H673.1
					c-4.8,23.6-27.9,38.8-51.5,34s-38.8-27.9-34-51.5s27.9-38.8,51.5-34c17.1,3.5,30.5,16.9,34,34h227.8V900.9
					C900.9,900.9,1006.5,900.9,1006.5,900.9z M952.4,2035.5c-4.8,23.6-27.9,38.8-51.5,34s-38.8-27.9-34-51.5s27.9-38.8,51.5-34
					c17.1,3.5,30.5,16.9,34,34h507.1v-646.7c-23.6-4.8-38.8-27.9-34-51.5s27.9-38.8,51.5-34s38.8,27.9,34,51.5
					c-3.5,17.1-16.9,30.5-34,34v664.2H952.4z M812.8,1476.9c-4.8,23.6-27.9,38.8-51.5,34s-38.8-27.9-34-51.5s27.9-38.8,51.5-34
					c17.1,3.5,30.5,16.9,34,34h105.6v418.9h88.1c4.8-23.6,27.9-38.8,51.5-34c23.6,4.8,38.8,27.9,34,51.5s-27.9,38.8-51.5,34
					c-17.1-3.5-30.5-16.9-34-34H900.9v-418.9H812.8z M499.4,2402.9c23.6,4.8,38.8,27.9,34,51.5s-27.9,38.8-51.5,34
					s-38.8-27.9-34-51.5c3.5-17.1,16.9-30.5,34-34v-88.1H359.8v261.8h-17.5v-279.3h157.1V2402.9z M1984,1459.5
					c4.8-23.6,27.9-38.8,51.5-34c23.6,4.8,38.8,27.9,34,51.5s-27.9,38.8-51.5,34c-17.1-3.5-30.5-16.9-34-34h-88.1v820.4h418.9v279.3
					h-17.5v-261.8h-418.9v-855.3L1984,1459.5L1984,1459.5z M2209.1,1197.6c-4.8,23.6-27.9,38.8-51.5,34s-38.8-27.9-34-51.5
					s27.9-38.8,51.5-34c17.1,3.5,30.5,16.9,34,34h105.6V1565c23.6,4.8,38.8,27.9,34,51.5s-27.9,38.8-51.5,34s-38.8-27.9-34-51.5
					c3.5-17.1,16.9-30.5,34-34v-367.4H2209.1z M1650.6,2035.5c-4.8,23.6-27.9,38.8-51.5,34s-38.8-27.9-34-51.5s27.9-38.8,51.5-34
					c17.1,3.5,30.5,16.9,34,34h88.1v-698.2h139.6v-122.2h-367.4c-4.8,23.6-27.9,38.8-51.5,34s-38.8-27.9-34-51.5s27.9-38.8,51.5-34
					c17.1,3.5,30.5,16.9,34,34h384.9v157.1h-139.6v698.2L1650.6,2035.5L1650.6,2035.5z M2402.9,202.7c4.8-23.6,27.9-38.8,51.5-34
					s38.8,27.9,34,51.5s-27.9,38.8-51.5,34c-17.1-3.5-30.5-16.9-34-34h-105.6V-76.6h17.5v279.3L2402.9,202.7L2402.9,202.7z
					 M778.7,812.8v384.9H393.8c-4.8,23.6-27.9,38.8-51.5,34s-38.8-27.9-34-51.5s27.9-38.8,51.5-34c17.1,3.5,30.5,16.9,34,34h367.4
					V812.8c-23.6-4.8-38.8-27.9-34-51.5s27.9-38.8,51.5-34s38.8,27.9,34,51.5C809.3,795.9,795.9,809.3,778.7,812.8z M393.8,220.2
					c-4.8,23.6-27.9,38.8-51.5,34s-38.8-27.9-34-51.5s27.9-38.8,51.5-34c17.1,3.5,30.5,16.9,34,34h227.8V-76.6h17.5v296.7
					L393.8,220.2L393.8,220.2z M918.4,254.2v245.2H639.1V1058H533.5c-4.8,23.6-27.9,38.8-51.5,34s-38.8-27.9-34-51.5
					s27.9-38.8,51.5-34c17.1,3.5,30.5,16.9,34,34h88.1V482h279.3V254.2c-23.6-4.8-38.8-27.9-34-51.5s27.9-38.8,51.5-34
					s38.8,27.9,34,51.5C948.9,237.3,935.5,250.7,918.4,254.2z M812.8,639.1c-4.8,23.6-27.9,38.8-51.5,34s-38.8-27.9-34-51.5
					s27.9-38.8,51.5-34c17.1,3.5,30.5,16.9,34,34h227.8V254.2c-23.6-4.8-38.8-27.9-34-51.5s27.9-38.8,51.5-34s38.8,27.9,34,51.5
					c-3.5,17.1-16.9,30.5-34,34v384.9H812.8z M952.4,80.5c-4.8,23.6-27.9,38.8-51.5,34s-38.8-27.9-34-51.5s27.9-38.8,51.5-34
					c17.1,3.5,30.5,16.9,34,34h245.2v385c23.6,4.8,38.8,27.9,34,51.5c-4.8,23.6-27.9,38.8-51.5,34s-38.8-27.9-34-51.5
					c3.5-17.1,16.9-30.5,34-34V80.5H952.4z M1844.3,2436.9c4.8-23.6,27.9-38.8,51.5-34s38.8,27.9,34,51.5s-27.9,38.8-51.5,34
					c-17.1-3.5-30.5-16.9-34-34H778.7v122.2h-17.5V2437L1844.3,2436.9L1844.3,2436.9z M2035.5,1231.7v88.1h139.6v296.7h-139.6v541.1
					h418.9v418.9h-17.5V2175H2018v-576h139.6v-261.8H2018v-105.6c-23.6-4.8-38.8-27.9-34-51.5s27.9-38.8,51.5-34
					c23.6,4.8,38.8,27.9,34,51.5C2066,1214.8,2052.6,1228.2,2035.5,1231.7z M393.8,80.5c-4.8,23.6-27.9,38.8-51.5,34
					s-38.8-27.9-34-51.5s27.9-38.8,51.5-34c17.1,3.5,30.5,16.9,34,34H482V-59.1H342.4v-17.5h157.1V80.5H393.8z M1371.3,359.8
					c-4.8,23.6-27.9,38.8-51.5,34s-38.8-27.9-34-51.5s27.9-38.8,51.5-34c17.1,3.5,30.5,16.9,34,34h227.8V-76.6h436.4v17.5h-418.9
					v418.9H1371.3z M952.4-59.1c-4.8,23.6-27.9,38.9-51.5,34S862-53,866.9-76.6H885c-4.8,13.6,2.4,28.6,16,33.4s28.6-2.4,33.4-16
					c2-5.6,2-11.8,0-17.4H1477v296.7h-157.1V114.6c-23.6-4.8-38.8-27.9-34-51.5s27.9-38.8,51.5-34s38.8,27.9,34,51.5
					c-3.5,17.1-16.9,30.5-34,34v88.1h122.2V-59.1C1459.5-59.1,952.4-59.1,952.4-59.1z M952.4,778.7c-4.8,23.6-27.9,38.8-51.5,34
					s-38.8-27.9-34-51.5s27.9-38.8,51.5-34c17.1,3.5,30.5,16.9,34,34h166.7L1398.4,482h340.4V114.6c-23.6-4.8-38.8-27.9-34-51.5
					s27.9-38.8,51.5-34s38.8,27.9,34,51.5c-3.5,17.1-16.9,30.5-34,34v384.9h-350.6l-279.3,279.3
					C1126.3,778.7,952.4,778.7,952.4,778.7z M1197.6,1565.1c23.6,4.8,38.8,27.9,34,51.5s-27.9,38.8-51.5,34s-38.8-27.9-34-51.5
					c3.5-17.1,16.9-30.5,34-34V897.3l275.7-275.7h422.5v-507c-23.6-4.8-38.8-27.9-34-51.5s27.9-38.8,51.5-34s38.8,27.9,34,51.5
					c-3.5,17.1-16.9,30.5-34,34v524.5H1463l-265.4,265.4V1565.1z M1337.3,1844.3c23.6,4.8,38.8,27.9,34,51.5s-27.9,38.8-51.5,34
					s-38.8-27.9-34-51.5c3.5-17.1,16.9-30.5,34-34V975.9l214.6-214.6h1008.1c3.5-17.1,16.9-30.5,34-34v18.1
					c-13.6,4.8-20.8,19.7-16,33.4c2.6,7.5,8.5,13.4,16,16v18.1c-17.1-3.5-30.5-16.9-34-34H1541.6L1337.3,983V1844.3z M80.5,1285.8
					c23.6,4.8,38.8,27.9,34,51.5s-27.9,38.8-51.5,34s-38.8-27.9-34-51.5c3.5-17.1,16.9-30.5,34-34v-30.6l419-419V342.4h279.3v-419
					h17.5v436.4H499.4v483.6L80.5,1262.3V1285.8z M359.8,393.8v379.7l-418.9,418.9v546.2h227.8c4.8-23.6,27.9-38.8,51.5-34
					s38.8,27.9,34,51.5s-27.9,38.8-51.5,34c-17.1-3.5-30.5-16.9-34-34H-76.6v-570.9l418.9-418.9V393.8c-23.6-4.8-38.8-27.9-34-51.5
					s27.9-38.8,51.5-34s38.8,27.9,34,51.5C390.3,377,376.9,390.3,359.8,393.8z M220.2,533.5v170.3l-296.7,296.7v-24.6l279.3-279.3
					V533.5c-23.6-4.8-38.8-27.9-34-51.5s27.9-38.8,51.5-34s38.8,27.9,34,51.5C250.7,516.6,237.3,530,220.2,533.5z M29,202.7
					c4.8-23.6,27.9-38.8,51.5-34s38.8,27.9,34,51.5S86.6,259,63,254.2c-17.1-3.5-30.5-16.9-34-34H5.6l-82.1,82.1v-24.5l75-75.1
					L29,202.7L29,202.7z M2348.8,359.8c-4.8,23.6-27.9,38.8-51.5,34s-38.8-27.9-34-51.5s27.9-38.8,51.5-34c17.1,3.5,30.5,16.9,34,34
					h163.1l64.7-64.7v24.6l-57.5,57.5h-170.3V359.8z M2209.1,1756.2c-4.8,23.6-27.9,38.8-51.5,34s-38.8-27.9-34-51.5
					s27.9-38.8,51.5-34c17.1,3.5,30.5,16.9,34,34h227.8v-623.2l139.6-139.6v24.6l-122.2,122.2v633.5H2209.1z M393.8,2035.5
					c-4.8,23.6-27.9,38.8-51.5,34s-38.8-27.9-34-51.5s27.9-38.8,51.5-34c17.1,3.5,30.5,16.9,34,34H482v-197.2l-204.3-204.3H114.6
					c-4.8,23.6-27.9,38.8-51.5,34s-38.8-27.9-34-51.5s27.9-38.8,51.5-34c17.1,3.5,30.5,16.9,34,34h170.3l214.6,214.6v221.8
					C499.4,2035.5,393.8,2035.5,393.8,2035.5z M1704.7,2157.6c4.8-23.6,27.9-38.8,51.5-34s38.8,27.9,34,51.5s-27.9,38.8-51.5,34
					c-17.1-3.5-30.5-16.9-34-34H761.3v-494l-343.9-343.9H254.2c-4.8,23.6-27.9,38.8-51.5,34s-38.8-27.9-34-51.5s27.9-38.8,51.5-34
					c17.1,3.5,30.5,16.9,34,34h170.2L778.7,1674v483.5h926V2157.6z M393.8,2175.1c-4.8,23.6-27.9,38.8-51.5,34s-38.8-27.9-34-51.5
					s27.9-38.8,51.5-34c17.1,3.5,30.5,16.9,34,34h227.8V1751l-274.1-274.1H114.6c-4.8,23.6-27.9,38.8-51.5,34s-38.8-27.9-34-51.5
					s27.9-38.8,51.5-34c17.1,3.5,30.5,16.9,34,34h240.1l284.4,284.4V2175C639.1,2175.1,393.8,2175.1,393.8,2175.1z M220.2,270.8
					v14.1L5.6,499.4h-82.1V482h75l204.3-204.3V-76.6h17.5v347.4H220.2z M-59.1,2542.5c17.1,3.5,30.5,16.9,34,34h-18.1
					c-4.8-13.6-19.8-20.8-33.4-16l0,0v-402.9H80.5v418.9H63.1V2175H-59.1V2542.5z M220.2,2026.7v549.8h-17.5v-541.1H-76.6V2018
					h296.7L220.2,2026.7L220.2,2026.7z M71.8,80.5H-76.6V63.1H63.1V-76.6h17.5V80.5H71.8z M2454.4,63.1h122.2v17.5H2437V-76.6h17.5
					L2454.4,63.1L2454.4,63.1z M2175.1,2445.7v130.9h-17.5v-122.2h-122.2v122.2H2018V2437h157.1V2445.7z M-76.6,727.2
					c23.7-4.7,46.8,10.7,51.5,34.4c0.5,2.7,0.8,5.5,0.8,8.3c0,24.1-19.5,43.6-43.6,43.6c-2.9,0-5.9-0.3-8.7-0.9v-18.1
					c13.6,4.8,28.6-2.4,33.4-16s-2.4-28.6-16-33.4c-5.6-2-11.8-2-17.4,0C-76.6,745.1-76.6,727.2-76.6,727.2z M621.6,2297.3h17.5
					v279.3h-17.5V2297.3z M952.4,2576.6h-18.1c-4.8-13.6-19.7-20.8-33.4-16c-7.5,2.6-13.4,8.5-16,16h-18.1
					c4.8-23.6,27.8-38.9,51.4-34.1C935.5,2546,948.9,2559.4,952.4,2576.6z M-25.1-76.6c4.7,23.7-10.7,46.8-34.5,51.5
					c-5.6,1.1-11.4,1.1-17,0v-18.1C-63-38.4-48-45.5-43.2-59.1c2-5.7,2-11.8,0-17.5H-25.1z M2542.5-76.6h18.1
					c-4.8,13.6,2.3,28.6,15.9,33.4l0,0v18.1C2552.9-29.9,2537.7-52.9,2542.5-76.6L2542.5-76.6z M2576.6,2542.5v18.1
					c-7.5,2.6-13.3,8.5-16,16h-18.1C2546,2559.4,2559.4,2546,2576.6,2542.5z M770,796.2c14.5,0,26.2-11.7,26.2-26.2
					s-11.7-26.2-26.2-26.2s-26.2,11.7-26.2,26.2S755.5,796.2,770,796.2z M770,656.5c14.5,0,26.2-11.7,26.2-26.2
					s-11.7-26.2-26.2-26.2s-26.2,11.7-26.2,26.2S755.5,656.5,770,656.5z M909.6,796.2c14.5,0,26.2-11.7,26.2-26.2
					s-11.7-26.2-26.2-26.2s-26.2,11.7-26.2,26.2C883.4,784.5,895.2,796.2,909.6,796.2z M1049.3,935.8c14.5,0,26.2-11.7,26.2-26.2
					s-11.7-26.2-26.2-26.2s-26.2,11.7-26.2,26.2C1023.1,924.1,1034.8,935.8,1049.3,935.8z M1049.3,1075.5
					c14.5,0,26.2-11.7,26.2-26.2s-11.7-26.2-26.2-26.2s-26.2,11.7-26.2,26.2C1023.1,1063.7,1034.8,1075.5,1049.3,1075.5z
					 M630.4,1354.7c14.5,0,26.2-11.7,26.2-26.2s-11.7-26.2-26.2-26.2s-26.2,11.7-26.2,26.2S615.9,1354.7,630.4,1354.7z M770,1494.4
					c14.5,0,26.2-11.7,26.2-26.2S784.5,1442,770,1442s-26.2,11.7-26.2,26.2C743.8,1482.6,755.5,1494.4,770,1494.4z M1049.3,1913.3
					c14.5,0,26.2-11.7,26.2-26.2s-11.7-26.2-26.2-26.2s-26.2,11.7-26.2,26.2S1034.8,1913.3,1049.3,1913.3z M909.6,2052.9
					c14.5,0,26.2-11.7,26.2-26.2s-11.7-26.2-26.2-26.2s-26.2,11.7-26.2,26.2S895.2,2052.9,909.6,2052.9z M1188.9,1913.3
					c14.5,0,26.2-11.7,26.2-26.2s-11.7-26.2-26.2-26.2s-26.2,11.7-26.2,26.2S1174.4,1913.3,1188.9,1913.3z M1188.9,1634
					c14.5,0,26.2-11.7,26.2-26.2s-11.7-26.2-26.2-26.2s-26.2,11.7-26.2,26.2S1174.4,1634,1188.9,1634z M1328.5,1913.3
					c14.5,0,26.2-11.7,26.2-26.2s-11.7-26.2-26.2-26.2s-26.2,11.7-26.2,26.2S1314.1,1913.3,1328.5,1913.3z M1607.8,2052.9
					c14.5,0,26.2-11.7,26.2-26.2s-11.7-26.2-26.2-26.2s-26.2,11.7-26.2,26.2S1593.4,2052.9,1607.8,2052.9z M1607.8,1913.3
					c14.5,0,26.2-11.7,26.2-26.2s-11.7-26.2-26.2-26.2s-26.2,11.7-26.2,26.2S1593.4,1913.3,1607.8,1913.3z M1468.2,1354.7
					c14.5,0,26.2-11.7,26.2-26.2s-11.7-26.2-26.2-26.2s-26.2,11.7-26.2,26.2S1453.7,1354.7,1468.2,1354.7z M1607.8,1354.7
					c14.5,0,26.2-11.7,26.2-26.2s-11.7-26.2-26.2-26.2s-26.2,11.7-26.2,26.2S1593.4,1354.7,1607.8,1354.7z M1747.5,2192.6
					c14.5,0,26.2-11.7,26.2-26.2s-11.7-26.2-26.2-26.2s-26.2,11.7-26.2,26.2C1721.3,2180.8,1733,2192.6,1747.5,2192.6z
					 M1747.5,2332.2c14.5,0,26.2-11.7,26.2-26.2s-11.7-26.2-26.2-26.2s-26.2,11.7-26.2,26.2S1733,2332.2,1747.5,2332.2z
					 M1887.1,2471.8c14.5,0,26.2-11.7,26.2-26.2s-11.7-26.2-26.2-26.2l0,0c-14.5,0-26.2,11.7-26.2,26.2S1872.6,2471.8,1887.1,2471.8
					z M2026.7,1215.1c14.5,0,26.2-11.7,26.2-26.2s-11.7-26.2-26.2-26.2s-26.2,11.7-26.2,26.2
					C2000.6,1203.4,2012.3,1215.1,2026.7,1215.1z M2026.7,1494.4c14.5,0,26.2-11.7,26.2-26.2s-11.7-26.2-26.2-26.2
					s-26.2,11.7-26.2,26.2C2000.6,1482.6,2012.3,1494.4,2026.7,1494.4z M2166.4,1215.1c14.5,0,26.2-11.7,26.2-26.2
					s-11.7-26.2-26.2-26.2s-26.2,11.7-26.2,26.2S2151.9,1215.1,2166.4,1215.1z M2306,1075.5c14.5,0,26.2-11.7,26.2-26.2
					s-11.7-26.2-26.2-26.2s-26.2,11.7-26.2,26.2C2279.8,1063.7,2291.6,1075.5,2306,1075.5z M1468.2,1075.5
					c14.5,0,26.2-11.7,26.2-26.2s-11.7-26.2-26.2-26.2s-26.2,11.7-26.2,26.2C1442,1063.7,1453.7,1075.5,1468.2,1075.5z
					 M1468.2,1215.1c14.5,0,26.2-11.7,26.2-26.2s-11.7-26.2-26.2-26.2s-26.2,11.7-26.2,26.2S1453.7,1215.1,1468.2,1215.1z
					 M1607.8,935.8c14.5,0,26.2-11.7,26.2-26.2s-11.7-26.2-26.2-26.2s-26.2,11.7-26.2,26.2C1581.6,924.1,1593.4,935.8,1607.8,935.8z
					 M2445.7,935.8c14.5,0,26.2-11.7,26.2-26.2s-11.7-26.2-26.2-26.2s-26.2,11.7-26.2,26.2S2431.2,935.8,2445.7,935.8z M2306,377.3
					c14.5,0,26.2-11.7,26.2-26.2s-11.7-26.2-26.2-26.2s-26.2,11.7-26.2,26.2C2279.8,365.5,2291.6,377.3,2306,377.3z M2445.7,237.6
					c14.5,0,26.2-11.7,26.2-26.2s-11.7-26.2-26.2-26.2s-26.2,11.7-26.2,26.2C2419.5,225.9,2431.2,237.6,2445.7,237.6z M2166.4,237.6
					c14.5,0,26.2-11.7,26.2-26.2s-11.7-26.2-26.2-26.2s-26.2,11.7-26.2,26.2C2140.2,225.9,2151.9,237.6,2166.4,237.6z M2166.4,98
					c14.5,0,26.2-11.7,26.2-26.2s-11.7-26.2-26.2-26.2s-26.2,11.7-26.2,26.2S2151.9,98,2166.4,98z M2026.7,98
					c14.5,0,26.2-11.7,26.2-26.2s-11.7-26.2-26.2-26.2s-26.2,11.7-26.2,26.2S2012.3,98,2026.7,98z M1887.1,98
					c14.5,0,26.2-11.7,26.2-26.2s-11.7-26.2-26.2-26.2l0,0c-14.5,0-26.2,11.7-26.2,26.2S1872.6,98,1887.1,98z M1747.5,98
					c14.5,0,26.2-11.7,26.2-26.2s-11.7-26.2-26.2-26.2s-26.2,11.7-26.2,26.2S1733,98,1747.5,98z M351.1,237.6
					c14.5,0,26.2-11.7,26.2-26.2s-11.7-26.2-26.2-26.2s-26.2,11.7-26.2,26.2C324.9,225.9,336.6,237.6,351.1,237.6z M71.8,237.6
					c14.5,0,26.2-11.7,26.2-26.2s-11.7-26.2-26.2-26.2S45.6,197,45.6,211.4C45.6,225.9,57.3,237.6,71.8,237.6z M351.1,377.3
					c14.5,0,26.2-11.7,26.2-26.2s-11.7-26.2-26.2-26.2s-26.2,11.7-26.2,26.2C324.9,365.5,336.6,377.3,351.1,377.3z M211.4,516.9
					c14.5,0,26.2-11.7,26.2-26.2s-11.7-26.2-26.2-26.2s-26.2,11.7-26.2,26.2S197,516.9,211.4,516.9z M351.1,98
					c14.5,0,26.2-11.7,26.2-26.2s-11.7-26.2-26.2-26.2s-26.2,11.7-26.2,26.2S336.6,98,351.1,98z M351.1,2192.6
					c14.5,0,26.2-11.7,26.2-26.2s-11.7-26.2-26.2-26.2s-26.2,11.7-26.2,26.2C324.9,2180.8,336.6,2192.6,351.1,2192.6z M490.7,2471.8
					c14.5,0,26.2-11.7,26.2-26.2s-11.7-26.2-26.2-26.2s-26.2,11.7-26.2,26.2S476.3,2471.8,490.7,2471.8z M351.1,1913.3
					c14.5,0,26.2-11.7,26.2-26.2s-11.7-26.2-26.2-26.2s-26.2,11.7-26.2,26.2S336.6,1913.3,351.1,1913.3z M351.1,2052.9
					c14.5,0,26.2-11.7,26.2-26.2s-11.7-26.2-26.2-26.2s-26.2,11.7-26.2,26.2S336.6,2052.9,351.1,2052.9z M211.4,1773.6
					c14.5,0,26.2-11.7,26.2-26.2s-11.7-26.2-26.2-26.2s-26.2,11.7-26.2,26.2S197,1773.6,211.4,1773.6z M909.6,237.6
					c14.5,0,26.2-11.7,26.2-26.2s-11.7-26.2-26.2-26.2s-26.2,11.7-26.2,26.2C883.4,225.9,895.2,237.6,909.6,237.6z M1049.3,237.6
					c14.5,0,26.2-11.7,26.2-26.2s-11.7-26.2-26.2-26.2s-26.2,11.7-26.2,26.2C1023.1,225.9,1034.8,237.6,1049.3,237.6z M909.6,98
					c14.5,0,26.2-11.7,26.2-26.2s-11.7-26.2-26.2-26.2s-26.2,11.7-26.2,26.2S895.2,98,909.6,98z M1188.9,516.9
					c14.5,0,26.2-11.7,26.2-26.2s-11.7-26.2-26.2-26.2s-26.2,11.7-26.2,26.2S1174.4,516.9,1188.9,516.9z M1328.5,377.3
					c14.5,0,26.2-11.7,26.2-26.2s-11.7-26.2-26.2-26.2s-26.2,11.7-26.2,26.2C1302.4,365.5,1314.1,377.3,1328.5,377.3z M1328.5,98
					c14.5,0,26.2-11.7,26.2-26.2s-11.7-26.2-26.2-26.2s-26.2,11.7-26.2,26.2S1314.1,98,1328.5,98z M2306,1634
					c14.5,0,26.2-11.7,26.2-26.2s-11.7-26.2-26.2-26.2s-26.2,11.7-26.2,26.2S2291.6,1634,2306,1634z M2166.4,1773.6
					c14.5,0,26.2-11.7,26.2-26.2s-11.7-26.2-26.2-26.2s-26.2,11.7-26.2,26.2S2151.9,1773.6,2166.4,1773.6z M2166.4,1913.3
					c14.5,0,26.2-11.7,26.2-26.2s-11.7-26.2-26.2-26.2s-26.2,11.7-26.2,26.2S2151.9,1913.3,2166.4,1913.3z M2166.4,2052.9
					c14.5,0,26.2-11.7,26.2-26.2s-11.7-26.2-26.2-26.2s-26.2,11.7-26.2,26.2S2151.9,2052.9,2166.4,2052.9z M71.8,1494.4
					c14.5,0,26.2-11.7,26.2-26.2S86.3,1442,71.8,1442s-26.2,11.7-26.2,26.2C45.6,1482.6,57.3,1494.4,71.8,1494.4z M71.8,1634
					c14.5,0,26.2-11.7,26.2-26.2s-11.7-26.2-26.2-26.2s-26.2,11.7-26.2,26.2S57.3,1634,71.8,1634z M71.8,1354.7
					c14.5,0,26.2-11.7,26.2-26.2s-11.7-26.2-26.2-26.2s-26.2,11.7-26.2,26.2S57.3,1354.7,71.8,1354.7z M211.4,1354.7
					c14.5,0,26.2-11.7,26.2-26.2s-11.7-26.2-26.2-26.2s-26.2,11.7-26.2,26.2S197,1354.7,211.4,1354.7z M71.8,656.5
					c14.5,0,26.2-11.7,26.2-26.2s-11.7-26.2-26.2-26.2s-26.2,11.7-26.2,26.2C45.6,644.8,57.3,656.5,71.8,656.5z M351.1,1215.1
					c14.5,0,26.2-11.7,26.2-26.2s-11.7-26.2-26.2-26.2s-26.2,11.7-26.2,26.2S336.6,1215.1,351.1,1215.1z M490.7,1075.5
					c14.5,0,26.2-11.7,26.2-26.2s-11.7-26.2-26.2-26.2s-26.2,11.7-26.2,26.2C464.5,1063.7,476.3,1075.5,490.7,1075.5z"/>
			</g>
		</g>
	</g>
</g>
<g transform="translate(0.000000,511.000000) scale(0.100000,-0.100000)">
	<g id="XMLID_1_">
		<g>
			<path class="st1" d="M16308.7-5921.7c89.6-58.1,263.7-403.5,234.7-458.8c-31.6-52.8-1263.2-772.6-1326.5-772.6
				c-23.7,0-60.8,21.1-84.4,47.4c-87.1,97.6-1073.4,1832.8-1073.4,1890.8c0,31.6,15.8,71.2,34.3,87.1
				c42.1,36.9,1207.7,704.2,1257.9,722.6c68.4,26.3,134.3-39.6,242.4-234.8c84.4-155.5,97.6-200.4,76.4-242.6
				c-15.8-29-187.3-142.3-382.4-253.2c-490.4-279.6-458.8-245.2-382.4-379.8c71.2-129.2,50.1-131.8,414.1,79.1
				c189.8,113.4,290,155.5,329.6,145.1c60.6-13.2,255.9-319.1,255.9-395.5c0-50.1-113.4-134.5-395.5-292.7
				c-123.9-71.2-229.4-131.8-237.3-137.1c-10.6-10.6,110.7-245.2,126.7-245.2c5.3,0,160.8,87.1,342.8,195.1
				C16250.6-5874.2,16242.8-5877,16308.7-5921.7z"/>
			<path class="st1" d="M14380.7-7000c81.7-10.6,298-363.9,274.3-450.8c-10.6-42.1-174.1-150.3-624.9-411.4
				c-337.6-195.1-640.8-358.6-675.1-366.5c-34.3-5.3-79.1,2.6-100.2,21c-52.8,44.9-1094.4,1853.8-1094.4,1904
				c0,21.1,21.1,58.1,47.4,81.7c89.6,79.1,1231.6,727.8,1286.9,730.5c28.9-0.3,73.8-21.4,94.8-45
				c84.4-100.2,208.3-353.4,200.4-408.8c-5.3-47.4-100.2-113.4-403.5-290c-216.3-126.7-406.1-234.7-419.2-240
				c-13.2-2.7,7.8-63.3,47.4-129.2l71.2-121.4l282.3,163.5c324.3,189.8,361.2,203.1,414,184.6c60.6-23.7,229.4-342.8,218.9-411.4
				c-5.3-44.9-79.1-102.8-284.8-224.1c-153-89.6-292.7-174.1-313.8-187.3c-29-15.8-23.7-42.1,34.3-131.8
				c36.9-60.6,76.4-110.8,84.4-110.8c7.9,0,189.8,102.9,406.1,226.9C14180.3-7068.7,14341.2-6994.8,14380.7-7000z"/>
			<path class="st1" d="M12946.1-8400.3c13.2-71.2-44.9-123.9-269-242.7l-200.4-105.5l-97.6,55.4c-55.3,29-232,139.8-395.5,245.2
				l-295.3,192.6l-118.7-68.6l-118.7-68.6l184.6-316.5c113.4-195.1,182-340.2,176.6-377.1c-7.8-65.9-340.2-279.6-435.1-282.2
				c-34.3,0-76.4,26.3-97.6,60.6c-126.7,192.6-1070.6,1853.9-1070.6,1882.9c0,18.5,23.7,55.3,50.1,79.1
				c71.2,60.6,922.9,545.9,1017.9,582.8c129.3,44.9,382.4,36.9,506.3-18.5c350.8-160.8,572.2-659.2,443-996.7
				c-26.3-68.6-36.9-126.7-23.7-131.8c13.2-5.3,184.6-108,379.8-226.7C12795.8-8265.8,12940.8-8371.3,12946.1-8400.3z
				 M11627.5-7633.1c87.1,110.7-5.3,298-145.1,292.7c-42.1,0-163.4-55.5-271.6-121.4c-108-63.3-203.1-121.4-205.7-126.7
				c-5.3-5.3,29-81.7,79.1-168.8l89.6-160.8l210.9,121.4C11498.3-7728,11609-7656.9,11627.5-7633.1z"/>
			<path class="st1" d="M10261.7-8938.6c0-68.6-15.8-81.7-334.9-266.3l-266.3-153l195.1-334.9c108-184.6,195.1-363.9,195.1-398.2
				c0-52.8-34.3-84.4-176.6-168.8c-237.3-137.2-261-142.3-319.1-89.6c-44.9,36.9-922.9,1534.7-1070.6,1819.5
				c-31.6,58.1-36.9,100.2-18.5,129.2c31.6,60.6,1213,743.6,1284.2,746.3c28.8,0.1,73.7-20.9,94.8-44.6
				c84.4-100.2,208.3-353.4,200.4-408.8c-5.3-44.9-100.2-113.4-395.5-282.2c-216.3-123.9-390.2-237.3-390.2-253.2
				c0-13.2,29-71.2,60.6-123.9l60.6-97.6l182,108c321.8,187.3,424.5,234.7,472,216.3C10087.6-8561.5,10261.7-8864.7,10261.7-8938.6z
				"/>
			<path class="st2" d="M18784.3-7049.9c110.8-213.7-42.1-411.4-482.6-622.4c-319.1-153.1-482.6-287.5-590.6-485.3
				c-68.5-123.9-79.1-168.8-79.1-353.4c0-184.6,10.6-232.1,84.4-382.4c47.5-97.5,168.8-263.7,282.2-390.2
				c234.7-253.2,305.9-382.4,305.9-540.6c0-89.6-15.8-129.2-71.2-182c-118.7-110.8-208.3-134.5-640.8-153
				c-358.5-15.8-427.1-23.7-556.3-84.4c-200.5-89.6-324.3-208.3-411.4-384.9c-105.3-213.5-102.8-506.2,2.7-822.7
				c147.7-442.9,113.4-706.7-102.9-788.4c-134.5-52.8-313.9-13.2-627.6,139.8c-305.9,147.7-450.9,184.6-659.2,168.8
				c-390.2-31.7-677.8-321.7-756.9-762.1c-13.2-79.1-36.9-218.9-52.8-313.8c-39.4-218.9-137.1-408.8-237.3-461.5
				c-210.9-108.2-395.6,0-725.2,429.8c-139.7,182-379.7,356-548.5,403.4c-60.7,15.8-181.9,23.7-269,15.8
				c-297.9-23.8-522.1-190-801.6-604c-218.9-319.1-406.1-432.4-593.3-353.4c-137.2,57.9-221.5,213.6-308.6,577.5
				c-89.6,363.8-142.3,477.3-295.3,643.4c-150.4,160.9-282.2,224.1-509,240c-226.7,13.1-392.8-31.7-643.4-182
				c-353.4-208.2-540.6-263.7-693.5-200.4c-197.8,84.4-247.9,311.1-147.7,690.9c84.3,324.3,84.3,635.5,2.6,817.5
				c-79.1,171.4-242.6,337.7-411.4,414.1c-123.9,55.3-171.4,60.6-596,60.6c-503.7,0-622.4,23.8-712,137.2
				c-68.6,89.6-68.6,274.2,0,414c29,60.7,123.9,197.8,213.6,305.9c276.9,340.2,371.8,603.9,313.8,883.4
				c-63.3,303.1-292.7,527.4-706.7,688.2c-754.2,292.7-770,630.2-52.8,981c324.3,158.2,480,287.5,588.1,482.6
				c68.5,123.9,79.1,168.8,79.1,353.4c0,187.3-10.5,232.1-84.4,382.4c-47.5,94.9-174,268.8-284.8,390.2
				c-232.1,255.9-303.3,382.4-303.3,540.6c0,232,213.6,334.9,696.2,334.9c548.5,0,838.5,147.7,1002,501.1
				c81.6,181.9,73.8,530.2-21.1,791.2c-97.5,266.3-115.9,511.6-55.3,643.4c102.9,216.2,345.4,218.9,785.9,5.3
				c305.9-147.7,450.9-184.6,659.2-168.8c300.7,23.7,535.4,195.1,667.2,482.6c34.3,71.2,84.4,274.2,116,448.3
				c63.3,361.3,129.2,524.8,247.9,596c208.3,126.6,390.2,28.9,735.7-406.1c250.5-319.1,516.9-458.8,820.2-435.1
				c295.3,23.7,516.9,187.3,783.2,577.5c153,224.1,271.6,340.2,398.2,392.9c71.2,29,195.3,13.3,271.4-36.9
				c89.6-60.6,195.1-290,253.2-548.5c68.6-311.1,155.5-506.3,295.3-648.7c155.7-160.8,287.5-221.4,509-237.3
				c226.7-13.1,392.8,31.7,643.4,182c385,226.7,609.2,276.8,756.9,166.1c153-113.3,171.4-342.8,58.1-777.9
				c-129.2-503.6,26.3-912.4,424.5-1102.2c139.7-66,163.5-68.6,606.5-68.6c503.6,0,622.4-23.7,712-137.1c68.6-89.6,68.6-274.2,0-414
				c-29-60.6-123.9-197.8-213.6-305.9c-276.9-340.2-371.8-603.8-313.8-883.4c63.3-303.1,292.6-527.4,706.7-688.2
				C18549.6-6812.7,18721-6926,18784.3-7049.9z M16543.4-6380.6c29,55.3-145.1,400.8-234.7,458.8c-65.9,44.8-58.1,47.5-566.9-245.2
				c-182-108-337.5-195.1-342.8-195.1c-15.9,0-137.2,234.7-126.7,245.2c7.8,5.3,113.3,65.9,237.3,137.1
				c282.1,158.2,395.5,242.7,395.5,292.7c0,76.4-195.3,382.3-255.9,395.5c-39.6,10.5-139.8-31.7-329.6-145.1
				c-364-210.9-343-208.3-414.1-79.1c-76.4,134.6-108,100.3,382.4,379.8c195.1,110.8,366.6,224.1,382.4,253.2
				c21.2,42.2,7.9,87.1-76.4,242.6c-108.1,195.2-174,261.1-242.4,234.8c-50.2-18.4-1215.8-685.7-1257.9-722.6
				c-18.5-15.9-34.3-55.5-34.3-87.1c0-58.1,986.3-1793.2,1073.4-1890.8c23.6-26.3,60.6-47.4,84.4-47.4
				C15280.2-7153.2,16511.8-6433.3,16543.4-6380.6z M14654.9-7450.9c23.7,86.9-192.6,440.3-274.3,450.8
				c-39.4,5.3-200.4-68.6-453.6-216.3c-216.3-123.9-398.2-226.9-406.1-226.9s-47.5,50.1-84.4,110.8
				c-58.1,89.6-63.3,115.9-34.3,131.8c21,13.2,160.8,97.6,313.8,187.3c205.7,121.4,279.5,179.3,284.8,224.1
				c10.6,68.6-158.2,387.7-218.9,411.4c-52.8,18.6-89.6,5.3-414-184.6l-282.3-163.5l-71.2,121.4c-39.6,65.9-60.6,126.5-47.4,129.2
				c13.1,5.3,202.9,113.3,419.2,240c303.3,176.6,398.2,242.6,403.5,290c7.9,55.4-116,308.6-200.4,408.8c-21,23.7-65.9,44.7-94.8,45
				c-55.3-2.6-1197.3-651.4-1286.9-730.5c-26.3-23.7-47.4-60.6-47.4-81.7c0-50.2,1041.6-1859.2,1094.4-1904
				c21.1-18.5,65.9-26.3,100.2-21c34.3,7.8,337.5,171.4,675.1,366.5C14480.9-7601.2,14644.4-7493,14654.9-7450.9z M12677.1-8643
				c224.1,118.7,282.2,171.5,269,242.7c-5.3,29-150.3,134.5-363.9,263.7c-195.3,118.7-366.6,221.4-379.8,226.7
				c-13.1,5.1-2.6,63.2,23.7,131.8c129.2,337.5-92.2,835.9-443,996.7c-123.9,55.3-377,63.3-506.3,18.5
				c-94.9-36.9-946.7-522.2-1017.9-582.8c-26.4-23.7-50.1-60.6-50.1-79.1c0-29,944-1690.3,1070.6-1882.9
				c21.2-34.3,63.3-60.6,97.6-60.6c94.9,2.6,427.2,216.3,435.1,282.2c5.4,36.9-63.2,182-176.6,377.1l-184.6,316.5l118.7,68.6
				l118.7,68.6l295.3-192.6c163.5-105.5,340.2-216.2,395.5-245.2l97.6-55.4L12677.1-8643z M9926.8-9204.9
				c319.1,184.6,334.9,197.7,334.9,266.3c0,73.9-174.1,377.1-226.9,398.2c-47.5,18.4-150.3-29-472-216.3l-182-108l-60.6,97.6
				c-31.6,52.8-60.6,110.8-60.6,123.9c0,15.9,173.9,129.2,390.2,253.2c295.3,168.8,390.2,237.3,395.5,282.2
				c7.9,55.4-116,308.6-200.4,408.8c-21,23.7-66,44.7-94.8,44.6c-71.2-2.7-1252.6-685.7-1284.2-746.3c-18.4-29-13.1-71.2,18.5-129.2
				c147.7-284.8,1025.8-1782.6,1070.6-1819.5c58.1-52.7,81.8-47.6,319.1,89.6c142.3,84.4,176.6,116,176.6,168.8
				c0,34.3-87.1,213.7-195.1,398.2l-195.1,334.9L9926.8-9204.9z"/>
			<path class="st2" d="M11482.5-7340.4c139.8,5.3,232.1-182,145.1-292.7c-18.5-23.7-129.2-94.9-242.6-163.5L11174-7918l-89.6,160.8
				c-50.1,87.1-84.4,163.5-79.1,168.8c2.6,5.3,97.6,63.3,205.7,126.7C11319-7395.9,11440.4-7340.4,11482.5-7340.4z"/>
		</g>
	</g>
</g>
</svg>
