<?xml version="1.0" encoding="utf-8"?>
<!-- Generator: Adobe Illustrator 21.1.0, SVG Export Plug-In . SVG Version: 6.00 Build 0)  -->
<svg version="1.1" id="Layer_1" xmlns="http://www.w3.org/2000/svg" xmlns:xlink="http://www.w3.org/1999/xlink" x="0px" y="0px"
	 viewBox="0 0 377.2 377.2" style="enable-background:new 0 0 377.2 377.2;" xml:space="preserve">
<path fill="#ffffff" d="M117.9,311.6H66.3V145.1h51.6V311.6z M123,92.1c0-16.7-13.5-30.2-30.2-30.2c-16.7,0-30.2,13.5-30.2,30.2
	c0,16.7,13.5,30.2,30.2,30.2C109.5,122.3,123,108.8,123,92.1z M310.9,220c0-44.7-9.4-77.8-61.7-77.8c-25.1,0-41.9,12.5-48.8,25.6h0
	v-22.6h-50.1v166.5h50.1V229c0-21.7,5.5-42.6,32.3-42.6c26.5,0,27.3,24.8,27.3,44v81.3h50.8V220z M377.2,333V44.2
	C377.2,19.8,357.4,0,333,0H44.2C19.8,0,0,19.8,0,44.2V333c0,24.4,19.8,44.2,44.2,44.2H333C357.4,377.2,377.2,357.4,377.2,333z
	 M333,29.5c8.1,0,14.7,6.6,14.7,14.7V333c0,8.1-6.6,14.7-14.7,14.7H44.2c-8.1,0-14.7-6.6-14.7-14.7V44.2c0-8.1,6.6-14.7,14.7-14.7
	H333z"/>
</svg>
