<?xml version="1.0" encoding="utf-8"?>
<!-- Generator: Adobe Illustrator 21.1.0, SVG Export Plug-In . SVG Version: 6.00 Build 0)  -->
<svg version="1.1" id="Bold" xmlns="http://www.w3.org/2000/svg" xmlns:xlink="http://www.w3.org/1999/xlink" x="0px" y="0px"
	 viewBox="0 0 512 512" style="enable-background:new 0 0 512 512;" xml:space="preserve">
<style type="text/css">
	.st0{fill:#FFFFFF;}
</style>
<path class="st0" d="M416,512H96c-53,0-96-43-96-96V96C0,43,43,0,96,0h320c53,0,96,43,96,96v320C512,469,469,512,416,512z"/>
<path d="M345.1,385.4c48.3-30.8,80.6-85.9,80.6-148.7C425.8,140.2,349.8,62,256,62S86.2,140.2,86.2,236.8S162.2,411.5,256,411.5
	c13.8,0,27.1-1.7,40-4.9c16.1,29.7,40.6,50.9,92.8,40.8v-29.7C388.8,417.9,355.4,409.2,345.1,385.4z M344.1,259.9
	c0,29.1-9.1,55.6-23.9,75.2c-18.6-20.2-47.9-36.8-85-34.7v34.4c0,0,25.2,1.1,42.4,31.1c-6.5,2-13.2,3-20.2,3
	c-47.9,0-86.7-48.8-86.7-109v-45c0-60.2,38.8-109.1,86.7-109.1s86.7,48.8,86.7,109.1L344.1,259.9L344.1,259.9z"/>
</svg>
