<?xml version="1.0" encoding="utf-8"?>
<!-- Generator: Adobe Illustrator 21.1.0, SVG Export Plug-In . SVG Version: 6.00 Build 0)  -->
<svg version="1.1" id="Layer_1" xmlns="http://www.w3.org/2000/svg" xmlns:xlink="http://www.w3.org/1999/xlink" x="0px" y="0px"
	 viewBox="0 0 393.5 377.2" style="enable-background:new 0 0 393.5 377.2;" xml:space="preserve">
<path fill="#ffffff" d="M349.6,144.4c-12.4,0-23.4,5.2-31.4,13.4c-29.6-20.8-69.5-34.2-113.8-35.6l23-105.1l73.2,16.7c0,18.2,14.6,33,32.5,33
	c18.3,0,32.9-15.2,32.9-33.4S351.4,0,333.1,0c-12.8,0-23.8,7.8-29.3,18.5L223,0.3c-4.1-1.1-8.1,1.9-9.1,6l-25.2,115.8
	c-43.9,1.9-83.4,15.2-113.1,36c-8.1-8.5-19.4-13.7-31.8-13.7c-46.1,0-61.2,62.8-19,84.3c-1.5,6.6-2.2,13.7-2.2,20.8
	c0,70.5,78.3,127.7,174.5,127.7c96.6,0,174.9-57.2,174.9-127.7c0-7.1-0.7-14.5-2.6-21.1C410.7,206.7,395.5,144.4,349.6,144.4
	L349.6,144.4z M91.7,233.1c0-18.5,14.6-33.4,32.9-33.4c17.9,0,32.5,14.8,32.5,33.4c0,18.2-14.6,33-32.5,33
	C106.4,266.2,91.7,251.3,91.7,233.1L91.7,233.1z M269.5,311.8c-30.2,30.6-115.4,30.6-145.6,0c-3.3-3-3.3-8.2,0-11.5
	c2.9-3,8.1-3,11,0c23.1,24,99.5,24.4,123.6,0c2.9-3,8.1-3,11,0C272.8,303.6,272.8,308.8,269.5,311.8L269.5,311.8z M268.8,266.2
	c-17.9,0-32.5-14.8-32.5-33c0-18.5,14.6-33.4,32.5-33.4c18.3,0,32.9,14.8,32.9,33.4C301.7,251.3,287.1,266.2,268.8,266.2z"/>
</svg>
