<?xml version="1.0" encoding="utf-8"?>
<!-- Generator: Adobe Illustrator 21.1.0, SVG Export Plug-In . SVG Version: 6.00 Build 0)  -->
<svg version="1.1" id="Layer_1" xmlns="http://www.w3.org/2000/svg" xmlns:xlink="http://www.w3.org/1999/xlink" x="0px" y="0px"
	 viewBox="0 0 464.2 377.1" style="enable-background:new 0 0 464.2 377.1;" xml:space="preserve">
<g>
	<g>
		<path fill="#ffffff" d="M464.2,44.7c-17.3,7.6-35.7,12.6-54.8,15c19.7-11.8,34.8-30.3,41.9-52.6c-18.4,11-38.7,18.7-60.4,23
			C373.4,11.5,348.5,0,321.4,0c-52.7,0-95.1,42.8-95.1,95.2c0,7.5,0.6,14.8,2.2,21.7C149.4,113,79.4,75.1,32.3,17.3
			c-8.2,14.2-13,30.6-13,48.1c0,33,17,62.2,42.3,79.1c-15.3-0.3-30.3-4.7-43-11.7c0,0.3,0,0.7,0,1c0,46.3,33,84.7,76.3,93.5
			c-7.7,2.1-16.2,3.1-25,3.1c-6.1,0-12.2-0.3-18-1.6c12.3,37.7,47.3,65.4,88.9,66.3c-32.4,25.3-73.5,40.6-118,40.6
			c-7.8,0-15.3-0.3-22.8-1.3c42.2,27.2,92.1,42.7,146,42.7c175.1,0,270.9-145.1,270.9-270.8c0-4.2-0.1-8.3-0.3-12.3
			C435.4,80.7,451.3,63.9,464.2,44.7z"/>
	</g>
</g>
</svg>
