<?xml version="1.0" encoding="utf-8"?>
<!-- Generator: Adobe Illustrator 21.1.0, SVG Export Plug-In . SVG Version: 6.00 Build 0)  -->
<svg version="1.1" id="Layer_1" xmlns="http://www.w3.org/2000/svg" xmlns:xlink="http://www.w3.org/1999/xlink" x="0px" y="0px"
	 viewBox="0 0 538.8 377.2" style="enable-background:new 0 0 538.8 377.2;" xml:space="preserve">
<path fill="#ffffff" d="M527.7,59c-6.2-23.1-24.4-41.3-47.5-47.5C438,0,269.4,0,269.4,0S100.8,0,58.6,11.1C36,17.3,17.3,35.9,11.1,59
	C0,101.2,0,188.6,0,188.6s0,87.9,11.1,129.6c6.2,23.1,24.4,41.3,47.5,47.5c42.6,11.5,210.8,11.5,210.8,11.5s168.6,0,210.8-11.1
	c23.1-6.2,41.3-24.4,47.5-47.5c11.1-42.2,11.1-129.6,11.1-129.6S539.2,101.2,527.7,59z M215.7,269.4V107.8l140.2,80.8L215.7,269.4z"
	/>
</svg>
