<?xml version="1.0" encoding="utf-8"?>
<!-- Generator: Adobe Illustrator 21.1.0, SVG Export Plug-In . SVG Version: 6.00 Build 0)  -->
<svg version="1.1" id="Bold" xmlns="http://www.w3.org/2000/svg" xmlns:xlink="http://www.w3.org/1999/xlink" x="0px" y="0px"
	 viewBox="0 0 512 432.1" style="enable-background:new 0 0 512 432.1;" xml:space="preserve">
<style type="text/css">
	.st0{fill:#FFFFFF;}
</style>
<g id="XMLID_1_">
	<g>
		<path class="st0" d="M512,114.6V415c0,4.8-1.3,8.6-4,11.5c-2.7,3-6.3,4.4-10.9,4.4c-4.6,0-9-1.2-13.4-3.7l-126-62.7L512,114.6z"/>
		<path class="st0" d="M510,78.7c0.7,0.4,1.1,0.9,1.1,1.7c0,0.6-24.4,40.4-73.3,119.5C389,279,360.4,325.4,352,338.9L240.6,158.2
			L333.1,8c5-8.3,15.4-9.7,22.3-6.3L510,78.7z"/>
		<polygon class="st0" points="188.9,109.5 341.4,356.2 188.9,280.5 		"/>
		<path class="st0" d="M169.7,79.3c2.1,2.1,0.6-12.4,0.8,335.7c0,14.8-11.1,21-23.4,14.8L14.3,363.4c-4-1.9-7.4-5.1-10.1-9.5
			c-2.8-4.5-4.2-8.9-4.2-13.3V15.7C0,3.6,7.3-1.9,23.7,6.3L169.7,79.3z"/>
	</g>
	<g>
	</g>
</g>
</svg>
