<?xml version="1.0" encoding="utf-8"?>
<!-- Generator: Adobe Illustrator 21.1.0, SVG Export Plug-In . SVG Version: 6.00 Build 0)  -->
<svg version="1.1" id="Capa_1" xmlns="http://www.w3.org/2000/svg" xmlns:xlink="http://www.w3.org/1999/xlink" x="0px" y="0px"
	 viewBox="0 0 512 512" style="enable-background:new 0 0 512 512;" xml:space="preserve">
<style type="text/css">
	.st0{fill:#FFFFFF;}
</style>
<path class="st0" d="M287.9,223.8v117.2c0,29.6-0.3,46.8,2.8,55.3c3.1,8.3,10.8,17,19.6,22.1c11,6.7,24.3,10,38.5,10
	c26,0,41.5-3.3,67.2-20.1v77l0,0c-22,10.3-41.2,16.4-58.8,20.4c-17.6,4.3-36.8,6.3-57.4,6.3c-23.5,0-37.4-2.9-55.1-8.7
	c-18.2-6-33.4-14.4-46.2-25.4c-13-10.9-21.4-22.5-26.4-34.8c-5.1-12.3-7.4-30.2-7.4-53.7V209.9H96v-72.5
	c20.2-6.6,42.6-15.9,57.1-28.1c14-12.3,25.8-26.9,34.2-44.1c8.8-16.9,14.8-38.8,18.1-65.1h82.5v128H416v95.8L287.9,223.8
	L287.9,223.8z"/>
</svg>
