<?xml version="1.0" encoding="utf-8"?>
<!-- Generator: Adobe Illustrator 21.1.0, SVG Export Plug-In . SVG Version: 6.00 Build 0)  -->
<svg version="1.1" id="Layer_1" xmlns="http://www.w3.org/2000/svg" xmlns:xlink="http://www.w3.org/1999/xlink" x="0px" y="0px"
	 viewBox="0 0 590 590" style="enable-background:new 0 0 590 590;" xml:space="preserve">
<style type="text/css">
	.st0{fill:#1E88E5;}
	.st1{fill:#FFFFFF;}
</style>
<g id="XMLID_1_">
	<g>
		<path class="st0" d="M260.9,409.5c-3.4,2.6-6.8,5.2-10.3,7.8c-20,15-40.9,28.9-62.8,40.9l-0.1,0.1c-3.5,1.9-7,3.7-10.5,5.5
			c-25.1-18.2-46.2-42.2-60.8-70.7c42.4,9.8,86.1,14.2,129.5,15.9C250.8,409.2,255.8,409.4,260.9,409.5z"/>
		<path class="st1" d="M471.8,98.2c0,0-0.7-0.8-0.8-1c-0.1-0.1-0.3-0.3-0.5-0.5c4.6,3.2,10.7-3.4,6.4-7.7c-0.3-0.3-0.7-0.7-1-1
			c0.3,0.2,0.6,0.5,0.9,0.8c4.4,4.5,7.4,10.1,9,16.1c3.5,13.3,1.2,27.7-2.3,40.7c-3.4,12.5-8.3,24.7-14,36.5c-2.1-3.1-4.2-6.1-6.5-9
			c1.3-2.8,2.5-5.7,3.7-8.5c5.4-13.5,10.2-28,10.9-42.4c0.2-2.9,0.1-5.8-0.2-8.7c0-0.4,0-0.7-0.1-1.1c0,0.8-0.1-0.1-0.1-0.2
			c-0.1-0.6-0.2-1.3-0.4-2c-0.2-1.2-0.5-2.3-0.8-3.4c-0.2-0.7-0.4-1.4-0.7-2.1c-0.1-0.2-0.4-0.9-0.4-1.1c0,0,0,0.1,0.1,0.1
			c-0.4-1.1-0.9-2-1.4-3c-0.3-0.5-0.7-1.1-1.1-1.7C472.4,99,472,98.4,471.8,98.2z M471.8,98.1C471.8,98.1,471.8,98.1,471.8,98.1
			C471.7,98,471.8,98,471.8,98.1z"/>
		<path class="st1" d="M476.9,89c4.4,4.3-1.8,10.9-6.4,7.7c-0.2-0.3-0.5-0.6-0.8-0.8c-4.3-4.3,1.6-10.8,6.1-7.9
			C476.2,88.3,476.6,88.7,476.9,89z"/>
		<path class="st1" d="M462.1,90.9C462.1,90.9,462.1,90.9,462.1,90.9L462.1,90.9c0,0,0,0-0.1,0c-0.3-0.2-0.6-0.3-0.9-0.4
			c-1.3-0.5-2.6-0.9-4-1.2c-4.9-1.2-10.2-1.4-15.9-0.9c-6.6,0.5-13.4,1.9-19.9,3.8c-13.8,3.9-27.1,9.5-39.9,16
			c-3.1-1.4-6.2-2.7-9.3-3.9c-0.9-0.4-1.8-0.7-2.6-1c9.5-5,19.1-9.6,29-13.7c14.7-5.9,30.4-10.8,46.3-11.3
			c11.1-0.3,22.7,2.1,31.1,9.7c-4.5-2.9-10.4,3.6-6.1,7.9c0.2,0.2,0.5,0.5,0.8,0.8c-0.3-0.2-0.5-0.4-0.8-0.6c-0.5-0.5-1.1-1-1.5-1.6
			c-0.2-0.2-0.4-0.4-0.7-0.6c0.1,0.1,0.2,0.2,0.3,0.2c-0.1-0.1-0.3-0.2-0.4-0.2c-1.2-0.7-2.3-1.5-3.5-2.1c-0.6-0.3-1.1-0.5-1.7-0.8
			C462.2,91,462.2,91,462.1,90.9C462.2,90.9,462.2,90.9,462.1,90.9C462.2,90.9,462.1,90.9,462.1,90.9z M462,90.8c0,0,0.1,0,0.1,0.1
			C462.1,90.9,462,90.9,462,90.8z"/>
		<path class="st0" d="M464.3,192.7c2.6,5.7,9.3,25.9-14,42.1c-10.2,7.1-17.8,14.2-22.9,21.4l-2.1-1.6
			c13.1-17.9,25.3-36.5,35.9-56.1c0.1-0.2,0.2-0.4,0.3-0.6c0,0,0,0,0,0C462.4,196.1,463.4,194.4,464.3,192.7z"/>
		<path class="st1" d="M463.1,173.1c-1.6,3.5-3.3,7-5,10.5c-22.4-31.1-52.6-54.6-86.7-68.6l0.7-1.7v-0.2c3.1-1.7,6.2-3.3,9.3-4.9
			C413.1,122.4,441.3,144.4,463.1,173.1z"/>
		<path class="st0" d="M458,183.6c-1.4,2.8-2.8,5.5-4.2,8.2c-0.5,0.4-0.9,0.9-1.3,1.6c-22.8,41.8-52.3,79.9-84,115.2
			c-28.6,31.8-59.5,61.8-92.7,88.9c-13.6-11.5-27.3-24-40.6-37.3c-20.6-20.5-39.8-42.4-57.3-65.6c5-33.2,25.5-38.8,49-45.3
			c16-4.4,32-8.8,43.4-22.1c21.8-25.6,9.6-40-4.6-56.6c-7.3-8.1-13.8-17-19.4-26.4c-9.2-16.3-9-25.8-7.3-30.9c1-3.1,3-5.7,5.8-7.2
			c43.1-11,87.4-7.2,126.6,8.9C405.4,129.1,435.7,152.5,458,183.6z"/>
		<path class="st0" d="M437.2,316c15.2,17.6,21.1,41.3,16,64c-0.2,0.8-0.4,1.5-0.6,2.3c-35.4,7.8-71.7,12.2-107.8,14.6
			c-18.3,1.2-36.8,2-55.2,2.1c6.7-5.6,13.2-11.3,19.7-17.1c40.5-36.3,77.8-76.4,110.5-119.9c1.8-2.4,3.7-4.9,5.5-7.4l2.1,1.6
			c-4.5,6.4-7.1,12.8-7.8,19.4C418.2,288.6,424,301.8,437.2,316z"/>
		<path class="st0" d="M447.5,394.2c-4.9,8.2-11.9,14.1-20.6,17.2c-13.2,4.7-47.8,18.9-68.8,43.2c-21.3-11.5-44.2-26.7-67.3-44.9
			c42.7-0.4,85.3-3.7,127.4-10.3C428,397.9,437.8,396.1,447.5,394.2z"/>
		<path class="st1" d="M381.4,108.2c-3.1,1.6-6.2,3.2-9.3,4.9c0-2.9,0-5.8,0-8.7l0-0.1C375.3,105.5,378.4,106.8,381.4,108.2z"/>
		<path class="st1" d="M372.1,104.3L372.1,104.3c0,3,0,5.9,0,8.8v0.2l-5.1-8.7c0.8-0.4,1.7-0.9,2.5-1.3
			C370.4,103.6,371.3,103.9,372.1,104.3z"/>
		<path class="st1" d="M367,104.6l5.1,8.7l-0.7,1.7c-39.2-16.2-83.5-20-126.6-8.9c-2.8,1.5-4.8,4.1-5.8,7.2
			c-1.7,5.1-1.9,14.6,7.3,30.9c5.6,9.4,12.1,18.3,19.4,26.4c14.2,16.6,26.4,31,4.6,56.6c-11.4,13.3-27.4,17.7-43.4,22.1
			c-23.5,6.5-44,12.1-49,45.3c17.5,23.2,36.7,45.1,57.3,65.6c13.4,13.4,27,25.9,40.6,37.3c-0.6,0.5-1.2,1-1.9,1.5c-4,0-8-0.1-12-0.2
			c-11.2-9.8-22.4-20.2-33.5-31.3c-18.5-18.3-35.8-37.8-52-58.2c-3.3,31.6-10.5,67.2-26.7,74c-1.7,0.7-3.5,1.1-5.4,1.1
			c-4.2-0.1-8.2-1.7-11.2-4.6c-6.1-5.2-7.9-17.2-10.3-32.2s-5.3-33.8-12.9-36.6c-3.5-1.3-8.7,0.7-15.3,5.7c0,0,0-0.1,0-0.1l-0.2,0.3
			c0.1,0,0.1-0.1,0.2-0.2c0.8,10.1,2.3,20.3,4.7,30.3c2.8,11.7,6.5,22.9,11.1,33.5c-1.4-0.4-2.8-0.7-4.2-1.1c0.3-0.6,0.6-1.2,1-1.8
			l-8.7-5.1c-0.4,0.7-0.8,1.4-1.2,2.2c-13.6-36.3-17.1-76.2-9.4-115c2.7-0.9,5.4-1.8,8.1-2.6l-2.8-10.3c-0.8,0.3-1.7,0.5-2.5,0.8
			c4.6-17.8,11.7-35.2,21.2-51.9c-9.5-31.4-7.8-57.1,6.5-71.4s39-16.5,71.4-6.5c16.3-9.4,33.7-16.6,51.9-21.4
			c43.3-11.3,87.8-8.3,127.8,6.8C368.7,103.7,367.8,104.2,367,104.6z M262.7,220.7c16.2-19,9.7-26.7-4.6-43.6
			c-7.7-8.6-14.5-18-20.4-28c-8.6-15.3-11.3-28.1-8.2-38.3c-44.5,15.5-82.1,45.9-106.6,86.2c8.6,25.4,24.8,55.5,47.1,86.6
			c8.5-31.4,32.7-38,54.4-44C239.3,235.5,253.3,231.7,262.7,220.7z M167.3,299.9c0.1-0.8,0.3-1.4,0.3-2.2
			c-21-27.2-38.2-57.1-51.2-89c-14.8,28.5-22.5,60.2-22.5,92.2c0,1.4,0,2.7,0,4c7.6-4.5,13.9-5.6,19.6-3.5
			c13.1,4.9,16.2,25,19.3,44.4c1.7,10.4,3.6,23.2,7,26.2c3.4,3,5.4,2.1,6.2,1.8C148.6,372.9,161.9,364.1,167.3,299.9z M178.1,125.1
			c-24-5.9-42.5-3.7-52.6,6.4c-10.5,10.7-12.2,29.3-6.5,52.6C134.6,160.8,154.7,140.7,178.1,125.1z"/>
		<path class="st0" d="M352.2,463.1c-6.8,9.9-10.7,21.6-11.1,33.6c-55.2,13-110.4,1.9-154.6-26.5c2.1-1.1,4.2-2.2,6.2-3.3
			c29.3-16,56.9-35.3,83-56.4C302,432.2,327.9,449.9,352.2,463.1z"/>
		<path class="st0" d="M228.5,367.6c11.1,11.1,22.3,21.5,33.5,31.3c-29.1-0.6-58.1-2.7-86.9-6.4c-21.7-2.8-43.4-6.6-64.6-11.9
			c-4.6-10.7-8.3-21.9-11.1-33.5c-2.4-10-3.9-20.1-4.7-30.3c6.6-5.1,11.8-7,15.3-5.7c7.6,2.8,10.5,21.6,12.9,36.6s4.2,27,10.3,32.2
			c3,2.9,7,4.5,11.2,4.6c1.9,0,3.7-0.4,5.4-1.1c16.2-6.8,23.4-42.4,26.7-74C192.7,329.8,210,349.3,228.5,367.6z"/>
		<path class="st1" d="M10.8,321.5c0.1,0.6,0.2,1.1,0.4,1.7c0.2,1.1,0.5,2.2,0.9,3.2c0.7,1.8,0.5,1.4,1.2,2.8
			c0.6,1.1,1.2,2.2,1.9,3.3c2.9,4.7,6.8,8.7,11.5,12.6c5.4,4.4,11.4,8.2,17.6,11.6c16.4,9,34,15.2,51.9,20.3c-1.7,3.3-3.4,6.6-5,9.9
			c-20.4-5.9-40.8-13.2-58.8-24.4c-11.4-7-23.2-16.3-28.9-28.8c-5-11.1-4.4-23.2,1.6-33.8c7.1-12.7,19.6-21.9,31.9-29.2
			c16.7-10,35.1-17.1,53.7-23c-1,4-2,8.1-2.8,12.1c-17.2,5.8-34.1,12.7-49.5,22.5c-5.8,3.6-10.9,7.5-15.8,12.3
			c-4.3,4.2-7.1,7.6-9.6,13.1c-0.7,1.5-0.5,0.9-1.1,2.8c-0.4,1.2-0.6,2.3-0.9,3.5c0,0.2-0.2,1.3-0.2,1.5c0-0.1,0-0.2,0-0.3
			c0,0.2,0,0.3,0,0.3c0,0.5-0.1,0.9-0.1,1.4c-0.1,1.2-0.1,2.3,0,3.5C10.8,320.8,11,322.2,10.8,321.5z"/>
	</g>
	<g>
	</g>
</g>
</svg>
