<?xml version="1.0" encoding="utf-8"?>
<!-- Generator: Adobe Illustrator 21.1.0, SVG Export Plug-In . SVG Version: 6.00 Build 0)  -->
<svg version="1.1" id="Layer_1" xmlns="http://www.w3.org/2000/svg" xmlns:xlink="http://www.w3.org/1999/xlink" x="0px" y="0px"
	 viewBox="0 0 590 590" style="enable-background:new 0 0 590 590;" xml:space="preserve">
<style type="text/css">
	.st0{fill:#FFFFFF;}
</style>
<path class="st0" d="M298.5,463.6C161.8,413.9,163.8,306,165.7,210.7v-16.3c0.1-3.2,2.6-5.8,5.8-5.9c45.9-0.2,90.1-16.9,124.8-46.8
	c2.3-2,5.7-2,8,0c34.8,30,79.1,46.6,125,46.8c0.3,0,0.6,0,0.9,0c3.3,0.2,5.9,3.1,5.6,6.4v16.3c1.4,95.3,3.5,203.2-133.3,253.3
	c-0.7,0.1-1.4,0.1-2.1,0C299.7,464.3,299.1,464,298.5,463.6z M300.4,154.2c-34.8,28.5-78,44.9-122.9,46.5v10.7
	c-1.8,90.8-3.7,193.5,123.3,240.5c126.6-47.3,124.6-149.8,122.9-240.5l-0.6-10.9C378.2,198.9,335.1,182.7,300.4,154.2z"/>
<path class="st0" d="M294.6,341.3c-1.6,0-3.1-0.7-4.2-1.8l-34.3-34.2c-2.7-1.9-3.3-5.7-1.4-8.4s5.7-3.3,8.4-1.4
	c0.6,0.4,1.1,1,1.5,1.6l29.9,29.9l61.7-61.7c2.4-2.4,6.2-2.4,8.6,0s2.4,6.2,0,8.6l0,0l-66.5,65.6C297.4,340.6,296,341.2,294.6,341.3
	z"/>
</svg>
