<?xml version="1.0" encoding="utf-8"?>
<!-- Generator: Adobe Illustrator 21.1.0, SVG Export Plug-In . SVG Version: 6.00 Build 0)  -->
<svg version="1.1" id="Layer_1" xmlns="http://www.w3.org/2000/svg" xmlns:xlink="http://www.w3.org/1999/xlink" x="0px" y="0px"
	 viewBox="0 0 590 590" style="enable-background:new 0 0 590 590;" xml:space="preserve">
<style type="text/css">
	.st0{fill:#FFFFFF;}
</style>
<g>
	<path class="st0" d="M506.2,301c0-40.3-11.5-79.7-33.2-113.6c-0.4-0.7-0.6-1.2-0.6-1.2c-0.2-0.2-0.4-0.5-0.6-0.7
		c-49.6-76.1-142.3-111.9-230.1-89c-18.2,4.8-35.6,12-51.9,21.4c-32.4-10-57.1-7.8-71.4,6.5s-16,40-6.5,71.4
		C53.9,297,88.9,426,190.1,484c65.1,37.3,145.1,37.3,210.1-0.1c11.5,3.8,23.5,5.8,35.6,6.1c14.9,0,27.1-4,35.7-12.6
		c14.2-14.2,16.5-38.9,6.5-71.4C496.5,374.1,506.2,337.8,506.2,301L506.2,301z M399,473c-10.8-3.7-21.4-8.2-31.6-13.4
		c19.6-21.3,50.6-34,63.1-38.6c16.5-5.9,28-19.6,32.7-38.5c6.1-25.1-1.5-55.3-18.4-73.4c-11.1-12-16-22.5-15-32.4
		c1.2-11,9.8-22,26.4-33.6c10.4-6.5,17.8-16.8,20.4-28.8C521.1,307.6,487.6,419.5,399,473L399,473z M464.1,192.3
		c2.4,5.2,10,25.9-13.8,42.5c-19.2,13.4-29.2,26.7-30.7,40.8c-1.4,13,4.4,26.2,17.6,40.4c15.2,17.6,21.1,41.3,16,64
		c-3.8,15.5-13.1,26.7-26.3,31.4s-47.8,18.9-68.8,43.2c-38.5-20.8-82-53.4-122.9-94.4c-20.6-20.5-39.8-42.4-57.3-65.6
		c5-33.2,25.5-38.8,49-45.3c16-4.4,32-8.8,43.4-22.1c21.8-25.6,9.6-40-4.6-56.6c-7.3-8.1-13.8-17-19.4-26.4
		c-9.2-16.3-9-25.8-7.3-30.9c1-3.1,3-5.7,5.8-7.2c84-21.5,172.4,13.3,219.2,86.3L464.1,192.3z M229.5,110.8
		c-3.1,10.2-0.4,23,8.2,38.3c5.9,10,12.7,19.4,20.4,28c14.3,16.9,20.8,24.6,4.6,43.6c-9.4,11-23.4,14.8-38.3,18.9
		c-21.7,6-45.9,12.6-54.4,44c-22.3-31.1-38.5-61.2-47.1-86.6C147.4,156.7,185,126.3,229.5,110.8L229.5,110.8z M125.5,131.5
		c10.1-10.1,28.6-12.3,52.6-6.4c-23.4,15.6-43.5,35.7-59.1,59C113.3,160.8,115,142.2,125.5,131.5L125.5,131.5z M116.4,208.7
		c13,31.9,30.2,61.8,51.2,89c0,0.8-0.2,1.4-0.3,2.2c-5.4,64.2-18.7,73-21.3,73.9c-0.8,0.3-2.8,1.2-6.2-1.8s-5.3-15.8-7-26.2
		c-3.1-19.4-6.2-39.5-19.3-44.4c-5.7-2.1-12-1-19.6,3.5c0-1.3,0-2.6,0-4C93.9,268.9,101.6,237.2,116.4,208.7L116.4,208.7z M94.5,317
		c6.7-5.2,12-7.2,15.5-5.9c7.6,2.8,10.5,21.6,12.9,36.6s4.2,27,10.3,32.2c3,2.9,7,4.5,11.2,4.6c1.9,0,3.7-0.4,5.4-1.1
		c16.2-6.8,23.4-42.4,26.7-74c16.2,20.4,33.5,39.9,52,58.2c41.8,41.8,84.9,74.4,123.7,95.5c-6.8,9.9-10.7,21.6-11.1,33.6
		c-108,25.4-216.2-41.5-241.7-149.6c-2.4-10-3.9-20.2-4.7-30.4L94.5,317z M351,494.1c0.9-9.5,4.3-18.5,9.8-26.2
		c8.6,4.4,17.4,8.3,26.4,11.8C375.6,485.6,363.5,490.5,351,494.1L351,494.1z M464.3,470.4c-10.6,10.6-29.2,12.3-52.6,6.4
		c23.5-15.5,43.6-35.6,59.3-59c5.7,24,3.5,42.5-6.6,52.6H464.3z"/>
	<g>
		<g>
			<g>
				<path class="st0" d="M192.7,458.2c0,2.9,0,5.8,0,8.7c42.2-23,80.8-52.9,116.6-85c40.5-36.3,77.8-76.4,110.5-119.9
					c15.2-20.2,29.3-41.2,41.4-63.5c3.1-5.7-5.6-10.8-8.7-5.1c-22.8,41.8-52.3,79.9-84,115.2c-35.7,39.7-75.1,76.7-117.9,108.7
					c-20,15-40.9,28.9-62.8,40.9c-3.2,1.8-3.4,7,0,8.7"/>
				<path class="st0" d="M461.1,193.5c-2.9-5.8-11.5-0.7-8.6,5.1"/>
			</g>
		</g>
		<g>
			<g>
				<path class="st0" d="M187.7,467c0-2.9,0-5.8,0-8.7c-15.8,8.6-32.2,16.2-49.5,21c-6.4,1.8-13,3.2-19.6,3.7
					c-5.8,0.5-11.1,0.3-16.1-1c-1.2-0.3-2.4-0.6-3.5-1c-1.4-0.5-1.1-0.4-2.7-1.1c-1-0.5-1.9-1-2.8-1.6c-0.5-0.3-1-0.7-1.5-1
					c0.8,0.6-0.5-0.4-0.7-0.6c-0.9-0.8-1.6-1.5-2.4-2.4c-0.4-0.4-0.7-0.8-1-1.2c0.6,0.8-0.5-0.8-0.7-1c-0.6-1-1.2-1.9-1.7-2.9
					c-0.9-1.7-0.6-1.2-1.1-2.7c-1.9-5.4-2.3-9.5-2.2-15.2c0.1-6.4,1.1-12.4,2.6-18.7c4.6-19.3,13-37.5,22.4-54.8l-8.7-5.1
					c-9.1,16.8-17.4,34.5-22.4,53c-3.5,13-5.8,27.4-2.3,40.7c2.9,11.1,10.5,19.7,21.2,23.9c12.2,4.7,26.2,3.2,38.7,0.4
					c20.7-4.6,40.4-13.8,59-23.8c3.2-1.8,3.3-7,0-8.7"/>
			</g>
		</g>
		<g>
			<g>
				<path class="st0" d="M452.4,198.6c1.7,3.3,6.9,3.2,8.7,0c9.1-16.8,17.4-34.5,22.4-53c3.5-13,5.8-27.4,2.3-40.7
					c-1.6-6-4.6-11.6-9-16.1c-4.5-4.6-11.6,2.5-7,7.1c0.4,0.4,0.8,0.9,1.2,1.3c0.2,0.2,1,1.2,0.8,0.9s0.5,0.8,0.7,1
					c0.4,0.6,0.8,1.2,1.1,1.7c0.6,1,1.1,2,1.5,3.1c-0.4-0.9,0.2,0.5,0.3,0.8c0.3,0.7,0.5,1.4,0.7,2.1c0.3,1.1,0.6,2.2,0.8,3.4
					c0.2,0.7,0.3,1.4,0.4,2c0,0.1,0.1,1,0.1,0.2c0.1,0.4,0.1,0.7,0.1,1.1c0.3,2.9,0.4,5.8,0.2,8.7c-0.7,14.4-5.5,28.9-10.9,42.4
					c-4.1,10-8.9,19.6-14,29.1c2.9,0,5.8,0,8.7,0"/>
				<path class="st0" d="M372.1,104.4c0,2.9,0,5.8,0,8.7c15.7-8.5,32-16.1,49.2-20.9c6.5-1.9,13.3-3.3,19.9-3.8
					c5.7-0.5,11-0.3,15.9,0.9c1.4,0.3,2.7,0.7,4,1.2c0.3,0.1,0.6,0.2,0.9,0.4c0.6,0.2-0.6-0.3,0.3,0.1c0.6,0.3,1.1,0.5,1.7,0.8
					c1.2,0.6,2.3,1.4,3.5,2.1c0.2,0.1,0.8,0.6,0.1,0c0.3,0.2,0.5,0.4,0.7,0.6c0.4,0.6,1,1.1,1.5,1.6c4.6,4.5,11.7-2.6,7.1-7.1
					c-8.5-8.4-20.5-11-32.1-10.7c-15.9,0.5-31.6,5.4-46.3,11.3c-10.8,4.4-21.2,9.5-31.5,15l5.1,8.7"/>
			</g>
		</g>
	</g>
	<g>
		<g>
			<g>
				<path class="st0" d="M101.2,381c-2.2,2.2-4.3,4.4-6.5,6.6c49,13.7,100.3,19.4,151.1,21.4c57.5,2.3,115.5-0.6,172.4-9.6
					c26.5-4.1,52.7-9.7,78.3-17.7c6.6-2,3.8-12.3-2.8-10.3c-48.2,15-98.7,22.1-148.9,25.5c-56.5,3.8-113.6,2.9-169.7-4.4
					c-26.2-3.4-52.3-8.2-77.8-15.3c-3.7-1-7.7,2.8-6.5,6.6"/>
				<path class="st0" d="M500.3,377.9c2.1-6.5-8.2-9-10.3-2.5"/>
			</g>
		</g>
		<g>
			<g>
				<path class="st0" d="M90.8,383.9c2.2-2.2,4.3-4.4,6.5-6.6c-18.3-5.1-36.3-11.4-53-20.6c-6.2-3.4-12.2-7.2-17.6-11.6
					c-4.7-3.9-8.6-7.9-11.5-12.6c-0.7-1.1-1.3-2.2-1.9-3.3c-0.7-1.4-0.5-1-1.2-2.8c-0.4-1-0.7-2.1-0.9-3.2c-0.2-0.6-0.3-1.2-0.4-1.8
					c0.2,1,0-0.6-0.1-1c-0.1-1.2-0.1-2.3,0-3.5c0-0.6,0.1-1.1,0.1-1.7c-0.1,1,0.2-0.9,0.2-1.2c0.3-1.2,0.5-2.3,0.9-3.5
					c0.6-1.9,0.4-1.3,1.1-2.8c2.5-5.5,5.3-8.9,9.6-13.1c4.9-4.8,10-8.7,15.8-12.3c17.8-11.3,37.6-18.8,57.6-25.1l-2.8-10.3
					c-19.4,6.1-38.7,13.4-56.2,23.8c-12.3,7.3-24.8,16.5-31.9,29.2c-6,10.6-6.6,22.7-1.6,33.8c5.7,12.5,17.5,21.8,28.9,28.8
					c19,11.8,40.7,19.3,62.2,25.4c3.7,1,7.7-2.9,6.5-6.6"/>
			</g>
		</g>
		<g>
			<g>
				<path class="st0" d="M489.9,375.4c-1.2,3.8,2.9,7.6,6.6,6.4c19.4-6.1,38.7-13.4,56.2-23.8c12.3-7.3,24.8-16.5,31.9-29.2
					c3.3-5.8,5.2-12.2,5.1-18.9c0-6.8-10.7-6.7-10.6,0.2c0,0.6,0,1.2-0.1,1.9c0,0.3-0.1,1.7-0.1,1.2s-0.2,0.9-0.2,1.2
					c-0.1,0.7-0.3,1.4-0.5,2.1c-0.3,1.2-0.7,2.3-1.1,3.4c0.4-0.9-0.2,0.5-0.4,0.8c-0.3,0.7-0.7,1.4-1,2.1c-0.6,1.1-1.2,2.1-1.9,3.2
					c-0.4,0.6-0.8,1.2-1.2,1.8c-0.1,0.1-0.6,0.8-0.1,0.2c-0.2,0.3-0.4,0.6-0.7,0.9c-1.9,2.4-4.1,4.7-6.3,6.8
					c-11.2,10.5-25.6,17.9-39.7,24.1c-10.5,4.6-21.3,8.4-32.2,11.8c2.2,2.2,4.4,4.3,6.6,6.4"/>
				<path class="st0" d="M499.1,244.6c-2.2,2.2-4.3,4.4-6.5,6.6c18.1,5.1,36.1,11.3,52.7,20.4c6.3,3.4,12.5,7.3,17.9,11.8
					c4.7,3.9,8.5,7.9,11.4,12.4c0.8,1.2,1.5,2.5,2.1,3.8c0.2,0.3,0.3,0.6,0.4,0.9c0.3,0.6-0.2-0.6,0.2,0.3c0.2,0.6,0.5,1.2,0.7,1.8
					c0.5,1.4,0.7,2.7,1.1,4.2c0,0.2,0.2,1,0,0c0,0.3,0.1,0.6,0.1,0.9c-0.1,0.7-0.1,1.5,0,2.3c0.1,6.9,10.8,6.7,10.6-0.2
					c-0.2-12.6-7.3-23.5-16.3-31.8c-12.4-11.4-27.9-19.2-43.4-25.5c-11.4-4.6-23.1-8.5-34.9-11.8l-2.6,10.4"/>
			</g>
		</g>
	</g>
</g>
</svg>
