<?xml version="1.0" encoding="utf-8"?>
<!-- Generator: Adobe Illustrator 21.1.0, SVG Export Plug-In . SVG Version: 6.00 Build 0)  -->
<svg version="1.1" id="Layer_1" xmlns="http://www.w3.org/2000/svg" xmlns:xlink="http://www.w3.org/1999/xlink" x="0px" y="0px"
	 viewBox="0 0 590 590" style="enable-background:new 0 0 590 590;" xml:space="preserve">
<style type="text/css">
	.st0{fill:#1E88E5;}
	.st1{fill:#FFFFFF;}
</style>
<g id="XMLID_1_">
	<g>
		<path class="st0" d="M425.3,254.6c13.1-17.9,25.3-36.5,35.9-56.1c0.1-0.2,0.2-0.4,0.3-0.6c0,0,0,0,0,0c0.9-1.7,1.8-3.4,2.8-5.2
			c2.6,5.7,9.3,25.9-14,42.1c-10.2,7.1-17.8,14.2-22.9,21.4L425.3,254.6z"/>
		<path class="st0" d="M437.2,316c15.2,17.6,21.1,41.3,16,64c-0.2,0.8-0.4,1.5-0.6,2.3c-35.4,7.8-71.7,12.2-107.8,14.6
			c-18.3,1.2-36.8,2-55.2,2.1c6.7-5.6,13.2-11.3,19.7-17.1c40.5-36.3,77.8-76.4,110.5-119.9c1.8-2.4,3.7-4.9,5.5-7.4l2.1,1.6
			c-4.5,6.4-7.1,12.8-7.8,19.4C418.2,288.6,424,301.8,437.2,316z"/>
		<path class="st0" d="M447.5,394.2c-4.9,8.2-11.9,14.1-20.6,17.2c-13.2,4.7-47.8,18.9-68.8,43.2c-21.3-11.5-44.2-26.7-67.3-44.9
			c42.7-0.4,85.3-3.7,127.4-10.3C428,397.9,437.8,396.1,447.5,394.2z"/>
		<path class="st0" d="M352.2,463.1c-6.8,9.9-10.7,21.6-11.1,33.6c-55.2,13-110.4,1.9-154.6-26.5c2.1-1.1,4.2-2.2,6.2-3.3
			c29.3-16,56.9-35.3,83-56.4C302,432.2,327.9,449.9,352.2,463.1z"/>
		<path class="st0" d="M260.9,409.5c-3.4,2.6-6.8,5.2-10.3,7.8c-20,15-40.9,28.9-62.8,40.9c-0.2,0.1-0.3,0.2-0.4,0.3
			c-3.4,1.8-6.8,3.6-10.2,5.4c-25.1-18.2-46.2-42.2-60.8-70.7c42.4,9.8,86.1,14.2,129.5,15.9C250.8,409.2,255.8,409.4,260.9,409.5z"
			/>
		<path class="st0" d="M228.5,367.6c11.1,11.1,22.3,21.5,33.5,31.3c-29.1-0.6-58.1-2.7-86.9-6.4c-21.7-2.8-43.4-6.6-64.6-11.9
			c-4.6-10.7-8.3-21.9-11.1-33.5c-2.4-10-3.9-20.1-4.7-30.3c6.6-5.1,11.8-7,15.3-5.7c7.6,2.8,10.5,21.6,12.9,36.6s4.2,27,10.3,32.2
			c3,2.9,7,4.5,11.2,4.6c1.9,0,3.7-0.4,5.4-1.1c16.2-6.8,23.4-42.4,26.7-74C192.7,329.8,210,349.3,228.5,367.6z"/>
		<path class="st0" d="M458,183.6c-1.4,2.8-2.8,5.5-4.2,8.2c-0.5,0.4-0.9,0.9-1.3,1.6c-22.8,41.8-52.3,79.9-84,115.2
			c-28.6,31.8-59.5,61.8-92.7,88.9c-13.6-11.5-27.3-24-40.6-37.3c-20.6-20.5-39.8-42.4-57.3-65.6c5-33.2,25.5-38.8,49-45.3
			c16-4.4,32-8.8,43.4-22.1c21.8-25.6,9.6-40-4.6-56.6c-7.3-8.1-13.8-17-19.4-26.4c-9.2-16.3-9-25.8-7.3-30.9c1-3.1,3-5.7,5.8-7.2
			c43.1-11,87.4-7.2,126.6,8.9C405.4,129.1,435.7,152.5,458,183.6z"/>
		<path class="st1" d="M589.7,309.9c0,0.4,0,0.8,0,1.2c-1.1,5.6-10.4,5.3-10.5-1.1c0-0.2,0-0.5-0.1-0.7
			C579.8,303.2,589.7,303.4,589.7,309.9z"/>
		<path class="st1" d="M589.8,309.8c0,0.5,0,0.9-0.1,1.3c0-0.4,0-0.8,0-1.2c0-6.5-9.9-6.7-10.6-0.6c0-0.6,0-1.1,0.1-1.6
			c0-0.2-0.1-0.5-0.1-0.8c0,0.1,0,0.2,0.1,0.3c0-0.1,0-0.2-0.1-0.5c-0.4-1.5-0.6-2.8-1.1-4.2c-0.2-0.6-0.5-1.2-0.7-1.8
			c-0.1-0.2-0.1-0.3-0.1-0.3c0,0.1,0.1,0.4-0.1,0c-0.1-0.3-0.2-0.6-0.4-0.9c-0.6-1.3-1.3-2.6-2.1-3.8c-2.9-4.5-6.7-8.5-11.4-12.4
			c-5.4-4.5-11.6-8.4-17.9-11.8c-14.1-7.7-29.2-13.4-44.5-18c-0.6-2.9-1.4-5.7-2.2-8.6c-0.3-1.2-0.7-2.4-1-3.7
			c11,3.1,21.9,6.8,32.5,11.1c15.5,6.3,31,14.1,43.4,25.5C582.5,286.3,589.6,297.2,589.8,309.8z"/>
		<path class="st1" d="M579.1,306.8c0.1,0.2,0.1,0.4,0.1,0.5c0-0.1,0-0.2-0.1-0.3v0C579.1,306.9,579.1,306.8,579.1,306.8z"/>
		<path class="st1" d="M500.8,253.6c3.6,15.5,5.4,31.3,5.4,47.4c0,24-4.1,47.8-12.1,70.3c-0.1,0-0.2,0.1-0.4,0.1
			c-3.9,1.2-7.7,2.4-11.6,3.5c15.3-38.6,18.5-81.7,8-123.2l2.5-0.4C495.3,252,498.1,252.8,500.8,253.6z"/>
		<path class="st1" d="M578.9,313.2c0,0.5,0.1-0.9,0.1-1.2c0.1-0.7,0.1-1.3,0.1-1.9c0-0.3,0-0.5,0-0.8c0,0.2,0,0.5,0.1,0.7
			c0.1,6.4,9.4,6.7,10.5,1.1c-0.1,6.3-2,12.2-5.1,17.7c-7.1,12.7-19.6,21.9-31.9,29.2c-17.5,10.4-36.8,17.7-56.2,23.8
			c-0.3,0.1-0.7,0.2-1,0.2c0.3-0.1,0.7-0.2,1-0.3c2.1-0.6,3.2-2.1,3.6-3.7l0.1,0c0,0-0.1,0-0.1-0.1c0,0,0,0,0-0.1l0.1,0
			c0.7-2.2,0-4-1.4-5.1c-0.9-1.1-2.2-1.8-3.9-1.6c10.4-3.3,20.8-7,30.8-11.4c14.1-6.2,28.5-13.6,39.7-24.1c2.2-2.1,4.4-4.4,6.3-6.8
			c0.3-0.3,0.5-0.6,0.7-0.9c-0.5,0.6,0-0.1,0.1-0.2c0.4-0.6,0.8-1.2,1.2-1.8c0.7-1.1,1.3-2.1,1.9-3.2c0.3-0.7,0.7-1.4,1-2.1
			c0.1-0.1,0.3-0.5,0.4-0.8c0,0,0-0.1,0.1-0.1c0.4-1.1,0.8-2.1,1-3.3c0.2-0.7,0.4-1.4,0.5-2.1c0-0.3,0.1-1.3,0.2-1.3
			C578.9,313.1,578.9,313.1,578.9,313.2z"/>
		<path class="st1" d="M500.1,377.9c0.4-1.8-0.1-3.7-1.3-5.1c1.4,1.1,2.2,2.9,1.4,5.1L500.1,377.9z"/>
		<path class="st1" d="M498.9,372.8c1.2,1.3,1.6,3.3,1.3,5.1l-0.1,0c-2.1-2-4.1-3.9-6.2-6c0,0,0-0.1,0-0.1
			C495.6,371.4,497.5,371.8,498.9,372.8z"/>
		<path class="st1" d="M500.1,377.9C500.1,377.9,500.1,377.9,500.1,377.9c0,0-0.1,0-0.1,0L500.1,377.9z"/>
		<path class="st1" d="M500.1,377.9C500.1,378,500.1,378,500.1,377.9l-7.8-1.9c0,0,0,0,0,0l7.7,1.9
			C500.1,377.9,500.1,377.9,500.1,377.9z"/>
		<path class="st1" d="M492.3,376l7.8,2c-0.4,1.6-1.5,3.1-3.6,3.7c-0.3,0.1-0.7,0.2-1,0.3c-1.8,0.1-3.6-0.8-4.7-2.2
			C491.3,378.6,491.8,377.3,492.3,376z"/>
		<path class="st1" d="M500,377.8l-7.7-1.9c0.5-1.4,1-2.7,1.5-4.1C495.9,373.9,498,375.9,500,377.8z"/>
		<path class="st1" d="M498.6,245.1c0.8,2.8,1.5,5.7,2.2,8.6c-2.7-0.8-5.5-1.6-8.2-2.4C494.6,249.1,496.6,247.1,498.6,245.1z"/>
		<path class="st1" d="M497.6,241.4c0.4,1.2,0.7,2.4,1,3.7l-6,6.1l2.6-10.4C496,240.9,496.8,241.1,497.6,241.4z"/>
		<path class="st1" d="M490.1,251.6c-3.2-12.6-7.7-25.1-13.5-37.3c-2.6,12-10,22.3-20.4,28.8c-16.6,11.6-25.2,22.6-26.4,33.6
			c-1,9.9,3.9,20.4,15,32.4c16.3,17.4,23.9,46,19,70.5c-3.7,0.9-7.5,1.8-11.2,2.6c0.2-0.7,0.4-1.5,0.6-2.3c5.1-22.7-0.8-46.4-16-64
			c-13.2-14.2-19-27.4-17.6-40.4c0.7-6.6,3.3-13,7.8-19.4c5.1-7.2,12.7-14.3,22.9-21.4c23.3-16.2,16.5-36.4,14-42.1
			c1.8-3.5,3.6-7,5.3-10.5c0.8,1.1,1.5,2.2,2.3,3.4c0.2,0.2,0.4,0.5,0.6,0.7c0,0,0.2,0.5,0.6,1.2c10.8,16.8,19,35,24.6,54
			c-0.8-0.2-1.6-0.5-2.4-0.7l-2.6,10.4l6-6.1c-2,2.1-4,4.1-6,6.1L490.1,251.6z"/>
		<path class="st1" d="M495,371.2c1.6-0.1,3,0.6,3.9,1.6c-1.3-1-3.2-1.4-5-1c0-0.1,0.1-0.2,0.1-0.3
			C494.3,371.4,494.7,371.3,495,371.2z"/>
		<path class="st1" d="M490.8,379.8c1.1,1.4,2.9,2.3,4.7,2.2c-2.1,0.7-4.2,1.3-6.4,1.9C489.7,382.6,490.3,381.2,490.8,379.8z"/>
		<path class="st1" d="M495,371.2c-0.3,0.1-0.7,0.2-1,0.3c0,0,0-0.1,0.1-0.2C494.4,371.2,494.7,371.2,495,371.2z"/>
		<path class="st1" d="M493.6,371.6c0.1,0,0.3-0.1,0.4-0.1c0,0.1-0.1,0.2-0.1,0.3c0,0-0.1,0-0.1,0
			C493.7,371.7,493.7,371.7,493.6,371.6z"/>
		<path class="st1" d="M493.9,371.8c0,0,0,0.1,0,0.1c0,0,0,0-0.1-0.1C493.8,371.8,493.9,371.8,493.9,371.8z"/>
		<path class="st1" d="M493.8,371.8C493.8,371.8,493.8,371.8,493.8,371.8c-0.4,1.5-0.9,2.8-1.4,4.2l-2.3-0.6
			C490.7,373.4,492.1,372.2,493.8,371.8z"/>
		<path class="st1" d="M489.9,375.4l2.4,0.6c-0.5,1.3-1,2.6-1.5,3.8C489.8,378.6,489.4,377,489.9,375.4z"/>
		<path class="st1" d="M482.1,374.9c3.9-1.1,7.8-2.2,11.6-3.5c0.1,0,0.2-0.1,0.4-0.1c0,0.1,0,0.1-0.1,0.2c-0.1,0-0.3,0.1-0.4,0.1
			c0.1,0.1,0.1,0.1,0.2,0.2c-1.6,0.4-3.1,1.6-3.8,3.6l2.3,0.6c0,0,0,0,0,0l-2.4-0.6c-0.5,1.6-0.1,3.2,0.9,4.4
			c-0.5,1.4-1.1,2.7-1.7,4.1c-4.1,1.2-8.3,2.4-12.5,3.5C478.6,383.3,480.4,379.1,482.1,374.9z"/>
		<path class="st1" d="M489.1,383.9c-3.2,7.6-7,14.9-11.1,22.1c10,32.5,7.7,57.2-6.5,71.4c-8.6,8.6-20.8,12.6-35.7,12.6
			c-12.1-0.3-24.1-2.3-35.6-6.1c-65,37.4-145,37.4-210.1,0.1c-4.8-2.7-9.4-5.6-13.9-8.7c3.5-1.6,6.9-3.4,10.3-5.1
			c44.2,28.4,99.4,39.5,154.6,26.5c0.4-12,4.3-23.7,11.1-33.6c-24.3-13.2-50.2-30.9-76.5-52.6c0.3-0.3,0.7-0.5,1-0.8
			c4.7,0,9.4,0,14,0c23.1,18.2,46,33.4,67.3,44.9c21-24.3,55.6-38.5,68.8-43.2c8.7-3.1,15.8-9.1,20.6-17.2c4.3-0.9,8.6-1.8,12.8-2.8
			c-5.8,14.3-16,24.7-29.8,29.6c-12.5,4.6-43.5,17.3-63.1,38.6c10.2,5.2,20.8,9.7,31.6,13.4c34.9-21,61.2-51.1,77.6-85.6
			C480.8,386.3,485,385.2,489.1,383.9z M464.4,470.4c10.1-10.1,12.3-28.6,6.6-52.6c-15.7,23.4-35.8,43.5-59.3,59
			c23.4,5.9,42,4.2,52.6-6.4H464.4z M351,494.1c12.5-3.6,24.6-8.5,36.2-14.4c-9-3.5-17.8-7.4-26.4-11.8
			C355.3,475.6,351.9,484.6,351,494.1z"/>
		<path class="st1" d="M476.9,89c4.4,4.3-1.8,10.9-6.4,7.7c-0.2-0.3-0.5-0.6-0.8-0.8c-4.3-4.3,1.6-10.8,6.1-7.9
			C476.2,88.3,476.6,88.7,476.9,89z"/>
		<path class="st1" d="M482.1,374.9c-1.7,4.2-3.5,8.4-5.5,12.6c-5.4,1.4-10.8,2.8-16.3,4c1.1-2.8,2.1-5.8,2.9-8.9
			c0.2-0.9,0.4-1.9,0.6-2.9C469.9,378.2,476,376.6,482.1,374.9z"/>
		<path class="st1" d="M471.8,98.1C471.8,98.1,471.8,98.1,471.8,98.1C471.7,98,471.8,98,471.8,98.1z M470.5,96.7
			c4.6,3.2,10.7-3.4,6.4-7.7c-0.3-0.3-0.7-0.7-1-1c0.3,0.2,0.6,0.5,0.9,0.8c4.4,4.5,7.4,10.1,9,16.1c3.5,13.3,1.2,27.7-2.3,40.7
			c-3.4,12.5-8.3,24.7-14,36.5c-2.1-3.1-4.2-6.1-6.5-9c1.3-2.8,2.5-5.7,3.7-8.5c5.4-13.5,10.2-28,10.9-42.4c0.2-2.9,0.1-5.8-0.2-8.7
			c0-0.4,0-0.7-0.1-1.1c0,0.8-0.1-0.1-0.1-0.2c-0.1-0.6-0.2-1.3-0.4-2c-0.2-1.2-0.5-2.3-0.8-3.4c-0.2-0.7-0.4-1.4-0.7-2.1
			c-0.1-0.2-0.4-0.9-0.4-1.1c0,0,0,0.1,0.1,0.1c-0.4-1.1-0.9-2-1.4-3c-0.3-0.5-0.7-1.1-1.1-1.7c-0.1-0.1-0.5-0.7-0.7-0.9
			c0,0-0.7-0.8-0.8-1C470.9,97.1,470.7,96.9,470.5,96.7z"/>
		<path class="st1" d="M471.8,98.1C471.8,98.1,471.8,98.1,471.8,98.1C471.8,98,471.7,98,471.8,98.1z"/>
		<path class="st1" d="M467.9,94.2C467.9,94.2,467.9,94.2,467.9,94.2C467.9,94.2,467.9,94.2,467.9,94.2z"/>
		<path class="st1" d="M469.5,182.1c-1.7,3.6-3.5,7.1-5.3,10.5c-0.1-0.1-0.1-0.2-0.2-0.4l-0.1,0.1c-1.9-3-3.9-5.9-6-8.8
			c1.8-3.5,3.4-7,5-10.5C465.3,176.1,467.5,179.1,469.5,182.1z"/>
		<path class="st1" d="M463.8,379.6c-0.2,1-0.4,1.9-0.6,2.9c-0.8,3.1-1.7,6.1-2.9,8.9c-4.3,1-8.5,1.9-12.8,2.8
			c2.1-3.6,3.8-7.6,5.1-11.9C456.3,381.4,460.1,380.6,463.8,379.6z"/>
		<path class="st1" d="M464,192.4l0.1-0.1c0,0.1,0.1,0.2,0.2,0.4c-0.9,1.7-1.8,3.5-2.8,5.2c0.6-1.5,0.4-2.9-0.2-4l0.2-0.1
			c-0.1,0-0.2,0-0.3,0c0-0.1-0.1-0.1-0.1-0.2c-0.9-1.9-2.5-2.6-4.1-2.6c-1.1-0.1-2.3,0.1-3.2,0.9c1.5-2.7,2.9-5.4,4.2-8.2
			C460.1,186.5,462.1,189.4,464,192.4z"/>
		<path class="st1" d="M462,90.8c0,0,0.1,0,0.1,0.1C462.1,90.9,462,90.9,462,90.8z M462,90.9c-0.3-0.2-0.6-0.3-0.9-0.4
			c-1.3-0.5-2.6-0.9-4-1.2c-4.9-1.2-10.2-1.4-15.9-0.9c-6.6,0.5-13.4,1.9-19.9,3.8c-13.8,3.9-27.1,9.5-39.9,16
			c-3.1-1.4-6.2-2.7-9.3-3.9c-0.9-0.4-1.8-0.7-2.6-1c9.5-5,19.1-9.6,29-13.7c14.7-5.9,30.4-10.8,46.3-11.3
			c11.1-0.3,22.7,2.1,31.1,9.7c-4.5-2.9-10.4,3.6-6.1,7.9c0.2,0.2,0.5,0.5,0.8,0.8c-0.3-0.2-0.5-0.4-0.8-0.6c-0.5-0.5-1.1-1-1.5-1.6
			c-0.2-0.2-0.4-0.4-0.7-0.6c0.1,0.1,0.2,0.2,0.3,0.2c-0.1-0.1-0.3-0.2-0.4-0.2c-1.2-0.7-2.3-1.5-3.5-2.1c-0.6-0.3-1.1-0.5-1.7-0.8
			c0,0-0.1,0-0.1-0.1c0,0,0,0,0,0c0,0,0,0,0,0c0,0,0,0,0,0v0C462.2,90.9,462.1,90.9,462,90.9z"/>
		<path class="st1" d="M462.2,90.9C462.1,90.9,462.1,90.9,462.2,90.9C462.1,90.9,462.2,90.9,462.2,90.9z"/>
		<path class="st1" d="M462.1,90.9c-0.1,0-0.1-0.1-0.1-0.1C462,90.9,462.1,90.9,462.1,90.9z"/>
		<path class="st1" d="M461.2,193.7c0,0,0.1,0.1,0.1,0.1l-7.8,4.2l7.3-4.3C460.9,193.7,461.1,193.7,461.2,193.7z"/>
		<path class="st1" d="M461.2,193.7c-0.1,0-0.3,0-0.4,0l0.3-0.2C461.1,193.6,461.2,193.6,461.2,193.7z"/>
		<path class="st1" d="M461.1,193.5l-0.3,0.2c-2.7,0-5.3,0-8,0c0.2-0.3,0.3-0.6,0.5-0.9c1-1.1,2.4-1.8,3.8-1.9
			C458.6,191.1,460.2,192.1,461.1,193.5z"/>
		<path class="st1" d="M460.8,193.7l-7.3,4.3l-1,0.6c-1.1-2.2-0.5-4.3,0.8-5.8c-0.2,0.3-0.3,0.6-0.5,0.9
			C455.5,193.7,458.1,193.7,460.8,193.7z"/>
		<path class="st1" d="M463.1,173.1c-1.6,3.5-3.3,7-5,10.5c-22.4-31.1-52.6-54.6-86.7-68.6l0.7-1.7v-0.2c3.1-1.7,6.2-3.3,9.3-4.9
			C413.1,122.4,441.3,144.4,463.1,173.1z"/>
		<path class="st1" d="M457,190.9c1.6-0.1,3.1,0.7,4.1,2.6C460.2,192.1,458.6,191.1,457,190.9z"/>
		<path class="st1" d="M453.8,191.8c1-0.8,2.1-1,3.2-0.9c-1.4,0.1-2.8,0.8-3.8,1.9C453.5,192.5,453.6,192.2,453.8,191.8z"/>
		<path class="st1" d="M452.5,198.6l1-0.6L452.5,198.6C452.5,198.6,452.5,198.6,452.5,198.6z"/>
		<path class="st1" d="M461.1,198.6c-1.8,3.2-7,3.3-8.7,0l0.1,0c0,0,0,0,0,0l1-0.6l7.8-4.2c0.6,1.1,0.8,2.5,0.2,4c0,0,0,0,0,0
			C461.4,198.1,461.2,198.4,461.1,198.6z"/>
		<path class="st1" d="M461.2,198.5c-10.6,19.6-22.8,38.2-35.9,56.1c-1.8,2.5-3.6,4.9-5.5,7.4c-32.7,43.5-70,83.6-110.5,119.9
			c-6.5,5.8-13,11.5-19.7,17.1c-4,0.1-8,0.1-12,0c-0.6-0.5-1.2-1-1.8-1.5c33.2-27.1,64.1-57.2,92.7-88.9
			c31.7-35.3,61.2-73.4,84-115.2c0.4-0.7,0.8-1.2,1.3-1.6c-0.2,0.3-0.3,0.6-0.5,1c-1.3,1.4-1.9,3.6-0.8,5.8l-0.1,0
			c1.7,3.3,6.9,3.2,8.7,0c0.1-0.2,0.3-0.5,0.4-0.7C461.4,198.1,461.3,198.3,461.2,198.5z"/>
		<path class="st1" d="M452.6,382.3c-1.2,4.4-3,8.3-5.1,11.9c-9.7,2-19.5,3.7-29.3,5.2c-42.1,6.7-84.8,10-127.4,10.3
			c-2.4-1.9-4.7-3.8-7.1-5.7c2-1.6,4-3.3,5.9-5c18.4-0.2,36.8-0.9,55.2-2.1C380.9,394.5,417.1,390.1,452.6,382.3z"/>
		<path class="st1" d="M381.4,108.2c-3.1,1.6-6.2,3.2-9.3,4.9c0-2.9,0-5.8,0-8.7l0-0.1C375.3,105.5,378.4,106.8,381.4,108.2z"/>
		<path class="st1" d="M372.1,113.3l-5.1-8.7c0.8-0.4,1.7-0.9,2.5-1.3c0.9,0.3,1.8,0.7,2.6,1l0,0.1c0,2.9,0,5.8,0,8.7V113.3z"/>
		<path class="st1" d="M277.7,399.1c4,0,8,0,12,0c-2,1.7-4,3.3-5.9,5C281.7,402.4,279.7,400.8,277.7,399.1z"/>
		<path class="st1" d="M290.8,409.7c-4.7,0-9.4,0-14,0c2.3-1.9,4.6-3.8,6.9-5.7C286,406,288.4,407.9,290.8,409.7z"/>
		<path class="st1" d="M283.7,404c-2.3,1.9-4.6,3.8-6.9,5.7c-0.7,0-1.4,0-2.1,0c-2.3-1.9-4.5-3.8-6.8-5.7c2-1.6,4.1-3.2,6.1-4.9
			c1.2,0,2.5,0,3.7,0C279.7,400.8,281.7,402.4,283.7,404z"/>
		<path class="st1" d="M277.7,399.1c-1.2,0-2.5,0-3.7,0c0.6-0.5,1.3-1,1.9-1.5C276.4,398.1,277,398.6,277.7,399.1z"/>
		<path class="st1" d="M276.7,409.7c-0.3,0.3-0.7,0.5-1,0.8c-0.3-0.3-0.7-0.5-1-0.8C275.4,409.7,276,409.7,276.7,409.7z"/>
		<path class="st1" d="M274,399.1c-2,1.7-4.1,3.3-6.1,4.9c-2-1.7-3.9-3.4-5.9-5.1C266,399,270,399,274,399.1z"/>
		<path class="st1" d="M267.9,404c2.3,1.9,4.5,3.8,6.8,5.7c-4.6,0-9.2-0.1-13.8-0.2C263.2,407.7,265.5,405.8,267.9,404z"/>
		<path class="st1" d="M262,398.9c2,1.7,3.9,3.4,5.9,5.1c-2.3,1.8-4.6,3.7-7,5.5c-5-0.1-10-0.3-15.1-0.5
			c-43.4-1.7-87.1-6.1-129.5-15.9c-2.1-4.1-4-8.2-5.9-12.5c21.3,5.2,42.9,9,64.6,11.9C203.9,396.2,232.9,398.3,262,398.9z"/>
		<path class="st1" d="M192.7,458.2c3.3,1.7,3.2,6.9,0,8.7C192.7,464,192.7,461.1,192.7,458.2z"/>
		<path class="st1" d="M187.8,458.2c21.9-12,42.8-25.9,62.8-40.9c3.4-2.6,6.9-5.2,10.3-7.8c4.6,0.1,9.2,0.2,13.8,0.2
			c0.3,0.3,0.7,0.6,1,0.8c-26.1,21.1-53.7,40.4-83,56.4c3.2-1.8,3.3-7,0-8.7l-4.9,8.7c0,0-0.1,0-0.1,0c0-2.9,0-5.7,0-8.5
			c-0.1,0.1-0.2,0.1-0.3,0.2C187.5,458.4,187.6,458.3,187.8,458.2z"/>
		<path class="st1" d="M192.7,458.2l-4.9,8.7c0,0,0,0,0,0L192.7,458.2z"/>
		<path class="st1" d="M192.7,466.9c-2.1,1.1-4.1,2.2-6.2,3.3c-3.2-2-6.3-4.1-9.3-6.4c3.4-1.7,6.8-3.5,10.2-5.4
			c-2.8,2-2.8,6.7,0.3,8.4c0,0.1,0,0.1,0,0.2l0.1-0.1c0,0,0,0,0,0l4.9-8.7C192.7,461.1,192.7,464,192.7,466.9z"/>
		<path class="st1" d="M187.7,458.3c0,2.9,0,5.7,0,8.5c-3.1-1.7-3.1-6.4-0.3-8.4C187.5,458.4,187.6,458.4,187.7,458.3z"/>
		<path class="st1" d="M186.5,470.2c-3.4,1.8-6.8,3.5-10.3,5.1c-3.2-2.1-6.2-4.3-9.2-6.6c3.4-1.5,6.8-3.2,10.2-4.9
			C180.2,466,183.3,468.1,186.5,470.2z"/>
		<path class="st1" d="M116.3,393.1c14.7,28.5,35.7,52.5,60.8,70.7c-3.4,1.7-6.8,3.3-10.2,4.9c-27.9-21.2-49.2-48.4-63.3-78.7
			C107.9,391.1,112.1,392.1,116.3,393.1z"/>
		<path class="st1" d="M92.2,477.5C92.2,477.5,92.2,477.4,92.2,477.5c0.3,0.2,0.8,0.5,1.3,0.8c0.9,0.6,1.8,1.1,2.8,1.6
			c1.6,0.7,1.3,0.6,2.7,1.1c1.1,0.4,2.3,0.7,3.5,1c5,1.3,10.3,1.5,16.1,1c6.6-0.5,13.2-1.9,19.6-3.7c9.9-2.7,19.4-6.4,28.8-10.6
			c3,2.3,6.1,4.5,9.2,6.6c-13.6,6.5-27.8,12.1-42.5,15.4c-12.5,2.8-26.5,4.3-38.7-0.4c-10.7-4.2-18.3-12.8-21.2-23.9
			c-3.5-13.3-1.2-27.7,2.3-40.7c3.6-13.4,8.9-26.3,15.1-38.8c1.1,0.3,2.3,0.7,3.4,1c0.6,0.1,1.1,0.2,1.7,0.1
			c1.6,0.5,3.3,0.9,4.9,1.3c-6.9,13.8-12.8,28.2-16.4,43.2c-1.5,6.3-2.5,12.3-2.6,18.7c-0.1,5.7,0.3,9.8,2.2,15.2
			c0.5,1.5,0.2,1,1.1,2.7c0.5,1,1.1,1.9,1.7,2.9c0.2,0.2,1,1.4,0.9,1.2c0.2,0.3,0.5,0.7,0.8,1c0.8,0.9,1.5,1.6,2.4,2.4
			c0.1,0.1,0.6,0.5,0.8,0.7c0,0-0.1-0.1-0.1-0.1C92.1,477.4,92.2,477.5,92.2,477.5z"/>
		<path class="st1" d="M110.5,380.6c1.8,4.2,3.8,8.4,5.9,12.5c-4.2-1-8.4-2-12.6-3.1c-0.5-1-0.9-2-1.4-3c1.3-2.5,2.6-5,3.9-7.5
			C107.6,380,109.1,380.3,110.5,380.6z"/>
		<path class="st1" d="M116.4,208.7c-14.8,28.5-22.5,60.2-22.5,92.2c0,1.4,0,2.7,0,4c7.6-4.5,13.9-5.6,19.6-3.5
			c13.1,4.9,16.2,25,19.3,44.4c1.7,10.4,3.6,23.2,7,26.2c3.4,3,5.4,2.1,6.2,1.8c2.6-0.9,15.9-9.7,21.3-73.9c0.1-0.8,0.3-1.4,0.3-2.2
			C146.6,270.5,129.4,240.6,116.4,208.7z M99.4,347.1c2.8,11.7,6.5,22.9,11.1,33.5c-1.4-0.4-2.8-0.7-4.2-1.1c0.3-0.6,0.6-1.2,1-1.8
			l-8.7-5.1c-0.4,0.7-0.8,1.4-1.2,2.2c-13.6-36.3-17.1-76.2-9.4-115c2.7-0.9,5.4-1.8,8.1-2.6l-2.8-10.3c-0.8,0.3-1.7,0.5-2.5,0.8
			c4.6-17.8,11.7-35.2,21.2-51.9c-9.5-31.4-7.8-57.1,6.5-71.4s39-16.5,71.4-6.5c16.3-9.4,33.7-16.6,51.9-21.4
			c43.3-11.3,87.8-8.3,127.8,6.8c-0.8,0.4-1.7,0.9-2.5,1.3l5.1,8.7l-0.7,1.7c-39.2-16.2-83.5-20-126.6-8.9c-2.8,1.5-4.8,4.1-5.8,7.2
			c-1.7,5.1-1.9,14.6,7.3,30.9c5.6,9.4,12.1,18.3,19.4,26.4c14.2,16.6,26.4,31,4.6,56.6c-11.4,13.3-27.4,17.7-43.4,22.1
			c-23.5,6.5-44,12.1-49,45.3c17.5,23.2,36.7,45.1,57.3,65.6c13.4,13.4,27,25.9,40.6,37.3c-0.6,0.5-1.2,1-1.9,1.5c-4,0-8-0.1-12-0.2
			c-11.2-9.8-22.4-20.2-33.5-31.3c-18.5-18.3-35.8-37.8-52-58.2c-3.3,31.6-10.5,67.2-26.7,74c-1.7,0.7-3.5,1.1-5.4,1.1
			c-4.2-0.1-8.2-1.7-11.2-4.6c-6.1-5.2-7.9-17.2-10.3-32.2s-5.3-33.8-12.9-36.6c-3.5-1.3-8.7,0.7-15.3,5.7c0,0,0-0.1,0-0.1l-0.2,0.3
			c0.1,0,0.1-0.1,0.2-0.2C95.5,327,97,337.1,99.4,347.1z M262.7,220.7c16.2-19,9.7-26.7-4.6-43.6c-7.7-8.6-14.5-18-20.4-28
			c-8.6-15.3-11.3-28.1-8.2-38.3c-44.5,15.5-82.1,45.9-106.6,86.2c8.6,25.4,24.8,55.5,47.1,86.6c8.5-31.4,32.7-38,54.4-44
			C239.3,235.5,253.3,231.7,262.7,220.7z M178.1,125.1c-24-5.9-42.5-3.7-52.6,6.4c-10.5,10.7-12.2,29.3-6.5,52.6
			C134.6,160.8,154.7,140.7,178.1,125.1z"/>
		<path class="st1" d="M107.2,377.8c-0.3,0.6-0.6,1.2-1,1.8c-2.6-0.7-5.3-1.4-7.9-2.1c-0.3-0.9-0.7-1.8-1-2.6
			c0.4-0.7,0.8-1.4,1.2-2.2L107.2,377.8z"/>
		<path class="st1" d="M101.1,384.1c0.3-0.9,0.3-1.9,0-2.9l-0.3,0.1c0.1-0.1,0.2-0.2,0.4-0.4l-1.3,0.4c-0.5-1.3-1.1-2.6-1.6-3.9
			c2.6,0.7,5.3,1.4,7.9,2.1c-1.3,2.5-2.6,5-3.9,7.5C101.9,386.1,101.5,385.1,101.1,384.1z"/>
		<path class="st1" d="M103.7,390c-0.8-0.2-1.7-0.4-2.5-0.7c0.4-0.8,0.8-1.5,1.2-2.3C102.8,388,103.2,389,103.7,390z"/>
		<path class="st1" d="M101.2,381c-0.1,0.1-0.2,0.2-0.4,0.4l-0.8,0.2c0-0.1-0.1-0.1-0.1-0.2L101.2,381z"/>
		<path class="st1" d="M101.1,381.3c0.3,1,0.3,2,0,2.9c-0.3-0.7-0.6-1.4-0.9-2.1c0.2-0.2,0.4-0.5,0.7-0.7L101.1,381.3z"/>
		<path class="st1" d="M101.1,384.1c0.4,1,0.8,1.9,1.3,2.9c-0.4,0.8-0.8,1.5-1.2,2.3c-1.6-0.4-3.3-0.9-4.9-1.3
			C98.4,387.8,100.4,386.2,101.1,384.1z"/>
		<path class="st1" d="M101.1,384.1c-0.7,2-2.6,3.7-4.8,3.9c-0.5-0.1-1-0.3-1.6-0.4c1.9-1.9,3.6-3.7,5.5-5.6
			C100.5,382.8,100.8,383.5,101.1,384.1z"/>
		<path class="st1" d="M100.8,381.4c-0.2,0.2-0.4,0.5-0.7,0.7c-0.1-0.1-0.1-0.3-0.2-0.5L100.8,381.4z"/>
		<path class="st1" d="M100,381.6c0.1,0.2,0.1,0.3,0.2,0.5c-1.8,1.9-3.6,3.7-5.5,5.6c0.5,0.1,1.1,0.3,1.6,0.4
			c-0.5,0.1-1.1,0-1.7-0.1c-1.2-0.3-2.3-0.6-3.4-1c0.6-1.2,1.2-2.4,1.8-3.5L100,381.6z"/>
		<path class="st1" d="M100,381.6l-7.1,1.8c0,0,0-0.1,0.1-0.2l6.9-1.9C99.9,381.4,99.9,381.5,100,381.6z"/>
		<path class="st1" d="M97.3,374.9c0.3,0.9,0.7,1.8,1,2.6c-0.3-0.1-0.7-0.2-1-0.3c-0.3-0.1-0.6-0.1-0.9-0.1c-0.1,0-0.2,0-0.2-0.1
			C96.6,376.3,97,375.6,97.3,374.9z"/>
		<path class="st1" d="M97.3,377.3c-0.3-0.1-0.6-0.2-0.9-0.2C96.7,377.1,97,377.1,97.3,377.3c0.3,0,0.7,0.1,1,0.2
			c0.5,1.3,1,2.6,1.6,3.9l-6.9,1.9c0.5-1.1,1.1-2.1,1.6-3.2C95.5,379.1,96.4,378.2,97.3,377.3z"/>
		<path class="st1" d="M96.4,377.1c0.3,0.1,0.6,0.2,0.9,0.2c-0.9,0.9-1.8,1.8-2.7,2.7c0.5-1,1-2,1.6-3C96.3,377,96.3,377,96.4,377.1
			z"/>
		<path class="st1" d="M96.2,377c0.1,0,0.2,0.1,0.2,0.1C96.3,377,96.3,377,96.2,377C96.2,377,96.2,377,96.2,377z"/>
		<path class="st1" d="M90.8,383.8c-1.1-3.4,2-6.8,5.4-6.8c-0.5,1-1,2-1.6,3c-1.2,1.2-2.4,2.5-3.7,3.8L90.8,383.8z"/>
		<path class="st1" d="M93.2,246.9l2.8,10.3c-2.7,0.8-5.4,1.7-8.1,2.6c0.8-4,1.7-8.1,2.8-12.1C91.5,247.4,92.4,247.2,93.2,246.9z"/>
		<path class="st1" d="M94.7,316.7c0,0,0,0.1,0,0.1c-0.1,0.1-0.1,0.1-0.2,0.2L94.7,316.7z"/>
		<path class="st1" d="M94.6,380c-0.5,1.1-1.1,2.1-1.6,3.2l-2.1,0.6C92.2,382.5,93.4,381.3,94.6,380z"/>
		<path class="st1" d="M92.1,477.4C92.2,477.4,92.2,477.5,92.1,477.4c0.1,0.1,0,0-0.1-0.1C92,477.3,92.1,477.4,92.1,477.4
			C92.1,477.4,92.1,477.4,92.1,477.4z"/>
		<path class="st1" d="M90.8,383.9l2.1-0.5c-0.6,1.2-1.2,2.4-1.8,3.5c-20.4-5.9-40.8-13.2-58.8-24.4c-11.4-7-23.2-16.3-28.9-28.8
			c-5-11.1-4.4-23.2,1.6-33.8c7.1-12.7,19.6-21.9,31.9-29.2c16.7-10,35.1-17.1,53.7-23c-1,4-2,8.1-2.8,12.1
			c-17.2,5.8-34.1,12.7-49.5,22.5c-5.8,3.6-10.9,7.5-15.8,12.3c-4.3,4.2-7.1,7.6-9.6,13.1c-0.7,1.5-0.5,0.9-1.1,2.8
			c-0.4,1.2-0.6,2.3-0.9,3.5c0,0.2-0.2,1.3-0.2,1.5c0-0.1,0-0.2,0-0.3c0,0.2,0,0.3,0,0.3c0,0.5-0.1,0.9-0.1,1.4
			c-0.1,1.2-0.1,2.3,0,3.5c0.1,0.4,0.3,1.8,0.1,1.1c0.1,0.6,0.2,1.1,0.4,1.7c0.2,1.1,0.5,2.2,0.9,3.2c0.7,1.8,0.5,1.4,1.2,2.8
			c0.6,1.1,1.2,2.2,1.9,3.3c2.9,4.7,6.8,8.7,11.5,12.6c5.4,4.4,11.4,8.2,17.6,11.6c16.4,9,34,15.2,51.9,20.3c0,0,0,0,0,0.1
			c-3.3-0.1-6.5,3.3-5.4,6.8l0.1,0C90.9,383.8,90.8,383.9,90.8,383.9z"/>
		<path class="st1" d="M10.8,315.2c0,0.1,0,0.2,0,0.3C10.8,315.5,10.8,315.5,10.8,315.2z"/>
	</g>
	<g>
	</g>
</g>
</svg>
