<?xml version="1.0" encoding="utf-8"?>
<!-- Generator: Adobe Illustrator 21.1.0, SVG Export Plug-In . SVG Version: 6.00 Build 0)  -->
<svg version="1.1" id="Layer_1" xmlns="http://www.w3.org/2000/svg" xmlns:xlink="http://www.w3.org/1999/xlink" x="0px" y="0px"
	 viewBox="0 0 590 590" style="enable-background:new 0 0 590 590;" xml:space="preserve">
<style type="text/css">
	.st0{fill:#FFFFFF;}
	.st1{fill:#FB8C00;}
</style>
<g id="XMLID_1_">
	<g>
		<path class="st0" d="M408.4,374.9c10.2,10.3,10.2,26.9,0,37.1l-9.4,10.4l-0.3,0.4l-19,20.9c-21.5,23.6-52,36.9-83.9,36.5
			c-2.5,0-5-0.1-7.6-0.2c-34.1-2-91.6-27.6-90.7-110.5c0.1-11.4,0.3-23.2-17.9-49.2c-8.8-12.6-7.2-27.6,4.1-36.4
			c9.7-7.8,21.5-7.5,31.5,0.6c8.4,7.3,15.4,16,20.7,25.8c7.6,12.5,10,15.7,19.8,11.6c16.8-6.9,59.6-48.7,94-85.4
			c0.2-0.3,0.4-0.5,0.6-0.7c10.2-10.2,26.8-10.1,37,0.1c10.2,10.2,10.1,26.8-0.1,37l-31.4,31.5c12.2,2.4,20.9,13.2,20.9,25.6
			c0,2.8-0.5,5.5-1.4,8.1c1.2,0.1,2.4,0.4,3.6,0.7c12.6,3.5,20,16.5,16.5,29C400.3,368.9,404.8,371.3,408.4,374.9z M400,404
			c5.8-5.7,5.8-15,0.1-20.8c-2.7-2.8-6.4-4.3-10.3-4.3l-1.2-0.1l-14.5,14.5c-4.3,5.4-3.8,13.1,1.1,17.9l0.5,0.5c4,3.9,10,4.9,15,2.5
			l9.2-10.1C400,404,400,404,400,404z M381.8,369.4c4-4.8,3.7-11.9-0.7-16.3c-4-3.9-10-4.6-14.7-1.7c-5.2,4.4-14.9,12.1-17.2,13.9
			c-4.3,5.3-3.9,12.9,0.8,17.8l0.7,0.7c3.7,3.5,9,4.6,13.8,2.9l16.6-16.6C381.3,369.9,381.6,369.6,381.8,369.4z M370.8,436.1
			l8.7-9.6c-4.6-1-8.9-3.4-12.2-6.7l-0.4-0.5c-5.4-5.4-8-12.8-7.2-20.3c-6.6,0.1-12.9-2.5-17.6-7.2l-0.2-0.2l-0.2-0.2
			c-6.2-6.2-8.7-15.1-6.6-23.6c-5.6-0.7-10.8-3.3-14.8-7.3l-0.3-0.3l-0.1-0.1c-10-10.1-9.9-26.3,0.1-36.3l58.8-58.9
			c5.7-5.7,5.7-15,0-20.7c-2.8-2.8-6.6-4.4-10.6-4.3c-3.9,0-7.7,1.7-10.4,4.6c-21.9,23.4-75.3,78.9-98.1,88.2
			c-2.6,1.1-5.4,1.9-8.3,2.3c3.1,10.8,1.2,22.5-5.3,31.8c-1.7,2.5-5.1,3.2-7.7,1.7c-2.8-1.6-3.7-5.1-2.1-7.9
			c11.3-17.7,0.2-29.8-0.3-30.3c-0.1-0.2-0.2-0.3-0.3-0.5c-3.9-4.1-7.3-8.7-10-13.7c-4.6-8.6-10.7-16.3-18.1-22.7
			c-5.9-4.7-11.4-4.9-17-0.5c-7.1,5.7-5.9,14.6-1.6,20.8c18.8,26.9,20.2,40.7,20,56c-0.3,27.1,5.9,46.7,15,61
			c0.3,0.2,0.5,0.4,0.8,0.7c0.1,0.2,11.7,12.2,26.7,11.2c10.7-0.7,21.1-7.9,30.7-21.3c1.9-2.5,5.3-3,7.9-1.3c2.6,1.8,3.3,5.4,1.5,8
			c-11.8,16.3-25,25.1-39.5,26h-2.5c-0.9,0-1.8,0-2.7,0c12.5,8.2,26.9,13.2,41.8,14.5c30.8,2.3,60.9-9.5,81.9-32.1L370.8,436.1z
			 M365.1,330.1c0-3.8-1.5-7.6-4.3-10.3c-5.1-5.2-13.2-5.7-19.1-1.4L328.1,332c-5.5,5.5-5.5,14.4,0,19.9l0.4,0.4
			c3.6,3.6,8.8,5,13.7,3.6c5.7-4.4,13.3-10.5,16.8-13.6C362.5,339.2,364.7,334.8,365.1,330.1z"/>
		<path class="st0" d="M345.6,145.2v71.4c0,3.2-2.6,5.8-5.8,5.8c-3.2,0-5.8-2.6-5.8-5.8v-71.4c0-3.2,2.6-5.8,5.8-5.8
			C343,139.4,345.6,142,345.6,145.2z"/>
		<path class="st1" d="M310.8,150.4c0.6,2.3,7.4,4.7,6.6,7c-0.9,2.3-7.6-0.3-9.6,1c-2,1.4-2.2,8.6-4.6,8.5c-2.4-0.1-2-7.3-3.9-8.8
			c-1.9-1.5-8.8,0.5-9.6-1.7c-0.6-2.4,6.4-4.2,7.2-6.5c0.9-2.3-3.2-8.3-1.2-9.6c2-1.4,6,4.7,8.4,4.8c2.4,0.1,6.8-5.6,8.7-4.1
			C314.7,142.5,310.1,148.1,310.8,150.4z"/>
		<path class="st1" d="M304.9,229.6c1,3-8.3,5.9-9.3,9c-1,3,4.8,10.8,2.2,12.7c-2.6,1.9-8.2-6-11.4-6c-3.2,0-8.8,7.9-11.4,6
			c-2.6-1.9,3.6-9.8,2.2-12.7c-1.4-2.9-10.3-5.9-9.3-9c1-3.1,10.4,0.3,12.8-1.9c2.4-2.2,2.5-11.6,5.7-11.6c3.2,0,5.7,11.6,5.7,11.6
			S303.9,226.5,304.9,229.6z"/>
		<path class="st0" d="M273.3,183.5c0.8,3.1-1.1,6.3-4.2,7.1c-3.1,0.8-6.3-1.1-7.1-4.2L244.6,117c-0.8-3.1,1.1-6.3,4.2-7.1
			c3.1-0.8,6.3,1.1,7.1,4.2L273.3,183.5z"/>
		<path class="st0" d="M239.8,239.5c2.3,2.3,2.3,5.9,0,8.2s-5.9,2.3-8.2,0l-51.1-51.1c-2.3-2.3-2.3-5.9,0-8.2c2.2-2.3,5.9-2.3,8.2,0
			L239.8,239.5z"/>
		<path class="st1" d="M227.7,160.9c0.1,2.5,6.1,6.4,4.8,8.4c-1.4,2-7.3-2.1-9.6-1.3c-2.3,0.9-4.2,7.9-6.5,7.2
			c-2.4-0.7-0.3-7.6-1.8-9.5c-1.5-1.9-8.7-1.5-8.8-3.9c-0.1-2.4,7.2-2.6,8.5-4.6s-1.3-8.8,1-9.6c2.3-0.9,4.7,5.9,7,6.6
			c2.4,0.7,8-3.8,9.6-2C233.4,154.1,227.6,158.5,227.7,160.9z"/>
	</g>
	<g>
	</g>
</g>
</svg>
