<?xml version="1.0" encoding="utf-8"?>
<!-- Generator: Adobe Illustrator 21.1.0, SVG Export Plug-In . SVG Version: 6.00 Build 0)  -->
<svg version="1.1" id="Layer_1" xmlns="http://www.w3.org/2000/svg" xmlns:xlink="http://www.w3.org/1999/xlink" x="0px" y="0px"
	 viewBox="0 0 590 590" style="enable-background:new 0 0 590 590;" xml:space="preserve">
<style type="text/css">
	.st0{fill:#FFFFFF;}
</style>
<path class="st0" d="M180.5,188.4c-2.3,2.3-2.3,5.9,0,8.2c0,0,0,0,0,0l51.1,51.1c2.3,2.3,5.9,2.3,8.2,0c2.3-2.3,2.3-5.9,0-8.2
	l-51.1-51.1C186.4,186.1,182.7,186.1,180.5,188.4z"/>
<path class="st0" d="M345.6,216.6v-71.4c0-3.2-2.6-5.8-5.8-5.8c-3.2,0-5.8,2.6-5.8,5.8v71.4c0,3.2,2.6,5.8,5.8,5.8
	C343,222.4,345.6,219.8,345.6,216.6z"/>
<path class="st0" d="M255.9,114.1c-0.8-3.1-4-5-7.1-4.2s-5,4-4.2,7.1l17.4,69.4c0.8,3.1,4,5,7.1,4.2c3.1-0.8,5-4,4.2-7.1
	L255.9,114.1z"/>
<path class="st0" d="M179.6,320.3c18.2,26,18,37.8,17.9,49.2c-0.9,82.9,56.6,108.5,90.7,110.5c2.6,0.1,5.1,0.2,7.6,0.2
	c31.9,0.4,62.4-12.9,83.9-36.5l19-20.9l0.3-0.4l9.4-10.4c10.2-10.2,10.2-26.8,0-37.1c-3.6-3.6-8.1-6-13-7.1
	c3.5-12.5-3.9-25.5-16.5-29c-1.2-0.3-2.4-0.6-3.6-0.7c0.9-2.6,1.4-5.3,1.4-8.1c0-12.4-8.7-23.2-20.9-25.6l31.4-31.5
	c10.2-10.2,10.3-26.8,0.1-37c-10.2-10.2-26.8-10.3-37-0.1c-0.2,0.2-0.4,0.4-0.6,0.7c-34.4,36.7-77.2,78.5-94,85.4
	c-9.8,4.1-12.2,0.9-19.8-11.6c-5.3-9.8-12.3-18.5-20.7-25.8c-10-8.1-21.8-8.4-31.5-0.6C172.4,292.7,170.8,307.7,179.6,320.3z
	 M389.8,378.9c3.9,0,7.6,1.5,10.3,4.3c5.7,5.8,5.7,15.1-0.1,20.8c0,0,0,0-0.1,0.1l-9.2,10.1c-5,2.4-11,1.4-15-2.5l-0.5-0.5
	c-4.9-4.8-5.4-12.5-1.1-17.9l14.5-14.5L389.8,378.9z M381.1,353.1c4.4,4.4,4.7,11.5,0.7,16.3c-0.2,0.2-0.5,0.5-0.7,0.7l0,0
	l-16.6,16.6c-4.8,1.7-10.1,0.6-13.8-2.9l-0.7-0.7c-4.7-4.9-5.1-12.5-0.8-17.8c2.3-1.8,12-9.5,17.2-13.9
	C371.1,348.5,377.1,349.2,381.1,353.1L381.1,353.1z M360.8,319.8c2.8,2.7,4.3,6.5,4.3,10.3c-0.4,4.7-2.6,9.1-6.1,12.2
	c-3.5,3.1-11.1,9.2-16.8,13.6c-4.9,1.4-10.1,0-13.7-3.6l-0.4-0.4c-5.5-5.5-5.5-14.4,0-19.9l13.6-13.6
	C347.6,314.1,355.7,314.6,360.8,319.8L360.8,319.8z M190.6,292.9c5.6-4.4,11.1-4.2,17,0.5c7.4,6.4,13.5,14.1,18.1,22.7
	c2.7,5,6.1,9.6,10,13.7c0.1,0.2,0.2,0.3,0.3,0.5c0.5,0.5,11.6,12.6,0.3,30.3c-1.6,2.8-0.7,6.3,2.1,7.9c2.6,1.5,6,0.8,7.7-1.7
	c6.5-9.3,8.4-21,5.3-31.8c2.9-0.4,5.7-1.2,8.3-2.3c22.8-9.3,76.2-64.8,98.1-88.2c2.7-2.9,6.5-4.6,10.4-4.6c4-0.1,7.8,1.5,10.6,4.3
	c5.7,5.7,5.7,15,0,20.7c0,0,0,0,0,0L320,323.8c-10,10-10.1,26.2-0.1,36.3c0,0,0.1,0.1,0.1,0.1l0.3,0.3c4,4,9.2,6.6,14.8,7.3
	c-2.1,8.5,0.4,17.4,6.6,23.6l0.2,0.2l0.2,0.2c4.7,4.7,11,7.3,17.6,7.2c-0.8,7.5,1.8,14.9,7.2,20.3l0.4,0.5c3.3,3.3,7.6,5.7,12.2,6.7
	l-8.7,9.6l-0.2,0.3c-21,22.6-51.1,34.4-81.9,32.1c-14.9-1.3-29.3-6.3-41.8-14.5c0.9,0,1.8,0,2.7,0h2.5c14.5-0.9,27.7-9.7,39.5-26
	c1.8-2.6,1.1-6.2-1.5-8c-2.6-1.7-6-1.2-7.9,1.3c-9.6,13.4-20,20.6-30.7,21.3c-15,1-26.6-11-26.7-11.2c-0.3-0.3-0.5-0.5-0.8-0.7
	c-9.1-14.3-15.3-33.9-15-61c0.2-15.3-1.2-29.1-20-56C184.7,307.5,183.5,298.6,190.6,292.9z"/>
<path class="st0" d="M280.7,227.7c-2.4,2.2-11.8-1.2-12.8,1.9c-1,3.1,7.9,6.1,9.3,9c1.4,2.9-4.8,10.8-2.2,12.7c2.6,1.9,8.2-6,11.4-6
	s8.8,7.9,11.4,6c2.6-1.9-3.2-9.7-2.2-12.7c1-3.1,10.3-6,9.3-9c-1-3.1-12.8-1.9-12.8-1.9s-2.5-11.6-5.7-11.6
	C283.2,216.1,283.1,225.5,280.7,227.7z"/>
<path class="st0" d="M299.3,158.1c1.9,1.5,1.5,8.7,3.9,8.8c2.4,0.1,2.6-7.1,4.6-8.5c2-1.3,8.7,1.3,9.6-1c0.8-2.3-6-4.7-6.6-7
	c-0.7-2.3,3.9-7.9,2-9.4c-1.9-1.5-6.3,4.2-8.7,4.1c-2.4-0.1-6.4-6.2-8.4-4.8c-2,1.3,2.1,7.3,1.2,9.6c-0.8,2.3-7.8,4.1-7.2,6.5
	C290.5,158.6,297.4,156.6,299.3,158.1z"/>
<path class="st0" d="M222.3,154.2c-2.3-0.7-4.7-7.5-7-6.6c-2.3,0.8,0.3,7.6-1,9.6c-1.3,2-8.6,2.2-8.5,4.6c0.1,2.4,7.3,2,8.8,3.9
	c1.5,1.9-0.6,8.8,1.8,9.5c2.3,0.7,4.2-6.3,6.5-7.2c2.3-0.8,8.2,3.3,9.6,1.3c1.3-2-4.7-5.9-4.8-8.4c-0.1-2.4,5.7-6.8,4.2-8.7
	C230.3,150.4,224.7,154.9,222.3,154.2z"/>
</svg>
