<?xml version="1.0" encoding="utf-8"?>
<!-- Generator: Adobe Illustrator 21.1.0, SVG Export Plug-In . SVG Version: 6.00 Build 0)  -->
<svg version="1.1" id="Layer_1" xmlns="http://www.w3.org/2000/svg" xmlns:xlink="http://www.w3.org/1999/xlink" x="0px" y="0px"
	 viewBox="0 0 590 590" style="enable-background:new 0 0 590 590;" xml:space="preserve">
<style type="text/css">
	.st0{fill:#1E88E5;}
	.st1{fill:#FFFFFF;}
</style>
<g id="XMLID_1_">
	<g>
		<path class="st0" d="M425.3,254.5c13.1-17.9,25.2-36.5,35.9-56.1c0.1-0.1,0.1-0.3,0.2-0.4c1-1.8,2-3.7,2.9-5.5
			c2.6,5.7,9.3,25.9-14,42.1c-10.2,7.1-17.8,14.2-22.9,21.4L425.3,254.5z"/>
		<path class="st0" d="M437.2,315.9c15.2,17.6,21.1,41.3,16,64c-0.2,1-0.5,2-0.8,3c-35.6,8.4-68.1,11.2-107.6,13.9
			c-18.3,1.2-36.8,2-55.2,2.1c6.7-5.6,13.2-11.4,19.7-17.1c40.5-36.3,77.8-76.4,110.5-119.9c1.8-2.4,3.7-4.9,5.5-7.4l2.1,1.6
			c-4.5,6.4-7.1,12.8-7.8,19.4C418.2,288.5,424,301.7,437.2,315.9z"/>
		<path class="st0" d="M447.1,394.8c-4.8,7.8-11.7,13.4-20.1,16.5c-13.2,4.7-47.8,18.9-68.8,43.2c-21.3-11.5-44.2-26.7-67.3-44.9
			c42.7-0.4,85.3-3.7,127.4-10.3C431.1,397.3,439.2,396.3,447.1,394.8z"/>
		<path class="st0" d="M352.2,463c-6.8,9.9-10.7,21.6-11.1,33.6c-55.2,13-110.4,1.9-154.6-26.5c2.1-1.1,4.1-2.2,6.2-3.3
			c29.3-16,56.9-35.3,83-56.4C302,432.1,328,449.8,352.2,463z"/>
		<path class="st0" d="M260.9,409.4c-3.4,2.6-6.8,5.2-10.3,7.8c-20,15-40.9,28.9-62.8,40.9l4.9,8.7l-5-8.6c-3.5,1.9-7,3.7-10.5,5.5
			c-25.1-18.2-46.2-42.2-60.8-70.7c42.3,9.8,86.1,14.2,129.5,15.9C250.9,409.1,255.9,409.2,260.9,409.4z"/>
		<path class="st0" d="M228.5,367.5c11.1,11.1,22.3,21.5,33.5,31.3c-29.1-0.6-58.1-2.7-86.9-6.4c-21.7-2.8-43.3-6.6-64.6-11.9
			c-4.6-10.7-8.3-21.9-11.1-33.5c-2.4-10-3.9-20.1-4.7-30.3c6.6-5.1,11.8-7,15.3-5.7c7.6,2.8,10.5,21.6,12.9,36.6s4.2,27,10.3,32.2
			c3,2.9,7,4.5,11.2,4.6c1.9,0,3.7-0.4,5.4-1.1c16.2-6.8,23.4-42.4,26.7-74C192.7,329.7,210,349.2,228.5,367.5z"/>
		<path class="st0" d="M458,183.1c-1.8,3.4-3.6,6.7-5.4,10.1c-0.1,0.1-0.1,0.2-0.1,0.3c-22.8,41.7-52.2,79.7-83.9,115
			c-28.6,31.8-59.5,61.8-92.7,88.9c-13.6-11.5-27.3-24-40.6-37.4c-20.6-20.5-39.8-42.4-57.3-65.6c5-33.2,25.5-38.8,49-45.3
			c16-4.4,32-8.8,43.4-22.1c21.8-25.6,9.6-40-4.6-56.6c-7.3-8.1-13.8-17-19.4-26.4c-9.2-16.3-9-25.8-7.3-30.9c1-3.1,3-5.7,5.8-7.2
			C325.3,85.4,409.9,116.3,458,183.1z"/>
		<path class="st1" d="M577.2,319.7c0.4-1.1,0.8-2.1,1-3.3c0.2-0.7,0.4-1.4,0.5-2.1c0.1-0.6,0.1-0.6,0.2-1.3c0.1-0.6,0-0.2,0.1-1.1
			c0.1-0.8,0.1-3.2,0.1-3.2l10.7,1c0,1-1.9,13.2-5.2,19c-7.1,12.7-19.6,21.9-31.9,29.2c-17.5,10.5-44,20.3-63.6,25.9l0-0.1
			c1.8-4.1,3.4-8.3,4.9-12.5l0-0.1c10.9-3.4,21.2-6.9,31.7-11.5c14.1-6.2,28.5-13.6,39.7-24.1c2.2-2.1,4.4-4.4,6.3-6.8
			c0.3-0.3,0.5-0.6,0.7-0.9c-0.5,0.6,0-0.1,0.1-0.2c0.4-0.6,0.8-1.2,1.2-1.8c0.7-1.1,1.3-2.1,1.9-3.2c0.3-0.7,0.7-1.4,1-2.1
			c0.1-0.1,0.3-0.5,0.4-0.8C577.2,319.7,577.2,319.7,577.2,319.7z"/>
		<path class="st1" d="M577.3,300.5L577.3,300.5L577.3,300.5l-0.1-0.2c-0.1-0.3-0.3-0.6-0.5-0.9c-0.6-1.3-1.3-2.6-2.1-3.8
			c-2.9-4.5-6.7-8.5-11.4-12.4c-5.4-4.5-11.6-8.4-17.9-11.8c-16.6-9.1-26.4-12.9-44.5-18l0-0.1c-0.9-4-2-8-3.1-12l0-0.2
			c11.8,3.3,21.1,6.5,32.5,11.1c15.5,6.3,31,14.1,43.4,25.5c9,8.3,16.1,19.2,16.3,31.8l-10.7-1l0-1l-0.1-0.8l0-0.2
			c0,0-0.5-2.7-0.9-4.2c-0.2-0.6-0.5-1.2-0.7-1.8C577.3,300.6,577.3,300.6,577.3,300.5z"/>
		<path class="st1" d="M577.3,300.5L577.3,300.5C577.3,300.5,577.3,300.5,577.3,300.5C577.3,300.5,577.3,300.5,577.3,300.5z"/>
		<path class="st1" d="M577.3,300.5C577.3,300.5,577.3,300.5,577.3,300.5C577.2,300.5,577.2,300.5,577.3,300.5L577.3,300.5z"/>
		<path class="st1" d="M577.2,300.4L577.2,300.4C577.2,300.4,577.2,300.4,577.2,300.4z"/>
		<path class="st1" d="M500.8,253.4l-3.1-12C498.9,245.4,499.9,249.4,500.8,253.4z"/>
		<path class="st1" d="M482.1,374.7c6.6-2,3.4,10-5.4,12.4h0C478.6,383.1,480.4,379,482.1,374.7
			C482.1,374.7,482.1,374.7,482.1,374.7z"/>
		<path class="st1" d="M476.7,387.2c8.8-2.5,12-14.4,5.4-12.4c0,0,0,0,0,0c19.9-50.4,19.5-108.4-5.4-160.6
			c-2.6,12-10,22.3-20.4,28.8c-16.6,11.6-25.2,22.6-26.4,33.6c-1,9.9,3.9,20.4,15,32.4c16.4,17.5,24,46.4,18.9,71
			c-3.8,1-7.6,2-11.3,2.8c0.3-1,0.6-2,0.8-3c5.1-22.7-0.8-46.4-16-64c-13.2-14.2-19-27.4-17.6-40.4c0.7-6.6,3.3-13,7.8-19.4
			c5.1-7.2,12.7-14.3,22.9-21.4c23.3-16.2,16.5-36.4,14-42.1c1.8-3.5,3.6-7,5.3-10.5c0.8,1.1,1.5,2.2,2.3,3.4l1.2,1.9
			c10.8,16.9,19.1,35.1,24.7,54.1l3.1,12l0,0.1c3.6,15.5,5.4,31.4,5.4,47.4c0,24-4.1,47.8-12.1,70.3l0,0.1l-4.9,12.5l0,0.1
			c-3.2,7.5-7,14.9-11.1,22.1c10,32.5,7.7,57.2-6.5,71.4c-8.6,8.6-20.8,12.6-35.7,12.6c-12.1-0.3-24.1-2.3-35.6-6.1
			c-65,37.4-145,37.4-210.1,0.1c-4.8-2.7-9.4-5.6-13.9-8.7c3.5-1.6,6.9-3.4,10.3-5.1c44.2,28.4,99.4,39.5,154.6,26.5
			c0.4-12,4.3-23.7,11.1-33.6c-24.3-13.2-50.2-30.9-76.5-52.6c0.3-0.3,0.7-0.5,1-0.8c4.7,0,9.4,0,14,0c23.1,18.2,46,33.4,67.3,44.9
			c21-24.3,55.6-38.5,68.8-43.2c8.5-3,15.3-8.7,20.1-16.5c4.2-0.8,8.3-1.6,13-2.9c-5.8,13.9-16,24.1-29.5,28.9
			c-12.5,4.6-43.5,17.3-63.1,38.6c10.2,5.2,20.8,9.7,31.6,13.4C433.9,451.8,460.3,421.7,476.7,387.2L476.7,387.2z M464.4,470.3
			c10.1-10.1,12.3-28.6,6.6-52.6c-15.7,23.4-35.8,43.5-59.3,59c23.4,5.9,42,4.2,52.6-6.4H464.4z M351,494
			c12.5-3.6,24.6-8.5,36.2-14.4c-9-3.5-17.8-7.4-26.4-11.8C355.3,475.5,351.9,484.5,351,494z"/>
		<path class="st1" d="M476.9,88.9c4.4,4.3-1.8,10.9-6.4,7.7c-0.2-0.3-0.5-0.6-0.8-0.8c-4.3-4.3,1.6-10.8,6.1-7.9
			C476.3,88.2,476.6,88.6,476.9,88.9z"/>
		<path class="st1" d="M482.1,374.8c-1.6,4.2-3.5,8.4-5.4,12.4c-6.6,2.1-11.9,3.6-16.6,4.8c1.3-3,2.3-6.2,3.2-9.6
			c0.2-0.8,0.4-1.6,0.5-2.4C469.7,378.5,475.8,376.7,482.1,374.8z"/>
		<path class="st1" d="M471.9,98C471.9,98,471.8,98,471.9,98C471.8,97.9,471.8,97.9,471.9,98z M473.6,100.7
			c-0.3-0.5-0.7-1.1-1.1-1.7c-0.1-0.1-0.5-0.7-0.7-0.9c0,0-0.7-0.8-0.8-1c-0.1-0.2-0.3-0.3-0.5-0.5c4.6,3.2,10.7-3.4,6.4-7.7
			c-0.3-0.3-0.7-0.6-1-1c0.3,0.2,0.6,0.5,0.9,0.8c4.4,4.5,7.4,10.1,9,16.1c3.5,13.3,1.2,27.7-2.3,40.7c-3.4,12.6-8.3,24.7-14,36.5
			c-2.1-3.1-4.3-6.1-6.5-9.1c1.3-2.8,2.6-5.6,3.8-8.5c5.4-13.5,10.2-28,10.9-42.4c0.2-2.9,0.1-5.8-0.2-8.7c0-0.4,0-0.7-0.1-1.1
			c0,0.8-0.1-0.1-0.1-0.2c-0.1-0.6-0.2-1.3-0.4-2c-0.2-1.2-0.5-2.3-0.8-3.4c-0.2-0.7-0.4-1.4-0.7-2.1c-0.1-0.2-0.4-0.9-0.4-1.1
			c0,0,0,0.1,0.1,0.1C474.7,102.6,474.2,101.6,473.6,100.7z"/>
		<path class="st1" d="M471.8,98C471.8,98,471.9,98,471.8,98C471.8,97.9,471.8,97.9,471.8,98z"/>
		<path class="st1" d="M467.9,94C467.9,94,467.9,94,467.9,94C467.9,94.1,467.9,94,467.9,94z"/>
		<path class="st1" d="M469.6,182c-1.7,3.6-3.5,7.1-5.3,10.5c-0.1-0.1-0.1-0.2-0.2-0.4c-2-3.1-4-6.1-6.2-9.1
			c1.8-3.4,3.5-6.7,5.1-10.2C465.3,175.9,467.5,178.9,469.6,182z"/>
		<path class="st1" d="M464.1,192.2c0,0.1,0.1,0.2,0.2,0.4c-1,1.9-2,3.7-2.9,5.5c2.6-5.6-5.7-10.4-8.8-4.9c1.8-3.4,3.6-6.7,5.4-10.1
			C460.1,186.1,462.1,189.1,464.1,192.2z"/>
		<path class="st1" d="M463.8,380c-0.2,0.8-0.3,1.6-0.5,2.4c-0.8,3.4-1.9,6.6-3.2,9.6c-4.7,1.2-8.8,2.1-13,2.9c2.2-3.6,4-7.6,5.3-12
			C456.1,382,459.9,381,463.8,380z"/>
		<path class="st1" d="M462,90.7c0,0,0.1,0,0.1,0.1C462.1,90.8,462,90.7,462,90.7z M468.3,94.4c-0.2-0.2-0.4-0.4-0.7-0.6
			c0.1,0.1,0.2,0.2,0.3,0.2c-0.1-0.1-0.3-0.2-0.4-0.2c-1.2-0.7-2.3-1.5-3.5-2.1c-0.6-0.3-1.1-0.5-1.7-0.8c0,0-0.1,0-0.1,0
			c0,0,0,0,0,0c0,0,0,0,0,0c0,0,0,0,0,0v0c0,0-0.1,0-0.2-0.1c-0.3-0.2-0.6-0.3-0.9-0.4c-1.3-0.5-2.6-0.9-4-1.2
			c-4.9-1.2-10.2-1.4-15.9-0.9c-6.6,0.5-13.4,1.9-19.9,3.8c-17.2,4.8-24.2,7.5-39.9,16l-0.3-0.1c-3.7-1.7-7.5-3.2-11.3-4.7l-0.3-0.1
			c10.3-5.5,18.2-9.3,29-13.7c14.7-5.9,30.4-10.8,46.3-11.3c11.1-0.3,22.7,2.1,31.1,9.7c-4.5-2.9-10.4,3.6-6.1,7.9
			c0.2,0.2,0.5,0.5,0.8,0.8c-0.3-0.2-0.5-0.4-0.8-0.6C469.3,95.5,468.7,95,468.3,94.4z"/>
		<path class="st1" d="M462.2,90.8C462.2,90.8,462.2,90.8,462.2,90.8C462.2,90.8,462.2,90.8,462.2,90.8z"/>
		<path class="st1" d="M462.1,90.8c-0.1,0-0.1-0.1-0.1-0.1C462,90.7,462.1,90.8,462.1,90.8z"/>
		<path class="st1" d="M452.6,193.2c3.1-5.5,11.4-0.7,8.8,4.9c-0.1,0.1-0.1,0.3-0.2,0.4l-8.7-5C452.5,193.4,452.5,193.3,452.6,193.2
			z"/>
		<path class="st1" d="M452.4,193.5l8.7,5c-10.6,19.6-22.8,38.1-35.9,56.1c-1.8,2.5-3.6,4.9-5.5,7.4c-32.7,43.5-70,83.6-110.5,119.9
			c-6.5,5.8-13,11.5-19.7,17.1c-4,0.1-8,0.1-12,0c-0.6-0.5-1.2-1-1.8-1.5c33.2-27.1,64.1-57.2,92.7-88.9
			C400.2,273.2,429.6,235.2,452.4,193.5z"/>
		<path class="st1" d="M463.1,172.9c-1.6,3.4-3.4,6.8-5.1,10.2c-48.1-66.8-132.7-97.7-213.1-77.1c-2.8,1.5-4.8,4.1-5.8,7.2
			c-1.7,5.1-1.9,14.6,7.3,30.9c5.6,9.4,12.1,18.3,19.4,26.4c14.2,16.6,26.4,31,4.6,56.6c-11.4,13.3-27.4,17.7-43.4,22.1
			c-23.5,6.5-44,12.1-49,45.3c17.5,23.2,36.7,45.1,57.3,65.6c13.4,13.4,27,25.9,40.6,37.4c-0.6,0.5-1.2,1-1.9,1.5c-4,0-8-0.1-12-0.2
			c-11.2-9.8-22.4-20.2-33.5-31.3c-18.5-18.3-35.8-37.8-52-58.2c-3.3,31.6-10.5,67.2-26.7,74c-1.7,0.7-3.5,1.1-5.4,1.1
			c-4.2-0.1-8.2-1.7-11.2-4.6c-6.1-5.2-7.9-17.2-10.3-32.2s-5.3-33.8-12.9-36.6c-3.5-1.3-8.7,0.7-15.3,5.7c0,0,0-0.1,0-0.1l-0.2,0.3
			c0.1-0.1,0.1-0.1,0.2-0.2c0.8,10.1,2.3,20.3,4.7,30.3c2.8,11.7,6.5,22.9,11.1,33.5c-4.1-1-8.1-2-12.1-3.2
			c-14.4-37-18.3-77.9-10.4-117.6l2.7-12l0-0.1c4.6-17.8,11.7-35.2,21.2-51.9c-9.5-31.4-7.8-57.1,6.5-71.4s39-16.5,71.4-6.5
			c16.3-9.4,33.7-16.6,51.9-21.4c43.4-11.3,88.1-8.3,128.1,6.9l11.3,4.7C412.9,122.2,441.3,144.2,463.1,172.9z M262.7,220.6
			c16.2-19,9.7-26.7-4.6-43.6c-7.7-8.6-14.5-18-20.4-28c-8.6-15.3-11.3-28.1-8.2-38.3c-44.5,15.5-82.1,45.9-106.6,86.2
			c8.6,25.4,24.8,55.5,47.1,86.6c8.5-31.4,32.7-38,54.4-44C239.3,235.4,253.3,231.6,262.7,220.6z M167.3,299.8
			c0.1-0.8,0.3-1.4,0.3-2.2c-21-27.2-38.2-57.1-51.2-89c-14.8,28.5-22.5,60.2-22.5,92.2c0,1.4,0,2.7,0,4c7.6-4.5,13.9-5.6,19.6-3.5
			c13.1,4.9,16.2,25,19.3,44.4c1.7,10.4,3.6,23.2,7,26.2c3.4,3,5.4,2.1,6.2,1.8C148.6,372.8,161.9,364,167.3,299.8z M178.1,125
			c-24-5.9-42.5-3.7-52.6,6.4c-10.5,10.7-12.2,29.3-6.5,52.6C134.6,160.7,154.7,140.6,178.1,125z"/>
		<path class="st1" d="M452.4,382.9c-1.3,4.4-3.1,8.4-5.3,12c-7.9,1.4-16,2.5-28.8,4.5c-42.1,6.7-84.8,10-127.4,10.3
			c-2.4-1.9-4.7-3.8-7.1-5.7c2-1.6,4-3.3,5.9-5c18.4-0.2,36.8-0.9,55.2-2.1C384.4,394.1,416.9,391.3,452.4,382.9z"/>
		<path class="st1" d="M381.2,108l-11.3-4.7C373.7,104.7,377.5,106.3,381.2,108z"/>
		<path class="st1" d="M277.7,399c4,0,8,0,12,0c-2,1.7-4,3.3-5.9,5C281.7,402.3,279.7,400.6,277.7,399z"/>
		<path class="st1" d="M290.8,409.6c-4.7,0-9.4,0-14,0c2.3-1.9,4.6-3.8,6.9-5.7C286.1,405.9,288.4,407.7,290.8,409.6z"/>
		<path class="st1" d="M283.7,403.9c-2.3,1.9-4.6,3.8-6.9,5.7c-0.7,0-1.4,0-2.1,0c-2.3-1.9-4.5-3.8-6.8-5.7c2-1.6,4.1-3.2,6.1-4.9
			c1.2,0,2.5,0,3.7,0C279.7,400.6,281.7,402.3,283.7,403.9z"/>
		<path class="st1" d="M277.7,399c-1.2,0-2.5,0-3.7,0c0.6-0.5,1.3-1,1.9-1.5C276.5,398,277.1,398.5,277.7,399z"/>
		<path class="st1" d="M276.8,409.6c-0.3,0.3-0.7,0.5-1,0.8c-0.3-0.3-0.7-0.5-1-0.8C275.4,409.6,276.1,409.6,276.8,409.6z"/>
		<path class="st1" d="M274.7,409.6c0.3,0.3,0.7,0.6,1,0.8c-26.1,21.1-53.7,40.4-83,56.4l-4.9-8.7c21.9-12,42.8-25.9,62.8-40.9
			c3.4-2.6,6.9-5.2,10.3-7.8C265.5,409.5,270.1,409.5,274.7,409.6z"/>
		<path class="st1" d="M274,399c-2,1.6-4.1,3.3-6.1,4.9c-2-1.7-3.9-3.4-5.9-5.1C266,398.9,270,398.9,274,399z"/>
		<path class="st1" d="M267.9,403.9c2.3,1.9,4.5,3.9,6.8,5.7c-4.6,0-9.2-0.1-13.8-0.2C263.2,407.5,265.6,405.7,267.9,403.9z"/>
		<path class="st1" d="M262,398.8c2,1.7,3.9,3.4,5.9,5.1c-2.3,1.9-4.6,3.7-7,5.5c-5-0.1-10-0.3-15.1-0.5
			c-43.4-1.7-87.1-6.1-129.5-15.9c-2.1-4.1-4.1-8.2-5.9-12.5c21.3,5.3,42.9,9,64.6,11.9C203.9,396.1,232.9,398.2,262,398.8z"/>
		<path class="st1" d="M187.7,458.2l5,8.6c-2.1,1.1-4.1,2.2-6.2,3.3c-3.2-2-6.3-4.1-9.3-6.3C180.7,461.9,184.2,460.1,187.7,458.2z"
			/>
		<path class="st1" d="M186.5,470c-3.4,1.8-6.8,3.5-10.3,5.1c-3.1-2.1-6.2-4.3-9.2-6.6c3.4-1.5,6.8-3.2,10.2-4.9
			C180.2,465.9,183.4,468,186.5,470z"/>
		<path class="st1" d="M116.4,393c14.7,28.5,35.7,52.5,60.8,70.7c-3.4,1.7-6.8,3.3-10.2,4.9c-27.9-21.2-49.2-48.4-63.3-78.7
			C107.9,391,112.2,392,116.4,393z"/>
		<path class="st1" d="M92.3,477.4C92.2,477.3,92.2,477.3,92.3,477.4c0.4,0.2,0.8,0.6,1.3,0.8c0.9,0.6,1.8,1.1,2.8,1.6
			c1.6,0.7,1.3,0.6,2.7,1.1c1.1,0.4,2.3,0.7,3.5,1c5,1.3,10.3,1.5,16.1,1c6.6-0.5,13.2-1.9,19.6-3.7c9.9-2.7,19.4-6.4,28.8-10.6
			c3,2.3,6.1,4.5,9.2,6.6c-13.6,6.5-27.8,12.1-42.5,15.4c-12.5,2.8-26.5,4.3-38.7-0.4c-10.7-4.2-18.3-12.8-21.2-23.9
			c-3.5-13.3-1.2-27.7,2.3-40.7c5-18.5,6.1-22.3,15.2-39.1c1.1,0.3,2.3,0.7,3.4,1c2,0.6,4,1.1,6.1,1.6c0.1,0,0.3,0.1,0.4,0.1
			c-9.4,17.3-11.8,23.9-16.4,43.2c-1.5,6.3-2.5,12.3-2.6,18.7c-0.1,5.7,0.3,9.8,2.2,15.2c0.5,1.5,0.2,1,1.1,2.7
			c0.5,1,1.1,1.9,1.7,2.9c0.2,0.2,1,1.4,0.9,1.2c0.2,0.3,0.5,0.7,0.8,1c0.8,0.9,1.5,1.6,2.4,2.4c0.1,0.1,0.6,0.5,0.8,0.7
			c0,0-0.1-0.1-0.1-0.1C92.2,477.3,92.2,477.3,92.3,477.4z"/>
		<path class="st1" d="M110.5,380.5c1.8,4.2,3.8,8.4,5.9,12.5c-4.2-1-8.4-2-12.7-3.1c-1.9-4.1-3.7-8.3-5.3-12.5
			C102.4,378.5,106.4,379.5,110.5,380.5z"/>
		<path class="st1" d="M98.4,377.4c1.6,4.2,3.4,8.4,5.3,12.5c-0.8-0.2-1.7-0.4-2.5-0.7c-0.1,0-0.3-0.1-0.4-0.1l-6.1-1.7l2.6-10.4
			C97.7,377.2,98,377.3,98.4,377.4z"/>
		<path class="st1" d="M94.7,387.5l6.1,1.7C98.8,388.6,96.8,388,94.7,387.5L94.7,387.5z"/>
		<path class="st1" d="M10.9,321.5c0.1,0.5,0.2,1,0.3,1.5c0.2,1.1,0.5,2.2,0.9,3.2c0.7,1.8,0.5,1.4,1.2,2.8c0.6,1.1,1.2,2.2,1.9,3.3
			c2.9,4.7,6.8,8.7,11.5,12.6c5.4,4.4,11.4,8.2,17.6,11.6c16.7,9.2,34.7,15.4,53,20.5l-2.6,10.4l-3.4-1
			c-20.4-5.9-40.9-12.9-58.9-24.1c-11.4-7-23.2-16.3-28.9-28.8c-5-11.1-4.4-23.2,1.6-33.8c7.1-12.7,19.6-21.9,31.9-29.2
			c17.5-10.4,34.3-16.9,53.7-23l0,0.1c-1,4-1.9,8-2.7,12c-20,6.3-31.7,11.2-49.5,22.5c-5.8,3.6-10.9,7.5-15.8,12.3
			c-4.3,4.2-7.1,7.6-9.6,13.1c-0.7,1.5-0.5,0.9-1.1,2.8c-0.4,1.2-0.6,2.3-0.9,3.5c0,0.2-0.2,1.3-0.2,1.5c0-0.1,0-0.2,0-0.3
			c0,0.2,0,0.3,0,0.3c0,0.5-0.1,0.9-0.1,1.4c-0.1,1.2-0.1,2.3,0,3.5C10.8,320.6,11,321.9,10.9,321.5z"/>
		<path class="st1" d="M94.7,316.6c0,0.1,0,0.1,0,0.1c-0.1,0-0.1,0.1-0.2,0.2L94.7,316.6z"/>
		<path class="st1" d="M94.7,387.5L94.7,387.5c-1.1-0.3-2.3-0.6-3.4-1L94.7,387.5z"/>
		<path class="st1" d="M92.2,477.3C92.2,477.3,92.2,477.3,92.2,477.3c0.1,0.1,0,0-0.2-0.1C92.1,477.2,92.1,477.2,92.2,477.3
			C92.2,477.3,92.2,477.3,92.2,477.3z"/>
		<path class="st1" d="M90.7,247.7l-2.7,12C88.7,255.7,89.6,251.7,90.7,247.7z"/>
		<path class="st1" d="M10.8,315.1c0,0.1,0,0.2,0,0.3C10.8,315.4,10.8,315.3,10.8,315.1z"/>
	</g>
	<g>
	</g>
</g>
</svg>
