<?xml version="1.0" encoding="utf-8"?>
<!-- Generator: Adobe Illustrator 21.1.0, SVG Export Plug-In . SVG Version: 6.00 Build 0)  -->
<svg version="1.1" id="Layer_1" xmlns="http://www.w3.org/2000/svg" xmlns:xlink="http://www.w3.org/1999/xlink" x="0px" y="0px"
	 viewBox="0 0 590 590" style="enable-background:new 0 0 590 590;" xml:space="preserve">
<style type="text/css">
	.st0{fill:#FB8C00;}
	.st1{fill:#FFFFFF;}
</style>
<g id="XMLID_1_">
	<g>
		<path class="st0" d="M423.7,211.4c1.7,90.7,3.7,193.2-122.9,240.5c-127-47-125.1-149.7-123.3-240.5v-10.7
			c44.9-1.6,88.1-18,122.9-46.5c34.7,28.5,77.8,44.7,122.7,46.3L423.7,211.4z M364.8,273.9c2.4-2.4,2.4-6.2,0-8.6
			c-2.4-2.4-6.2-2.4-8.6,0L294.5,327l-29.9-29.9c-0.4-0.6-0.9-1.2-1.5-1.6c-2.7-1.9-6.5-1.3-8.4,1.4c-1.9,2.7-1.3,6.5,1.4,8.4
			l34.3,34.2c1.1,1.1,2.6,1.8,4.2,1.8c1.4-0.1,2.8-0.7,3.7-1.8L364.8,273.9z"/>
		<path class="st1" d="M435.8,211.2c1.4,95.3,3.5,203.2-133.3,253.3c-0.7,0.1-1.4,0.1-2.1,0c-0.7-0.2-1.3-0.5-1.9-0.9
			C161.8,413.9,163.8,306,165.7,210.7v-16.3c0.1-3.2,2.6-5.8,5.8-5.9c45.9-0.2,90.1-16.9,124.8-46.8c2.3-2,5.7-2,8,0
			c34.8,30,79.1,46.6,125,46.8c0.3,0,0.6,0,0.9,0c3.3,0.2,5.9,3.1,5.6,6.4V211.2z M300.8,451.9c126.6-47.3,124.6-149.8,122.9-240.5
			l-0.6-10.9c-44.9-1.6-88-17.8-122.7-46.3c-34.8,28.5-78,44.9-122.9,46.5v10.7C175.7,302.2,173.8,404.9,300.8,451.9z"/>
		<path class="st1" d="M364.8,265.3c2.4,2.4,2.4,6.2,0,8.6l-66.5,65.6c-0.9,1.1-2.3,1.7-3.7,1.8c-1.6,0-3.1-0.7-4.2-1.8l-34.3-34.2
			c-2.7-1.9-3.3-5.7-1.4-8.4c1.9-2.7,5.7-3.3,8.4-1.4c0.6,0.4,1.1,1,1.5,1.6l29.9,29.9l61.7-61.7
			C358.6,262.9,362.4,262.9,364.8,265.3z"/>
	</g>
	<g>
	</g>
</g>
</svg>
