<svg id="Layer_1" xmlns="http://www.w3.org/2000/svg" xmlns:xlink="http://www.w3.org/1999/xlink" viewBox="0 0 2500 2500"><style>.st0{clip-path:url(#SVGID_2_);fill-opacity:.1}.st1{fill:#f5f8fa}.st2{fill:#fb8c00}</style><defs><circle id="SVGID_1_" cx="1250" cy="1250" r="1250"/></defs><clipPath id="SVGID_2_"><use xlink:href="#SVGID_1_" overflow="visible"/></clipPath><path class="st0" d="M308.3 1878.4c4.8-23.6 27.9-38.8 51.5-34s38.8 27.9 34 51.5-27.9 38.8-51.5 34c-17.1-3.5-30.5-16.9-34-34H-76.6v-17.5h384.9zm1396.4 418.9c4.8-23.6 27.9-38.8 51.5-34s38.8 27.9 34 51.5-27.9 38.8-51.5 34c-17.1-3.5-30.5-16.9-34-34H639.1v-17.5h1065.6zm504.4-401.5c-4.8 23.6-27.9 38.8-51.5 34s-38.8-27.9-34-51.5 27.9-38.8 51.5-34c17.1 3.5 30.5 16.9 34 34h367.4v17.5h-367.4zm0 139.7c-4.8 23.6-27.9 38.8-51.5 34s-38.8-27.9-34-51.5 27.9-38.8 51.5-34c17.1 3.5 30.5 16.9 34 34h367.4v17.5h-367.4zm54.1-995c4.8-23.6 27.9-38.8 51.5-34s38.8 27.9 34 51.5-27.9 38.8-51.5 34c-17.1-3.5-30.5-16.9-34-34h-752.3c-4.8 23.6-27.9 38.8-51.5 34s-38.8-27.9-34-51.5 27.9-38.8 51.5-34c17.1 3.5 30.5 16.9 34 34h752.3zM29 621.6c4.8-23.6 27.9-38.8 51.5-34s38.8 27.9 34 51.5-27.9 38.8-51.5 34c-17.1-3.5-30.5-16.9-34-34H-76.6v-17.5H29zm1621.6 296.8c-4.8 23.6-27.9 38.8-51.5 34s-38.8-27.9-34-51.5 27.9-38.8 51.5-34c17.1 3.5 30.5 16.9 34 34h752.3c4.8-23.6 27.9-38.8 51.5-34s38.8 27.9 34 51.5-27.9 38.8-51.5 34c-17.1-3.5-30.5-16.9-34-34h-752.3zM2175.1 29c23.6 4.8 38.8 27.9 34 51.5s-27.9 38.8-51.5 34-38.8-27.9-34-51.5c3.5-17.1 16.9-30.5 34-34V-76.6h17.5V29zm-558.5 1815.3c23.6 4.8 38.8 27.9 34 51.5s-27.9 38.8-51.5 34-38.8-27.9-34-51.5c3.5-17.1 16.9-30.5 34-34v-473c-23.6-4.8-38.8-27.9-34-51.5s27.9-38.8 51.5-34 38.8 27.9 34 51.5c-3.5 17.1-16.9 30.5-34 34v473zm418.9-1729.7v507.1h541.1v17.5H2018V114.6c-23.6-4.8-38.8-27.9-34-51.5s27.9-38.8 51.5-34c23.6 4.8 38.8 27.9 34 51.5-3.5 17.1-16.9 30.5-34 34zm139.6 139.6V482h401.5v17.5h-418.9V254.2c-23.6-4.8-38.8-27.9-34-51.5s27.9-38.8 51.5-34 38.8 27.9 34 51.5c-3.6 17.1-17 30.5-34.1 34zM1058 1092v646.7h139.6v105.6c23.6 4.8 38.8 27.9 34 51.5s-27.9 38.8-51.5 34-38.8-27.9-34-51.5c3.5-17.1 16.9-30.5 34-34v-88.1h-139.6V1092c-23.6-4.8-38.8-27.9-34-51.5s27.9-38.8 51.5-34 38.8 27.9 34 51.5c-3.5 17.1-16.9 30.5-34 34zm-51.5-191.1c4.8-23.6 27.9-38.8 51.5-34s38.8 27.9 34 51.5-27.9 38.8-51.5 34c-17.1-3.5-30.5-16.9-34-34h-88.1v418.9H673.1c-4.8 23.6-27.9 38.8-51.5 34s-38.8-27.9-34-51.5 27.9-38.8 51.5-34c17.1 3.5 30.5 16.9 34 34h227.8V900.9h105.6zm-54.1 1134.6c-4.8 23.6-27.9 38.8-51.5 34s-38.8-27.9-34-51.5 27.9-38.8 51.5-34c17.1 3.5 30.5 16.9 34 34h507.1v-646.7c-23.6-4.8-38.8-27.9-34-51.5s27.9-38.8 51.5-34 38.8 27.9 34 51.5c-3.5 17.1-16.9 30.5-34 34v664.2H952.4zm-139.6-558.6c-4.8 23.6-27.9 38.8-51.5 34s-38.8-27.9-34-51.5 27.9-38.8 51.5-34c17.1 3.5 30.5 16.9 34 34h105.6v418.9h88.1c4.8-23.6 27.9-38.8 51.5-34 23.6 4.8 38.8 27.9 34 51.5s-27.9 38.8-51.5 34c-17.1-3.5-30.5-16.9-34-34H900.9v-418.9h-88.1zm-313.4 926c23.6 4.8 38.8 27.9 34 51.5s-27.9 38.8-51.5 34-38.8-27.9-34-51.5c3.5-17.1 16.9-30.5 34-34v-88.1H359.8v261.8h-17.5v-279.3h157.1v105.6zM1984 1459.5c4.8-23.6 27.9-38.8 51.5-34 23.6 4.8 38.8 27.9 34 51.5s-27.9 38.8-51.5 34c-17.1-3.5-30.5-16.9-34-34h-88.1v820.4h418.9v279.3h-17.5v-261.8h-418.9v-855.3l105.6-.1zm225.1-261.9c-4.8 23.6-27.9 38.8-51.5 34s-38.8-27.9-34-51.5 27.9-38.8 51.5-34c17.1 3.5 30.5 16.9 34 34h105.6V1565c23.6 4.8 38.8 27.9 34 51.5s-27.9 38.8-51.5 34-38.8-27.9-34-51.5c3.5-17.1 16.9-30.5 34-34v-367.4h-88.1zm-558.5 837.9c-4.8 23.6-27.9 38.8-51.5 34s-38.8-27.9-34-51.5 27.9-38.8 51.5-34c17.1 3.5 30.5 16.9 34 34h88.1v-698.2h139.6v-122.2h-367.4c-4.8 23.6-27.9 38.8-51.5 34s-38.8-27.9-34-51.5 27.9-38.8 51.5-34c17.1 3.5 30.5 16.9 34 34h384.9v157.1h-139.6v698.2l-105.6.1zm752.3-1832.8c4.8-23.6 27.9-38.8 51.5-34s38.8 27.9 34 51.5-27.9 38.8-51.5 34c-17.1-3.5-30.5-16.9-34-34h-105.6V-76.6h17.5v279.3h88.1zM778.7 812.8v384.9H393.8c-4.8 23.6-27.9 38.8-51.5 34s-38.8-27.9-34-51.5 27.9-38.8 51.5-34c17.1 3.5 30.5 16.9 34 34h367.4V812.8c-23.6-4.8-38.8-27.9-34-51.5s27.9-38.8 51.5-34 38.8 27.9 34 51.5c-3.4 17.1-16.8 30.5-34 34zM393.8 220.2c-4.8 23.6-27.9 38.8-51.5 34s-38.8-27.9-34-51.5 27.9-38.8 51.5-34c17.1 3.5 30.5 16.9 34 34h227.8V-76.6h17.5v296.7l-245.3.1zm524.6 34v245.2H639.1V1058H533.5c-4.8 23.6-27.9 38.8-51.5 34s-38.8-27.9-34-51.5 27.9-38.8 51.5-34c17.1 3.5 30.5 16.9 34 34h88.1V482h279.3V254.2c-23.6-4.8-38.8-27.9-34-51.5s27.9-38.8 51.5-34 38.8 27.9 34 51.5c-3.5 17.1-16.9 30.5-34 34zM812.8 639.1c-4.8 23.6-27.9 38.8-51.5 34s-38.8-27.9-34-51.5 27.9-38.8 51.5-34c17.1 3.5 30.5 16.9 34 34h227.8V254.2c-23.6-4.8-38.8-27.9-34-51.5s27.9-38.8 51.5-34 38.8 27.9 34 51.5c-3.5 17.1-16.9 30.5-34 34v384.9H812.8zM952.4 80.5c-4.8 23.6-27.9 38.8-51.5 34s-38.8-27.9-34-51.5 27.9-38.8 51.5-34c17.1 3.5 30.5 16.9 34 34h245.2v385c23.6 4.8 38.8 27.9 34 51.5-4.8 23.6-27.9 38.8-51.5 34s-38.8-27.9-34-51.5c3.5-17.1 16.9-30.5 34-34V80.5H952.4zm891.9 2356.4c4.8-23.6 27.9-38.8 51.5-34s38.8 27.9 34 51.5-27.9 38.8-51.5 34c-17.1-3.5-30.5-16.9-34-34H778.7v122.2h-17.5V2437l1083.1-.1zm191.2-1205.2v88.1h139.6v296.7h-139.6v541.1h418.9v418.9h-17.5V2175H2018v-576h139.6v-261.8H2018v-105.6c-23.6-4.8-38.8-27.9-34-51.5s27.9-38.8 51.5-34c23.6 4.8 38.8 27.9 34 51.5-3.5 17.2-16.9 30.6-34 34.1zM393.8 80.5c-4.8 23.6-27.9 38.8-51.5 34s-38.8-27.9-34-51.5 27.9-38.8 51.5-34c17.1 3.5 30.5 16.9 34 34H482V-59.1H342.4v-17.5h157.1V80.5H393.8zm977.5 279.3c-4.8 23.6-27.9 38.8-51.5 34s-38.8-27.9-34-51.5 27.9-38.8 51.5-34c17.1 3.5 30.5 16.9 34 34h227.8V-76.6h436.4v17.5h-418.9v418.9h-245.3zM952.4-59.1c-4.8 23.6-27.9 38.9-51.5 34S862-53 866.9-76.6H885c-4.8 13.6 2.4 28.6 16 33.4s28.6-2.4 33.4-16c2-5.6 2-11.8 0-17.4H1477v296.7h-157.1V114.6c-23.6-4.8-38.8-27.9-34-51.5s27.9-38.8 51.5-34 38.8 27.9 34 51.5c-3.5 17.1-16.9 30.5-34 34v88.1h122.2V-59.1H952.4zm0 837.8c-4.8 23.6-27.9 38.8-51.5 34s-38.8-27.9-34-51.5 27.9-38.8 51.5-34c17.1 3.5 30.5 16.9 34 34h166.7L1398.4 482h340.4V114.6c-23.6-4.8-38.8-27.9-34-51.5s27.9-38.8 51.5-34 38.8 27.9 34 51.5c-3.5 17.1-16.9 30.5-34 34v384.9h-350.6l-279.3 279.3c-.1-.1-174-.1-174-.1zm245.2 786.4c23.6 4.8 38.8 27.9 34 51.5s-27.9 38.8-51.5 34-38.8-27.9-34-51.5c3.5-17.1 16.9-30.5 34-34V897.3l275.7-275.7h422.5v-507c-23.6-4.8-38.8-27.9-34-51.5s27.9-38.8 51.5-34 38.8 27.9 34 51.5c-3.5 17.1-16.9 30.5-34 34v524.5H1463l-265.4 265.4v660.6zm139.7 279.2c23.6 4.8 38.8 27.9 34 51.5s-27.9 38.8-51.5 34-38.8-27.9-34-51.5c3.5-17.1 16.9-30.5 34-34V975.9l214.6-214.6h1008.1c3.5-17.1 16.9-30.5 34-34v18.1c-13.6 4.8-20.8 19.7-16 33.4 2.6 7.5 8.5 13.4 16 16v18.1c-17.1-3.5-30.5-16.9-34-34H1541.6L1337.3 983v861.3zM80.5 1285.8c23.6 4.8 38.8 27.9 34 51.5s-27.9 38.8-51.5 34-38.8-27.9-34-51.5c3.5-17.1 16.9-30.5 34-34v-30.6l419-419V342.4h279.3v-419h17.5v436.4H499.4v483.6L80.5 1262.3v23.5zm279.3-892v379.7l-418.9 418.9v546.2h227.8c4.8-23.6 27.9-38.8 51.5-34s38.8 27.9 34 51.5-27.9 38.8-51.5 34c-17.1-3.5-30.5-16.9-34-34H-76.6v-570.9l418.9-418.9V393.8c-23.6-4.8-38.8-27.9-34-51.5s27.9-38.8 51.5-34 38.8 27.9 34 51.5c-3.5 17.2-16.9 30.5-34 34zM220.2 533.5v170.3l-296.7 296.7v-24.6l279.3-279.3V533.5c-23.6-4.8-38.8-27.9-34-51.5s27.9-38.8 51.5-34 38.8 27.9 34 51.5c-3.6 17.1-17 30.5-34.1 34zM29 202.7c4.8-23.6 27.9-38.8 51.5-34s38.8 27.9 34 51.5-27.9 38.8-51.5 34c-17.1-3.5-30.5-16.9-34-34H5.6l-82.1 82.1v-24.5l75-75.1H29zm2319.8 157.1c-4.8 23.6-27.9 38.8-51.5 34s-38.8-27.9-34-51.5 27.9-38.8 51.5-34c17.1 3.5 30.5 16.9 34 34h163.1l64.7-64.7v24.6l-57.5 57.5h-170.3v.1zm-139.7 1396.4c-4.8 23.6-27.9 38.8-51.5 34s-38.8-27.9-34-51.5 27.9-38.8 51.5-34c17.1 3.5 30.5 16.9 34 34h227.8v-623.2l139.6-139.6v24.6l-122.2 122.2v633.5h-245.2zM393.8 2035.5c-4.8 23.6-27.9 38.8-51.5 34s-38.8-27.9-34-51.5 27.9-38.8 51.5-34c17.1 3.5 30.5 16.9 34 34H482v-197.2l-204.3-204.3H114.6c-4.8 23.6-27.9 38.8-51.5 34s-38.8-27.9-34-51.5 27.9-38.8 51.5-34c17.1 3.5 30.5 16.9 34 34h170.3l214.6 214.6v221.8c-.1.1-105.7.1-105.7.1zm1310.9 122.1c4.8-23.6 27.9-38.8 51.5-34s38.8 27.9 34 51.5-27.9 38.8-51.5 34c-17.1-3.5-30.5-16.9-34-34H761.3v-494l-343.9-343.9H254.2c-4.8 23.6-27.9 38.8-51.5 34s-38.8-27.9-34-51.5 27.9-38.8 51.5-34c17.1 3.5 30.5 16.9 34 34h170.2L778.7 1674v483.5h926v.1zm-1310.9 17.5c-4.8 23.6-27.9 38.8-51.5 34s-38.8-27.9-34-51.5 27.9-38.8 51.5-34c17.1 3.5 30.5 16.9 34 34h227.8V1751l-274.1-274.1H114.6c-4.8 23.6-27.9 38.8-51.5 34s-38.8-27.9-34-51.5 27.9-38.8 51.5-34c17.1 3.5 30.5 16.9 34 34h240.1l284.4 284.4V2175c0 .1-245.3.1-245.3.1zM220.2 270.8v14.1L5.6 499.4h-82.1V482h75l204.3-204.3V-76.6h17.5v347.4h-.1zM-59.1 2542.5c17.1 3.5 30.5 16.9 34 34h-18.1c-4.8-13.6-19.8-20.8-33.4-16v-402.9H80.5v418.9H63.1V2175H-59.1v367.5zm279.3-515.8v549.8h-17.5v-541.1H-76.6V2018h296.7l.1 8.7zM71.8 80.5H-76.6V63.1H63.1V-76.6h17.5V80.5h-8.8zm2382.6-17.4h122.2v17.5H2437V-76.6h17.5l-.1 139.7zm-279.3 2382.6v130.9h-17.5v-122.2h-122.2v122.2H2018V2437h157.1v8.7zM-76.6 727.2c23.7-4.7 46.8 10.7 51.5 34.4.5 2.7.8 5.5.8 8.3 0 24.1-19.5 43.6-43.6 43.6-2.9 0-5.9-.3-8.7-.9v-18.1c13.6 4.8 28.6-2.4 33.4-16s-2.4-28.6-16-33.4c-5.6-2-11.8-2-17.4 0v-17.9zm698.2 1570.1h17.5v279.3h-17.5v-279.3zm330.8 279.3h-18.1c-4.8-13.6-19.7-20.8-33.4-16-7.5 2.6-13.4 8.5-16 16h-18.1c4.8-23.6 27.8-38.9 51.4-34.1 17.3 3.5 30.7 16.9 34.2 34.1zM-25.1-76.6c4.7 23.7-10.7 46.8-34.5 51.5a44.2 44.2 0 0 1-17 0v-18.1C-63-38.4-48-45.5-43.2-59.1c2-5.7 2-11.8 0-17.5h18.1zm2567.6 0h18.1c-4.8 13.6 2.3 28.6 15.9 33.4v18.1c-23.6-4.8-38.8-27.8-34-51.5zm34.1 2619.1v18.1c-7.5 2.6-13.3 8.5-16 16h-18.1c3.5-17.2 16.9-30.6 34.1-34.1zM770 796.2c14.5 0 26.2-11.7 26.2-26.2s-11.7-26.2-26.2-26.2-26.2 11.7-26.2 26.2 11.7 26.2 26.2 26.2zm0-139.7c14.5 0 26.2-11.7 26.2-26.2s-11.7-26.2-26.2-26.2-26.2 11.7-26.2 26.2 11.7 26.2 26.2 26.2zm139.6 139.7c14.5 0 26.2-11.7 26.2-26.2s-11.7-26.2-26.2-26.2-26.2 11.7-26.2 26.2 11.8 26.2 26.2 26.2zm139.7 139.6c14.5 0 26.2-11.7 26.2-26.2s-11.7-26.2-26.2-26.2-26.2 11.7-26.2 26.2 11.7 26.2 26.2 26.2zm0 139.7c14.5 0 26.2-11.7 26.2-26.2s-11.7-26.2-26.2-26.2-26.2 11.7-26.2 26.2c0 14.4 11.7 26.2 26.2 26.2zm-418.9 279.2c14.5 0 26.2-11.7 26.2-26.2s-11.7-26.2-26.2-26.2-26.2 11.7-26.2 26.2 11.7 26.2 26.2 26.2zM770 1494.4c14.5 0 26.2-11.7 26.2-26.2S784.5 1442 770 1442s-26.2 11.7-26.2 26.2c0 14.4 11.7 26.2 26.2 26.2zm279.3 418.9c14.5 0 26.2-11.7 26.2-26.2s-11.7-26.2-26.2-26.2-26.2 11.7-26.2 26.2 11.7 26.2 26.2 26.2zm-139.7 139.6c14.5 0 26.2-11.7 26.2-26.2s-11.7-26.2-26.2-26.2-26.2 11.7-26.2 26.2 11.8 26.2 26.2 26.2zm279.3-139.6c14.5 0 26.2-11.7 26.2-26.2s-11.7-26.2-26.2-26.2-26.2 11.7-26.2 26.2 11.7 26.2 26.2 26.2zm0-279.3c14.5 0 26.2-11.7 26.2-26.2s-11.7-26.2-26.2-26.2-26.2 11.7-26.2 26.2 11.7 26.2 26.2 26.2zm139.6 279.3c14.5 0 26.2-11.7 26.2-26.2s-11.7-26.2-26.2-26.2-26.2 11.7-26.2 26.2 11.8 26.2 26.2 26.2zm279.3 139.6c14.5 0 26.2-11.7 26.2-26.2s-11.7-26.2-26.2-26.2-26.2 11.7-26.2 26.2 11.8 26.2 26.2 26.2zm0-139.6c14.5 0 26.2-11.7 26.2-26.2s-11.7-26.2-26.2-26.2-26.2 11.7-26.2 26.2 11.8 26.2 26.2 26.2zm-139.6-558.6c14.5 0 26.2-11.7 26.2-26.2s-11.7-26.2-26.2-26.2-26.2 11.7-26.2 26.2 11.7 26.2 26.2 26.2zm139.6 0c14.5 0 26.2-11.7 26.2-26.2s-11.7-26.2-26.2-26.2-26.2 11.7-26.2 26.2 11.8 26.2 26.2 26.2zm139.7 837.9c14.5 0 26.2-11.7 26.2-26.2s-11.7-26.2-26.2-26.2-26.2 11.7-26.2 26.2c0 14.4 11.7 26.2 26.2 26.2zm0 139.6c14.5 0 26.2-11.7 26.2-26.2s-11.7-26.2-26.2-26.2-26.2 11.7-26.2 26.2 11.7 26.2 26.2 26.2zm139.6 139.6c14.5 0 26.2-11.7 26.2-26.2s-11.7-26.2-26.2-26.2-26.2 11.7-26.2 26.2 11.7 26.2 26.2 26.2zm139.6-1256.7c14.5 0 26.2-11.7 26.2-26.2s-11.7-26.2-26.2-26.2-26.2 11.7-26.2 26.2c.1 14.5 11.8 26.2 26.2 26.2zm0 279.3c14.5 0 26.2-11.7 26.2-26.2s-11.7-26.2-26.2-26.2-26.2 11.7-26.2 26.2c.1 14.4 11.8 26.2 26.2 26.2zm139.7-279.3c14.5 0 26.2-11.7 26.2-26.2s-11.7-26.2-26.2-26.2-26.2 11.7-26.2 26.2 11.7 26.2 26.2 26.2zm139.6-139.6c14.5 0 26.2-11.7 26.2-26.2s-11.7-26.2-26.2-26.2-26.2 11.7-26.2 26.2c0 14.4 11.8 26.2 26.2 26.2zm-837.8 0c14.5 0 26.2-11.7 26.2-26.2s-11.7-26.2-26.2-26.2-26.2 11.7-26.2 26.2c0 14.4 11.7 26.2 26.2 26.2zm0 139.6c14.5 0 26.2-11.7 26.2-26.2s-11.7-26.2-26.2-26.2-26.2 11.7-26.2 26.2 11.7 26.2 26.2 26.2zm139.6-279.3c14.5 0 26.2-11.7 26.2-26.2s-11.7-26.2-26.2-26.2-26.2 11.7-26.2 26.2 11.8 26.2 26.2 26.2zm837.9 0c14.5 0 26.2-11.7 26.2-26.2s-11.7-26.2-26.2-26.2-26.2 11.7-26.2 26.2 11.7 26.2 26.2 26.2zM2306 377.3c14.5 0 26.2-11.7 26.2-26.2s-11.7-26.2-26.2-26.2-26.2 11.7-26.2 26.2c0 14.4 11.8 26.2 26.2 26.2zm139.7-139.7c14.5 0 26.2-11.7 26.2-26.2s-11.7-26.2-26.2-26.2-26.2 11.7-26.2 26.2 11.7 26.2 26.2 26.2zm-279.3 0c14.5 0 26.2-11.7 26.2-26.2s-11.7-26.2-26.2-26.2-26.2 11.7-26.2 26.2 11.7 26.2 26.2 26.2zm0-139.6c14.5 0 26.2-11.7 26.2-26.2s-11.7-26.2-26.2-26.2-26.2 11.7-26.2 26.2 11.7 26.2 26.2 26.2zm-139.7 0c14.5 0 26.2-11.7 26.2-26.2s-11.7-26.2-26.2-26.2-26.2 11.7-26.2 26.2 11.8 26.2 26.2 26.2zm-139.6 0c14.5 0 26.2-11.7 26.2-26.2s-11.7-26.2-26.2-26.2-26.2 11.7-26.2 26.2 11.7 26.2 26.2 26.2zm-139.6 0c14.5 0 26.2-11.7 26.2-26.2s-11.7-26.2-26.2-26.2-26.2 11.7-26.2 26.2S1733 98 1747.5 98zM351.1 237.6c14.5 0 26.2-11.7 26.2-26.2s-11.7-26.2-26.2-26.2-26.2 11.7-26.2 26.2 11.7 26.2 26.2 26.2zm-279.3 0c14.5 0 26.2-11.7 26.2-26.2s-11.7-26.2-26.2-26.2-26.2 11.8-26.2 26.2c0 14.5 11.7 26.2 26.2 26.2zm279.3 139.7c14.5 0 26.2-11.7 26.2-26.2s-11.7-26.2-26.2-26.2-26.2 11.7-26.2 26.2c0 14.4 11.7 26.2 26.2 26.2zM211.4 516.9c14.5 0 26.2-11.7 26.2-26.2s-11.7-26.2-26.2-26.2-26.2 11.7-26.2 26.2 11.8 26.2 26.2 26.2zM351.1 98c14.5 0 26.2-11.7 26.2-26.2s-11.7-26.2-26.2-26.2-26.2 11.7-26.2 26.2S336.6 98 351.1 98zm0 2094.6c14.5 0 26.2-11.7 26.2-26.2s-11.7-26.2-26.2-26.2-26.2 11.7-26.2 26.2c0 14.4 11.7 26.2 26.2 26.2zm139.6 279.2c14.5 0 26.2-11.7 26.2-26.2s-11.7-26.2-26.2-26.2-26.2 11.7-26.2 26.2 11.8 26.2 26.2 26.2zm-139.6-558.5c14.5 0 26.2-11.7 26.2-26.2s-11.7-26.2-26.2-26.2-26.2 11.7-26.2 26.2 11.7 26.2 26.2 26.2zm0 139.6c14.5 0 26.2-11.7 26.2-26.2s-11.7-26.2-26.2-26.2-26.2 11.7-26.2 26.2 11.7 26.2 26.2 26.2zm-139.7-279.3c14.5 0 26.2-11.7 26.2-26.2s-11.7-26.2-26.2-26.2-26.2 11.7-26.2 26.2 11.8 26.2 26.2 26.2zm698.2-1536c14.5 0 26.2-11.7 26.2-26.2s-11.7-26.2-26.2-26.2-26.2 11.7-26.2 26.2 11.8 26.2 26.2 26.2zm139.7 0c14.5 0 26.2-11.7 26.2-26.2s-11.7-26.2-26.2-26.2-26.2 11.7-26.2 26.2 11.7 26.2 26.2 26.2zM909.6 98c14.5 0 26.2-11.7 26.2-26.2s-11.7-26.2-26.2-26.2-26.2 11.7-26.2 26.2S895.2 98 909.6 98zm279.3 418.9c14.5 0 26.2-11.7 26.2-26.2s-11.7-26.2-26.2-26.2-26.2 11.7-26.2 26.2 11.7 26.2 26.2 26.2zm139.6-139.6c14.5 0 26.2-11.7 26.2-26.2s-11.7-26.2-26.2-26.2-26.2 11.7-26.2 26.2c.1 14.4 11.8 26.2 26.2 26.2zm0-279.3c14.5 0 26.2-11.7 26.2-26.2s-11.7-26.2-26.2-26.2-26.2 11.7-26.2 26.2 11.8 26.2 26.2 26.2zM2306 1634c14.5 0 26.2-11.7 26.2-26.2s-11.7-26.2-26.2-26.2-26.2 11.7-26.2 26.2 11.8 26.2 26.2 26.2zm-139.6 139.6c14.5 0 26.2-11.7 26.2-26.2s-11.7-26.2-26.2-26.2-26.2 11.7-26.2 26.2 11.7 26.2 26.2 26.2zm0 139.7c14.5 0 26.2-11.7 26.2-26.2s-11.7-26.2-26.2-26.2-26.2 11.7-26.2 26.2 11.7 26.2 26.2 26.2zm0 139.6c14.5 0 26.2-11.7 26.2-26.2s-11.7-26.2-26.2-26.2-26.2 11.7-26.2 26.2 11.7 26.2 26.2 26.2zM71.8 1494.4c14.5 0 26.2-11.7 26.2-26.2S86.3 1442 71.8 1442s-26.2 11.7-26.2 26.2c0 14.4 11.7 26.2 26.2 26.2zm0 139.6c14.5 0 26.2-11.7 26.2-26.2s-11.7-26.2-26.2-26.2-26.2 11.7-26.2 26.2 11.7 26.2 26.2 26.2zm0-279.3c14.5 0 26.2-11.7 26.2-26.2s-11.7-26.2-26.2-26.2-26.2 11.7-26.2 26.2 11.7 26.2 26.2 26.2zm139.6 0c14.5 0 26.2-11.7 26.2-26.2s-11.7-26.2-26.2-26.2-26.2 11.7-26.2 26.2 11.8 26.2 26.2 26.2zM71.8 656.5c14.5 0 26.2-11.7 26.2-26.2s-11.7-26.2-26.2-26.2-26.2 11.7-26.2 26.2 11.7 26.2 26.2 26.2zm279.3 558.6c14.5 0 26.2-11.7 26.2-26.2s-11.7-26.2-26.2-26.2-26.2 11.7-26.2 26.2 11.7 26.2 26.2 26.2zm139.6-139.6c14.5 0 26.2-11.7 26.2-26.2s-11.7-26.2-26.2-26.2-26.2 11.7-26.2 26.2c0 14.4 11.8 26.2 26.2 26.2z"/><g transform="matrix(.1 0 0 -.1 0 511)"><g id="XMLID_1_"><path class="st1" d="M16308.7-5921.7c89.6-58.1 263.7-403.5 234.7-458.8-31.6-52.8-1263.2-772.6-1326.5-772.6-23.7 0-60.8 21.1-84.4 47.4-87.1 97.6-1073.4 1832.8-1073.4 1890.8 0 31.6 15.8 71.2 34.3 87.1 42.1 36.9 1207.7 704.2 1257.9 722.6 68.4 26.3 134.3-39.6 242.4-234.8 84.4-155.5 97.6-200.4 76.4-242.6-15.8-29-187.3-142.3-382.4-253.2-490.4-279.6-458.8-245.2-382.4-379.8 71.2-129.2 50.1-131.8 414.1 79.1 189.8 113.4 290 155.5 329.6 145.1 60.6-13.2 255.9-319.1 255.9-395.5 0-50.1-113.4-134.5-395.5-292.7-123.9-71.2-229.4-131.8-237.3-137.1-10.6-10.6 110.7-245.2 126.7-245.2 5.3 0 160.8 87.1 342.8 195.1 509 292.6 501.2 289.8 567.1 245.1zm-1928-1078.3c81.7-10.6 298-363.9 274.3-450.8-10.6-42.1-174.1-150.3-624.9-411.4-337.6-195.1-640.8-358.6-675.1-366.5-34.3-5.3-79.1 2.6-100.2 21-52.8 44.9-1094.4 1853.8-1094.4 1904 0 21.1 21.1 58.1 47.4 81.7 89.6 79.1 1231.6 727.8 1286.9 730.5 28.9-.3 73.8-21.4 94.8-45 84.4-100.2 208.3-353.4 200.4-408.8-5.3-47.4-100.2-113.4-403.5-290-216.3-126.7-406.1-234.7-419.2-240-13.2-2.7 7.8-63.3 47.4-129.2l71.2-121.4 282.3 163.5c324.3 189.8 361.2 203.1 414 184.6 60.6-23.7 229.4-342.8 218.9-411.4-5.3-44.9-79.1-102.8-284.8-224.1-153-89.6-292.7-174.1-313.8-187.3-29-15.8-23.7-42.1 34.3-131.8 36.9-60.6 76.4-110.8 84.4-110.8 7.9 0 189.8 102.9 406.1 226.9 253.1 147.6 414 221.5 453.5 216.3zm-1434.6-1400.3c13.2-71.2-44.9-123.9-269-242.7l-200.4-105.5-97.6 55.4c-55.3 29-232 139.8-395.5 245.2l-295.3 192.6-118.7-68.6-118.7-68.6 184.6-316.5c113.4-195.1 182-340.2 176.6-377.1-7.8-65.9-340.2-279.6-435.1-282.2-34.3 0-76.4 26.3-97.6 60.6-126.7 192.6-1070.6 1853.9-1070.6 1882.9 0 18.5 23.7 55.3 50.1 79.1 71.2 60.6 922.9 545.9 1017.9 582.8 129.3 44.9 382.4 36.9 506.3-18.5 350.8-160.8 572.2-659.2 443-996.7-26.3-68.6-36.9-126.7-23.7-131.8 13.2-5.3 184.6-108 379.8-226.7 213.6-129.2 358.6-234.7 363.9-263.7zm-1318.6 767.2c87.1 110.7-5.3 298-145.1 292.7-42.1 0-163.4-55.5-271.6-121.4-108-63.3-203.1-121.4-205.7-126.7-5.3-5.3 29-81.7 79.1-168.8l89.6-160.8 210.9 121.4c113.6 68.7 224.3 139.8 242.8 163.6zm-1365.8-1305.5c0-68.6-15.8-81.7-334.9-266.3l-266.3-153 195.1-334.9c108-184.6 195.1-363.9 195.1-398.2 0-52.8-34.3-84.4-176.6-168.8-237.3-137.2-261-142.3-319.1-89.6-44.9 36.9-922.9 1534.7-1070.6 1819.5-31.6 58.1-36.9 100.2-18.5 129.2 31.6 60.6 1213 743.6 1284.2 746.3 28.8.1 73.7-20.9 94.8-44.6 84.4-100.2 208.3-353.4 200.4-408.8-5.3-44.9-100.2-113.4-395.5-282.2-216.3-123.9-390.2-237.3-390.2-253.2 0-13.2 29-71.2 60.6-123.9l60.6-97.6 182 108c321.8 187.3 424.5 234.7 472 216.3 52.8-21.1 226.9-324.3 226.9-398.2z"/><path class="st2" d="M18784.3-7049.9c110.8-213.7-42.1-411.4-482.6-622.4-319.1-153.1-482.6-287.5-590.6-485.3-68.5-123.9-79.1-168.8-79.1-353.4 0-184.6 10.6-232.1 84.4-382.4 47.5-97.5 168.8-263.7 282.2-390.2 234.7-253.2 305.9-382.4 305.9-540.6 0-89.6-15.8-129.2-71.2-182-118.7-110.8-208.3-134.5-640.8-153-358.5-15.8-427.1-23.7-556.3-84.4-200.5-89.6-324.3-208.3-411.4-384.9-105.3-213.5-102.8-506.2 2.7-822.7 147.7-442.9 113.4-706.7-102.9-788.4-134.5-52.8-313.9-13.2-627.6 139.8-305.9 147.7-450.9 184.6-659.2 168.8-390.2-31.7-677.8-321.7-756.9-762.1-13.2-79.1-36.9-218.9-52.8-313.8-39.4-218.9-137.1-408.8-237.3-461.5-210.9-108.2-395.6 0-725.2 429.8-139.7 182-379.7 356-548.5 403.4-60.7 15.8-181.9 23.7-269 15.8-297.9-23.8-522.1-190-801.6-604-218.9-319.1-406.1-432.4-593.3-353.4-137.2 57.9-221.5 213.6-308.6 577.5-89.6 363.8-142.3 477.3-295.3 643.4-150.4 160.9-282.2 224.1-509 240-226.7 13.1-392.8-31.7-643.4-182-353.4-208.2-540.6-263.7-693.5-200.4-197.8 84.4-247.9 311.1-147.7 690.9 84.3 324.3 84.3 635.5 2.6 817.5-79.1 171.4-242.6 337.7-411.4 414.1-123.9 55.3-171.4 60.6-596 60.6-503.7 0-622.4 23.8-712 137.2-68.6 89.6-68.6 274.2 0 414 29 60.7 123.9 197.8 213.6 305.9 276.9 340.2 371.8 603.9 313.8 883.4-63.3 303.1-292.7 527.4-706.7 688.2-754.2 292.7-770 630.2-52.8 981 324.3 158.2 480 287.5 588.1 482.6 68.5 123.9 79.1 168.8 79.1 353.4 0 187.3-10.5 232.1-84.4 382.4-47.5 94.9-174 268.8-284.8 390.2-232.1 255.9-303.3 382.4-303.3 540.6 0 232 213.6 334.9 696.2 334.9 548.5 0 838.5 147.7 1002 501.1 81.6 181.9 73.8 530.2-21.1 791.2-97.5 266.3-115.9 511.6-55.3 643.4 102.9 216.2 345.4 218.9 785.9 5.3 305.9-147.7 450.9-184.6 659.2-168.8 300.7 23.7 535.4 195.1 667.2 482.6 34.3 71.2 84.4 274.2 116 448.3 63.3 361.3 129.2 524.8 247.9 596 208.3 126.6 390.2 28.9 735.7-406.1 250.5-319.1 516.9-458.8 820.2-435.1 295.3 23.7 516.9 187.3 783.2 577.5 153 224.1 271.6 340.2 398.2 392.9 71.2 29 195.3 13.3 271.4-36.9 89.6-60.6 195.1-290 253.2-548.5 68.6-311.1 155.5-506.3 295.3-648.7 155.7-160.8 287.5-221.4 509-237.3 226.7-13.1 392.8 31.7 643.4 182 385 226.7 609.2 276.8 756.9 166.1 153-113.3 171.4-342.8 58.1-777.9-129.2-503.6 26.3-912.4 424.5-1102.2 139.7-66 163.5-68.6 606.5-68.6 503.6 0 622.4-23.7 712-137.1 68.6-89.6 68.6-274.2 0-414-29-60.6-123.9-197.8-213.6-305.9-276.9-340.2-371.8-603.8-313.8-883.4 63.3-303.1 292.6-527.4 706.7-688.2 303.2-119 474.6-232.3 537.9-356.2zm-2240.9 669.3c29 55.3-145.1 400.8-234.7 458.8-65.9 44.8-58.1 47.5-566.9-245.2-182-108-337.5-195.1-342.8-195.1-15.9 0-137.2 234.7-126.7 245.2 7.8 5.3 113.3 65.9 237.3 137.1 282.1 158.2 395.5 242.7 395.5 292.7 0 76.4-195.3 382.3-255.9 395.5-39.6 10.5-139.8-31.7-329.6-145.1-364-210.9-343-208.3-414.1-79.1-76.4 134.6-108 100.3 382.4 379.8 195.1 110.8 366.6 224.1 382.4 253.2 21.2 42.2 7.9 87.1-76.4 242.6-108.1 195.2-174 261.1-242.4 234.8-50.2-18.4-1215.8-685.7-1257.9-722.6-18.5-15.9-34.3-55.5-34.3-87.1 0-58.1 986.3-1793.2 1073.4-1890.8 23.6-26.3 60.6-47.4 84.4-47.4 63.1.1 1294.7 720 1326.3 772.7zm-1888.5-1070.3c23.7 86.9-192.6 440.3-274.3 450.8-39.4 5.3-200.4-68.6-453.6-216.3-216.3-123.9-398.2-226.9-406.1-226.9s-47.5 50.1-84.4 110.8c-58.1 89.6-63.3 115.9-34.3 131.8 21 13.2 160.8 97.6 313.8 187.3 205.7 121.4 279.5 179.3 284.8 224.1 10.6 68.6-158.2 387.7-218.9 411.4-52.8 18.6-89.6 5.3-414-184.6l-282.3-163.5-71.2 121.4c-39.6 65.9-60.6 126.5-47.4 129.2 13.1 5.3 202.9 113.3 419.2 240 303.3 176.6 398.2 242.6 403.5 290 7.9 55.4-116 308.6-200.4 408.8-21 23.7-65.9 44.7-94.8 45-55.3-2.6-1197.3-651.4-1286.9-730.5-26.3-23.7-47.4-60.6-47.4-81.7 0-50.2 1041.6-1859.2 1094.4-1904 21.1-18.5 65.9-26.3 100.2-21 34.3 7.8 337.5 171.4 675.1 366.5 451 261.1 614.5 369.3 625 411.4zM12677.1-8643c224.1 118.7 282.2 171.5 269 242.7-5.3 29-150.3 134.5-363.9 263.7-195.3 118.7-366.6 221.4-379.8 226.7-13.1 5.1-2.6 63.2 23.7 131.8 129.2 337.5-92.2 835.9-443 996.7-123.9 55.3-377 63.3-506.3 18.5-94.9-36.9-946.7-522.2-1017.9-582.8-26.4-23.7-50.1-60.6-50.1-79.1 0-29 944-1690.3 1070.6-1882.9 21.2-34.3 63.3-60.6 97.6-60.6 94.9 2.6 427.2 216.3 435.1 282.2 5.4 36.9-63.2 182-176.6 377.1l-184.6 316.5 118.7 68.6 118.7 68.6 295.3-192.6c163.5-105.5 340.2-216.2 395.5-245.2l97.6-55.4 200.4 105.5zm-2750.3-561.9c319.1 184.6 334.9 197.7 334.9 266.3 0 73.9-174.1 377.1-226.9 398.2-47.5 18.4-150.3-29-472-216.3l-182-108-60.6 97.6c-31.6 52.8-60.6 110.8-60.6 123.9 0 15.9 173.9 129.2 390.2 253.2 295.3 168.8 390.2 237.3 395.5 282.2 7.9 55.4-116 308.6-200.4 408.8-21 23.7-66 44.7-94.8 44.6-71.2-2.7-1252.6-685.7-1284.2-746.3-18.4-29-13.1-71.2 18.5-129.2 147.7-284.8 1025.8-1782.6 1070.6-1819.5 58.1-52.7 81.8-47.6 319.1 89.6 142.3 84.4 176.6 116 176.6 168.8 0 34.3-87.1 213.7-195.1 398.2l-195.1 334.9 266.3 153z"/><path class="st2" d="M11482.5-7340.4c139.8 5.3 232.1-182 145.1-292.7-18.5-23.7-129.2-94.9-242.6-163.5l-211-121.4-89.6 160.8c-50.1 87.1-84.4 163.5-79.1 168.8 2.6 5.3 97.6 63.3 205.7 126.7 108 65.8 229.4 121.3 271.5 121.3z"/></g></g></svg>