<svg id="Layer_1" xmlns="http://www.w3.org/2000/svg" xmlns:xlink="http://www.w3.org/1999/xlink" viewBox="0 0 2500 2500"><style>.st0{clip-path:url(#SVGID_2_);fill-opacity:.1}.st1{fill:#fff}.st2{fill:#fb8c00}</style><defs><circle id="SVGID_1_" cx="1250" cy="1250" r="1250"/></defs><clipPath id="SVGID_2_"><use xlink:href="#SVGID_1_" overflow="visible"/></clipPath><path class="st0" d="M308.3 1878.4c4.8-23.6 27.9-38.8 51.5-34s38.8 27.9 34 51.5-27.9 38.8-51.5 34c-17.1-3.5-30.5-16.9-34-34H-76.6v-17.5h384.9zm1396.4 418.9c4.8-23.6 27.9-38.8 51.5-34s38.8 27.9 34 51.5-27.9 38.8-51.5 34c-17.1-3.5-30.5-16.9-34-34H639.1v-17.5h1065.6zm504.4-401.5c-4.8 23.6-27.9 38.8-51.5 34s-38.8-27.9-34-51.5 27.9-38.8 51.5-34c17.1 3.5 30.5 16.9 34 34h367.4v17.5h-367.4zm0 139.7c-4.8 23.6-27.9 38.8-51.5 34s-38.8-27.9-34-51.5 27.9-38.8 51.5-34c17.1 3.5 30.5 16.9 34 34h367.4v17.5h-367.4zm54.1-995c4.8-23.6 27.9-38.8 51.5-34s38.8 27.9 34 51.5-27.9 38.8-51.5 34c-17.1-3.5-30.5-16.9-34-34h-752.3c-4.8 23.6-27.9 38.8-51.5 34s-38.8-27.9-34-51.5 27.9-38.8 51.5-34c17.1 3.5 30.5 16.9 34 34h752.3zM29 621.6c4.8-23.6 27.9-38.8 51.5-34s38.8 27.9 34 51.5-27.9 38.8-51.5 34c-17.1-3.5-30.5-16.9-34-34H-76.6v-17.5H29zm1621.6 296.8c-4.8 23.6-27.9 38.8-51.5 34s-38.8-27.9-34-51.5 27.9-38.8 51.5-34c17.1 3.5 30.5 16.9 34 34h752.3c4.8-23.6 27.9-38.8 51.5-34s38.8 27.9 34 51.5-27.9 38.8-51.5 34c-17.1-3.5-30.5-16.9-34-34h-752.3zM2175.1 29c23.6 4.8 38.8 27.9 34 51.5s-27.9 38.8-51.5 34-38.8-27.9-34-51.5c3.5-17.1 16.9-30.5 34-34V-76.6h17.5V29zm-558.5 1815.3c23.6 4.8 38.8 27.9 34 51.5s-27.9 38.8-51.5 34-38.8-27.9-34-51.5c3.5-17.1 16.9-30.5 34-34v-473c-23.6-4.8-38.8-27.9-34-51.5s27.9-38.8 51.5-34 38.8 27.9 34 51.5c-3.5 17.1-16.9 30.5-34 34v473zm418.9-1729.7v507.1h541.1v17.5H2018V114.6c-23.6-4.8-38.8-27.9-34-51.5s27.9-38.8 51.5-34c23.6 4.8 38.8 27.9 34 51.5-3.5 17.1-16.9 30.5-34 34zm139.6 139.6V482h401.5v17.5h-418.9V254.2c-23.6-4.8-38.8-27.9-34-51.5s27.9-38.8 51.5-34 38.8 27.9 34 51.5c-3.6 17.1-17 30.5-34.1 34zM1058 1092v646.7h139.6v105.6c23.6 4.8 38.8 27.9 34 51.5s-27.9 38.8-51.5 34-38.8-27.9-34-51.5c3.5-17.1 16.9-30.5 34-34v-88.1h-139.6V1092c-23.6-4.8-38.8-27.9-34-51.5s27.9-38.8 51.5-34 38.8 27.9 34 51.5c-3.5 17.1-16.9 30.5-34 34zm-51.5-191.1c4.8-23.6 27.9-38.8 51.5-34s38.8 27.9 34 51.5-27.9 38.8-51.5 34c-17.1-3.5-30.5-16.9-34-34h-88.1v418.9H673.1c-4.8 23.6-27.9 38.8-51.5 34s-38.8-27.9-34-51.5 27.9-38.8 51.5-34c17.1 3.5 30.5 16.9 34 34h227.8V900.9h105.6zm-54.1 1134.6c-4.8 23.6-27.9 38.8-51.5 34s-38.8-27.9-34-51.5 27.9-38.8 51.5-34c17.1 3.5 30.5 16.9 34 34h507.1v-646.7c-23.6-4.8-38.8-27.9-34-51.5s27.9-38.8 51.5-34 38.8 27.9 34 51.5c-3.5 17.1-16.9 30.5-34 34v664.2H952.4zm-139.6-558.6c-4.8 23.6-27.9 38.8-51.5 34s-38.8-27.9-34-51.5 27.9-38.8 51.5-34c17.1 3.5 30.5 16.9 34 34h105.6v418.9h88.1c4.8-23.6 27.9-38.8 51.5-34 23.6 4.8 38.8 27.9 34 51.5s-27.9 38.8-51.5 34c-17.1-3.5-30.5-16.9-34-34H900.9v-418.9h-88.1zm-313.4 926c23.6 4.8 38.8 27.9 34 51.5s-27.9 38.8-51.5 34-38.8-27.9-34-51.5c3.5-17.1 16.9-30.5 34-34v-88.1H359.8v261.8h-17.5v-279.3h157.1v105.6zM1984 1459.5c4.8-23.6 27.9-38.8 51.5-34 23.6 4.8 38.8 27.9 34 51.5s-27.9 38.8-51.5 34c-17.1-3.5-30.5-16.9-34-34h-88.1v820.4h418.9v279.3h-17.5v-261.8h-418.9v-855.3l105.6-.1zm225.1-261.9c-4.8 23.6-27.9 38.8-51.5 34s-38.8-27.9-34-51.5 27.9-38.8 51.5-34c17.1 3.5 30.5 16.9 34 34h105.6V1565c23.6 4.8 38.8 27.9 34 51.5s-27.9 38.8-51.5 34-38.8-27.9-34-51.5c3.5-17.1 16.9-30.5 34-34v-367.4h-88.1zm-558.5 837.9c-4.8 23.6-27.9 38.8-51.5 34s-38.8-27.9-34-51.5 27.9-38.8 51.5-34c17.1 3.5 30.5 16.9 34 34h88.1v-698.2h139.6v-122.2h-367.4c-4.8 23.6-27.9 38.8-51.5 34s-38.8-27.9-34-51.5 27.9-38.8 51.5-34c17.1 3.5 30.5 16.9 34 34h384.9v157.1h-139.6v698.2l-105.6.1zm752.3-1832.8c4.8-23.6 27.9-38.8 51.5-34s38.8 27.9 34 51.5-27.9 38.8-51.5 34c-17.1-3.5-30.5-16.9-34-34h-105.6V-76.6h17.5v279.3h88.1zM778.7 812.8v384.9H393.8c-4.8 23.6-27.9 38.8-51.5 34s-38.8-27.9-34-51.5 27.9-38.8 51.5-34c17.1 3.5 30.5 16.9 34 34h367.4V812.8c-23.6-4.8-38.8-27.9-34-51.5s27.9-38.8 51.5-34 38.8 27.9 34 51.5c-3.4 17.1-16.8 30.5-34 34zM393.8 220.2c-4.8 23.6-27.9 38.8-51.5 34s-38.8-27.9-34-51.5 27.9-38.8 51.5-34c17.1 3.5 30.5 16.9 34 34h227.8V-76.6h17.5v296.7l-245.3.1zm524.6 34v245.2H639.1V1058H533.5c-4.8 23.6-27.9 38.8-51.5 34s-38.8-27.9-34-51.5 27.9-38.8 51.5-34c17.1 3.5 30.5 16.9 34 34h88.1V482h279.3V254.2c-23.6-4.8-38.8-27.9-34-51.5s27.9-38.8 51.5-34 38.8 27.9 34 51.5c-3.5 17.1-16.9 30.5-34 34zM812.8 639.1c-4.8 23.6-27.9 38.8-51.5 34s-38.8-27.9-34-51.5 27.9-38.8 51.5-34c17.1 3.5 30.5 16.9 34 34h227.8V254.2c-23.6-4.8-38.8-27.9-34-51.5s27.9-38.8 51.5-34 38.8 27.9 34 51.5c-3.5 17.1-16.9 30.5-34 34v384.9H812.8zM952.4 80.5c-4.8 23.6-27.9 38.8-51.5 34s-38.8-27.9-34-51.5 27.9-38.8 51.5-34c17.1 3.5 30.5 16.9 34 34h245.2v385c23.6 4.8 38.8 27.9 34 51.5-4.8 23.6-27.9 38.8-51.5 34s-38.8-27.9-34-51.5c3.5-17.1 16.9-30.5 34-34V80.5H952.4zm891.9 2356.4c4.8-23.6 27.9-38.8 51.5-34s38.8 27.9 34 51.5-27.9 38.8-51.5 34c-17.1-3.5-30.5-16.9-34-34H778.7v122.2h-17.5V2437l1083.1-.1zm191.2-1205.2v88.1h139.6v296.7h-139.6v541.1h418.9v418.9h-17.5V2175H2018v-576h139.6v-261.8H2018v-105.6c-23.6-4.8-38.8-27.9-34-51.5s27.9-38.8 51.5-34c23.6 4.8 38.8 27.9 34 51.5-3.5 17.2-16.9 30.6-34 34.1zM393.8 80.5c-4.8 23.6-27.9 38.8-51.5 34s-38.8-27.9-34-51.5 27.9-38.8 51.5-34c17.1 3.5 30.5 16.9 34 34H482V-59.1H342.4v-17.5h157.1V80.5H393.8zm977.5 279.3c-4.8 23.6-27.9 38.8-51.5 34s-38.8-27.9-34-51.5 27.9-38.8 51.5-34c17.1 3.5 30.5 16.9 34 34h227.8V-76.6h436.4v17.5h-418.9v418.9h-245.3zM952.4-59.1c-4.8 23.6-27.9 38.9-51.5 34S862-53 866.9-76.6H885c-4.8 13.6 2.4 28.6 16 33.4s28.6-2.4 33.4-16c2-5.6 2-11.8 0-17.4H1477v296.7h-157.1V114.6c-23.6-4.8-38.8-27.9-34-51.5s27.9-38.8 51.5-34 38.8 27.9 34 51.5c-3.5 17.1-16.9 30.5-34 34v88.1h122.2V-59.1H952.4zm0 837.8c-4.8 23.6-27.9 38.8-51.5 34s-38.8-27.9-34-51.5 27.9-38.8 51.5-34c17.1 3.5 30.5 16.9 34 34h166.7L1398.4 482h340.4V114.6c-23.6-4.8-38.8-27.9-34-51.5s27.9-38.8 51.5-34 38.8 27.9 34 51.5c-3.5 17.1-16.9 30.5-34 34v384.9h-350.6l-279.3 279.3c-.1-.1-174-.1-174-.1zm245.2 786.4c23.6 4.8 38.8 27.9 34 51.5s-27.9 38.8-51.5 34-38.8-27.9-34-51.5c3.5-17.1 16.9-30.5 34-34V897.3l275.7-275.7h422.5v-507c-23.6-4.8-38.8-27.9-34-51.5s27.9-38.8 51.5-34 38.8 27.9 34 51.5c-3.5 17.1-16.9 30.5-34 34v524.5H1463l-265.4 265.4v660.6zm139.7 279.2c23.6 4.8 38.8 27.9 34 51.5s-27.9 38.8-51.5 34-38.8-27.9-34-51.5c3.5-17.1 16.9-30.5 34-34V975.9l214.6-214.6h1008.1c3.5-17.1 16.9-30.5 34-34v18.1c-13.6 4.8-20.8 19.7-16 33.4 2.6 7.5 8.5 13.4 16 16v18.1c-17.1-3.5-30.5-16.9-34-34H1541.6L1337.3 983v861.3zM80.5 1285.8c23.6 4.8 38.8 27.9 34 51.5s-27.9 38.8-51.5 34-38.8-27.9-34-51.5c3.5-17.1 16.9-30.5 34-34v-30.6l419-419V342.4h279.3v-419h17.5v436.4H499.4v483.6L80.5 1262.3v23.5zm279.3-892v379.7l-418.9 418.9v546.2h227.8c4.8-23.6 27.9-38.8 51.5-34s38.8 27.9 34 51.5-27.9 38.8-51.5 34c-17.1-3.5-30.5-16.9-34-34H-76.6v-570.9l418.9-418.9V393.8c-23.6-4.8-38.8-27.9-34-51.5s27.9-38.8 51.5-34 38.8 27.9 34 51.5c-3.5 17.2-16.9 30.5-34 34zM220.2 533.5v170.3l-296.7 296.7v-24.6l279.3-279.3V533.5c-23.6-4.8-38.8-27.9-34-51.5s27.9-38.8 51.5-34 38.8 27.9 34 51.5c-3.6 17.1-17 30.5-34.1 34zM29 202.7c4.8-23.6 27.9-38.8 51.5-34s38.8 27.9 34 51.5-27.9 38.8-51.5 34c-17.1-3.5-30.5-16.9-34-34H5.6l-82.1 82.1v-24.5l75-75.1H29zm2319.8 157.1c-4.8 23.6-27.9 38.8-51.5 34s-38.8-27.9-34-51.5 27.9-38.8 51.5-34c17.1 3.5 30.5 16.9 34 34h163.1l64.7-64.7v24.6l-57.5 57.5h-170.3v.1zm-139.7 1396.4c-4.8 23.6-27.9 38.8-51.5 34s-38.8-27.9-34-51.5 27.9-38.8 51.5-34c17.1 3.5 30.5 16.9 34 34h227.8v-623.2l139.6-139.6v24.6l-122.2 122.2v633.5h-245.2zM393.8 2035.5c-4.8 23.6-27.9 38.8-51.5 34s-38.8-27.9-34-51.5 27.9-38.8 51.5-34c17.1 3.5 30.5 16.9 34 34H482v-197.2l-204.3-204.3H114.6c-4.8 23.6-27.9 38.8-51.5 34s-38.8-27.9-34-51.5 27.9-38.8 51.5-34c17.1 3.5 30.5 16.9 34 34h170.3l214.6 214.6v221.8c-.1.1-105.7.1-105.7.1zm1310.9 122.1c4.8-23.6 27.9-38.8 51.5-34s38.8 27.9 34 51.5-27.9 38.8-51.5 34c-17.1-3.5-30.5-16.9-34-34H761.3v-494l-343.9-343.9H254.2c-4.8 23.6-27.9 38.8-51.5 34s-38.8-27.9-34-51.5 27.9-38.8 51.5-34c17.1 3.5 30.5 16.9 34 34h170.2L778.7 1674v483.5h926v.1zm-1310.9 17.5c-4.8 23.6-27.9 38.8-51.5 34s-38.8-27.9-34-51.5 27.9-38.8 51.5-34c17.1 3.5 30.5 16.9 34 34h227.8V1751l-274.1-274.1H114.6c-4.8 23.6-27.9 38.8-51.5 34s-38.8-27.9-34-51.5 27.9-38.8 51.5-34c17.1 3.5 30.5 16.9 34 34h240.1l284.4 284.4V2175c0 .1-245.3.1-245.3.1zM220.2 270.8v14.1L5.6 499.4h-82.1V482h75l204.3-204.3V-76.6h17.5v347.4h-.1zM-59.1 2542.5c17.1 3.5 30.5 16.9 34 34h-18.1c-4.8-13.6-19.8-20.8-33.4-16v-402.9H80.5v418.9H63.1V2175H-59.1v367.5zm279.3-515.8v549.8h-17.5v-541.1H-76.6V2018h296.7l.1 8.7zM71.8 80.5H-76.6V63.1H63.1V-76.6h17.5V80.5h-8.8zm2382.6-17.4h122.2v17.5H2437V-76.6h17.5l-.1 139.7zm-279.3 2382.6v130.9h-17.5v-122.2h-122.2v122.2H2018V2437h157.1v8.7zM-76.6 727.2c23.7-4.7 46.8 10.7 51.5 34.4.5 2.7.8 5.5.8 8.3 0 24.1-19.5 43.6-43.6 43.6-2.9 0-5.9-.3-8.7-.9v-18.1c13.6 4.8 28.6-2.4 33.4-16s-2.4-28.6-16-33.4c-5.6-2-11.8-2-17.4 0v-17.9zm698.2 1570.1h17.5v279.3h-17.5v-279.3zm330.8 279.3h-18.1c-4.8-13.6-19.7-20.8-33.4-16-7.5 2.6-13.4 8.5-16 16h-18.1c4.8-23.6 27.8-38.9 51.4-34.1 17.3 3.5 30.7 16.9 34.2 34.1zM-25.1-76.6c4.7 23.7-10.7 46.8-34.5 51.5a44.2 44.2 0 0 1-17 0v-18.1C-63-38.4-48-45.5-43.2-59.1c2-5.7 2-11.8 0-17.5h18.1zm2567.6 0h18.1c-4.8 13.6 2.3 28.6 15.9 33.4v18.1c-23.6-4.8-38.8-27.8-34-51.5zm34.1 2619.1v18.1c-7.5 2.6-13.3 8.5-16 16h-18.1c3.5-17.2 16.9-30.6 34.1-34.1zM770 796.2c14.5 0 26.2-11.7 26.2-26.2s-11.7-26.2-26.2-26.2-26.2 11.7-26.2 26.2 11.7 26.2 26.2 26.2zm0-139.7c14.5 0 26.2-11.7 26.2-26.2s-11.7-26.2-26.2-26.2-26.2 11.7-26.2 26.2 11.7 26.2 26.2 26.2zm139.6 139.7c14.5 0 26.2-11.7 26.2-26.2s-11.7-26.2-26.2-26.2-26.2 11.7-26.2 26.2 11.8 26.2 26.2 26.2zm139.7 139.6c14.5 0 26.2-11.7 26.2-26.2s-11.7-26.2-26.2-26.2-26.2 11.7-26.2 26.2 11.7 26.2 26.2 26.2zm0 139.7c14.5 0 26.2-11.7 26.2-26.2s-11.7-26.2-26.2-26.2-26.2 11.7-26.2 26.2c0 14.4 11.7 26.2 26.2 26.2zm-418.9 279.2c14.5 0 26.2-11.7 26.2-26.2s-11.7-26.2-26.2-26.2-26.2 11.7-26.2 26.2 11.7 26.2 26.2 26.2zM770 1494.4c14.5 0 26.2-11.7 26.2-26.2S784.5 1442 770 1442s-26.2 11.7-26.2 26.2c0 14.4 11.7 26.2 26.2 26.2zm279.3 418.9c14.5 0 26.2-11.7 26.2-26.2s-11.7-26.2-26.2-26.2-26.2 11.7-26.2 26.2 11.7 26.2 26.2 26.2zm-139.7 139.6c14.5 0 26.2-11.7 26.2-26.2s-11.7-26.2-26.2-26.2-26.2 11.7-26.2 26.2 11.8 26.2 26.2 26.2zm279.3-139.6c14.5 0 26.2-11.7 26.2-26.2s-11.7-26.2-26.2-26.2-26.2 11.7-26.2 26.2 11.7 26.2 26.2 26.2zm0-279.3c14.5 0 26.2-11.7 26.2-26.2s-11.7-26.2-26.2-26.2-26.2 11.7-26.2 26.2 11.7 26.2 26.2 26.2zm139.6 279.3c14.5 0 26.2-11.7 26.2-26.2s-11.7-26.2-26.2-26.2-26.2 11.7-26.2 26.2 11.8 26.2 26.2 26.2zm279.3 139.6c14.5 0 26.2-11.7 26.2-26.2s-11.7-26.2-26.2-26.2-26.2 11.7-26.2 26.2 11.8 26.2 26.2 26.2zm0-139.6c14.5 0 26.2-11.7 26.2-26.2s-11.7-26.2-26.2-26.2-26.2 11.7-26.2 26.2 11.8 26.2 26.2 26.2zm-139.6-558.6c14.5 0 26.2-11.7 26.2-26.2s-11.7-26.2-26.2-26.2-26.2 11.7-26.2 26.2 11.7 26.2 26.2 26.2zm139.6 0c14.5 0 26.2-11.7 26.2-26.2s-11.7-26.2-26.2-26.2-26.2 11.7-26.2 26.2 11.8 26.2 26.2 26.2zm139.7 837.9c14.5 0 26.2-11.7 26.2-26.2s-11.7-26.2-26.2-26.2-26.2 11.7-26.2 26.2c0 14.4 11.7 26.2 26.2 26.2zm0 139.6c14.5 0 26.2-11.7 26.2-26.2s-11.7-26.2-26.2-26.2-26.2 11.7-26.2 26.2 11.7 26.2 26.2 26.2zm139.6 139.6c14.5 0 26.2-11.7 26.2-26.2s-11.7-26.2-26.2-26.2-26.2 11.7-26.2 26.2 11.7 26.2 26.2 26.2zm139.6-1256.7c14.5 0 26.2-11.7 26.2-26.2s-11.7-26.2-26.2-26.2-26.2 11.7-26.2 26.2c.1 14.5 11.8 26.2 26.2 26.2zm0 279.3c14.5 0 26.2-11.7 26.2-26.2s-11.7-26.2-26.2-26.2-26.2 11.7-26.2 26.2c.1 14.4 11.8 26.2 26.2 26.2zm139.7-279.3c14.5 0 26.2-11.7 26.2-26.2s-11.7-26.2-26.2-26.2-26.2 11.7-26.2 26.2 11.7 26.2 26.2 26.2zm139.6-139.6c14.5 0 26.2-11.7 26.2-26.2s-11.7-26.2-26.2-26.2-26.2 11.7-26.2 26.2c0 14.4 11.8 26.2 26.2 26.2zm-837.8 0c14.5 0 26.2-11.7 26.2-26.2s-11.7-26.2-26.2-26.2-26.2 11.7-26.2 26.2c0 14.4 11.7 26.2 26.2 26.2zm0 139.6c14.5 0 26.2-11.7 26.2-26.2s-11.7-26.2-26.2-26.2-26.2 11.7-26.2 26.2 11.7 26.2 26.2 26.2zm139.6-279.3c14.5 0 26.2-11.7 26.2-26.2s-11.7-26.2-26.2-26.2-26.2 11.7-26.2 26.2 11.8 26.2 26.2 26.2zm837.9 0c14.5 0 26.2-11.7 26.2-26.2s-11.7-26.2-26.2-26.2-26.2 11.7-26.2 26.2 11.7 26.2 26.2 26.2zM2306 377.3c14.5 0 26.2-11.7 26.2-26.2s-11.7-26.2-26.2-26.2-26.2 11.7-26.2 26.2c0 14.4 11.8 26.2 26.2 26.2zm139.7-139.7c14.5 0 26.2-11.7 26.2-26.2s-11.7-26.2-26.2-26.2-26.2 11.7-26.2 26.2 11.7 26.2 26.2 26.2zm-279.3 0c14.5 0 26.2-11.7 26.2-26.2s-11.7-26.2-26.2-26.2-26.2 11.7-26.2 26.2 11.7 26.2 26.2 26.2zm0-139.6c14.5 0 26.2-11.7 26.2-26.2s-11.7-26.2-26.2-26.2-26.2 11.7-26.2 26.2 11.7 26.2 26.2 26.2zm-139.7 0c14.5 0 26.2-11.7 26.2-26.2s-11.7-26.2-26.2-26.2-26.2 11.7-26.2 26.2 11.8 26.2 26.2 26.2zm-139.6 0c14.5 0 26.2-11.7 26.2-26.2s-11.7-26.2-26.2-26.2-26.2 11.7-26.2 26.2 11.7 26.2 26.2 26.2zm-139.6 0c14.5 0 26.2-11.7 26.2-26.2s-11.7-26.2-26.2-26.2-26.2 11.7-26.2 26.2S1733 98 1747.5 98zM351.1 237.6c14.5 0 26.2-11.7 26.2-26.2s-11.7-26.2-26.2-26.2-26.2 11.7-26.2 26.2 11.7 26.2 26.2 26.2zm-279.3 0c14.5 0 26.2-11.7 26.2-26.2s-11.7-26.2-26.2-26.2-26.2 11.8-26.2 26.2c0 14.5 11.7 26.2 26.2 26.2zm279.3 139.7c14.5 0 26.2-11.7 26.2-26.2s-11.7-26.2-26.2-26.2-26.2 11.7-26.2 26.2c0 14.4 11.7 26.2 26.2 26.2zM211.4 516.9c14.5 0 26.2-11.7 26.2-26.2s-11.7-26.2-26.2-26.2-26.2 11.7-26.2 26.2 11.8 26.2 26.2 26.2zM351.1 98c14.5 0 26.2-11.7 26.2-26.2s-11.7-26.2-26.2-26.2-26.2 11.7-26.2 26.2S336.6 98 351.1 98zm0 2094.6c14.5 0 26.2-11.7 26.2-26.2s-11.7-26.2-26.2-26.2-26.2 11.7-26.2 26.2c0 14.4 11.7 26.2 26.2 26.2zm139.6 279.2c14.5 0 26.2-11.7 26.2-26.2s-11.7-26.2-26.2-26.2-26.2 11.7-26.2 26.2 11.8 26.2 26.2 26.2zm-139.6-558.5c14.5 0 26.2-11.7 26.2-26.2s-11.7-26.2-26.2-26.2-26.2 11.7-26.2 26.2 11.7 26.2 26.2 26.2zm0 139.6c14.5 0 26.2-11.7 26.2-26.2s-11.7-26.2-26.2-26.2-26.2 11.7-26.2 26.2 11.7 26.2 26.2 26.2zm-139.7-279.3c14.5 0 26.2-11.7 26.2-26.2s-11.7-26.2-26.2-26.2-26.2 11.7-26.2 26.2 11.8 26.2 26.2 26.2zm698.2-1536c14.5 0 26.2-11.7 26.2-26.2s-11.7-26.2-26.2-26.2-26.2 11.7-26.2 26.2 11.8 26.2 26.2 26.2zm139.7 0c14.5 0 26.2-11.7 26.2-26.2s-11.7-26.2-26.2-26.2-26.2 11.7-26.2 26.2 11.7 26.2 26.2 26.2zM909.6 98c14.5 0 26.2-11.7 26.2-26.2s-11.7-26.2-26.2-26.2-26.2 11.7-26.2 26.2S895.2 98 909.6 98zm279.3 418.9c14.5 0 26.2-11.7 26.2-26.2s-11.7-26.2-26.2-26.2-26.2 11.7-26.2 26.2 11.7 26.2 26.2 26.2zm139.6-139.6c14.5 0 26.2-11.7 26.2-26.2s-11.7-26.2-26.2-26.2-26.2 11.7-26.2 26.2c.1 14.4 11.8 26.2 26.2 26.2zm0-279.3c14.5 0 26.2-11.7 26.2-26.2s-11.7-26.2-26.2-26.2-26.2 11.7-26.2 26.2 11.8 26.2 26.2 26.2zM2306 1634c14.5 0 26.2-11.7 26.2-26.2s-11.7-26.2-26.2-26.2-26.2 11.7-26.2 26.2 11.8 26.2 26.2 26.2zm-139.6 139.6c14.5 0 26.2-11.7 26.2-26.2s-11.7-26.2-26.2-26.2-26.2 11.7-26.2 26.2 11.7 26.2 26.2 26.2zm0 139.7c14.5 0 26.2-11.7 26.2-26.2s-11.7-26.2-26.2-26.2-26.2 11.7-26.2 26.2 11.7 26.2 26.2 26.2zm0 139.6c14.5 0 26.2-11.7 26.2-26.2s-11.7-26.2-26.2-26.2-26.2 11.7-26.2 26.2 11.7 26.2 26.2 26.2zM71.8 1494.4c14.5 0 26.2-11.7 26.2-26.2S86.3 1442 71.8 1442s-26.2 11.7-26.2 26.2c0 14.4 11.7 26.2 26.2 26.2zm0 139.6c14.5 0 26.2-11.7 26.2-26.2s-11.7-26.2-26.2-26.2-26.2 11.7-26.2 26.2 11.7 26.2 26.2 26.2zm0-279.3c14.5 0 26.2-11.7 26.2-26.2s-11.7-26.2-26.2-26.2-26.2 11.7-26.2 26.2 11.7 26.2 26.2 26.2zm139.6 0c14.5 0 26.2-11.7 26.2-26.2s-11.7-26.2-26.2-26.2-26.2 11.7-26.2 26.2 11.8 26.2 26.2 26.2zM71.8 656.5c14.5 0 26.2-11.7 26.2-26.2s-11.7-26.2-26.2-26.2-26.2 11.7-26.2 26.2 11.7 26.2 26.2 26.2zm279.3 558.6c14.5 0 26.2-11.7 26.2-26.2s-11.7-26.2-26.2-26.2-26.2 11.7-26.2 26.2 11.7 26.2 26.2 26.2zm139.6-139.6c14.5 0 26.2-11.7 26.2-26.2s-11.7-26.2-26.2-26.2-26.2 11.7-26.2 26.2c0 14.4 11.8 26.2 26.2 26.2z"/><g id="XMLID_1_"><path class="st1" d="M1776.5 1048.3c86.9 86.7 87 227.5.2 314.4-.3.3-.7.7-1.1 1-41.9 41.8-98.8 65.2-158.1 65-59.2.2-116.1-23.2-158.1-65L1321.5 1227l-.1-.1c-5.7-5.7-8.9-13.4-8.9-21.4 0-8.1 3.3-15.8 9-21.5 44.6-44 106.6-105.4 137.9-136.4 87.6-86.6 228.6-86.6 316.3-.1l.8.8zm-597.9 135.9c11.8 11.8 11.8 30.8.1 42.6l-.2.2-137.9 136.7c-87.6 86.6-228.6 86.6-316.3.1l-.8-.8c-86.9-86.7-87-227.5-.2-314.4l1-1c87.7-86.5 228.6-86.5 316.3.1 31.3 31.1 93.3 92.4 138 136.5z"/><path class="st2" d="M1867.7 964.4c133.3 134.8 132.1 352-2.7 485.3-137.2 135.2-357.5 135.2-494.7 0l-120.3-119-120.3 119c-137.2 135.2-357.5 135.2-494.7 0l-1.2-1.2-1.5-1.5C499 1312.2 500.2 1095 635 961.7c137.2-135.2 357.5-135.2 494.7 0l120.3 118.9 120.3-118.9c137.2-135.2 357.5-135.2 494.7 0l1.2 1.2 1.5 1.5zm-91 398.3c86.8-86.9 86.7-227.7-.2-314.4l-.8-.8c-87.7-86.5-228.7-86.5-316.3.1-31.3 31-93.3 92.4-137.9 136.4-5.7 5.7-9 13.4-9 21.5 0 8 3.2 15.7 8.9 21.4l.1.1 137.9 136.7c42 41.8 98.9 65.2 158.1 65 59.3.2 116.2-23.2 158.1-65 .4-.3.8-.7 1.1-1zm-598-135.9c11.7-11.8 11.7-30.8-.1-42.6l-.1-.1c-44.6-44-106.6-105.3-137.9-136.4-87.7-86.6-228.6-86.6-316.3-.1l-1 1c-86.8 86.9-86.7 227.7.2 314.4l.8.8c87.7 86.5 228.7 86.5 316.3-.1l137.9-136.7.2-.2z"/></g></svg>