<svg xmlns="http://www.w3.org/2000/svg" viewBox="0 0 393.5 377.2"><path fill="#fff" d="M349.6 144.4c-12.4 0-23.4 5.2-31.4 13.4-29.6-20.8-69.5-34.2-113.8-35.6l23-105.1 73.2 16.7c0 18.2 14.6 33 32.5 33 18.3 0 32.9-15.2 32.9-33.4S351.4 0 333.1 0c-12.8 0-23.8 7.8-29.3 18.5L223 .3c-4.1-1.1-8.1 1.9-9.1 6l-25.2 115.8c-43.9 1.9-83.4 15.2-113.1 36-8.1-8.5-19.4-13.7-31.8-13.7-46.1 0-61.2 62.8-19 84.3-1.5 6.6-2.2 13.7-2.2 20.8 0 70.5 78.3 127.7 174.5 127.7 96.6 0 174.9-57.2 174.9-127.7 0-7.1-.7-14.5-2.6-21.1 41.3-21.7 26.1-84-19.8-84zM91.7 233.1c0-18.5 14.6-33.4 32.9-33.4 17.9 0 32.5 14.8 32.5 33.4 0 18.2-14.6 33-32.5 33-18.2.1-32.9-14.8-32.9-33zm177.8 78.7c-30.2 30.6-115.4 30.6-145.6 0-3.3-3-3.3-8.2 0-11.5 2.9-3 8.1-3 11 0 23.1 24 99.5 24.4 123.6 0 2.9-3 8.1-3 11 0 3.3 3.3 3.3 8.5 0 11.5zm-.7-45.6c-17.9 0-32.5-14.8-32.5-33 0-18.5 14.6-33.4 32.5-33.4 18.3 0 32.9 14.8 32.9 33.4 0 18.1-14.6 33-32.9 33z"/></svg>