<svg id="Bold" xmlns="http://www.w3.org/2000/svg" viewBox="0 0 512 512"><style>.st0{fill:#fff}</style><path class="st0" d="M416 512H96c-53 0-96-43-96-96V96C0 43 43 0 96 0h320c53 0 96 43 96 96v320c0 53-43 96-96 96z"/><path d="M345.1 385.4c48.3-30.8 80.6-85.9 80.6-148.7C425.8 140.2 349.8 62 256 62S86.2 140.2 86.2 236.8s76 174.7 169.8 174.7c13.8 0 27.1-1.7 40-4.9 16.1 29.7 40.6 50.9 92.8 40.8v-29.7c0 .2-33.4-8.5-43.7-32.3zm-1-125.5c0 29.1-9.1 55.6-23.9 75.2-18.6-20.2-47.9-36.8-85-34.7v34.4s25.2 1.1 42.4 31.1c-6.5 2-13.2 3-20.2 3-47.9 0-86.7-48.8-86.7-109v-45c0-60.2 38.8-109.1 86.7-109.1s86.7 48.8 86.7 109.1v45z"/></svg>