<svg id="Bold" xmlns="http://www.w3.org/2000/svg" viewBox="0 0 512 432.1"><style>.st0{fill:#fff}</style><path class="st0" d="M512 114.6V415c0 4.8-1.3 8.6-4 11.5-2.7 3-6.3 4.4-10.9 4.4-4.6 0-9-1.2-13.4-3.7l-126-62.7L512 114.6zm-2-35.9c.7.4 1.1.9 1.1 1.7 0 .6-24.4 40.4-73.3 119.5-48.8 79.1-77.4 125.5-85.8 139L240.6 158.2 333.1 8c5-8.3 15.4-9.7 22.3-6.3l154.6 77zm-321.1 30.8l152.5 246.7-152.5-75.7zm-19.2-30.2c2.1 2.1.6-12.4.8 335.7 0 14.8-11.1 21-23.4 14.8L14.3 363.4c-4-1.9-7.4-5.1-10.1-9.5C1.4 349.4 0 345 0 340.6V15.7C0 3.6 7.3-1.9 23.7 6.3l146 73z" id="XMLID_1_"/></svg>