<svg xmlns="http://www.w3.org/2000/svg" viewBox="0 0 464.2 377.1"><path fill="#fff" d="M464.2 44.7c-17.3 7.6-35.7 12.6-54.8 15 19.7-11.8 34.8-30.3 41.9-52.6-18.4 11-38.7 18.7-60.4 23C373.4 11.5 348.5 0 321.4 0c-52.7 0-95.1 42.8-95.1 95.2 0 7.5.6 14.8 2.2 21.7C149.4 113 79.4 75.1 32.3 17.3c-8.2 14.2-13 30.6-13 48.1 0 33 17 62.2 42.3 79.1-15.3-.3-30.3-4.7-43-11.7v1c0 46.3 33 84.7 76.3 93.5-7.7 2.1-16.2 3.1-25 3.1-6.1 0-12.2-.3-18-1.6 12.3 37.7 47.3 65.4 88.9 66.3-32.4 25.3-73.5 40.6-118 40.6-7.8 0-15.3-.3-22.8-1.3 42.2 27.2 92.1 42.7 146 42.7 175.1 0 270.9-145.1 270.9-270.8 0-4.2-.1-8.3-.3-12.3 18.8-13.3 34.7-30.1 47.6-49.3z"/></svg>