<svg xmlns="http://www.w3.org/2000/svg" viewBox="0 0 377.2 377.2"><path fill="#fff" d="M117.9 311.6H66.3V145.1h51.6v166.5zM123 92.1c0-16.7-13.5-30.2-30.2-30.2S62.6 75.4 62.6 92.1s13.5 30.2 30.2 30.2S123 108.8 123 92.1zM310.9 220c0-44.7-9.4-77.8-61.7-77.8-25.1 0-41.9 12.5-48.8 25.6v-22.6h-50.1v166.5h50.1V229c0-21.7 5.5-42.6 32.3-42.6 26.5 0 27.3 24.8 27.3 44v81.3h50.8V220zm66.3 113V44.2C377.2 19.8 357.4 0 333 0H44.2C19.8 0 0 19.8 0 44.2V333c0 24.4 19.8 44.2 44.2 44.2H333c24.4 0 44.2-19.8 44.2-44.2zM333 29.5c8.1 0 14.7 6.6 14.7 14.7V333c0 8.1-6.6 14.7-14.7 14.7H44.2c-8.1 0-14.7-6.6-14.7-14.7V44.2c0-8.1 6.6-14.7 14.7-14.7H333z"/></svg>