<svg id="Layer_1" xmlns="http://www.w3.org/2000/svg" viewBox="0 0 590 590"><style>.st0{fill:#1e88e5}.st1{fill:#fff}</style><g id="XMLID_1_"><path class="st0" d="M425.3 254.6c13.1-17.9 25.3-36.5 35.9-56.1l.3-.6c.9-1.7 1.8-3.4 2.8-5.2 2.6 5.7 9.3 25.9-14 42.1-10.2 7.1-17.8 14.2-22.9 21.4l-2.1-1.6zm11.9 61.4c15.2 17.6 21.1 41.3 16 64-.2.8-.4 1.5-.6 2.3-35.4 7.8-71.7 12.2-107.8 14.6-18.3 1.2-36.8 2-55.2 2.1 6.7-5.6 13.2-11.3 19.7-17.1 40.5-36.3 77.8-76.4 110.5-119.9 1.8-2.4 3.7-4.9 5.5-7.4l2.1 1.6c-4.5 6.4-7.1 12.8-7.8 19.4-1.4 13 4.4 26.2 17.6 40.4zm10.3 78.2c-4.9 8.2-11.9 14.1-20.6 17.2-13.2 4.7-47.8 18.9-68.8 43.2-21.3-11.5-44.2-26.7-67.3-44.9 42.7-.4 85.3-3.7 127.4-10.3 9.8-1.5 19.6-3.3 29.3-5.2zm-95.3 68.9c-6.8 9.9-10.7 21.6-11.1 33.6-55.2 13-110.4 1.9-154.6-26.5 2.1-1.1 4.2-2.2 6.2-3.3 29.3-16 56.9-35.3 83-56.4 26.3 21.7 52.2 39.4 76.5 52.6zm-91.3-53.6c-3.4 2.6-6.8 5.2-10.3 7.8-20 15-40.9 28.9-62.8 40.9-.2.1-.3.2-.4.3l-10.2 5.4c-25.1-18.2-46.2-42.2-60.8-70.7 42.4 9.8 86.1 14.2 129.5 15.9 4.9.1 9.9.3 15 .4zm-32.4-41.9c11.1 11.1 22.3 21.5 33.5 31.3-29.1-.6-58.1-2.7-86.9-6.4-21.7-2.8-43.4-6.6-64.6-11.9-4.6-10.7-8.3-21.9-11.1-33.5-2.4-10-3.9-20.1-4.7-30.3 6.6-5.1 11.8-7 15.3-5.7 7.6 2.8 10.5 21.6 12.9 36.6s4.2 27 10.3 32.2c3 2.9 7 4.5 11.2 4.6 1.9 0 3.7-.4 5.4-1.1 16.2-6.8 23.4-42.4 26.7-74 16.2 20.4 33.5 39.9 52 58.2zm229.5-184c-1.4 2.8-2.8 5.5-4.2 8.2-.5.4-.9.9-1.3 1.6-22.8 41.8-52.3 79.9-84 115.2-28.6 31.8-59.5 61.8-92.7 88.9-13.6-11.5-27.3-24-40.6-37.3-20.6-20.5-39.8-42.4-57.3-65.6 5-33.2 25.5-38.8 49-45.3 16-4.4 32-8.8 43.4-22.1 21.8-25.6 9.6-40-4.6-56.6-7.3-8.1-13.8-17-19.4-26.4-9.2-16.3-9-25.8-7.3-30.9 1-3.1 3-5.7 5.8-7.2 43.1-11 87.4-7.2 126.6 8.9 34 14.1 64.3 37.5 86.6 68.6z"/><path class="st1" d="M589.7 309.9v1.2c-1.1 5.6-10.4 5.3-10.5-1.1 0-.2 0-.5-.1-.7.7-6.1 10.6-5.9 10.6.6z"/><path class="st1" d="M589.8 309.8c0 .5 0 .9-.1 1.3v-1.2c0-6.5-9.9-6.7-10.6-.6 0-.6 0-1.1.1-1.6 0-.2-.1-.5-.1-.8 0 .1 0 .2.1.3 0-.1 0-.2-.1-.5-.4-1.5-.6-2.8-1.1-4.2-.2-.6-.5-1.2-.7-1.8-.1-.2-.1-.3-.1-.3 0 .1.1.4-.1 0-.1-.3-.2-.6-.4-.9-.6-1.3-1.3-2.6-2.1-3.8-2.9-4.5-6.7-8.5-11.4-12.4-5.4-4.5-11.6-8.4-17.9-11.8-14.1-7.7-29.2-13.4-44.5-18-.6-2.9-1.4-5.7-2.2-8.6-.3-1.2-.7-2.4-1-3.7 11 3.1 21.9 6.8 32.5 11.1 15.5 6.3 31 14.1 43.4 25.5 9 8.5 16.1 19.4 16.3 32z"/><path class="st1" d="M579.1 306.8c.1.2.1.4.1.5 0-.1 0-.2-.1-.3v-.2zm-78.3-53.2c3.6 15.5 5.4 31.3 5.4 47.4 0 24-4.1 47.8-12.1 70.3-.1 0-.2.1-.4.1-3.9 1.2-7.7 2.4-11.6 3.5 15.3-38.6 18.5-81.7 8-123.2l2.5-.4c2.7.7 5.5 1.5 8.2 2.3zm78.1 59.6c0 .5.1-.9.1-1.2.1-.7.1-1.3.1-1.9v-.8c0 .2 0 .5.1.7.1 6.4 9.4 6.7 10.5 1.1-.1 6.3-2 12.2-5.1 17.7-7.1 12.7-19.6 21.9-31.9 29.2-17.5 10.4-36.8 17.7-56.2 23.8-.3.1-.7.2-1 .2.3-.1.7-.2 1-.3 2.1-.6 3.2-2.1 3.6-3.7h.1s-.1 0-.1-.1v-.1h.1c.7-2.2 0-4-1.4-5.1-.9-1.1-2.2-1.8-3.9-1.6 10.4-3.3 20.8-7 30.8-11.4 14.1-6.2 28.5-13.6 39.7-24.1 2.2-2.1 4.4-4.4 6.3-6.8.3-.3.5-.6.7-.9-.5.6 0-.1.1-.2l1.2-1.8c.7-1.1 1.3-2.1 1.9-3.2.3-.7.7-1.4 1-2.1.1-.1.3-.5.4-.8 0 0 0-.1.1-.1.4-1.1.8-2.1 1-3.3.2-.7.4-1.4.5-2.1 0-.3.1-1.3.2-1.3.1.1.1.1.1.2z"/><path class="st1" d="M500.1 377.9c.4-1.8-.1-3.7-1.3-5.1 1.4 1.1 2.2 2.9 1.4 5.1h-.1z"/><path class="st1" d="M498.9 372.8c1.2 1.3 1.6 3.3 1.3 5.1h-.1c-2.1-2-4.1-3.9-6.2-6v-.1c1.7-.4 3.6 0 5 1zm1.2 5.1h-.1.1z"/><path class="st1" d="M500.1 377.9c0 .1 0 .1 0 0l-7.8-1.9 7.7 1.9h.1z"/><path class="st1" d="M492.3 376l7.8 2c-.4 1.6-1.5 3.1-3.6 3.7-.3.1-.7.2-1 .3-1.8.1-3.6-.8-4.7-2.2.5-1.2 1-2.5 1.5-3.8zm7.7 1.8l-7.7-1.9c.5-1.4 1-2.7 1.5-4.1 2.1 2.1 4.2 4.1 6.2 6zm-1.4-132.7c.8 2.8 1.5 5.7 2.2 8.6-2.7-.8-5.5-1.6-8.2-2.4 2-2.2 4-4.2 6-6.2z"/><path class="st1" d="M497.6 241.4c.4 1.2.7 2.4 1 3.7l-6 6.1 2.6-10.4c.8.1 1.6.3 2.4.6z"/><path class="st1" d="M490.1 251.6c-3.2-12.6-7.7-25.1-13.5-37.3-2.6 12-10 22.3-20.4 28.8-16.6 11.6-25.2 22.6-26.4 33.6-1 9.9 3.9 20.4 15 32.4 16.3 17.4 23.9 46 19 70.5-3.7.9-7.5 1.8-11.2 2.6.2-.7.4-1.5.6-2.3 5.1-22.7-.8-46.4-16-64-13.2-14.2-19-27.4-17.6-40.4.7-6.6 3.3-13 7.8-19.4 5.1-7.2 12.7-14.3 22.9-21.4 23.3-16.2 16.5-36.4 14-42.1 1.8-3.5 3.6-7 5.3-10.5.8 1.1 1.5 2.2 2.3 3.4.2.2.4.5.6.7 0 0 .2.5.6 1.2 10.8 16.8 19 35 24.6 54-.8-.2-1.6-.5-2.4-.7l-2.6 10.4 6-6.1c-2 2.1-4 4.1-6 6.1l-2.6.5zm4.9 119.6c1.6-.1 3 .6 3.9 1.6-1.3-1-3.2-1.4-5-1 0-.1.1-.2.1-.3.3-.1.7-.2 1-.3zm-4.2 8.6c1.1 1.4 2.9 2.3 4.7 2.2-2.1.7-4.2 1.3-6.4 1.9.6-1.3 1.2-2.7 1.7-4.1z"/><path class="st1" d="M495 371.2c-.3.1-.7.2-1 .3 0 0 0-.1.1-.2.3-.1.6-.1.9-.1zm-1.4.4c.1 0 .3-.1.4-.1 0 .1-.1.2-.1.3h-.1l-.2-.2zm.3.2v.1l-.1-.1h.1zm-.1 0c-.4 1.5-.9 2.8-1.4 4.2l-2.3-.6c.6-2 2-3.2 3.7-3.6zm-3.9 3.6l2.4.6c-.5 1.3-1 2.6-1.5 3.8-1-1.2-1.4-2.8-.9-4.4z"/><path class="st1" d="M482.1 374.9c3.9-1.1 7.8-2.2 11.6-3.5.1 0 .2-.1.4-.1 0 .1 0 .1-.1.2-.1 0-.3.1-.4.1l.2.2c-1.6.4-3.1 1.6-3.8 3.6l2.3.6-2.4-.6c-.5 1.6-.1 3.2.9 4.4-.5 1.4-1.1 2.7-1.7 4.1-4.1 1.2-8.3 2.4-12.5 3.5 2-4.1 3.8-8.3 5.5-12.5z"/><path class="st1" d="M489.1 383.9c-3.2 7.6-7 14.9-11.1 22.1 10 32.5 7.7 57.2-6.5 71.4-8.6 8.6-20.8 12.6-35.7 12.6-12.1-.3-24.1-2.3-35.6-6.1-65 37.4-145 37.4-210.1.1-4.8-2.7-9.4-5.6-13.9-8.7 3.5-1.6 6.9-3.4 10.3-5.1 44.2 28.4 99.4 39.5 154.6 26.5.4-12 4.3-23.7 11.1-33.6-24.3-13.2-50.2-30.9-76.5-52.6.3-.3.7-.5 1-.8h14c23.1 18.2 46 33.4 67.3 44.9 21-24.3 55.6-38.5 68.8-43.2 8.7-3.1 15.8-9.1 20.6-17.2 4.3-.9 8.6-1.8 12.8-2.8-5.8 14.3-16 24.7-29.8 29.6-12.5 4.6-43.5 17.3-63.1 38.6 10.2 5.2 20.8 9.7 31.6 13.4 34.9-21 61.2-51.1 77.6-85.6 4.3-1.1 8.5-2.2 12.6-3.5zm-24.7 86.5c10.1-10.1 12.3-28.6 6.6-52.6-15.7 23.4-35.8 43.5-59.3 59 23.4 5.9 42 4.2 52.6-6.4h.1zM351 494.1c12.5-3.6 24.6-8.5 36.2-14.4-9-3.5-17.8-7.4-26.4-11.8-5.5 7.7-8.9 16.7-9.8 26.2zM476.9 89c4.4 4.3-1.8 10.9-6.4 7.7-.2-.3-.5-.6-.8-.8-4.3-4.3 1.6-10.8 6.1-7.9.4.3.8.7 1.1 1z"/><path class="st1" d="M482.1 374.9c-1.7 4.2-3.5 8.4-5.5 12.6-5.4 1.4-10.8 2.8-16.3 4 1.1-2.8 2.1-5.8 2.9-8.9.2-.9.4-1.9.6-2.9 6.1-1.5 12.2-3.1 18.3-4.8zM471.8 98.1c-.1-.1 0-.1 0 0zm-1.3-1.4c4.6 3.2 10.7-3.4 6.4-7.7l-1-1c.3.2.6.5.9.8 4.4 4.5 7.4 10.1 9 16.1 3.5 13.3 1.2 27.7-2.3 40.7-3.4 12.5-8.3 24.7-14 36.5-2.1-3.1-4.2-6.1-6.5-9 1.3-2.8 2.5-5.7 3.7-8.5 5.4-13.5 10.2-28 10.9-42.4.2-2.9.1-5.8-.2-8.7 0-.4 0-.7-.1-1.1 0 .8-.1-.1-.1-.2-.1-.6-.2-1.3-.4-2-.2-1.2-.5-2.3-.8-3.4-.2-.7-.4-1.4-.7-2.1-.1-.2-.4-.9-.4-1.1 0 0 0 .1.1.1-.4-1.1-.9-2-1.4-3-.3-.5-.7-1.1-1.1-1.7-.1-.1-.5-.7-.7-.9 0 0-.7-.8-.8-1-.1 0-.3-.2-.5-.4z"/><path class="st1" d="M471.8 98.1c0-.1-.1-.1 0 0zm-3.9-3.9zm1.6 87.9c-1.7 3.6-3.5 7.1-5.3 10.5-.1-.1-.1-.2-.2-.4l-.1.1c-1.9-3-3.9-5.9-6-8.8 1.8-3.5 3.4-7 5-10.5 2.4 3.1 4.6 6.1 6.6 9.1zm-5.7 197.5c-.2 1-.4 1.9-.6 2.9-.8 3.1-1.7 6.1-2.9 8.9-4.3 1-8.5 1.9-12.8 2.8 2.1-3.6 3.8-7.6 5.1-11.9 3.7-.9 7.5-1.7 11.2-2.7z"/><path class="st1" d="M464 192.4l.1-.1c0 .1.1.2.2.4-.9 1.7-1.8 3.5-2.8 5.2.6-1.5.4-2.9-.2-4l.2-.1h-.3c0-.1-.1-.1-.1-.2-.9-1.9-2.5-2.6-4.1-2.6-1.1-.1-2.3.1-3.2.9 1.5-2.7 2.9-5.4 4.2-8.2 2.1 2.8 4.1 5.7 6 8.7zm-2-101.6s.1 0 .1.1c0 0-.1 0-.1-.1zm0 .1c-.3-.2-.6-.3-.9-.4-1.3-.5-2.6-.9-4-1.2-4.9-1.2-10.2-1.4-15.9-.9-6.6.5-13.4 1.9-19.9 3.8-13.8 3.9-27.1 9.5-39.9 16-3.1-1.4-6.2-2.7-9.3-3.9-.9-.4-1.8-.7-2.6-1 9.5-5 19.1-9.6 29-13.7 14.7-5.9 30.4-10.8 46.3-11.3 11.1-.3 22.7 2.1 31.1 9.7-4.5-2.9-10.4 3.6-6.1 7.9l.8.8c-.3-.2-.5-.4-.8-.6-.5-.5-1.1-1-1.5-1.6-.2-.2-.4-.4-.7-.6.1.1.2.2.3.2-.1-.1-.3-.2-.4-.2-1.2-.7-2.3-1.5-3.5-2.1-.6-.3-1.1-.5-1.7-.8 0 0-.1 0-.1-.1h-.2zm.2 0c-.1 0-.1 0 0 0-.1 0 0 0 0 0z"/><path class="st1" d="M462.1 90.9c-.1 0-.1-.1-.1-.1 0 .1.1.1.1.1zm-.9 102.8l.1.1-7.8 4.2 7.3-4.3h.4z"/><path class="st1" d="M461.2 193.7h-.4l.3-.2c0 .1.1.1.1.2z"/><path class="st1" d="M461.1 193.5l-.3.2h-8c.2-.3.3-.6.5-.9 1-1.1 2.4-1.8 3.8-1.9 1.5.2 3.1 1.2 4 2.6z"/><path class="st1" d="M460.8 193.7l-7.3 4.3-1 .6c-1.1-2.2-.5-4.3.8-5.8-.2.3-.3.6-.5.9h8zm2.3-20.6c-1.6 3.5-3.3 7-5 10.5-22.4-31.1-52.6-54.6-86.7-68.6l.7-1.7v-.2c3.1-1.7 6.2-3.3 9.3-4.9 31.7 14.2 59.9 36.2 81.7 64.9zm-6.1 17.8c1.6-.1 3.1.7 4.1 2.6-.9-1.4-2.5-2.4-4.1-2.6zm-3.2.9c1-.8 2.1-1 3.2-.9-1.4.1-2.8.8-3.8 1.9.3-.3.4-.6.6-1zm-1.3 6.8l1-.6-1 .6z"/><path class="st1" d="M461.1 198.6c-1.8 3.2-7 3.3-8.7 0h.1l1-.6 7.8-4.2c.6 1.1.8 2.5.2 4-.1.3-.3.6-.4.8z"/><path class="st1" d="M461.2 198.5c-10.6 19.6-22.8 38.2-35.9 56.1-1.8 2.5-3.6 4.9-5.5 7.4-32.7 43.5-70 83.6-110.5 119.9-6.5 5.8-13 11.5-19.7 17.1-4 .1-8 .1-12 0l-1.8-1.5c33.2-27.1 64.1-57.2 92.7-88.9 31.7-35.3 61.2-73.4 84-115.2.4-.7.8-1.2 1.3-1.6-.2.3-.3.6-.5 1-1.3 1.4-1.9 3.6-.8 5.8h-.1c1.7 3.3 6.9 3.2 8.7 0 .1-.2.3-.5.4-.7l-.3.6z"/><path class="st1" d="M452.6 382.3c-1.2 4.4-3 8.3-5.1 11.9-9.7 2-19.5 3.7-29.3 5.2-42.1 6.7-84.8 10-127.4 10.3-2.4-1.9-4.7-3.8-7.1-5.7 2-1.6 4-3.3 5.9-5 18.4-.2 36.8-.9 55.2-2.1 36.1-2.4 72.3-6.8 107.8-14.6zm-71.2-274.1c-3.1 1.6-6.2 3.2-9.3 4.9v-8.8c3.2 1.2 6.3 2.5 9.3 3.9z"/><path class="st1" d="M372.1 113.3l-5.1-8.7c.8-.4 1.7-.9 2.5-1.3.9.3 1.8.7 2.6 1v9zm-94.4 285.8h12c-2 1.7-4 3.3-5.9 5-2.1-1.7-4.1-3.3-6.1-5z"/><path class="st1" d="M290.8 409.7h-14l6.9-5.7c2.3 2 4.7 3.9 7.1 5.7z"/><path class="st1" d="M283.7 404l-6.9 5.7h-2.1c-2.3-1.9-4.5-3.8-6.8-5.7 2-1.6 4.1-3.2 6.1-4.9h3.7c2 1.7 4 3.3 6 4.9zm-6-4.9H274c.6-.5 1.3-1 1.9-1.5.5.5 1.1 1 1.8 1.5zm-1 10.6c-.3.3-.7.5-1 .8-.3-.3-.7-.5-1-.8h2z"/><path class="st1" d="M274 399.1c-2 1.7-4.1 3.3-6.1 4.9-2-1.7-3.9-3.4-5.9-5.1 4 .1 8 .1 12 .2zm-6.1 4.9c2.3 1.9 4.5 3.8 6.8 5.7-4.6 0-9.2-.1-13.8-.2 2.3-1.8 4.6-3.7 7-5.5z"/><path class="st1" d="M262 398.9c2 1.7 3.9 3.4 5.9 5.1-2.3 1.8-4.6 3.7-7 5.5-5-.1-10-.3-15.1-.5-43.4-1.7-87.1-6.1-129.5-15.9-2.1-4.1-4-8.2-5.9-12.5 21.3 5.2 42.9 9 64.6 11.9 28.9 3.7 57.9 5.8 87 6.4zm-69.3 59.3c3.3 1.7 3.2 6.9 0 8.7v-8.7z"/><path class="st1" d="M187.8 458.2c21.9-12 42.8-25.9 62.8-40.9 3.4-2.6 6.9-5.2 10.3-7.8 4.6.1 9.2.2 13.8.2.3.3.7.6 1 .8-26.1 21.1-53.7 40.4-83 56.4 3.2-1.8 3.3-7 0-8.7l-4.9 8.7h-.1v-8.5c-.1.1-.2.1-.3.2.1-.2.2-.3.4-.4zm4.9 0l-4.9 8.7 4.9-8.7z"/><path class="st1" d="M192.7 466.9c-2.1 1.1-4.1 2.2-6.2 3.3-3.2-2-6.3-4.1-9.3-6.4 3.4-1.7 6.8-3.5 10.2-5.4-2.8 2-2.8 6.7.3 8.4v.2l.1-.1 4.9-8.7v8.7z"/><path class="st1" d="M187.7 458.3v8.5c-3.1-1.7-3.1-6.4-.3-8.4.1 0 .2 0 .3-.1zm-1.2 11.9c-3.4 1.8-6.8 3.5-10.3 5.1-3.2-2.1-6.2-4.3-9.2-6.6 3.4-1.5 6.8-3.2 10.2-4.9 3 2.2 6.1 4.3 9.3 6.4z"/><path class="st1" d="M116.3 393.1c14.7 28.5 35.7 52.5 60.8 70.7-3.4 1.7-6.8 3.3-10.2 4.9-27.9-21.2-49.2-48.4-63.3-78.7 4.3 1.1 8.5 2.1 12.7 3.1z"/><path class="st1" d="M92.2 477.5s0-.1 0 0c.3.2.8.5 1.3.8.9.6 1.8 1.1 2.8 1.6 1.6.7 1.3.6 2.7 1.1 1.1.4 2.3.7 3.5 1 5 1.3 10.3 1.5 16.1 1 6.6-.5 13.2-1.9 19.6-3.7 9.9-2.7 19.4-6.4 28.8-10.6 3 2.3 6.1 4.5 9.2 6.6-13.6 6.5-27.8 12.1-42.5 15.4-12.5 2.8-26.5 4.3-38.7-.4-10.7-4.2-18.3-12.8-21.2-23.9-3.5-13.3-1.2-27.7 2.3-40.7 3.6-13.4 8.9-26.3 15.1-38.8 1.1.3 2.3.7 3.4 1 .6.1 1.1.2 1.7.1 1.6.5 3.3.9 4.9 1.3-6.9 13.8-12.8 28.2-16.4 43.2-1.5 6.3-2.5 12.3-2.6 18.7-.1 5.7.3 9.8 2.2 15.2.5 1.5.2 1 1.1 2.7.5 1 1.1 1.9 1.7 2.9.2.2 1 1.4.9 1.2.2.3.5.7.8 1 .8.9 1.5 1.6 2.4 2.4.1.1.6.5.8.7l-.1-.1c.1.2.2.3.2.3zm18.3-96.9c1.8 4.2 3.8 8.4 5.9 12.5-4.2-1-8.4-2-12.6-3.1-.5-1-.9-2-1.4-3l3.9-7.5c1.3.5 2.8.8 4.2 1.1z"/><path class="st1" d="M116.4 208.7c-14.8 28.5-22.5 60.2-22.5 92.2v4c7.6-4.5 13.9-5.6 19.6-3.5 13.1 4.9 16.2 25 19.3 44.4 1.7 10.4 3.6 23.2 7 26.2s5.4 2.1 6.2 1.8c2.6-.9 15.9-9.7 21.3-73.9.1-.8.3-1.4.3-2.2-21-27.2-38.2-57.1-51.2-89zm-17 138.4c2.8 11.7 6.5 22.9 11.1 33.5-1.4-.4-2.8-.7-4.2-1.1.3-.6.6-1.2 1-1.8l-8.7-5.1c-.4.7-.8 1.4-1.2 2.2-13.6-36.3-17.1-76.2-9.4-115 2.7-.9 5.4-1.8 8.1-2.6l-2.8-10.3c-.8.3-1.7.5-2.5.8 4.6-17.8 11.7-35.2 21.2-51.9-9.5-31.4-7.8-57.1 6.5-71.4s39-16.5 71.4-6.5c16.3-9.4 33.7-16.6 51.9-21.4 43.3-11.3 87.8-8.3 127.8 6.8-.8.4-1.7.9-2.5 1.3l5.1 8.7-.7 1.7c-39.2-16.2-83.5-20-126.6-8.9-2.8 1.5-4.8 4.1-5.8 7.2-1.7 5.1-1.9 14.6 7.3 30.9 5.6 9.4 12.1 18.3 19.4 26.4 14.2 16.6 26.4 31 4.6 56.6-11.4 13.3-27.4 17.7-43.4 22.1-23.5 6.5-44 12.1-49 45.3 17.5 23.2 36.7 45.1 57.3 65.6 13.4 13.4 27 25.9 40.6 37.3-.6.5-1.2 1-1.9 1.5-4 0-8-.1-12-.2-11.2-9.8-22.4-20.2-33.5-31.3-18.5-18.3-35.8-37.8-52-58.2-3.3 31.6-10.5 67.2-26.7 74-1.7.7-3.5 1.1-5.4 1.1-4.2-.1-8.2-1.7-11.2-4.6-6.1-5.2-7.9-17.2-10.3-32.2s-5.3-33.8-12.9-36.6c-3.5-1.3-8.7.7-15.3 5.7v-.1l-.2.3c.1 0 .1-.1.2-.2.8 10.3 2.3 20.4 4.7 30.4zm163.3-126.4c16.2-19 9.7-26.7-4.6-43.6-7.7-8.6-14.5-18-20.4-28-8.6-15.3-11.3-28.1-8.2-38.3-44.5 15.5-82.1 45.9-106.6 86.2 8.6 25.4 24.8 55.5 47.1 86.6 8.5-31.4 32.7-38 54.4-44 14.9-4.1 28.9-7.9 38.3-18.9zm-84.6-95.6c-24-5.9-42.5-3.7-52.6 6.4-10.5 10.7-12.2 29.3-6.5 52.6 15.6-23.3 35.7-43.4 59.1-59z"/><path class="st1" d="M107.2 377.8c-.3.6-.6 1.2-1 1.8-2.6-.7-5.3-1.4-7.9-2.1-.3-.9-.7-1.8-1-2.6.4-.7.8-1.4 1.2-2.2l8.7 5.1z"/><path class="st1" d="M101.1 384.1c.3-.9.3-1.9 0-2.9l-.3.1.4-.4-1.3.4c-.5-1.3-1.1-2.6-1.6-3.9 2.6.7 5.3 1.4 7.9 2.1l-3.9 7.5c-.4-.9-.8-1.9-1.2-2.9zm2.6 5.9c-.8-.2-1.7-.4-2.5-.7.4-.8.8-1.5 1.2-2.3.4 1 .8 2 1.3 3z"/><path class="st1" d="M101.2 381l-.4.4-.8.2c0-.1-.1-.1-.1-.2l1.3-.4zm-.1.3c.3 1 .3 2 0 2.9l-.9-2.1c.2-.2.4-.5.7-.7l.2-.1z"/><path class="st1" d="M101.1 384.1c.4 1 .8 1.9 1.3 2.9-.4.8-.8 1.5-1.2 2.3-1.6-.4-3.3-.9-4.9-1.3 2.1-.2 4.1-1.8 4.8-3.9z"/><path class="st1" d="M101.1 384.1c-.7 2-2.6 3.7-4.8 3.9-.5-.1-1-.3-1.6-.4 1.9-1.9 3.6-3.7 5.5-5.6.3.8.6 1.5.9 2.1z"/><path class="st1" d="M100.8 381.4c-.2.2-.4.5-.7.7-.1-.1-.1-.3-.2-.5l.9-.2z"/><path class="st1" d="M100 381.6c.1.2.1.3.2.5-1.8 1.9-3.6 3.7-5.5 5.6.5.1 1.1.3 1.6.4-.5.1-1.1 0-1.7-.1-1.2-.3-2.3-.6-3.4-1 .6-1.2 1.2-2.4 1.8-3.5l7-1.9z"/><path class="st1" d="M100 381.6l-7.1 1.8s0-.1.1-.2l6.9-1.9c0 .1 0 .2.1.3zm-2.7-6.7c.3.9.7 1.8 1 2.6-.3-.1-.7-.2-1-.3-.3-.1-.6-.1-.9-.1-.1 0-.2 0-.2-.1.4-.7.8-1.4 1.1-2.1z"/><path class="st1" d="M97.3 377.3c-.3-.1-.6-.2-.9-.2.3 0 .6 0 .9.2.3 0 .7.1 1 .2.5 1.3 1 2.6 1.6 3.9l-6.9 1.9c.5-1.1 1.1-2.1 1.6-3.2.9-1 1.8-1.9 2.7-2.8z"/><path class="st1" d="M96.4 377.1c.3.1.6.2.9.2l-2.7 2.7c.5-1 1-2 1.6-3 .1 0 .1 0 .2.1z"/><path class="st1" d="M96.2 377c.1 0 .2.1.2.1-.1-.1-.1-.1-.2-.1zm-5.4 6.8c-1.1-3.4 2-6.8 5.4-6.8-.5 1-1 2-1.6 3-1.2 1.2-2.4 2.5-3.7 3.8h-.1zm2.4-136.9l2.8 10.3c-2.7.8-5.4 1.7-8.1 2.6.8-4 1.7-8.1 2.8-12.1.8-.3 1.7-.5 2.5-.8zm1.5 69.8v.1l-.2.2.2-.3z"/><path class="st1" d="M94.6 380c-.5 1.1-1.1 2.1-1.6 3.2l-2.1.6c1.3-1.3 2.5-2.5 3.7-3.8zm-2.5 97.4c.1 0 .1.1 0 0l-.1-.1.1.1z"/><path class="st1" d="M90.8 383.9l2.1-.5c-.6 1.2-1.2 2.4-1.8 3.5-20.4-5.9-40.8-13.2-58.8-24.4-11.4-7-23.2-16.3-28.9-28.8-5-11.1-4.4-23.2 1.6-33.8 7.1-12.7 19.6-21.9 31.9-29.2 16.7-10 35.1-17.1 53.7-23-1 4-2 8.1-2.8 12.1-17.2 5.8-34.1 12.7-49.5 22.5-5.8 3.6-10.9 7.5-15.8 12.3-4.3 4.2-7.1 7.6-9.6 13.1-.7 1.5-.5.9-1.1 2.8-.4 1.2-.6 2.3-.9 3.5 0 .2-.2 1.3-.2 1.5v-.3.3c0 .5-.1.9-.1 1.4-.1 1.2-.1 2.3 0 3.5.1.4.3 1.8.1 1.1.1.6.2 1.1.4 1.7.2 1.1.5 2.2.9 3.2.7 1.8.5 1.4 1.2 2.8.6 1.1 1.2 2.2 1.9 3.3 2.9 4.7 6.8 8.7 11.5 12.6 5.4 4.4 11.4 8.2 17.6 11.6 16.4 9 34 15.2 51.9 20.3v.1c-3.3-.1-6.5 3.3-5.4 6.8h.1c.1-.1 0 0 0 0zm-80-68.7z"/></g></svg>