<svg id="Layer_1" xmlns="http://www.w3.org/2000/svg" viewBox="0 0 590 590"><style>.st0{fill:#fff}</style><path class="st0" d="M471.8 185.4c-49.6-76.1-142.3-111.9-230.1-89-18.2 4.8-35.6 12-51.9 21.4-32.4-10-57.1-7.8-71.4 6.5-14.3 14.3-16 40-6.5 71.4-58 101.2-23 230.2 78.2 288.2 65.1 37.3 145.1 37.3 210.1-.1 11.5 3.8 23.5 5.8 35.6 6.1 14.9 0 27.1-4 35.7-12.6 14.2-14.2 16.5-38.9 6.5-71.4 18.5-31.9 28.2-68.2 28.2-105 0-40.3-11.5-79.7-33.2-113.6m-74 285.6c-10.8-3.7-21.4-8.2-31.6-13.4 19.6-21.3 50.6-34 63.1-38.6 16.5-5.9 28-19.6 32.7-38.5 6.1-25.1-1.5-55.3-18.4-73.4-11.1-12-16-22.5-15-32.4 1.2-11 9.8-22 26.4-33.6 10.4-6.5 17.8-16.8 20.4-28.8 44.5 93.3 11 205.2-77.6 258.7zm65.1-280.7c2.4 5.2 10 25.9-13.8 42.5-19.2 13.4-29.2 26.7-30.7 40.8-1.4 13 4.4 26.2 17.6 40.4 15.2 17.6 21.1 41.3 16 64-3.8 15.5-13.1 26.7-26.3 31.4s-47.8 18.9-68.8 43.2c-38.5-20.8-82-53.4-122.9-94.4-20.6-20.5-39.8-42.4-57.3-65.6 5-33.2 25.5-38.8 49-45.3 16-4.4 32-8.8 43.4-22.1 21.8-25.6 9.6-40-4.6-56.6-7.3-8.1-13.8-17-19.4-26.4-9.2-16.3-9-25.8-7.3-30.9 1-3.1 3-5.7 5.8-7.2 84-21.5 172.5 13.2 219.3 86.2zm-234.6-81.5c-3.1 10.2-.4 23 8.2 38.3 5.9 10 12.7 19.4 20.4 28 14.3 16.9 20.8 24.6 4.6 43.6-9.4 11-23.4 14.8-38.3 18.9-21.7 6-45.9 12.6-54.4 44-22.3-31.1-38.5-61.2-47.1-86.6 24.5-40.3 62.1-70.7 106.6-86.2zm-104 20.7c10.1-10.1 28.6-12.3 52.6-6.4-23.4 15.6-43.5 35.7-59.1 59-5.7-23.3-4-41.9 6.5-52.6zm-9.1 77.2c13 31.9 30.2 61.8 51.2 89 0 .8-.2 1.4-.3 2.2-5.4 64.2-18.7 73-21.3 73.9-.8.3-2.8 1.2-6.2-1.8s-5.3-15.8-7-26.2c-3.1-19.4-6.2-39.5-19.3-44.4-5.7-2.1-12-1-19.6 3.5v-4c0-32 7.7-63.7 22.5-92.2zM94.5 316.9c6.7-5.2 12-7.2 15.5-5.9 7.6 2.8 10.5 21.6 12.9 36.6s4.2 27 10.3 32.2c3 2.9 7 4.5 11.2 4.6 1.9 0 3.7-.4 5.4-1.1 16.2-6.8 23.4-42.4 26.7-74 16.2 20.4 33.5 39.9 52 58.2 41.8 41.8 84.9 74.4 123.7 95.5-6.8 9.9-10.7 21.6-11.1 33.6C233.1 522 124.9 455.1 99.4 347c-2.4-10-3.9-20.2-4.7-30.4l-.2.3zM351 494c.9-9.5 4.3-18.5 9.8-26.2 8.6 4.4 17.4 8.3 26.4 11.8-11.6 5.9-23.7 10.8-36.2 14.4zm113.3-23.7c-10.6 10.6-29.2 12.3-52.6 6.4 23.5-15.5 43.6-35.6 59.3-59 5.7 24 3.5 42.5-6.7 52.6zm-271.6-3.5c42.2-23 80.8-52.9 116.6-85 40.5-36.3 77.8-76.4 110.5-119.9 15.2-20.2 29.3-41.2 41.4-63.5 3.1-5.7-5.6-10.8-8.7-5.1-22.8 41.8-52.3 79.9-84 115.2-35.7 39.7-75.1 76.7-117.9 108.7-20 15-40.9 28.9-62.8 40.9m-.1.1c-15.8 8.6-32.2 16.2-49.5 21-6.4 1.8-13 3.2-19.6 3.7-5.8.5-11.1.3-16.1-1-1.2-.3-2.4-.6-3.5-1-1.4-.5-1.1-.4-2.7-1.1-1-.5-1.9-1-2.8-1.6-.5-.3-1-.7-1.5-1 .8.6-.5-.4-.7-.6-.9-.8-1.6-1.5-2.4-2.4-.4-.4-.7-.8-1-1.2.6.8-.5-.8-.7-1-.6-1-1.2-1.9-1.7-2.9-.9-1.7-.6-1.2-1.1-2.7-1.9-5.4-2.3-9.5-2.2-15.2.1-6.4 1.1-12.4 2.6-18.7 4.6-19.3 7-25.9 16.4-43.2l-9.9-2.7c-9.1 16.8-10.2 20.6-15.2 39.1-3.5 13-5.8 27.4-2.3 40.7 2.9 11.1 10.5 19.7 21.2 23.9 12.2 4.7 26.2 3.2 38.7.4 20.7-4.6 40.4-13.8 59-23.8m268.4-268.4c9.1-16.8 17.4-34.5 22.4-53 3.5-13 5.8-27.4 2.3-40.7-1.6-6-4.6-11.6-9-16.1-4.5-4.6-11.6 2.5-7 7.1.4.4.8.9 1.2 1.3.2.2 1 1.2.8.9s.5.8.7 1c.4.6.8 1.2 1.1 1.7.6 1 1.1 2 1.5 3.1-.4-.9.2.5.3.8.3.7.5 1.4.7 2.1.3 1.1.6 2.2.8 3.4.2.7.3 1.4.4 2 0 .1.1 1 .1.2.1.4.1.7.1 1.1.3 2.9.4 5.8.2 8.7-.7 14.4-5.5 28.9-10.9 42.4-4.1 10-9.3 19.5-14.4 29m-70.9-85.4c15.7-8.5 22.7-11.2 39.9-16 6.5-1.9 13.3-3.3 19.9-3.8 5.7-.5 11-.3 15.9.9 1.4.3 2.7.7 4 1.2.3.1.6.2.9.4.6.2-.6-.3.3.1.6.3 1.1.5 1.7.8 1.2.6 2.3 1.4 3.5 2.1.2.1.8.6.1 0 .3.2.5.4.7.6.4.6 1 1.1 1.5 1.6 4.6 4.5 11.7-2.6 7.1-7.1-8.5-8.4-20.5-11-32.1-10.7-15.9.5-31.6 5.4-46.3 11.3-10.8 4.4-18.7 8.2-29 13.7M94.7 387.5c49 13.7 100.3 19.4 151.1 21.4 57.5 2.3 115.5-.6 172.4-9.6 26.5-4.1 32.9-4.1 58.5-12.1 8.8-2.5 12-14.4 5.4-12.4-48.2 15-87.1 18.6-137.3 22-56.5 3.8-113.6 2.9-169.7-4.4-26.2-3.4-52.3-8.2-77.8-15.3m0 0C79 372 61 365.8 44.3 356.6c-6.2-3.4-12.2-7.2-17.6-11.6-4.7-3.9-8.6-7.9-11.5-12.6-.7-1.1-1.3-2.2-1.9-3.3-.7-1.4-.5-1-1.2-2.8-.4-1-.7-2.1-.9-3.2-.2-.6-.3-1.2-.4-1.8.2 1 0-.6-.1-1-.1-1.2-.1-2.3 0-3.5 0-.6.1-1.1.1-1.7-.1 1 .2-.9.2-1.2.3-1.2.5-2.3.9-3.5.6-1.9.4-1.3 1.1-2.8 2.5-5.5 5.3-8.9 9.6-13.1 4.9-4.8 10-8.7 15.8-12.3 17.8-11.3 29.5-16.2 49.5-22.5l2.8-12.1c-19.4 6.1-36.2 12.6-53.7 23-12.3 7.3-24.8 16.5-31.9 29.2-6 10.6-6.6 22.7-1.6 33.8 5.7 12.5 17.5 21.8 28.9 28.8 19 11.8 40.8 19 62.3 25.1m394.4-3.7l5-12.7c10.9-3.4 21.2-6.9 31.7-11.5 14.1-6.2 28.5-13.6 39.7-24.1 2.2-2.1 4.4-4.4 6.3-6.8.3-.3.5-.6.7-.9-.5.6 0-.1.1-.2l1.2-1.8c.7-1.1 1.3-2.1 1.9-3.2.3-.7.7-1.4 1-2.1.2-.3.8-1.7.4-.8.4-1.1.8-2.2 1.1-3.4.2-.7.4-1.4.5-2.1.1-.6.1-.6.2-1.3.1-.6 0-.3.1-1.1s.1-3.2.1-3.2l10.7 1c0 1-1.9 13.2-5.2 19-7.1 12.7-19.6 21.9-31.9 29.2-17.4 10.5-44 20.3-63.6 26m11.8-130.3c18.1 5.1 27.9 8.9 44.5 18 6.3 3.4 12.5 7.3 17.9 11.8 4.7 3.9 8.5 7.9 11.4 12.4.8 1.2 1.5 2.5 2.1 3.8.2.3.3.6.5.9.3.6-.3-.5.1.3.2.6.5 1.2.7 1.8.4 1.5.9 4.2.9 4.2v.2l.1.8.1 1 10.7 1c-.2-12.6-7.3-23.5-16.3-31.8-12.4-11.4-27.9-19.2-43.4-25.5-11.4-4.6-20.7-7.8-32.5-11.1"/></svg>