<svg id="Layer_1" xmlns="http://www.w3.org/2000/svg" viewBox="0 0 590 590"><style>.st0{fill:#fb8c00}.st1{fill:#fff}</style><g id="XMLID_1_"><path class="st0" d="M495.2 278.4c3.5 32.3-.7 63.5-12.1 93.8-.6 1.6-1.4 2.5-3.1 2.9-4.6 1.2-9.2 2.7-13.8 4-.6.2-1.2.2-2.1.4.3-2.2.6-4.2.8-6.2 1.6-14.3-.4-28.2-5.7-41.6-3.4-8.7-8.2-16.6-14.6-23.5-3.7-4-7.1-8.3-9.8-13-2.7-4.8-4.6-9.9-4.9-15.4-.2-5 1.1-9.6 3.5-14 2.2-4.1 5.2-7.7 8.4-11.1 4.6-4.6 9.6-8.7 15-12.3 9.8-6.5 16.5-15.3 19.6-26.8.1-.3.2-.5.3-.7 0-.1.1-.1.5-.4 1.4 3.1 2.8 6.1 4 9.1 7.2 17.6 11.9 35.8 14 54.8zm-18.7 108.7c-.3.9-.5 1.5-.8 2.1-17.1 34.5-42 61.9-74.8 82.3-1 .6-1.8 1-3.1.6-9.9-3.5-19.6-7.7-29.1-12.3-.3-.1-.6-.3-1-.6.7-.7 1.3-1.4 2-2.1 9-9 19.3-16.2 30.4-22.4 9.6-5.4 19.6-10 30-13.8 13.6-4.9 23.1-14.1 29.1-27 .7-1.7 1.7-2.5 3.4-2.9 4.6-1.1 9.1-2.5 13.9-3.9zm-89.4 92.3c-11.5 5.8-23.2 10.6-35.8 14.2.9-9.7 4.2-18.2 9.6-25.9 8.8 3.9 17.4 7.7 26.2 11.7zM169.4 281.9c-16.8-23.7-31.8-48.4-42.6-75.5-1-2.6-1.9-5.2-3-7.8-.6-1.5-.3-2.6.2-3.8 9.7-15.4 21.1-29.4 34.5-41.7 20-18.5 42.8-32.4 68.4-41.7.7-.3 1.5-.5 2.1-.7-.2 3.3-.6 6.6-.6 9.8.1 6.3 1.9 12.2 4.3 17.9 4.2 10.1 10.3 19.2 16.9 27.8 3.8 5 8.1 9.7 12 14.6 2.8 3.5 5.5 7.2 7.9 10.9 2 3.1 3 6.6 2.8 10.3-.1 3-1 5.8-2.5 8.4-4.6 8.3-10.8 15.2-19.4 19.7-6.5 3.4-13.4 5.5-20.4 7.6-7.9 2.3-15.8 4.7-23.6 7.2-3 1-5.9 2.4-8.8 3.8-13.3 6.6-22 17.2-26.5 31.3-.2.8-.5 1.5-.7 2.3 0 .1-.1.1-.3.3-.2-.2-.5-.4-.7-.7zm-2.7 13.5c.9 1.3 1.2 2.5 1 4-.7 5.4-1.1 10.8-1.8 16.2-1.7 13.3-3.8 26.5-8.2 39.3-1.3 3.9-3.1 7.6-4.9 11.2-.9 1.9-2.3 3.7-3.8 5.2-3.3 3.4-7.4 2.9-9.9-1.1-.7-1.2-1.4-2.5-1.7-3.9-1.2-4.7-2.3-9.4-3.2-14.2-1.9-9.5-3.4-19.1-5.4-28.5-.7-3.7-2.3-7.3-3.8-11-.7-1.9-1.9-3.7-3.1-5.4-4.9-6.7-12-9-19.9-6.5-2.5.8-5 2-7.8 3.2-.5-33.7 7-65.4 22.4-95.6.5 1 .9 1.7 1.2 2.4 12.7 30.4 29 58.6 48.9 84.7z"/><path class="st1" d="M444.8 237.9c3.2-2.4 6.5-4.6 9.6-7.2 9.5-8.1 14.2-18.1 12.1-30.8-.4-2.2-.8-4.4-2.1-6.6l.1-.1c1.4 2.2 1.8 4.5 2.2 6.8 2.1 12.7-2.6 22.7-12.1 30.8-3.1 2.7-6.5 4.9-9.6 7.3-6.4 5-12.4 10.4-17.2 17l-.2-.2c4.8-6.6 10.8-12.1 17.2-17zm-17.7 172.8c.4-.1.7-.2 1-.4-.4.2-.8.3-1.2.5-12.6 4.5-24.8 10.2-36.4 17.1 11.6-7 23.8-12.6 36.6-17.2z"/><path class="st1" d="M427.8 255.1c4.8-6.6 10.8-12 17.2-17 3.1-2.4 6.5-4.6 9.6-7.3 9.5-8.1 14.2-18.1 12.1-30.8-.4-2.3-.8-4.6-2.2-6.8 0 0 0 .1-.1.1 0-.1-.1-.1-.1-.2-.5.8-.8 1.3-1.1 1.9-10.9 20.5-23.5 40-37.3 58.7-.4.6-.8 1.1-1.2 1.7-17 23.1-35.2 45.1-54.6 66.3-22 24-45.4 46.7-69.9 68.1l-9 7.8c.1.3.1.5.2.7h2.3c1.1 0 2.2-.1 3.3-.1l9.9-.3h.1c4.4-.1 8.9-.2 13.4-.2 7.7-.3 15.3-.7 23-1.1l8.1-.6c5.3-.4 10.7-.9 16-1.3 4.6-.4 9.2-.6 13.8-1.1 5.4-.5 10.8-1.2 16.2-1.8 6.6-.8 13.3-1.5 19.9-2.6 10.8-1.9 21.5-4.2 32.2-6.1 2.3-.4 3.2-1.5 3.7-3.8 1.7-8.5 2.1-17 1-25.5-.4-3.4-1.1-6.7-2-9.9-.1-.4-.2-.9-.4-1.3-3-10.5-8.4-20-16-28.5-5.1-5.7-9.6-11.8-12.8-18.8-.6-1.3-1.1-2.7-1.6-4-.1-.2-.2-.5-.2-.8-1.9-6-2.5-12.2-1.1-18.7 1.1-5.6 3.5-10.6 6.7-15.3.2-.4.5-.9.9-1.4l-.3-.1s0-.1.1-.1l.2.2zm159 40.1c2 4.4 2.8 8.8 2.8 13.3 0 2.5-.2 5-.7 7.5-1.8 9.6-6.5 17.4-13.2 24.3-5.1 5.2-10.8 9.5-16.8 13.5-12.2 8-25.3 14-38.8 19.1-9.5 3.6-19.1 6.7-28.8 9.9-1.4.5-2.2 1.2-2.9 2.5-3 6.2-6.1 12.3-9.2 18.4-.6 1.2-.9 2.2-.5 3.6 2.4 8.1 4.3 16.2 5.1 24.6.8 8.2.8 16.5-1.2 24.6-4.3 17.5-15.4 27.9-32.8 31.7-7.8 1.7-15.6 1.6-23.4.8-8.4-.9-16.6-2.5-24.6-5.1-1.4-.4-2.3.1-3.3.7-13.8 7.8-28.2 13.9-43.4 18.3-14.2 4.2-28.7 6.9-43.5 8-5.6.4-11.1.6-16.7.6-7.8 0-15.6-.4-23.3-1.3-33.3-3.9-64-14.9-92.1-33.2-3.8-2.5-2.3-2.4-6.4-.5-12.8 5.9-25.9 10.9-39.7 13.9-5.8 1.3-11.6 2.2-17.5 2.5-6 .3-11.9-.2-17.6-1.9-14.2-4.4-22.4-14.2-25.1-28.7-1.7-8.9-1.2-17.7.8-26.4 2-9 4.5-18 7.1-26.9 2.1-7.2 5.6-13.7 9.1-20.3.4-.8.8-1.5 1.2-2.4-5.5-1.7-10.9-3.3-16.2-5.1-13.5-4.4-26.6-9.7-38.9-16.9-8.2-4.8-16-10-22.6-16.8-3.5-3.6-6.6-7.6-9-12.1-3-5.8-4.5-11.7-4.5-17.5 0-5.9 1.5-11.8 4.7-17.7 4.3-8.1 10.5-14.5 17.6-20 10.7-8.4 22.6-14.8 34.9-20.5 10-4.6 20.2-8.3 30.7-11.5 1.9-.6 2.9-1.5 3.5-3.6 4.5-16.5 10.9-32.2 19.3-47.1.9-1.5 1-2.8.5-4.5-3.6-12.3-5.8-24.8-5.2-37.6.2-5.1 1.1-10.2 2.6-15.1 4.7-14.1 14.4-23 28.6-26.9 8-2.2 16.1-2.4 24.3-1.8 9 .7 17.7 2.6 26.3 5.2 1.5.5 2.7.2 4-.5 17.2-9.7 35.5-16.9 54.7-21.5 19.3-4.6 39-6.4 58.8-5.4 21.4 1 42.2 5.2 62.2 12.7 1.4.5 2.5.4 3.8-.3 14.4-7.7 29.3-14.3 45-19 7.8-2.3 15.8-4.2 23.9-4.7.5 0 .9-.2 1.4-.4h9.6c2 .3 3.9.6 5.9 1 7.2 1.3 13.8 4.1 19.2 9.2 4.8 4.5 7.8 10.1 9.5 16.4 2.1 7.8 2.2 15.7 1.2 23.6-2.3 17.4-8.2 33.6-15.4 49.5-.6 1.2-1.1 2.5-1.7 3.7-.1.2-.1.3-.2.6.2.4.5.9.8 1.3 11.5 17.4 20.5 36 26.5 55.9.4 1.5 1.2 2.2 2.6 2.6 17.1 4.9 33.7 11.1 49.5 19.3 8.9 4.6 17.2 10.1 24.6 17 5.4 5 9.9 10.7 12.9 17.4zm-9.8 24.9c3.1-7.2 3.3-14.4-.3-21.5-1.7-3.4-3.9-6.4-6.5-9.2-4.1-4.5-8.8-8.4-13.9-11.7-16.7-10.8-34.6-18.9-53.8-24.1-.3-.1-.7-.1-1.3-.1 4.4 19.6 6.1 39.2 4.9 59-1.1 19.8-5 39.1-11.7 58.1.6 0 .8 0 1-.1 15.9-4.9 31.4-10.8 46.2-18.6 8.1-4.3 15.9-9.2 22.8-15.4 5.2-4.7 9.8-9.9 12.6-16.4zm-93.9 52.1c11.4-30.3 15.6-61.5 12.1-93.8-2.1-19-6.8-37.2-14-54.8-1.2-3-2.6-6-4-9.1-.4.3-.5.3-.5.4-.1.2-.2.4-.3.7-3.1 11.5-9.8 20.3-19.6 26.8-5.4 3.6-10.4 7.7-15 12.3-3.2 3.4-6.2 7-8.4 11.1-2.4 4.4-3.7 9-3.5 14 .3 5.5 2.2 10.6 4.9 15.4 2.7 4.7 6.1 9 9.8 13 6.4 6.9 11.2 14.8 14.6 23.5 5.3 13.4 7.3 27.3 5.7 41.6-.2 2-.5 4-.8 6.2.9-.2 1.5-.2 2.1-.4 4.6-1.3 9.2-2.8 13.8-4 1.7-.4 2.5-1.3 3.1-2.9zm-5.3-246.7c.7-6.4.5-12.8-1.3-19-1.5-5.3-4.4-9.8-8.8-13.1-3.8-2.8-8.2-4.3-12.8-5.1-7.4-1.1-14.7-.7-21.8.8-17.2 3.5-33.8 8.9-49.2 17.5-.6.3-1.1.7-1.9 1.2 32.6 14.9 59.6 36.4 81.3 64.6.3-.5.5-.7.7-1 6.6-14.7 12.1-29.8 13.8-45.9zm-2.1 263.7c.3-.6.5-1.2.8-2.1-4.8 1.4-9.3 2.8-13.9 3.9-1.7.4-2.7 1.2-3.4 2.9-6 12.9-15.5 22.1-29.1 27-10.4 3.8-20.4 8.4-30 13.8-11.1 6.2-21.4 13.4-30.4 22.4-.7.7-1.3 1.4-2 2.1.4.3.7.5 1 .6 9.5 4.6 19.2 8.8 29.1 12.3 1.3.4 2.1 0 3.1-.6 32.8-20.4 57.7-47.8 74.8-82.3zm-2.6 64.3c1.6-7.2 1.6-14.4.7-21.7-.6-4.6-1.4-9.1-2.2-13.6-.2-.1-.5-.1-.7-.2-1.1 1.6-2.3 3.2-3.4 4.8l-3.6 4.8c-1.2 1.5-2.3 3-3.5 4.5-1.2 1.6-2.5 3.1-3.8 4.6l-3.9 4.5c-1.3 1.5-2.7 3-4.1 4.4-1.3 1.4-2.7 2.8-4 4.1-1.4 1.4-2.9 2.8-4.3 4.2-1.5 1.4-2.9 2.7-4.4 4l-4.5 3.9c-1.5 1.3-3.1 2.5-4.6 3.8-1.5 1.2-3 2.4-4.6 3.5-1.6 1.2-3.3 2.3-4.8 3.5-1.7 1.4-3.5 2.2-5 4 4.3.8 8.3 1.7 12.3 2.2 7.6 1.1 15.3 1.4 22.9-.2 13.8-2.9 22.5-11.1 25.5-25.1zm-15.8-270.4c0-.9-.3-1.6-1-2.5-8.3-11.1-17.7-21.3-28.1-30.5-19.2-17-40.9-29.8-65-38.5-13.5-4.8-27.3-8.4-41.5-10.1-6.3-.8-12.7-1.5-19-1.8-6.3-.2-12.6 0-18.9.4-5.2.3-10.5.9-15.7 1.4-6.8.7-13.5 2.3-20.2 3.7-4.8 1-7.2 4-8.6 8.3-.4 1.4-.7 2.8-.8 4.2v2c.1 1.8.3 3.6.7 5.3 1.6 7.9 5.1 14.9 9.3 21.7 5.7 9.2 12.5 17.7 19.7 25.9 4.2 4.9 8.3 9.9 11.2 15.8 1.8 3.5 3 7.2 3.2 11.1v2.6c-.2 5.2-2 9.9-4.6 14.5-7 12.3-17.2 20.9-30.4 26-8.1 3.1-16.5 5.3-24.9 7.7-7.2 2.1-14.4 4.2-21.1 7.7-5.9 3.2-10.8 7.3-14.5 12.5-.3.5-.7 1-1 1.4-1.3 2-2.5 4.1-3.4 6.4-2 4.7-3.3 9.5-4.1 14.5-.1.6.2 1.5.6 2.3.3.7.9 1.3 1.4 1.9 25.5 33.6 54.4 63.9 86 91.8 3 2.7 6.2 5.3 9.4 8.1.8-.6 1.4-1 1.9-1.5 14.1-11.6 27.8-23.6 41-36.2 24-22.8 46.7-46.8 68-72.1 26.6-31.6 50.5-65 69.7-101.7.4-.8.6-1.4.7-2.1v-.2zm-15.6 218.2c1.8-1.9 3.5-3.9 5-6.5-6.6 1-12.8 1.8-18.9 2.8-4.6.7-9.3 1.5-13.9 2.2-5 .7-9.9 1.4-14.9 2-4.3.6-8.5 1.1-12.8 1.6-3.8.5-7.6.9-11.4 1.3-3.9.4-7.8.7-11.7 1.1-4.8.4-9.5.9-14.3 1.3-3.7.3-7.3.4-11 .6-3.1.2-6.2.3-9.3.5-3.9.3-7.6.5-11.4.7-1.4.1-2.8.1-4.2.2h-.3c-5 .2-10.1.2-15.1.4-1.2 0-2.3.1-3.5.1h-.4c-.4 0-.8.1-1.4.2.9.8 1.6 1.4 2.3 1.9 8.7 6.4 17.4 12.9 26.1 19.1 11.4 7.9 23.3 15.2 35.5 21.9 1.3.7 1.7.9 2.2.7.4-.1.7-.4 1.4-1.2 8.1-8.8 17.4-16 27.5-22.3 1.1-.7 2.2-1.4 3.3-2 11.6-6.9 23.8-12.5 36.4-17.1.4-.2.8-.3 1.2-.5.1 0 .2-.1.3-.1 5.1-2 9.5-5 13.3-8.9zm-90.4 92.3c12.6-3.6 24.3-8.4 35.8-14.2-8.8-4-17.4-7.8-26.2-11.7-5.4 7.7-8.7 16.2-9.6 25.9zm-10.2 2.4c.6-12.1 4.3-23.2 11-33.3-13.7-7.5-26.7-15.6-39.2-24.4-12.6-8.8-24.8-18.1-36.8-27.9l-.1.1-.1-.1c-27.8 22.3-56.9 42.6-88.7 59.3 28.7 18.2 59.6 28.5 93 31.1 1.3.1 2.7.2 4 .3 17.2 1.1 34.1-.2 51-3.8h.3c1.8-.4 3.7-.9 5.6-1.3zm-68.8-294c.2-3.7-.8-7.2-2.8-10.3-2.4-3.7-5.1-7.4-7.9-10.9-3.9-4.9-8.2-9.6-12-14.6-6.6-8.6-12.7-17.7-16.9-27.8-2.4-5.7-4.2-11.6-4.3-17.9 0-3.2.4-6.5.6-9.8-.6.2-1.4.4-2.1.7-25.6 9.3-48.4 23.2-68.4 41.7-13.4 12.3-24.8 26.3-34.5 41.7-.5 1.2-.8 2.3-.2 3.8 1.1 2.6 2 5.2 3 7.8 10.8 27.1 25.8 51.8 42.6 75.5.2.3.5.5.7.7.2-.2.3-.2.3-.3.2-.8.5-1.5.7-2.3 4.5-14.1 13.2-24.7 26.5-31.3 2.9-1.4 5.8-2.8 8.8-3.8 7.8-2.5 15.7-4.9 23.6-7.2 7-2.1 13.9-4.2 20.4-7.6 8.6-4.5 14.8-11.4 19.4-19.7 1.5-2.6 2.4-5.4 2.5-8.4zm-11.6 196.3c.2 0 .5 0 .9-.1-15.5-13.6-30.1-27.6-44.1-42.2s-27.3-30-40.2-46.1v.1l-.1-.1c-.3 1-.5 1.5-.6 2.1-.5 3.9-.9 7.8-1.5 11.6-1.3 9.7-3.1 19.2-5.8 28.6-2.1 7.2-4.5 14.3-8.6 20.8-2.1 3.3-4.5 6.3-7.7 8.5-2.2 1.5-4.6 2.6-7.3 2.7h-.5c-1.4 0-2.7-.2-3.9-.4-5.4-1.1-9.4-4.4-12-9.8-1.6-3.2-2.7-6.7-3.3-10.2-1.8-9.1-3.3-18.3-4.9-27.4-1.1-6.1-2.4-12.2-4.8-18-.9-2.2-2-4.3-3.8-6-1.2-1.1-2.5-1.8-4-1.9h-1.2c-.3 0-.5 0-.8.1-3.6.6-6.5 2.5-9.5 4.4-1.4.9-1.8 1.9-1.7 3.6.7 7.7 1.8 15.4 3.4 23 2.6 12.5 6.4 24.6 11.2 36.4.4.7.8 1.4 1.4 1.9.1.1.2.2.4.3.1.1.3.1.4.2.2.1.3.1.5.1 2.1.5 4.2.9 6.2 1.4 5.2 1.2 10.4 2.3 15.6 3.3 1 .2 2.1.4 3.1.6h.2c.7.1 1.4.3 2.2.4.3 0 .5.1.8.1 6.1 1.1 12.1 2.2 18.2 3.1 5 .8 10.1 1.4 15.1 2.1.4 0 .7.1 1.1.1 2.8.4 5.5.7 8.3 1h.3c1 .1 2.1.3 3.1.4 4 .5 7.9.9 11.9 1.3.5 0 1 .1 1.5.1 3.4.3 6.9.6 10.3.9.2 0 .4 0 .6.1 5.6.4 11.3.9 16.9 1.3 5.3.4 10.7.7 16 .9h.1c5.4.2 10.6.4 16 .5.3.2.4.2.6.2zm-.4 11.6c-.2-.2-.3-.4-.5-.6h-.1c-9.6-.4-19-.6-28.6-1.1h-.6c-6.9-.4-13.9-.9-20.8-1.5-1.4-.1-2.8-.2-4.2-.4-1-.1-1.9-.2-2.9-.3-8.2-.8-16.5-1.6-24.8-2.6-1.2-.1-2.3-.3-3.5-.4-.4 0-.8-.1-1.2-.2-6.7-.9-13.4-1.9-20-3-.4-.1-.8-.1-1.1-.2-2-.3-3.9-.7-5.9-1-9.4-1.6-18.7-3.5-28.4-5.3h-.1c.4 1 .7 1.7 1.1 2.4 4 6.5 7.7 13.2 12 19.4 12.4 18 27.5 33.4 45 46.5.6.5 1.2.8 1.7.8.3.1.6.1.9 0 .5-.1 1-.3 1.5-.6 4.4-2.5 8.9-4.7 13.3-7.2 23.2-13 45-28.1 66-44.3.3-.1.7-.2 1.2-.4zm-92.6-110.5c.2-1.5-.1-2.7-1-4-19.9-26.1-36.2-54.3-48.9-84.7-.3-.7-.7-1.4-1.2-2.4-15.4 30.2-22.9 61.9-22.4 95.6 2.8-1.2 5.3-2.4 7.8-3.2 7.9-2.5 15-.2 19.9 6.5 1.2 1.7 2.4 3.5 3.1 5.4 1.5 3.7 3.1 7.3 3.8 11 2 9.4 3.5 19 5.4 28.5.9 4.8 2 9.5 3.2 14.2.3 1.4 1 2.7 1.7 3.9 2.5 4 6.6 4.5 9.9 1.1 1.5-1.5 2.9-3.3 3.8-5.2 1.8-3.6 3.6-7.3 4.9-11.2 4.4-12.8 6.5-26 8.2-39.3.7-5.4 1.1-10.8 1.8-16.2zm-1.9 169.5c.3-.1.7-.4 1.2-.7-.7-.6-1.3-1.2-1.9-1.6-25.9-20.4-46-45.4-60.2-75.1-.7-1.4-1.5-2.4-3.6-2.3-1.3 2.4-2.6 4.9-3.9 7.3-8.2 16.1-12.9 33.3-14.8 51.3-.6 6.2-.1 12.3 2 18.2 1.8 5 4.8 9 9.2 11.9 4.3 2.8 9.1 3.9 14 4.6 6.8.9 13.6.1 20.3-1.2 13.1-2.5 25.5-7 37.7-12.4zm-19.9-317.7c9.8-9.8 20.5-18.5 32.4-26.6-6.7-1.7-12.7-2.7-18.9-3.1-6.2-.4-12.5-.2-18.6 1.4-9.8 2.5-17.1 7.9-21.2 17.4-1.7 4-2.6 8.2-3.2 12.5-.9 7.6-.1 15.2 1.1 22.7.4 2.5 1 4.9 1.5 7.4.2 0 .3.1.5.1 7.9-11.3 16.6-22 26.4-31.8zM94.7 375.9c1.1.3 2.2.6 3.9 1-14.6-38.3-18.1-77.2-10.6-117-.4-.1-.6-.2-.7-.1l-1.2.3c-17.7 5.3-34.3 13-49.8 23.2-5.5 3.6-10.5 7.8-15.1 12.5-3.3 3.4-6.1 7.2-8 11.6-3.3 7.3-3.2 14.7.6 21.9 2.8 5.2 6.5 9.6 11 13.5 7.1 6.2 15.1 11 23.4 15.4 14.8 7.7 30.5 13.2 46.5 17.7z"/><path class="st1" d="M426.8 256.5c-3.2 4.7-5.6 9.7-6.7 15.3-1.3 6.5-.8 12.7 1.1 18.7-2-6.1-2.6-12.4-1.2-19 1.2-5.6 3.5-10.6 6.7-15.3.3-.4.5-.8.8-1.2l.2.1c-.3.5-.6 1-.9 1.4zM351.5 396l-8.1.6c-7.7.4-15.3.8-23 1.1-4.5 0-8.9.1-13.4.2 4.4-.1 8.8-.3 13.3-.5 7.7-.3 15.3-.7 23-1.1 2.7-.1 5.4-.3 8.1-.6 5.3-.4 10.7-.9 16-1.3 4.6-.4 9.2-.6 13.8-1.1 5.4-.5 10.8-1.1 16.2-1.8 6.6-.8 13.3-1.4 19.9-2.6 10.8-1.9 21.4-4.1 32.2-6.1 2.4-.4 3.3-1.5 3.7-3.8 1.7-8.5 2.1-16.9 1-25.5-.4-3.3-1.1-6.5-1.9-9.6.9 3.2 1.6 6.5 2 9.9 1.1 8.5.7 17-1 25.5-.5 2.3-1.4 3.4-3.7 3.8-10.7 1.9-21.4 4.2-32.2 6.1-6.6 1.1-13.3 1.8-19.9 2.6-5.4.6-10.8 1.3-16.2 1.8-4.6.5-9.2.7-13.8 1.1-5.3.4-10.7.9-16 1.3zm-75.4 14.4c12 9.8 24.2 19.1 36.8 27.9 12.5 8.8 25.5 16.9 39.2 24.4-6.7 10.1-10.4 21.2-11 33.3-1.9.4-3.8.9-5.7 1.2 1.9-.4 3.7-.8 5.6-1.2.7-12.2 4.3-23.2 11-33.3-13.7-7.5-26.7-15.7-39.3-24.4-12.6-8.7-24.7-18-36.7-27.8l.1-.1zm21.4-.9c-1.2 0-2.3.1-3.5.1 1.2 0 2.3-.1 3.5-.1zm-5.2.3c1 .8 1.6 1.4 2.3 1.9 8.7 6.4 17.3 12.9 26.2 19 11.4 8 23.3 15.3 35.5 21.9 1.1.6 1.6.9 2.1.8-.5.3-1 0-2.2-.7-12.2-6.7-24.1-14-35.5-21.9-8.7-6.2-17.4-12.7-26.1-19.1-.8-.5-1.5-1.1-2.3-1.9.5-.1.9-.2 1.3-.2-.4 0-.8.1-1.3.2zm1.7-.2h-.3.3zm-45.5-263c5.7 9.3 12.5 17.8 19.7 25.9 4.3 4.9 8.3 9.9 11.2 15.8 1.8 3.6 3 7.3 3.2 11.2-.2-3.9-1.4-7.6-3.2-11.1-2.9-5.9-7-10.9-11.2-15.8-7.2-8.2-14-16.7-19.7-26-4.2-6.7-7.7-13.7-9.3-21.6-.4-1.8-.6-3.6-.7-5.3.1 1.7.3 3.5.7 5.2 1.6 7.9 5.1 14.9 9.3 21.7zm-71.2 163.3c12.9 16.1 26.2 31.5 40.2 46.1s28.6 28.6 44.1 42.2c-.4.1-.7.1-.9.1.2 0 .4 0 .8-.1-15.5-13.6-30.1-27.6-44.1-42.2-14.1-14.6-27.3-29.8-40.1-46.1 0 .1 0 0 0 0zm32.3 96.7c6.9.6 13.9 1.1 20.8 1.5-6.9-.3-13.9-.8-20.8-1.5zm1-11.1c-3.4-.3-6.9-.6-10.3-.9 3.4.4 6.9.6 10.3.9zm-32-102.7c.8-5 2.1-9.8 4.1-14.5 1-2.3 2.1-4.4 3.4-6.4-1.3 2-2.4 4.1-3.3 6.4-2 4.7-3.3 9.5-4.2 14.5 0 .7.3 1.5.6 2.2s.9 1.3 1.4 1.9c25.6 33.5 54.5 63.9 86 91.8 3.1 2.7 6.2 5.3 9.4 8.1.8-.6 1.4-1 1.9-1.5 14.1-11.6 27.7-23.7 41-36.2 24-22.8 46.7-46.8 68-72.1 26.6-31.6 50.6-65 69.7-101.7.4-.7.6-1.4.7-2 0 .6-.2 1.3-.7 2.1-19.2 36.7-43.1 70.1-69.7 101.7-21.3 25.3-44 49.3-68 72.1-13.2 12.6-26.9 24.6-41 36.2-.5.5-1.1.9-1.9 1.5-3.2-2.8-6.4-5.4-9.4-8.1-31.6-27.9-60.5-58.2-86-91.8-.5-.6-1.1-1.2-1.4-1.9-.4-.8-.7-1.7-.6-2.3zm4.9 100c-2.8-.3-5.5-.7-8.3-1 2.8.3 5.5.6 8.3 1zm-30.6 7.1c6.7 1.1 13.3 2 20 3-6.6-.9-13.3-1.9-20-3zm-11.6-16.1c1.2.2 2.5.4 3.9.4-1.4 0-2.6-.1-3.9-.4zm-3.5 2c.8.1 1.5.3 2.2.4-.8-.1-1.5-.2-2.2-.4zm-19-3.9c5.2 1.1 10.4 2.3 15.6 3.3l-15.6-3.3zm11.8 33.3c12.4 18 27.5 33.4 45 46.5.6.4 1.1.7 1.6.8-.6-.1-1.1-.4-1.7-.8-17.5-13.1-32.6-28.5-45-46.5-4.3-6.2-8-12.9-12-19.4-.4-.7-.7-1.4-1.1-2.4h.1c.4 1 .7 1.7 1.1 2.4 4 6.5 7.7 13.1 12 19.4zm-1.3-41.2c2.6 5.4 6.6 8.7 12 9.8h-.1c-5.4-1.1-9.5-4.4-12-9.8-1.5-3.2-2.6-6.7-3.3-10.2-1.8-9.1-3.2-18.2-4.9-27.4-1.1-6.1-2.3-12.2-4.8-18-.9-2.2-2-4.4-3.8-6-1.2-1.1-2.5-1.8-3.9-1.9 1.5.1 2.8.7 4 1.9 1.8 1.7 2.9 3.8 3.8 6 2.4 5.8 3.7 11.9 4.8 18 1.6 9.1 3.1 18.3 4.9 27.4.6 3.5 1.7 7 3.3 10.2zm-17.6 6.1c.1.1.3.1.4.2-.2 0-.3-.1-.4-.2zm-.4-.2c.1.1.2.2.4.3-.2-.1-.3-.2-.4-.3z"/></g></svg>