<svg id="Layer_1" xmlns="http://www.w3.org/2000/svg" viewBox="0 0 590 590"><style>.st0{fill:#fb8c00}.st1{fill:#fff}</style><g id="XMLID_1_"><path class="st0" d="M423.7 211.4c1.7 90.7 3.7 193.2-122.9 240.5-127-47-125.1-149.7-123.3-240.5v-10.7c44.9-1.6 88.1-18 122.9-46.5 34.7 28.5 77.8 44.7 122.7 46.3l.6 10.9zm-58.9 62.5c2.4-2.4 2.4-6.2 0-8.6-2.4-2.4-6.2-2.4-8.6 0L294.5 327l-29.9-29.9c-.4-.6-.9-1.2-1.5-1.6-2.7-1.9-6.5-1.3-8.4 1.4-1.9 2.7-1.3 6.5 1.4 8.4l34.3 34.2c1.1 1.1 2.6 1.8 4.2 1.8 1.4-.1 2.8-.7 3.7-1.8l66.5-65.6z"/><path class="st1" d="M435.8 211.2c1.4 95.3 3.5 203.2-133.3 253.3-.7.1-1.4.1-2.1 0-.7-.2-1.3-.5-1.9-.9C161.8 413.9 163.8 306 165.7 210.7v-16.3c.1-3.2 2.6-5.8 5.8-5.9 45.9-.2 90.1-16.9 124.8-46.8 2.3-2 5.7-2 8 0 34.8 30 79.1 46.6 125 46.8h.9c3.3.2 5.9 3.1 5.6 6.4v16.3zm-135 240.7c126.6-47.3 124.6-149.8 122.9-240.5l-.6-10.9c-44.9-1.6-88-17.8-122.7-46.3-34.8 28.5-78 44.9-122.9 46.5v10.7c-1.8 90.8-3.7 193.5 123.3 240.5z"/><path class="st1" d="M364.8 265.3c2.4 2.4 2.4 6.2 0 8.6l-66.5 65.6c-.9 1.1-2.3 1.7-3.7 1.8-1.6 0-3.1-.7-4.2-1.8l-34.3-34.2c-2.7-1.9-3.3-5.7-1.4-8.4s5.7-3.3 8.4-1.4c.6.4 1.1 1 1.5 1.6l29.9 29.9 61.7-61.7c2.4-2.4 6.2-2.4 8.6 0z"/></g></svg>