<svg id="Layer_1" xmlns="http://www.w3.org/2000/svg" viewBox="0 0 590 590"><style>.st0{fill:#fff}.st1{fill:#fb8c00}</style><g id="XMLID_1_"><path class="st0" d="M408.4 374.9c10.2 10.3 10.2 26.9 0 37.1l-9.4 10.4-.3.4-19 20.9c-21.5 23.6-52 36.9-83.9 36.5-2.5 0-5-.1-7.6-.2-34.1-2-91.6-27.6-90.7-110.5.1-11.4.3-23.2-17.9-49.2-8.8-12.6-7.2-27.6 4.1-36.4 9.7-7.8 21.5-7.5 31.5.6 8.4 7.3 15.4 16 20.7 25.8 7.6 12.5 10 15.7 19.8 11.6 16.8-6.9 59.6-48.7 94-85.4.2-.3.4-.5.6-.7 10.2-10.2 26.8-10.1 37 .1s10.1 26.8-.1 37l-31.4 31.5c12.2 2.4 20.9 13.2 20.9 25.6 0 2.8-.5 5.5-1.4 8.1 1.2.1 2.4.4 3.6.7 12.6 3.5 20 16.5 16.5 29 4.9 1.1 9.4 3.5 13 7.1zM400 404c5.8-5.7 5.8-15 .1-20.8-2.7-2.8-6.4-4.3-10.3-4.3l-1.2-.1-14.5 14.5c-4.3 5.4-3.8 13.1 1.1 17.9l.5.5c4 3.9 10 4.9 15 2.5l9.2-10.1.1-.1zm-18.2-34.6c4-4.8 3.7-11.9-.7-16.3-4-3.9-10-4.6-14.7-1.7-5.2 4.4-14.9 12.1-17.2 13.9-4.3 5.3-3.9 12.9.8 17.8l.7.7c3.7 3.5 9 4.6 13.8 2.9l16.6-16.6.7-.7zm-11 66.7l8.7-9.6c-4.6-1-8.9-3.4-12.2-6.7l-.4-.5c-5.4-5.4-8-12.8-7.2-20.3-6.6.1-12.9-2.5-17.6-7.2l-.2-.2-.2-.2c-6.2-6.2-8.7-15.1-6.6-23.6-5.6-.7-10.8-3.3-14.8-7.3l-.3-.3-.1-.1c-10-10.1-9.9-26.3.1-36.3l58.8-58.9c5.7-5.7 5.7-15 0-20.7-2.8-2.8-6.6-4.4-10.6-4.3-3.9 0-7.7 1.7-10.4 4.6-21.9 23.4-75.3 78.9-98.1 88.2-2.6 1.1-5.4 1.9-8.3 2.3 3.1 10.8 1.2 22.5-5.3 31.8-1.7 2.5-5.1 3.2-7.7 1.7-2.8-1.6-3.7-5.1-2.1-7.9 11.3-17.7.2-29.8-.3-30.3-.1-.2-.2-.3-.3-.5-3.9-4.1-7.3-8.7-10-13.7-4.6-8.6-10.7-16.3-18.1-22.7-5.9-4.7-11.4-4.9-17-.5-7.1 5.7-5.9 14.6-1.6 20.8 18.8 26.9 20.2 40.7 20 56-.3 27.1 5.9 46.7 15 61 .3.2.5.4.8.7.1.2 11.7 12.2 26.7 11.2 10.7-.7 21.1-7.9 30.7-21.3 1.9-2.5 5.3-3 7.9-1.3 2.6 1.8 3.3 5.4 1.5 8-11.8 16.3-25 25.1-39.5 26h-5.2c12.5 8.2 26.9 13.2 41.8 14.5 30.8 2.3 60.9-9.5 81.9-32.1l.2-.3zm-5.7-106c0-3.8-1.5-7.6-4.3-10.3-5.1-5.2-13.2-5.7-19.1-1.4L328.1 332c-5.5 5.5-5.5 14.4 0 19.9l.4.4c3.6 3.6 8.8 5 13.7 3.6 5.7-4.4 13.3-10.5 16.8-13.6 3.5-3.1 5.7-7.5 6.1-12.2zm-19.5-184.9v71.4c0 3.2-2.6 5.8-5.8 5.8-3.2 0-5.8-2.6-5.8-5.8v-71.4c0-3.2 2.6-5.8 5.8-5.8 3.2 0 5.8 2.6 5.8 5.8z"/><path class="st1" d="M310.8 150.4c.6 2.3 7.4 4.7 6.6 7-.9 2.3-7.6-.3-9.6 1-2 1.4-2.2 8.6-4.6 8.5-2.4-.1-2-7.3-3.9-8.8-1.9-1.5-8.8.5-9.6-1.7-.6-2.4 6.4-4.2 7.2-6.5.9-2.3-3.2-8.3-1.2-9.6 2-1.4 6 4.7 8.4 4.8 2.4.1 6.8-5.6 8.7-4.1 1.9 1.5-2.7 7.1-2 9.4zm-5.9 79.2c1 3-8.3 5.9-9.3 9-1 3 4.8 10.8 2.2 12.7-2.6 1.9-8.2-6-11.4-6-3.2 0-8.8 7.9-11.4 6-2.6-1.9 3.6-9.8 2.2-12.7-1.4-2.9-10.3-5.9-9.3-9 1-3.1 10.4.3 12.8-1.9 2.4-2.2 2.5-11.6 5.7-11.6s5.7 11.6 5.7 11.6 11.8-1.2 12.8 1.9z"/><path class="st0" d="M273.3 183.5c.8 3.1-1.1 6.3-4.2 7.1-3.1.8-6.3-1.1-7.1-4.2L244.6 117c-.8-3.1 1.1-6.3 4.2-7.1 3.1-.8 6.3 1.1 7.1 4.2l17.4 69.4zm-33.5 56c2.3 2.3 2.3 5.9 0 8.2s-5.9 2.3-8.2 0l-51.1-51.1c-2.3-2.3-2.3-5.9 0-8.2 2.2-2.3 5.9-2.3 8.2 0l51.1 51.1z"/><path class="st1" d="M227.7 160.9c.1 2.5 6.1 6.4 4.8 8.4-1.4 2-7.3-2.1-9.6-1.3-2.3.9-4.2 7.9-6.5 7.2-2.4-.7-.3-7.6-1.8-9.5-1.5-1.9-8.7-1.5-8.8-3.9-.1-2.4 7.2-2.6 8.5-4.6s-1.3-8.8 1-9.6c2.3-.9 4.7 5.9 7 6.6 2.4.7 8-3.8 9.6-2 1.5 1.9-4.3 6.3-4.2 8.7z"/></g></svg>