<svg id="Layer_1" xmlns="http://www.w3.org/2000/svg" viewBox="0 0 590 590"><style>.st0{fill:#1e88e5}.st1{fill:#fff}</style><g id="XMLID_1_"><path class="st0" d="M260.9 409.5c-3.4 2.6-6.8 5.2-10.3 7.8-20 15-40.9 28.9-62.8 40.9l-.1.1c-3.5 1.9-7 3.7-10.5 5.5-25.1-18.2-46.2-42.2-60.8-70.7 42.4 9.8 86.1 14.2 129.5 15.9 4.9.2 9.9.4 15 .5z"/><path class="st1" d="M471.8 98.2s-.7-.8-.8-1l-.5-.5c4.6 3.2 10.7-3.4 6.4-7.7l-1-1c.3.2.6.5.9.8 4.4 4.5 7.4 10.1 9 16.1 3.5 13.3 1.2 27.7-2.3 40.7-3.4 12.5-8.3 24.7-14 36.5-2.1-3.1-4.2-6.1-6.5-9 1.3-2.8 2.5-5.7 3.7-8.5 5.4-13.5 10.2-28 10.9-42.4.2-2.9.1-5.8-.2-8.7 0-.4 0-.7-.1-1.1 0 .8-.1-.1-.1-.2-.1-.6-.2-1.3-.4-2-.2-1.2-.5-2.3-.8-3.4-.2-.7-.4-1.4-.7-2.1-.1-.2-.4-.9-.4-1.1 0 0 0 .1.1.1-.4-1.1-.9-2-1.4-3-.3-.5-.7-1.1-1.1-1.7-.1 0-.5-.6-.7-.8zm0-.1c-.1-.1 0-.1 0 0z"/><path class="st1" d="M476.9 89c4.4 4.3-1.8 10.9-6.4 7.7-.2-.3-.5-.6-.8-.8-4.3-4.3 1.6-10.8 6.1-7.9.4.3.8.7 1.1 1z"/><path class="st1" d="M462.1 90.9h-.1c-.3-.2-.6-.3-.9-.4-1.3-.5-2.6-.9-4-1.2-4.9-1.2-10.2-1.4-15.9-.9-6.6.5-13.4 1.9-19.9 3.8-13.8 3.9-27.1 9.5-39.9 16-3.1-1.4-6.2-2.7-9.3-3.9-.9-.4-1.8-.7-2.6-1 9.5-5 19.1-9.6 29-13.7 14.7-5.9 30.4-10.8 46.3-11.3 11.1-.3 22.7 2.1 31.1 9.7-4.5-2.9-10.4 3.6-6.1 7.9l.8.8c-.3-.2-.5-.4-.8-.6-.5-.5-1.1-1-1.5-1.6-.2-.2-.4-.4-.7-.6.1.1.2.2.3.2-.1-.1-.3-.2-.4-.2-1.2-.7-2.3-1.5-3.5-2.1-.6-.3-1.1-.5-1.7-.8-.1 0-.1 0-.2-.1.1 0 .1 0 0 0 .1 0 0 0 0 0zm-.1-.1s.1 0 .1.1c0 0-.1 0-.1-.1z"/><path class="st0" d="M464.3 192.7c2.6 5.7 9.3 25.9-14 42.1-10.2 7.1-17.8 14.2-22.9 21.4l-2.1-1.6c13.1-17.9 25.3-36.5 35.9-56.1l.3-.6c.9-1.8 1.9-3.5 2.8-5.2z"/><path class="st1" d="M463.1 173.1c-1.6 3.5-3.3 7-5 10.5-22.4-31.1-52.6-54.6-86.7-68.6l.7-1.7v-.2c3.1-1.7 6.2-3.3 9.3-4.9 31.7 14.2 59.9 36.2 81.7 64.9z"/><path class="st0" d="M458 183.6c-1.4 2.8-2.8 5.5-4.2 8.2-.5.4-.9.9-1.3 1.6-22.8 41.8-52.3 79.9-84 115.2-28.6 31.8-59.5 61.8-92.7 88.9-13.6-11.5-27.3-24-40.6-37.3-20.6-20.5-39.8-42.4-57.3-65.6 5-33.2 25.5-38.8 49-45.3 16-4.4 32-8.8 43.4-22.1 21.8-25.6 9.6-40-4.6-56.6-7.3-8.1-13.8-17-19.4-26.4-9.2-16.3-9-25.8-7.3-30.9 1-3.1 3-5.7 5.8-7.2 43.1-11 87.4-7.2 126.6 8.9 34 14.1 64.3 37.5 86.6 68.6zM437.2 316c15.2 17.6 21.1 41.3 16 64-.2.8-.4 1.5-.6 2.3-35.4 7.8-71.7 12.2-107.8 14.6-18.3 1.2-36.8 2-55.2 2.1 6.7-5.6 13.2-11.3 19.7-17.1 40.5-36.3 77.8-76.4 110.5-119.9 1.8-2.4 3.7-4.9 5.5-7.4l2.1 1.6c-4.5 6.4-7.1 12.8-7.8 19.4-1.4 13 4.4 26.2 17.6 40.4zm10.3 78.2c-4.9 8.2-11.9 14.1-20.6 17.2-13.2 4.7-47.8 18.9-68.8 43.2-21.3-11.5-44.2-26.7-67.3-44.9 42.7-.4 85.3-3.7 127.4-10.3 9.8-1.5 19.6-3.3 29.3-5.2z"/><path class="st1" d="M381.4 108.2c-3.1 1.6-6.2 3.2-9.3 4.9v-8.8c3.2 1.2 6.3 2.5 9.3 3.9z"/><path class="st1" d="M372.1 104.3v9l-5.1-8.7c.8-.4 1.7-.9 2.5-1.3.9.3 1.8.6 2.6 1z"/><path class="st1" d="M367 104.6l5.1 8.7-.7 1.7c-39.2-16.2-83.5-20-126.6-8.9-2.8 1.5-4.8 4.1-5.8 7.2-1.7 5.1-1.9 14.6 7.3 30.9 5.6 9.4 12.1 18.3 19.4 26.4 14.2 16.6 26.4 31 4.6 56.6-11.4 13.3-27.4 17.7-43.4 22.1-23.5 6.5-44 12.1-49 45.3 17.5 23.2 36.7 45.1 57.3 65.6 13.4 13.4 27 25.9 40.6 37.3-.6.5-1.2 1-1.9 1.5-4 0-8-.1-12-.2-11.2-9.8-22.4-20.2-33.5-31.3-18.5-18.3-35.8-37.8-52-58.2-3.3 31.6-10.5 67.2-26.7 74-1.7.7-3.5 1.1-5.4 1.1-4.2-.1-8.2-1.7-11.2-4.6-6.1-5.2-7.9-17.2-10.3-32.2s-5.3-33.8-12.9-36.6c-3.5-1.3-8.7.7-15.3 5.7v-.1l-.2.3c.1 0 .1-.1.2-.2.8 10.1 2.3 20.3 4.7 30.3 2.8 11.7 6.5 22.9 11.1 33.5-1.4-.4-2.8-.7-4.2-1.1.3-.6.6-1.2 1-1.8l-8.7-5.1c-.4.7-.8 1.4-1.2 2.2-13.6-36.3-17.1-76.2-9.4-115 2.7-.9 5.4-1.8 8.1-2.6l-2.8-10.3c-.8.3-1.7.5-2.5.8 4.6-17.8 11.7-35.2 21.2-51.9-9.5-31.4-7.8-57.1 6.5-71.4s39-16.5 71.4-6.5c16.3-9.4 33.7-16.6 51.9-21.4 43.3-11.3 87.8-8.3 127.8 6.8-.8.5-1.7 1-2.5 1.4zM262.7 220.7c16.2-19 9.7-26.7-4.6-43.6-7.7-8.6-14.5-18-20.4-28-8.6-15.3-11.3-28.1-8.2-38.3-44.5 15.5-82.1 45.9-106.6 86.2 8.6 25.4 24.8 55.5 47.1 86.6 8.5-31.4 32.7-38 54.4-44 14.9-4.1 28.9-7.9 38.3-18.9zm-95.4 79.2c.1-.8.3-1.4.3-2.2-21-27.2-38.2-57.1-51.2-89-14.8 28.5-22.5 60.2-22.5 92.2v4c7.6-4.5 13.9-5.6 19.6-3.5 13.1 4.9 16.2 25 19.3 44.4 1.7 10.4 3.6 23.2 7 26.2s5.4 2.1 6.2 1.8c2.6-.9 15.9-9.7 21.3-73.9zm10.8-174.8c-24-5.9-42.5-3.7-52.6 6.4-10.5 10.7-12.2 29.3-6.5 52.6 15.6-23.3 35.7-43.4 59.1-59z"/><path class="st0" d="M352.2 463.1c-6.8 9.9-10.7 21.6-11.1 33.6-55.2 13-110.4 1.9-154.6-26.5 2.1-1.1 4.2-2.2 6.2-3.3 29.3-16 56.9-35.3 83-56.4 26.3 21.7 52.2 39.4 76.5 52.6zm-123.7-95.5c11.1 11.1 22.3 21.5 33.5 31.3-29.1-.6-58.1-2.7-86.9-6.4-21.7-2.8-43.4-6.6-64.6-11.9-4.6-10.7-8.3-21.9-11.1-33.5-2.4-10-3.9-20.1-4.7-30.3 6.6-5.1 11.8-7 15.3-5.7 7.6 2.8 10.5 21.6 12.9 36.6s4.2 27 10.3 32.2c3 2.9 7 4.5 11.2 4.6 1.9 0 3.7-.4 5.4-1.1 16.2-6.8 23.4-42.4 26.7-74 16.2 20.4 33.5 39.9 52 58.2z"/><path class="st1" d="M10.8 321.5c.1.6.2 1.1.4 1.7.2 1.1.5 2.2.9 3.2.7 1.8.5 1.4 1.2 2.8.6 1.1 1.2 2.2 1.9 3.3 2.9 4.7 6.8 8.7 11.5 12.6 5.4 4.4 11.4 8.2 17.6 11.6 16.4 9 34 15.2 51.9 20.3-1.7 3.3-3.4 6.6-5 9.9-20.4-5.9-40.8-13.2-58.8-24.4-11.4-7-23.2-16.3-28.9-28.8-5-11.1-4.4-23.2 1.6-33.8 7.1-12.7 19.6-21.9 31.9-29.2 16.7-10 35.1-17.1 53.7-23-1 4-2 8.1-2.8 12.1-17.2 5.8-34.1 12.7-49.5 22.5-5.8 3.6-10.9 7.5-15.8 12.3-4.3 4.2-7.1 7.6-9.6 13.1-.7 1.5-.5.9-1.1 2.8-.4 1.2-.6 2.3-.9 3.5 0 .2-.2 1.3-.2 1.5v-.3.3c0 .5-.1.9-.1 1.4-.1 1.2-.1 2.3 0 3.5.1.4.3 1.8.1 1.1z"/></g></svg>