<svg id="Layer_1" xmlns="http://www.w3.org/2000/svg" viewBox="0 0 590 590"><style>.st0{fill:#1e88e5}.st1{fill:#fff}</style><g id="XMLID_1_"><path class="st0" d="M425.3 254.5c13.1-17.9 25.2-36.5 35.9-56.1.1-.1.1-.3.2-.4 1-1.8 2-3.7 2.9-5.5 2.6 5.7 9.3 25.9-14 42.1-10.2 7.1-17.8 14.2-22.9 21.4l-2.1-1.5z"/><path class="st0" d="M437.2 315.9c15.2 17.6 21.1 41.3 16 64-.2 1-.5 2-.8 3-35.6 8.4-68.1 11.2-107.6 13.9-18.3 1.2-36.8 2-55.2 2.1 6.7-5.6 13.2-11.4 19.7-17.1 40.5-36.3 77.8-76.4 110.5-119.9 1.8-2.4 3.7-4.9 5.5-7.4l2.1 1.6c-4.5 6.4-7.1 12.8-7.8 19.4-1.4 13 4.4 26.2 17.6 40.4zm9.9 78.9c-4.8 7.8-11.7 13.4-20.1 16.5-13.2 4.7-47.8 18.9-68.8 43.2-21.3-11.5-44.2-26.7-67.3-44.9 42.7-.4 85.3-3.7 127.4-10.3 12.8-2 20.9-3 28.8-4.5zM352.2 463c-6.8 9.9-10.7 21.6-11.1 33.6-55.2 13-110.4 1.9-154.6-26.5 2.1-1.1 4.1-2.2 6.2-3.3 29.3-16 56.9-35.3 83-56.4 26.3 21.7 52.3 39.4 76.5 52.6z"/><path class="st0" d="M260.9 409.4c-3.4 2.6-6.8 5.2-10.3 7.8-20 15-40.9 28.9-62.8 40.9l4.9 8.7-5-8.6c-3.5 1.9-7 3.7-10.5 5.5-25.1-18.2-46.2-42.2-60.8-70.7 42.3 9.8 86.1 14.2 129.5 15.9 5 .2 10 .3 15 .5zm-32.4-41.9c11.1 11.1 22.3 21.5 33.5 31.3-29.1-.6-58.1-2.7-86.9-6.4-21.7-2.8-43.3-6.6-64.6-11.9-4.6-10.7-8.3-21.9-11.1-33.5-2.4-10-3.9-20.1-4.7-30.3 6.6-5.1 11.8-7 15.3-5.7 7.6 2.8 10.5 21.6 12.9 36.6s4.2 27 10.3 32.2c3 2.9 7 4.5 11.2 4.6 1.9 0 3.7-.4 5.4-1.1 16.2-6.8 23.4-42.4 26.7-74 16.2 20.4 33.5 39.9 52 58.2zM458 183.1c-1.8 3.4-3.6 6.7-5.4 10.1-.1.1-.1.2-.1.3-22.8 41.7-52.2 79.7-83.9 115-28.6 31.8-59.5 61.8-92.7 88.9-13.6-11.5-27.3-24-40.6-37.4-20.6-20.5-39.8-42.4-57.3-65.6 5-33.2 25.5-38.8 49-45.3 16-4.4 32-8.8 43.4-22.1 21.8-25.6 9.6-40-4.6-56.6-7.3-8.1-13.8-17-19.4-26.4-9.2-16.3-9-25.8-7.3-30.9 1-3.1 3-5.7 5.8-7.2 80.4-20.5 165 10.4 213.1 77.2z"/><path class="st1" d="M577.2 319.7c.4-1.1.8-2.1 1-3.3.2-.7.4-1.4.5-2.1.1-.6.1-.6.2-1.3.1-.6 0-.2.1-1.1.1-.8.1-3.2.1-3.2l10.7 1c0 1-1.9 13.2-5.2 19-7.1 12.7-19.6 21.9-31.9 29.2-17.5 10.5-44 20.3-63.6 25.9v-.1c1.8-4.1 3.4-8.3 4.9-12.5v-.1c10.9-3.4 21.2-6.9 31.7-11.5 14.1-6.2 28.5-13.6 39.7-24.1 2.2-2.1 4.4-4.4 6.3-6.8.3-.3.5-.6.7-.9-.5.6 0-.1.1-.2l1.2-1.8c.7-1.1 1.3-2.1 1.9-3.2.3-.7.7-1.4 1-2.1.1-.1.3-.5.4-.8h.2zm.1-19.2l-.1-.2c-.1-.3-.3-.6-.5-.9-.6-1.3-1.3-2.6-2.1-3.8-2.9-4.5-6.7-8.5-11.4-12.4-5.4-4.5-11.6-8.4-17.9-11.8-16.6-9.1-26.4-12.9-44.5-18v-.1c-.9-4-2-8-3.1-12v-.2c11.8 3.3 21.1 6.5 32.5 11.1 15.5 6.3 31 14.1 43.4 25.5 9 8.3 16.1 19.2 16.3 31.8l-10.7-1v-1l-.1-.8v-.2s-.5-2.7-.9-4.2c-.2-.6-.5-1.2-.7-1.8-.2.1-.2.1-.2 0zm0 0zm0 0c-.1 0-.1 0 0 0zm-.1-.1z"/><path class="st1" d="M500.8 253.4l-3.1-12c1.2 4 2.2 8 3.1 12zm-18.7 121.3c6.6-2 3.4 10-5.4 12.4 1.9-4 3.7-8.1 5.4-12.4z"/><path class="st1" d="M476.7 387.2c8.8-2.5 12-14.4 5.4-12.4 19.9-50.4 19.5-108.4-5.4-160.6-2.6 12-10 22.3-20.4 28.8-16.6 11.6-25.2 22.6-26.4 33.6-1 9.9 3.9 20.4 15 32.4 16.4 17.5 24 46.4 18.9 71-3.8 1-7.6 2-11.3 2.8.3-1 .6-2 .8-3 5.1-22.7-.8-46.4-16-64-13.2-14.2-19-27.4-17.6-40.4.7-6.6 3.3-13 7.8-19.4 5.1-7.2 12.7-14.3 22.9-21.4 23.3-16.2 16.5-36.4 14-42.1 1.8-3.5 3.6-7 5.3-10.5.8 1.1 1.5 2.2 2.3 3.4l1.2 1.9c10.8 16.9 19.1 35.1 24.7 54.1l3.1 12v.1c3.6 15.5 5.4 31.4 5.4 47.4 0 24-4.1 47.8-12.1 70.3v.1l-4.9 12.5v.1c-3.2 7.5-7 14.9-11.1 22.1 10 32.5 7.7 57.2-6.5 71.4-8.6 8.6-20.8 12.6-35.7 12.6-12.1-.3-24.1-2.3-35.6-6.1-65 37.4-145 37.4-210.1.1-4.8-2.7-9.4-5.6-13.9-8.7 3.5-1.6 6.9-3.4 10.3-5.1 44.2 28.4 99.4 39.5 154.6 26.5.4-12 4.3-23.7 11.1-33.6-24.3-13.2-50.2-30.9-76.5-52.6.3-.3.7-.5 1-.8h14c23.1 18.2 46 33.4 67.3 44.9 21-24.3 55.6-38.5 68.8-43.2 8.5-3 15.3-8.7 20.1-16.5 4.2-.8 8.3-1.6 13-2.9-5.8 13.9-16 24.1-29.5 28.9-12.5 4.6-43.5 17.3-63.1 38.6 10.2 5.2 20.8 9.7 31.6 13.4 34.7-21.1 61.1-51.2 77.5-85.7zm-12.3 83.1c10.1-10.1 12.3-28.6 6.6-52.6-15.7 23.4-35.8 43.5-59.3 59 23.4 5.9 42 4.2 52.6-6.4h.1zM351 494c12.5-3.6 24.6-8.5 36.2-14.4-9-3.5-17.8-7.4-26.4-11.8-5.5 7.7-8.9 16.7-9.8 26.2zM476.9 88.9c4.4 4.3-1.8 10.9-6.4 7.7-.2-.3-.5-.6-.8-.8-4.3-4.3 1.6-10.8 6.1-7.9.5.3.8.7 1.1 1z"/><path class="st1" d="M482.1 374.8c-1.6 4.2-3.5 8.4-5.4 12.4-6.6 2.1-11.9 3.6-16.6 4.8 1.3-3 2.3-6.2 3.2-9.6.2-.8.4-1.6.5-2.4 5.9-1.5 12-3.3 18.3-5.2zM471.9 98s-.1 0 0 0c-.1-.1-.1-.1 0 0zm1.7 2.7c-.3-.5-.7-1.1-1.1-1.7-.1-.1-.5-.7-.7-.9 0 0-.7-.8-.8-1-.1-.2-.3-.3-.5-.5 4.6 3.2 10.7-3.4 6.4-7.7-.3-.3-.7-.6-1-1 .3.2.6.5.9.8 4.4 4.5 7.4 10.1 9 16.1 3.5 13.3 1.2 27.7-2.3 40.7-3.4 12.6-8.3 24.7-14 36.5-2.1-3.1-4.3-6.1-6.5-9.1 1.3-2.8 2.6-5.6 3.8-8.5 5.4-13.5 10.2-28 10.9-42.4.2-2.9.1-5.8-.2-8.7 0-.4 0-.7-.1-1.1 0 .8-.1-.1-.1-.2-.1-.6-.2-1.3-.4-2-.2-1.2-.5-2.3-.8-3.4-.2-.7-.4-1.4-.7-2.1-.1-.2-.4-.9-.4-1.1 0 0 0 .1.1.1-.4-.9-.9-1.9-1.5-2.8z"/><path class="st1" d="M471.8 98s.1 0 0 0c0-.1 0-.1 0 0zm-3.9-4c0 .1 0 0 0 0zm1.7 88c-1.7 3.6-3.5 7.1-5.3 10.5-.1-.1-.1-.2-.2-.4-2-3.1-4-6.1-6.2-9.1 1.8-3.4 3.5-6.7 5.1-10.2 2.3 3.1 4.5 6.1 6.6 9.2z"/><path class="st1" d="M464.1 192.2c0 .1.1.2.2.4-1 1.9-2 3.7-2.9 5.5 2.6-5.6-5.7-10.4-8.8-4.9 1.8-3.4 3.6-6.7 5.4-10.1 2.1 3 4.1 6 6.1 9.1zm-.3 187.8c-.2.8-.3 1.6-.5 2.4-.8 3.4-1.9 6.6-3.2 9.6-4.7 1.2-8.8 2.1-13 2.9 2.2-3.6 4-7.6 5.3-12 3.7-.9 7.5-1.9 11.4-2.9zM462 90.7s.1 0 .1.1l-.1-.1zm6.3 3.7c-.2-.2-.4-.4-.7-.6.1.1.2.2.3.2-.1-.1-.3-.2-.4-.2-1.2-.7-2.3-1.5-3.5-2.1-.6-.3-1.1-.5-1.7-.8h-.1s-.1 0-.2-.1c-.3-.2-.6-.3-.9-.4-1.3-.5-2.6-.9-4-1.2-4.9-1.2-10.2-1.4-15.9-.9-6.6.5-13.4 1.9-19.9 3.8-17.2 4.8-24.2 7.5-39.9 16l-.3-.1c-3.7-1.7-7.5-3.2-11.3-4.7l-.3-.1c10.3-5.5 18.2-9.3 29-13.7 14.7-5.9 30.4-10.8 46.3-11.3 11.1-.3 22.7 2.1 31.1 9.7-4.5-2.9-10.4 3.6-6.1 7.9l.8.8c-.3-.2-.5-.4-.8-.6-.5-.5-1.1-1-1.5-1.6zm-6.1-3.6z"/><path class="st1" d="M462.1 90.8c-.1 0-.1-.1-.1-.1l.1.1zm-9.5 102.4c3.1-5.5 11.4-.7 8.8 4.9-.1.1-.1.3-.2.4l-8.7-5c0-.1 0-.2.1-.3zm-.2.3l8.7 5c-10.6 19.6-22.8 38.1-35.9 56.1-1.8 2.5-3.6 4.9-5.5 7.4-32.7 43.5-70 83.6-110.5 119.9-6.5 5.8-13 11.5-19.7 17.1-4 .1-8 .1-12 0l-1.8-1.5c33.2-27.1 64.1-57.2 92.7-88.9 31.8-35.4 61.2-73.4 84-115.1z"/><path class="st1" d="M463.1 172.9c-1.6 3.4-3.4 6.8-5.1 10.2-48.1-66.8-132.7-97.7-213.1-77.1-2.8 1.5-4.8 4.1-5.8 7.2-1.7 5.1-1.9 14.6 7.3 30.9 5.6 9.4 12.1 18.3 19.4 26.4 14.2 16.6 26.4 31 4.6 56.6-11.4 13.3-27.4 17.7-43.4 22.1-23.5 6.5-44 12.1-49 45.3 17.5 23.2 36.7 45.1 57.3 65.6 13.4 13.4 27 25.9 40.6 37.4-.6.5-1.2 1-1.9 1.5-4 0-8-.1-12-.2-11.2-9.8-22.4-20.2-33.5-31.3-18.5-18.3-35.8-37.8-52-58.2-3.3 31.6-10.5 67.2-26.7 74-1.7.7-3.5 1.1-5.4 1.1-4.2-.1-8.2-1.7-11.2-4.6-6.1-5.2-7.9-17.2-10.3-32.2s-5.3-33.8-12.9-36.6c-3.5-1.3-8.7.7-15.3 5.7v-.1l-.2.3.2-.2c.8 10.1 2.3 20.3 4.7 30.3 2.8 11.7 6.5 22.9 11.1 33.5-4.1-1-8.1-2-12.1-3.2-14.4-37-18.3-77.9-10.4-117.6l2.7-12v-.1c4.6-17.8 11.7-35.2 21.2-51.9-9.5-31.4-7.8-57.1 6.5-71.4s39-16.5 71.4-6.5c16.3-9.4 33.7-16.6 51.9-21.4 43.4-11.3 88.1-8.3 128.1 6.9l11.3 4.7c31.8 14.2 60.2 36.2 82 64.9zm-200.4 47.7c16.2-19 9.7-26.7-4.6-43.6-7.7-8.6-14.5-18-20.4-28-8.6-15.3-11.3-28.1-8.2-38.3-44.5 15.5-82.1 45.9-106.6 86.2 8.6 25.4 24.8 55.5 47.1 86.6 8.5-31.4 32.7-38 54.4-44 14.9-4.1 28.9-7.9 38.3-18.9zm-95.4 79.2c.1-.8.3-1.4.3-2.2-21-27.2-38.2-57.1-51.2-89-14.8 28.5-22.5 60.2-22.5 92.2v4c7.6-4.5 13.9-5.6 19.6-3.5 13.1 4.9 16.2 25 19.3 44.4 1.7 10.4 3.6 23.2 7 26.2s5.4 2.1 6.2 1.8c2.6-.9 15.9-9.7 21.3-73.9zM178.1 125c-24-5.9-42.5-3.7-52.6 6.4-10.5 10.7-12.2 29.3-6.5 52.6 15.6-23.3 35.7-43.4 59.1-59zm274.3 257.9c-1.3 4.4-3.1 8.4-5.3 12-7.9 1.4-16 2.5-28.8 4.5-42.1 6.7-84.8 10-127.4 10.3-2.4-1.9-4.7-3.8-7.1-5.7 2-1.6 4-3.3 5.9-5 18.4-.2 36.8-.9 55.2-2.1 39.5-2.8 72-5.6 107.5-14z"/><path class="st1" d="M381.2 108l-11.3-4.7c3.8 1.4 7.6 3 11.3 4.7zM277.7 399h12c-2 1.7-4 3.3-5.9 5-2.1-1.7-4.1-3.4-6.1-5z"/><path class="st1" d="M290.8 409.6h-14l6.9-5.7c2.4 2 4.7 3.8 7.1 5.7zm-7.1-5.7l-6.9 5.7h-2.1c-2.3-1.9-4.5-3.8-6.8-5.7 2-1.6 4.1-3.2 6.1-4.9h3.7c2 1.6 4 3.3 6 4.9zm-6-4.9H274c.6-.5 1.3-1 1.9-1.5l1.8 1.5zm-.9 10.6c-.3.3-.7.5-1 .8-.3-.3-.7-.5-1-.8h2zm-2.1 0c.3.3.7.6 1 .8-26.1 21.1-53.7 40.4-83 56.4l-4.9-8.7c21.9-12 42.8-25.9 62.8-40.9 3.4-2.6 6.9-5.2 10.3-7.8 4.6.1 9.2.1 13.8.2z"/><path class="st1" d="M274 399c-2 1.6-4.1 3.3-6.1 4.9-2-1.7-3.9-3.4-5.9-5.1 4 .1 8 .1 12 .2zm-6.1 4.9c2.3 1.9 4.5 3.9 6.8 5.7-4.6 0-9.2-.1-13.8-.2 2.3-1.9 4.7-3.7 7-5.5z"/><path class="st1" d="M262 398.8c2 1.7 3.9 3.4 5.9 5.1-2.3 1.9-4.6 3.7-7 5.5-5-.1-10-.3-15.1-.5-43.4-1.7-87.1-6.1-129.5-15.9-2.1-4.1-4.1-8.2-5.9-12.5 21.3 5.3 42.9 9 64.6 11.9 28.9 3.7 57.9 5.8 87 6.4zm-74.3 59.4l5 8.6c-2.1 1.1-4.1 2.2-6.2 3.3-3.2-2-6.3-4.1-9.3-6.3 3.5-1.9 7-3.7 10.5-5.6z"/><path class="st1" d="M186.5 470c-3.4 1.8-6.8 3.5-10.3 5.1-3.1-2.1-6.2-4.3-9.2-6.6 3.4-1.5 6.8-3.2 10.2-4.9 3 2.3 6.2 4.4 9.3 6.4z"/><path class="st1" d="M116.4 393c14.7 28.5 35.7 52.5 60.8 70.7-3.4 1.7-6.8 3.3-10.2 4.9-27.9-21.2-49.2-48.4-63.3-78.7 4.2 1.1 8.5 2.1 12.7 3.1z"/><path class="st1" d="M92.3 477.4c-.1-.1-.1-.1 0 0 .4.2.8.6 1.3.8.9.6 1.8 1.1 2.8 1.6 1.6.7 1.3.6 2.7 1.1 1.1.4 2.3.7 3.5 1 5 1.3 10.3 1.5 16.1 1 6.6-.5 13.2-1.9 19.6-3.7 9.9-2.7 19.4-6.4 28.8-10.6 3 2.3 6.1 4.5 9.2 6.6-13.6 6.5-27.8 12.1-42.5 15.4-12.5 2.8-26.5 4.3-38.7-.4-10.7-4.2-18.3-12.8-21.2-23.9-3.5-13.3-1.2-27.7 2.3-40.7 5-18.5 6.1-22.3 15.2-39.1 1.1.3 2.3.7 3.4 1 2 .6 4 1.1 6.1 1.6.1 0 .3.1.4.1-9.4 17.3-11.8 23.9-16.4 43.2-1.5 6.3-2.5 12.3-2.6 18.7-.1 5.7.3 9.8 2.2 15.2.5 1.5.2 1 1.1 2.7.5 1 1.1 1.9 1.7 2.9.2.2 1 1.4.9 1.2.2.3.5.7.8 1 .8.9 1.5 1.6 2.4 2.4.1.1.6.5.8.7l-.1-.1c.1.2.1.2.2.3zm18.2-96.9c1.8 4.2 3.8 8.4 5.9 12.5-4.2-1-8.4-2-12.7-3.1-1.9-4.1-3.7-8.3-5.3-12.5 4 1.1 8 2.1 12.1 3.1z"/><path class="st1" d="M98.4 377.4c1.6 4.2 3.4 8.4 5.3 12.5-.8-.2-1.7-.4-2.5-.7-.1 0-.3-.1-.4-.1l-6.1-1.7 2.6-10.4c.4.2.7.3 1.1.4zm-3.7 10.1l6.1 1.7c-2-.6-4-1.2-6.1-1.7z"/><path class="st1" d="M10.9 321.5l.3 1.5c.2 1.1.5 2.2.9 3.2.7 1.8.5 1.4 1.2 2.8.6 1.1 1.2 2.2 1.9 3.3 2.9 4.7 6.8 8.7 11.5 12.6 5.4 4.4 11.4 8.2 17.6 11.6 16.7 9.2 34.7 15.4 53 20.5l-2.6 10.4-3.4-1c-20.4-5.9-40.9-12.9-58.9-24.1-11.4-7-23.2-16.3-28.9-28.8-5-11.1-4.4-23.2 1.6-33.8 7.1-12.7 19.6-21.9 31.9-29.2 17.5-10.4 34.3-16.9 53.7-23v.1c-1 4-1.9 8-2.7 12-20 6.3-31.7 11.2-49.5 22.5-5.8 3.6-10.9 7.5-15.8 12.3-4.3 4.2-7.1 7.6-9.6 13.1-.7 1.5-.5.9-1.1 2.8-.4 1.2-.6 2.3-.9 3.5 0 .2-.2 1.3-.2 1.5v-.3.3c0 .5-.1.9-.1 1.4-.1 1.2-.1 2.3 0 3.5 0 .4.2 1.7.1 1.3zm83.8-4.9v.1c-.1 0-.1.1-.2.2l.2-.3zm0 70.9c-1.1-.3-2.3-.6-3.4-1l3.4 1zm-2.5 89.8c.1.1 0 0-.2-.1.1 0 .1 0 .2.1z"/><path class="st1" d="M90.7 247.7l-2.7 12c.7-4 1.6-8 2.7-12zm-79.9 67.4z"/></g></svg>